M48
; DRILL file KiCad 10.0.1-10.0.1~ubuntu24.04.1 date 2026-04-20T12:01:36
; FORMAT={-:-/ absolute / metric / decimal}
; #@! TF.CreationDate,2026-04-20T12:01:36+02:00
; #@! TF.GenerationSoftware,Kicad,Pcbnew,10.0.1-10.0.1~ubuntu24.04.1
; #@! TF.FileFunction,Plated,1,6,PTH
FMAT,2
METRIC
; #@! TA.AperFunction,Plated,PTH,ViaDrill
T1C0.200
; #@! TA.AperFunction,Plated,PTH,ViaDrill
T2C0.300
%
G90
G05
T1
X95.59Y-86.97
X96.315Y-87.685
X96.32Y-83.28
X96.32Y-84.38
X96.32Y-89.9
X96.32Y-90.99
X96.34Y-88.79
X96.37Y-85.49
X96.66Y-94.87
X97.64Y-82.2
X97.66Y-87.59
X97.81Y-84.9
X97.81Y-91.51
X97.815Y-99.96
X98.395Y-102.06
X98.629Y-88.162
X101.165Y-101.66
X101.22Y-106.83
X101.258Y-103.054
X101.715Y-99.47
X102.33Y-104.59
X102.53Y-99.78
X102.72Y-104.15
X102.72Y-105.006
X102.72Y-105.553
X103.06Y-107.87
X103.32Y-101.41
X103.641Y-102.87
X104.09Y-76.07
X104.33Y-105.86
X104.344Y-104.7
X104.47Y-99.09
X105.027Y-101.957
X105.06Y-95.08
X105.06Y-98.14
X105.097Y-82.125
X105.33Y-105.86
X105.349Y-104.7
X105.531Y-107.39
X105.58Y-102.0
X105.81Y-110.71
X105.964Y-97.04
X106.13Y-107.394
X106.33Y-105.86
X106.353Y-104.7
X106.5Y-75.15
X106.588Y-99.926
X106.95Y-93.66
X107.367Y-107.31
X107.455Y-102.705
X107.463Y-100.541
X107.56Y-86.87
X107.85Y-96.2
X107.87Y-101.59
X108.0Y-104.62
X108.14Y-89.14
X108.245Y-109.805
X108.25Y-108.35
X108.26Y-111.05
X108.392Y-110.433
X108.45Y-105.828
X108.68Y-92.82
X108.768Y-97.97
X108.771Y-98.52
X108.83Y-100.252
X109.016Y-102.99
X109.09Y-90.45
X109.627Y-107.01
X109.67Y-94.38
X109.71Y-95.06
X109.748Y-90.699
X109.789Y-106.47
X109.792Y-103.032
X109.8Y-98.238
X109.926Y-102.003
X110.02Y-111.3
X110.04Y-74.63
X110.04Y-77.71
X110.065Y-97.743
X110.093Y-96.94
X110.12Y-107.99
X110.16Y-100.34
X110.175Y-105.868
X110.313Y-103.06
X110.334Y-110.026
X110.365Y-92.71
X110.372Y-95.83
X110.486Y-95.074
X110.595Y-93.178
X110.604Y-109.58
X110.761Y-102.412
X110.895Y-94.073
X111.01Y-85.31
X111.123Y-109.445
X111.25Y-101.47
X111.262Y-96.865
X111.27Y-86.3
X111.33Y-96.1
X111.37Y-76.16
X111.463Y-101.992
X111.55Y-102.79
X111.6Y-85.33
X111.71Y-109.26
X111.72Y-94.17
X111.81Y-86.32
X111.93Y-103.17
X112.0Y-88.12
X112.1Y-83.38
X112.2Y-92.53
X112.25Y-99.053
X112.48Y-111.265
X112.54Y-108.67
X112.564Y-97.066
X112.611Y-94.725
X112.81Y-95.46
X112.867Y-110.908
X112.97Y-109.908
X113.065Y-94.983
X113.066Y-109.09
X113.387Y-75.387
X113.408Y-88.918
X113.408Y-91.227
X113.428Y-102.59
X113.531Y-100.107
X113.604Y-95.336
X113.61Y-101.05
X113.61Y-109.86
X113.639Y-93.846
X113.773Y-75.773
X113.825Y-77.1
X114.009Y-96.276
X114.015Y-97.511
X114.055Y-80.92
X114.18Y-95.31
X114.228Y-103.11
X114.28Y-78.25
X114.3Y-108.4
X114.321Y-93.825
X114.335Y-79.57
X114.4Y-101.654
X114.471Y-94.659
X114.54Y-109.67
X114.57Y-82.09
X114.578Y-89.924
X114.629Y-92.326
X114.644Y-73.22
X114.652Y-96.733
X114.68Y-85.95
X114.69Y-75.91
X114.7Y-74.58
X114.72Y-93.375
X114.756Y-91.82
X114.836Y-97.896
X114.862Y-93.907
X114.906Y-81.565
X114.953Y-94.46
X114.983Y-79.333
X115.046Y-77.9
X115.159Y-89.942
X115.36Y-88.666
X115.36Y-86.48
X115.441Y-91.063
X115.475Y-94.344
X115.478Y-91.905
X115.5Y-108.4
X115.5Y-109.98
X115.504Y-73.37
X115.522Y-93.42
X115.565Y-82.68
X115.593Y-77.9
X115.614Y-97.139
X115.617Y-103.683
X115.795Y-80.37
X115.883Y-87.325
X115.905Y-95.0
X115.94Y-100.15
X115.957Y-109.701
X115.96Y-96.02
X115.995Y-84.77
X116.065Y-83.09
X116.1Y-77.39
X116.133Y-103.606
X116.18Y-106.31
X116.183Y-104.126
X116.265Y-84.3
X116.271Y-96.735
X116.277Y-99.719
X116.279Y-94.253
X116.321Y-99.199
X116.385Y-92.69
X116.386Y-91.936
X116.42Y-103.171
X116.438Y-89.493
X116.449Y-109.875
X116.46Y-96.249
X116.473Y-104.559
X116.497Y-88.533
X116.567Y-90.057
X116.602Y-106.67
X116.69Y-77.1
X116.7Y-108.34
X116.71Y-74.396
X116.777Y-75.518
X116.808Y-99.011
X116.85Y-101.62
X116.85Y-102.05
X116.85Y-102.48
X116.873Y-90.963
X116.952Y-104.352
X116.966Y-94.866
X117.075Y-100.739
X117.094Y-99.904
X117.109Y-109.439
X117.12Y-92.011
X117.127Y-96.584
X117.153Y-103.307
X117.222Y-106.682
X117.24Y-93.334
X117.25Y-85.97
X117.44Y-75.672
X117.49Y-94.377
X117.514Y-89.404
X117.559Y-99.262
X117.63Y-102.1
X117.645Y-78.918
X117.674Y-102.766
X117.72Y-96.32
X117.738Y-79.836
X117.775Y-92.345
X117.78Y-91.635
X118.014Y-108.452
X118.08Y-103.56
X118.187Y-92.025
X118.28Y-94.2
X118.305Y-89.628
X118.335Y-99.682
X118.48Y-96.07
X118.537Y-103.185
X118.54Y-81.815
X118.62Y-91.67
X118.69Y-88.27
X118.7Y-111.242
X118.72Y-98.175
X118.785Y-93.741
X118.808Y-108.447
X118.929Y-91.235
X118.961Y-93.121
X119.01Y-103.41
X119.05Y-100.85
X119.11Y-99.72
X119.12Y-95.38
X119.12Y-94.9
X119.281Y-101.368
X119.308Y-108.664
X119.317Y-106.339
X119.371Y-96.928
X119.432Y-104.479
X119.481Y-80.032
X119.525Y-94.365
X119.555Y-96.005
X119.599Y-96.46
X119.724Y-92.613
X119.805Y-90.035
X119.81Y-108.447
X119.9Y-111.242
X119.909Y-104.225
X119.919Y-100.393
X119.95Y-89.33
X120.035Y-93.346
X120.135Y-91.337
X120.202Y-97.493
X120.299Y-109.435
X120.32Y-100.011
X120.392Y-92.088
X120.42Y-108.42
X120.47Y-106.78
X120.48Y-81.1
X120.485Y-97.931
X120.49Y-104.01
X120.65Y-95.69
X120.699Y-97.118
X120.7Y-111.242
X120.72Y-96.293
X120.79Y-102.375
X120.795Y-93.893
X120.836Y-100.854
X120.86Y-82.14
X120.86Y-83.05
X120.876Y-91.265
X120.96Y-108.5
X121.002Y-93.167
X121.026Y-86.086
X121.028Y-100.369
X121.113Y-110.021
X121.13Y-99.115
X121.187Y-94.263
X121.232Y-99.888
X121.25Y-101.171
X121.281Y-95.681
X121.359Y-83.991
X121.51Y-88.41
X121.52Y-103.51
X121.61Y-108.45
X121.63Y-96.29
X121.638Y-98.997
X121.68Y-93.73
X121.731Y-109.872
X121.749Y-105.038
X121.801Y-92.73
X121.82Y-82.16
X121.892Y-91.811
X121.92Y-106.047
X122.01Y-90.25
X122.01Y-103.51
X122.039Y-99.33
X122.05Y-111.21
X122.13Y-85.88
X122.14Y-108.44
X122.161Y-92.286
X122.302Y-110.055
X122.33Y-95.52
X122.332Y-100.065
X122.385Y-88.936
X122.401Y-98.952
X122.449Y-91.788
X122.472Y-94.983
X122.48Y-93.79
X122.623Y-102.74
X122.671Y-91.074
X122.68Y-97.44
X122.69Y-86.0
X122.697Y-92.701
X122.7Y-111.242
X122.703Y-101.026
X122.719Y-74.376
X122.72Y-98.175
X122.72Y-96.575
X122.805Y-105.141
X122.91Y-83.99
X122.92Y-95.4
X122.96Y-94.7
X123.014Y-74.806
X123.023Y-108.446
X123.031Y-93.776
X123.128Y-98.5
X123.25Y-88.55
X123.27Y-91.67
X123.316Y-105.246
X123.349Y-92.518
X123.35Y-96.324
X123.507Y-94.275
X123.52Y-100.011
X123.55Y-85.87
X123.57Y-108.44
X123.57Y-109.0
X123.58Y-74.8
X123.594Y-102.63
X123.599Y-97.524
X123.77Y-91.364
X123.9Y-74.38
X123.948Y-84.879
X123.969Y-92.504
X123.99Y-104.14
X124.1Y-94.78
X124.168Y-96.225
X124.212Y-74.8
X124.218Y-99.905
X124.224Y-97.78
X124.238Y-98.776
X124.313Y-91.123
X124.328Y-101.574
X124.402Y-98.281
X124.42Y-108.42
X124.42Y-109.86
X124.43Y-106.047
X124.443Y-83.99
X124.447Y-101.06
X124.5Y-84.89
X124.568Y-100.305
X124.66Y-103.6
X124.7Y-111.242
X124.72Y-96.33
X124.788Y-74.8
X124.95Y-93.95
X125.0Y-89.04
X125.055Y-106.524
X125.06Y-91.07
X125.09Y-84.339
X125.1Y-74.38
X125.104Y-109.144
X125.128Y-103.869
X125.156Y-92.699
X125.185Y-105.111
X125.191Y-77.174
X125.322Y-108.484
X125.411Y-74.8
X125.457Y-95.151
X125.65Y-90.9
X125.688Y-92.841
X125.76Y-103.44
X125.813Y-97.392
X125.823Y-89.518
X125.9Y-108.36
X125.9Y-110.03
X125.988Y-74.8
X126.146Y-103.86
X126.19Y-89.97
X126.233Y-104.61
X126.3Y-74.38
X126.315Y-77.13
X126.538Y-94.146
X126.575Y-105.213
X126.61Y-95.08
X126.611Y-74.8
X126.83Y-97.43
X126.94Y-95.51
X126.956Y-91.167
X127.1Y-110.01
X127.11Y-108.36
X127.14Y-105.08
X127.188Y-74.8
X127.27Y-103.51
X127.36Y-97.61
X127.5Y-74.38
X127.5Y-77.13
X127.536Y-85.205
X127.776Y-103.637
X127.811Y-74.8
X127.96Y-99.881
X128.042Y-98.259
X128.046Y-100.426
X128.107Y-89.596
X128.26Y-99.13
X128.3Y-109.99
X128.388Y-74.8
X128.5Y-93.59
X128.69Y-77.13
X128.7Y-74.38
X128.7Y-108.36
X128.894Y-106.942
X129.011Y-74.8
X129.32Y-104.48
X129.588Y-74.8
X129.74Y-99.19
X129.836Y-101.414
X129.9Y-74.38
X129.9Y-76.06
X129.981Y-84.432
X130.0Y-103.965
X130.212Y-74.83
X130.241Y-95.795
X130.395Y-84.062
X130.61Y-104.1
X130.67Y-96.1
X130.788Y-74.83
X130.937Y-84.045
X131.09Y-74.38
X131.1Y-76.06
X131.11Y-98.19
X131.214Y-95.284
X131.27Y-98.82
X131.411Y-74.82
X131.45Y-100.09
X131.5Y-111.33
X131.921Y-85.335
X131.988Y-74.82
X132.12Y-101.15
X132.29Y-74.38
X132.29Y-76.06
X132.35Y-98.37
X132.42Y-96.861
X132.5Y-107.1
X132.54Y-99.979
X132.54Y-109.18
X132.56Y-85.87
X132.85Y-82.47
X132.997Y-87.953
X133.017Y-81.876
X133.052Y-96.686
X133.11Y-109.28
X133.31Y-95.59
X133.485Y-76.053
X133.49Y-96.3
X133.496Y-73.37
X133.82Y-98.7
X133.845Y-95.694
X134.15Y-100.79
X134.174Y-97.03
X134.37Y-76.05
X134.51Y-97.97
X134.55Y-100.25
X134.567Y-101.277
X134.716Y-73.884
X134.74Y-85.92
X134.85Y-96.42
X134.88Y-111.73
X134.89Y-99.54
X135.01Y-84.12
X135.109Y-97.559
X135.21Y-93.855
X135.25Y-82.15
X135.252Y-79.641
X135.314Y-74.05
X135.7Y-101.24
X135.77Y-100.42
X135.78Y-98.8
X136.08Y-91.855
X136.097Y-73.19
X136.346Y-103.087
X136.56Y-82.88
X136.73Y-100.71
X136.753Y-102.762
X136.79Y-96.18
X136.984Y-102.294
X137.23Y-95.78
X137.23Y-96.54
X137.25Y-84.518
X137.25Y-95.007
X137.254Y-77.86
X137.26Y-85.04
X137.435Y-85.73
X137.514Y-76.55
X137.645Y-95.348
X137.78Y-83.24
X137.81Y-85.31
X138.14Y-84.04
X138.219Y-94.73
X138.414Y-77.25
X138.814Y-74.8
X138.814Y-93.08
X138.92Y-77.97
X138.947Y-73.19
X139.166Y-94.724
X139.167Y-86.635
X139.167Y-87.385
X139.167Y-88.135
X139.167Y-88.917
X139.167Y-89.665
X139.167Y-90.385
X139.303Y-76.505
X139.336Y-93.091
X139.857Y-93.075
X139.928Y-87.385
X139.93Y-74.16
X139.932Y-88.135
X139.932Y-88.917
X139.932Y-89.665
X139.932Y-90.385
X139.949Y-86.635
X140.392Y-93.071
X140.65Y-79.16
X140.656Y-80.605
X140.689Y-87.385
X140.696Y-88.135
X140.696Y-88.917
X140.696Y-89.665
X140.696Y-90.385
X140.704Y-86.635
X140.855Y-94.675
X141.06Y-81.19
X141.449Y-87.385
X141.459Y-86.635
X141.461Y-88.135
X141.461Y-88.917
X141.461Y-89.665
X141.461Y-90.385
X142.209Y-87.385
X142.215Y-86.635
X142.225Y-88.135
X142.225Y-88.917
X142.225Y-89.665
X142.225Y-90.385
X142.51Y-79.06
X142.55Y-91.49
X142.97Y-86.635
X142.97Y-87.385
X142.99Y-88.135
X142.99Y-88.917
X142.99Y-89.665
X142.99Y-90.385
X143.95Y-87.8
X144.21Y-84.54
X144.79Y-87.53
X144.79Y-88.56
X144.8Y-86.42
X144.8Y-83.43
X145.12Y-89.94
X145.54Y-87.43
X145.54Y-88.12
X145.55Y-84.42
X145.63Y-91.03
X145.87Y-92.55
X146.03Y-85.95
X146.03Y-89.39
T2
X101.78Y-108.39
X103.33Y-107.3
X103.33Y-108.83
X113.417Y-107.816
X113.48Y-73.97
X117.9Y-74.45
X117.9Y-76.04
X118.39Y-100.77
X119.1Y-74.45
X119.1Y-76.04
X119.12Y-100.293
X119.576Y-103.418
X120.135Y-103.418
X120.3Y-74.56
X120.3Y-76.04
X121.5Y-76.04
X121.54Y-73.236
X124.27Y-81.39
X124.27Y-82.18
X125.056Y-81.39
X125.056Y-82.18
X125.843Y-81.39
X125.843Y-82.18
X126.629Y-81.39
X126.629Y-82.18
X127.415Y-81.39
X127.415Y-82.18
X128.201Y-81.39
X128.201Y-82.18
X128.987Y-81.38
X128.987Y-82.17
X129.68Y-110.09
X129.774Y-81.38
X129.774Y-82.17
X130.25Y-110.08
X130.56Y-81.38
X130.56Y-82.17
X130.71Y-108.36
X130.8Y-107.08
X130.8Y-110.08
X131.35Y-110.08
X131.69Y-108.31
X131.71Y-107.01
X131.994Y-83.949
X132.1Y-111.12
X132.85Y-84.22
X132.85Y-90.41
X132.98Y-91.81
X133.5Y-107.2
X133.912Y-87.28
X133.953Y-90.47
X134.36Y-111.07
X134.375Y-107.2
X134.57Y-88.96
X134.624Y-79.22
X135.58Y-79.18
X136.848Y-109.03
X136.848Y-109.7
X136.848Y-110.37
X136.848Y-111.04
X137.064Y-82.465
X137.08Y-93.895
X137.57Y-79.7
X137.591Y-109.03
X137.591Y-109.7
X137.591Y-110.37
X137.591Y-111.04
X137.637Y-81.265
X138.23Y-98.47
X138.23Y-99.07
X138.338Y-109.029
X138.338Y-109.699
X138.338Y-110.369
X138.338Y-111.039
X138.797Y-98.47
X138.797Y-99.07
X138.91Y-81.27
X139.081Y-109.029
X139.081Y-109.699
X139.081Y-110.369
X139.081Y-111.039
X139.24Y-79.68
X139.899Y-105.44
X139.899Y-107.0
X139.927Y-104.16
X139.997Y-98.47
X139.997Y-99.07
X140.016Y-111.644
X140.046Y-101.394
X140.18Y-79.65
X140.469Y-105.44
X140.47Y-107.0
X140.554Y-102.536
X140.554Y-104.16
X140.643Y-111.644
X140.999Y-105.44
X141.0Y-107.0
X141.18Y-102.536
X141.18Y-104.16
X141.207Y-100.26
X141.207Y-101.8
X141.269Y-111.644
X141.807Y-102.536
X141.807Y-104.16
X141.896Y-111.644
X142.34Y-80.54
X143.78Y-79.94
X144.467Y-99.02
X144.467Y-99.69
X144.467Y-100.36
X144.467Y-101.03
X144.467Y-101.7
X144.467Y-102.37
X144.467Y-103.04
X144.85Y-79.93
X145.14Y-93.83
X145.21Y-99.02
X145.21Y-99.69
X145.21Y-100.36
X145.21Y-101.03
X145.21Y-101.7
X145.21Y-102.37
X145.21Y-103.04
X145.27Y-81.36
X147.5Y-84.43
X147.5Y-88.41
M30
