%TF.GenerationSoftware,KiCad,Pcbnew,10.0.4-10.0.4~ubuntu24.04.1*%
%TF.CreationDate,2026-07-10T08:37:18+02:00*%
%TF.ProjectId,BB3plus CM5 STM32H7 module,42423370-6c75-4732-9043-4d352053544d,r1B5*%
%TF.SameCoordinates,Original*%
%TF.FileFunction,Soldermask,Top*%
%TF.FilePolarity,Negative*%
%FSLAX46Y46*%
G04 Gerber Fmt 4.6, Leading zero omitted, Abs format (unit mm)*
G04 Created by KiCad (PCBNEW 10.0.4-10.0.4~ubuntu24.04.1) date 2026-07-10 08:37:18*
%MOMM*%
%LPD*%
G01*
G04 APERTURE LIST*
G04 Aperture macros list*
%AMRoundRect*
0 Rectangle with rounded corners*
0 $1 Rounding radius*
0 $2 $3 $4 $5 $6 $7 $8 $9 X,Y pos of 4 corners*
0 Add a 4 corners polygon primitive as box body*
4,1,4,$2,$3,$4,$5,$6,$7,$8,$9,$2,$3,0*
0 Add four circle primitives for the rounded corners*
1,1,$1+$1,$2,$3*
1,1,$1+$1,$4,$5*
1,1,$1+$1,$6,$7*
1,1,$1+$1,$8,$9*
0 Add four rect primitives between the rounded corners*
20,1,$1+$1,$2,$3,$4,$5,0*
20,1,$1+$1,$4,$5,$6,$7,0*
20,1,$1+$1,$6,$7,$8,$9,0*
20,1,$1+$1,$8,$9,$2,$3,0*%
G04 Aperture macros list end*
%ADD10C,0.000000*%
%ADD11C,0.010000*%
%ADD12R,0.508000X0.406400*%
%ADD13RoundRect,0.135000X0.135000X0.185000X-0.135000X0.185000X-0.135000X-0.185000X0.135000X-0.185000X0*%
%ADD14RoundRect,0.225000X-0.250000X0.225000X-0.250000X-0.225000X0.250000X-0.225000X0.250000X0.225000X0*%
%ADD15RoundRect,0.114300X0.499200X-0.449200X0.499200X0.449200X-0.499200X0.449200X-0.499200X-0.449200X0*%
%ADD16RoundRect,0.135000X-0.135000X-0.185000X0.135000X-0.185000X0.135000X0.185000X-0.135000X0.185000X0*%
%ADD17RoundRect,0.140000X-0.140000X-0.170000X0.140000X-0.170000X0.140000X0.170000X-0.140000X0.170000X0*%
%ADD18RoundRect,0.135000X-0.185000X0.135000X-0.185000X-0.135000X0.185000X-0.135000X0.185000X0.135000X0*%
%ADD19RoundRect,0.140000X-0.170000X0.140000X-0.170000X-0.140000X0.170000X-0.140000X0.170000X0.140000X0*%
%ADD20RoundRect,0.140000X0.140000X0.170000X-0.140000X0.170000X-0.140000X-0.170000X0.140000X-0.170000X0*%
%ADD21C,1.500000*%
%ADD22C,0.355600*%
%ADD23RoundRect,0.225000X0.250000X-0.225000X0.250000X0.225000X-0.250000X0.225000X-0.250000X-0.225000X0*%
%ADD24R,0.228600X1.143000*%
%ADD25R,1.143000X0.228600*%
%ADD26R,5.000000X5.000000*%
%ADD27RoundRect,0.140000X0.170000X-0.140000X0.170000X0.140000X-0.170000X0.140000X-0.170000X-0.140000X0*%
%ADD28R,0.762000X0.203200*%
%ADD29R,0.203200X0.762000*%
%ADD30R,0.300000X0.850000*%
%ADD31R,0.850000X0.300000*%
%ADD32RoundRect,0.135000X0.185000X-0.135000X0.185000X0.135000X-0.185000X0.135000X-0.185000X-0.135000X0*%
%ADD33RoundRect,0.114300X-0.499200X0.299200X-0.499200X-0.299200X0.499200X-0.299200X0.499200X0.299200X0*%
%ADD34RoundRect,0.114300X-1.424200X0.299200X-1.424200X-0.299200X1.424200X-0.299200X1.424200X0.299200X0*%
%ADD35RoundRect,0.114300X-0.864200X0.519200X-0.864200X-0.519200X0.864200X-0.519200X0.864200X0.519200X0*%
%ADD36RoundRect,0.114300X-1.174200X0.379200X-1.174200X-0.379200X1.174200X-0.379200X1.174200X0.379200X0*%
%ADD37RoundRect,0.114300X-1.614200X0.299200X-1.614200X-0.299200X1.614200X-0.299200X1.614200X0.299200X0*%
%ADD38RoundRect,0.114300X-0.399200X0.399200X-0.399200X-0.399200X0.399200X-0.399200X0.399200X0.399200X0*%
%ADD39RoundRect,0.114300X-0.339200X0.474200X-0.339200X-0.474200X0.339200X-0.474200X0.339200X0.474200X0*%
%ADD40RoundRect,0.127000X0.901700X0.520700X-0.901700X0.520700X-0.901700X-0.520700X0.901700X-0.520700X0*%
%ADD41RoundRect,0.127000X1.536700X2.489200X-1.536700X2.489200X-1.536700X-2.489200X1.536700X-2.489200X0*%
%ADD42RoundRect,0.127000X-0.901700X-0.520700X0.901700X-0.520700X0.901700X0.520700X-0.901700X0.520700X0*%
%ADD43RoundRect,0.127000X-1.536700X-2.489200X1.536700X-2.489200X1.536700X2.489200X-1.536700X2.489200X0*%
%ADD44RoundRect,0.114300X0.199200X0.449200X-0.199200X0.449200X-0.199200X-0.449200X0.199200X-0.449200X0*%
%ADD45C,6.100000*%
%ADD46RoundRect,0.225000X0.225000X0.250000X-0.225000X0.250000X-0.225000X-0.250000X0.225000X-0.250000X0*%
%ADD47C,2.387600*%
%ADD48C,0.990600*%
%ADD49RoundRect,0.457200X0.000010X0.000010X-0.000010X0.000010X-0.000010X-0.000010X0.000010X-0.000010X0*%
%ADD50RoundRect,0.114300X-0.685800X-0.228600X0.685800X-0.228600X0.685800X0.228600X-0.685800X0.228600X0*%
%ADD51RoundRect,0.114300X-0.499200X0.449200X-0.499200X-0.449200X0.499200X-0.449200X0.499200X0.449200X0*%
%ADD52RoundRect,0.114300X-0.076200X-0.381000X0.076200X-0.381000X0.076200X0.381000X-0.076200X0.381000X0*%
%ADD53RoundRect,0.114300X-0.381000X0.076200X-0.381000X-0.076200X0.381000X-0.076200X0.381000X0.076200X0*%
%ADD54RoundRect,0.114300X1.244600X-1.244600X1.244600X1.244600X-1.244600X1.244600X-1.244600X-1.244600X0*%
G04 APERTURE END LIST*
D10*
%TO.C,IC9*%
G36*
X131248500Y-81186300D02*
G01*
X123571500Y-81186300D01*
X123571500Y-80691500D01*
X131248500Y-80691500D01*
X131248500Y-81186300D01*
G37*
G36*
X131248500Y-81973700D02*
G01*
X123571500Y-81973700D01*
X123571500Y-81586300D01*
X131248500Y-81586300D01*
X131248500Y-81973700D01*
G37*
G36*
X124060400Y-82868500D02*
G01*
X123571500Y-82868500D01*
X123571500Y-80691500D01*
X124060400Y-80691500D01*
X124060400Y-82868500D01*
G37*
G36*
X131248500Y-82868500D02*
G01*
X123571500Y-82868500D01*
X123571500Y-82373700D01*
X131248500Y-82373700D01*
X131248500Y-82868500D01*
G37*
G36*
X124847800Y-82868500D02*
G01*
X124460400Y-82868500D01*
X124460400Y-80691500D01*
X124847800Y-80691500D01*
X124847800Y-82868500D01*
G37*
G36*
X125635200Y-82868500D02*
G01*
X125247800Y-82868500D01*
X125247800Y-80691500D01*
X125635200Y-80691500D01*
X125635200Y-82868500D01*
G37*
G36*
X126422600Y-82868500D02*
G01*
X126035200Y-82868500D01*
X126035200Y-80691500D01*
X126422600Y-80691500D01*
X126422600Y-82868500D01*
G37*
G36*
X127210000Y-82868500D02*
G01*
X126822600Y-82868500D01*
X126822600Y-80691500D01*
X127210000Y-80691500D01*
X127210000Y-82868500D01*
G37*
G36*
X127997400Y-82868500D02*
G01*
X127610000Y-82868500D01*
X127610000Y-80691500D01*
X127997400Y-80691500D01*
X127997400Y-82868500D01*
G37*
G36*
X128784800Y-82868500D02*
G01*
X128397400Y-82868500D01*
X128397400Y-80691500D01*
X128784800Y-80691500D01*
X128784800Y-82868500D01*
G37*
G36*
X129572200Y-82868500D02*
G01*
X129184800Y-82868500D01*
X129184800Y-80691500D01*
X129572200Y-80691500D01*
X129572200Y-82868500D01*
G37*
G36*
X130359600Y-82868500D02*
G01*
X129972200Y-82868500D01*
X129972200Y-80691500D01*
X130359600Y-80691500D01*
X130359600Y-82868500D01*
G37*
G36*
X131248500Y-82868500D02*
G01*
X130759600Y-82868500D01*
X130759600Y-80691500D01*
X131248500Y-80691500D01*
X131248500Y-82868500D01*
G37*
D11*
%TO.C,IC3*%
X114528359Y-74869999D02*
X115380000Y-74869999D01*
X115380000Y-75219951D01*
X114528359Y-75219951D01*
X114528359Y-74869999D01*
G36*
X115380000Y-75219951D02*
G01*
X114528359Y-75219951D01*
X114528359Y-74869999D01*
X115380000Y-74869999D01*
X115380000Y-75219951D01*
G37*
X114528454Y-75269999D02*
X115330000Y-75269999D01*
X115330000Y-75620681D01*
X114528454Y-75620681D01*
X114528454Y-75269999D01*
G36*
X115330000Y-75620681D02*
G01*
X114528454Y-75620681D01*
X114528454Y-75269999D01*
X115330000Y-75269999D01*
X115330000Y-75620681D01*
G37*
X114804996Y-74244999D02*
X115155000Y-74244999D01*
X115155000Y-74844996D01*
X114804996Y-74844996D01*
X114804996Y-74244999D01*
G36*
X115155000Y-74844996D02*
G01*
X114804996Y-74844996D01*
X114804996Y-74244999D01*
X115155000Y-74244999D01*
X115155000Y-74844996D01*
G37*
X115155000Y-76246639D02*
X114804056Y-76246639D01*
X114804056Y-75644999D01*
X115155000Y-75644999D01*
X115155000Y-76246639D01*
G36*
X115155000Y-76246639D02*
G01*
X114804056Y-76246639D01*
X114804056Y-75644999D01*
X115155000Y-75644999D01*
X115155000Y-76246639D01*
G37*
X115204791Y-74244999D02*
X115555000Y-74244999D01*
X115555000Y-74844521D01*
X115204791Y-74844521D01*
X115204791Y-74244999D01*
G36*
X115555000Y-74844521D02*
G01*
X115204791Y-74844521D01*
X115204791Y-74244999D01*
X115555000Y-74244999D01*
X115555000Y-74844521D01*
G37*
X115430049Y-75269999D02*
X116230000Y-75269999D01*
X116230000Y-75620366D01*
X115430049Y-75620366D01*
X115430049Y-75269999D01*
G36*
X116230000Y-75620366D02*
G01*
X115430049Y-75620366D01*
X115430049Y-75269999D01*
X116230000Y-75269999D01*
X116230000Y-75620366D01*
G37*
X115430059Y-74869999D02*
X116230000Y-74869999D01*
X116230000Y-75219969D01*
X115430059Y-75219969D01*
X115430059Y-74869999D01*
G36*
X116230000Y-75219969D02*
G01*
X115430059Y-75219969D01*
X115430059Y-74869999D01*
X116230000Y-74869999D01*
X116230000Y-75219969D01*
G37*
X115555000Y-76245459D02*
X115204920Y-76245459D01*
X115204920Y-75644999D01*
X115555000Y-75644999D01*
X115555000Y-76245459D01*
G36*
X115555000Y-76245459D02*
G01*
X115204920Y-76245459D01*
X115204920Y-75644999D01*
X115555000Y-75644999D01*
X115555000Y-76245459D01*
G37*
X115605022Y-74244999D02*
X115955000Y-74244999D01*
X115955000Y-74844959D01*
X115605022Y-74844959D01*
X115605022Y-74244999D01*
G36*
X115955000Y-74844959D02*
G01*
X115605022Y-74844959D01*
X115605022Y-74244999D01*
X115955000Y-74244999D01*
X115955000Y-74844959D01*
G37*
X115955000Y-76246189D02*
X115605268Y-76246189D01*
X115605268Y-75644999D01*
X115955000Y-75644999D01*
X115955000Y-76246189D01*
G36*
X115955000Y-76246189D02*
G01*
X115605268Y-76246189D01*
X115605268Y-75644999D01*
X115955000Y-75644999D01*
X115955000Y-76246189D01*
G37*
%TD*%
D12*
%TO.C,D1*%
X110180000Y-82771800D03*
X110180000Y-81070000D03*
%TD*%
D13*
%TO.C,R3*%
X111700000Y-96890000D03*
X110680000Y-96890000D03*
%TD*%
D14*
%TO.C,C52*%
X98410000Y-100130000D03*
X98410000Y-101680000D03*
%TD*%
D15*
%TO.C,FB4*%
X133840000Y-80930000D03*
X133840000Y-79230000D03*
%TD*%
D16*
%TO.C,R1*%
X111650000Y-74750000D03*
X112670000Y-74750000D03*
%TD*%
%TO.C,R5*%
X121750000Y-102010000D03*
X122770000Y-102010000D03*
%TD*%
D13*
%TO.C,R31*%
X134050000Y-85850000D03*
X133030000Y-85850000D03*
%TD*%
D17*
%TO.C,C8*%
X119940000Y-102020000D03*
X120900000Y-102020000D03*
%TD*%
D18*
%TO.C,R7*%
X108010000Y-100000000D03*
X108010000Y-101020000D03*
%TD*%
D19*
%TO.C,C69*%
X135640000Y-73180000D03*
X135640000Y-74140000D03*
%TD*%
D20*
%TO.C,C60*%
X134265300Y-87416801D03*
X133305300Y-87416801D03*
%TD*%
D21*
%TO.C,FM1*%
X95500000Y-79300000D03*
%TD*%
D22*
%TO.C,IC7*%
X135849994Y-98095000D03*
X135849994Y-99095000D03*
X135849994Y-100095000D03*
X135849994Y-101095000D03*
X134849996Y-97095000D03*
X134849996Y-98095000D03*
X134849996Y-99095000D03*
X134849996Y-100095000D03*
X134849996Y-101095000D03*
X133849998Y-97095000D03*
X133849998Y-98095000D03*
X133849998Y-99095000D03*
X133849998Y-100095000D03*
X133849998Y-101095000D03*
X132850000Y-97095000D03*
X132850000Y-98095000D03*
X132850000Y-99095000D03*
X132850000Y-100095000D03*
X132850000Y-101095000D03*
X131850002Y-97095000D03*
X131850002Y-98095000D03*
X131850002Y-99095000D03*
X131850002Y-100095000D03*
X131850002Y-101095000D03*
%TD*%
D17*
%TO.C,C46*%
X109127275Y-105567303D03*
X110087275Y-105567303D03*
%TD*%
D23*
%TO.C,C1*%
X139340000Y-100110000D03*
X139340000Y-98560000D03*
%TD*%
D19*
%TO.C,C72*%
X139357100Y-73180000D03*
X139357100Y-74140000D03*
%TD*%
D24*
%TO.C,IC8*%
X144840000Y-82493100D03*
X144340001Y-82493100D03*
X143840000Y-82493100D03*
X143340001Y-82493100D03*
X142839999Y-82493100D03*
X142340000Y-82493100D03*
X141840001Y-82493100D03*
X141340000Y-82493100D03*
X140840000Y-82493100D03*
X140339999Y-82493100D03*
X139840000Y-82493100D03*
X139340001Y-82493100D03*
X138839999Y-82493100D03*
X138340000Y-82493100D03*
X137839999Y-82493100D03*
X137340000Y-82493100D03*
D25*
X135413100Y-84420000D03*
X135413100Y-84919999D03*
X135413100Y-85420000D03*
X135413100Y-85919999D03*
X135413100Y-86420001D03*
X135413100Y-86920000D03*
X135413100Y-87419999D03*
X135413100Y-87920000D03*
X135413100Y-88420000D03*
X135413100Y-88920001D03*
X135413100Y-89420000D03*
X135413100Y-89919999D03*
X135413100Y-90420001D03*
X135413100Y-90920000D03*
X135413100Y-91420001D03*
X135413100Y-91920000D03*
D24*
X137340000Y-93846900D03*
X137839999Y-93846900D03*
X138340000Y-93846900D03*
X138839999Y-93846900D03*
X139340001Y-93846900D03*
X139840000Y-93846900D03*
X140339999Y-93846900D03*
X140840000Y-93846900D03*
X141340000Y-93846900D03*
X141840001Y-93846900D03*
X142340000Y-93846900D03*
X142839999Y-93846900D03*
X143340001Y-93846900D03*
X143840000Y-93846900D03*
X144340001Y-93846900D03*
X144840000Y-93846900D03*
D25*
X146766900Y-91920000D03*
X146766900Y-91420001D03*
X146766900Y-90920000D03*
X146766900Y-90420001D03*
X146766900Y-89919999D03*
X146766900Y-89420000D03*
X146766900Y-88920001D03*
X146766900Y-88420000D03*
X146766900Y-87920000D03*
X146766900Y-87419999D03*
X146766900Y-86920000D03*
X146766900Y-86420001D03*
X146766900Y-85919999D03*
X146766900Y-85420000D03*
X146766900Y-84919999D03*
X146766900Y-84420000D03*
D26*
X141090000Y-88170000D03*
%TD*%
D27*
%TO.C,C58*%
X144845300Y-81346801D03*
X144845300Y-80386801D03*
%TD*%
D28*
%TO.C,IC10*%
X136776100Y-74349999D03*
X136776100Y-74750001D03*
X136776100Y-75150000D03*
X136776100Y-75549999D03*
X136776100Y-75950001D03*
D29*
X137500000Y-76026300D03*
D28*
X138223900Y-75950001D03*
X138223900Y-75549999D03*
X138223900Y-75150000D03*
X138223900Y-74750001D03*
X138223900Y-74349999D03*
D29*
X137500000Y-74273700D03*
%TD*%
D14*
%TO.C,C2*%
X139347076Y-101520000D03*
X139347076Y-103070000D03*
%TD*%
D15*
%TO.C,FB3*%
X136420000Y-80920000D03*
X136420000Y-79220000D03*
%TD*%
D22*
%TO.C,IC11*%
X113350000Y-81897881D03*
X113350000Y-80897881D03*
X113350000Y-79897881D03*
X113350000Y-78897881D03*
X114349998Y-82897881D03*
X114349998Y-81897881D03*
X114349998Y-80897881D03*
X114349998Y-79897881D03*
X114349998Y-78897881D03*
X115349996Y-82897881D03*
X115349996Y-81897881D03*
X115349996Y-80897881D03*
X115349996Y-79897881D03*
X115349996Y-78897881D03*
X116349994Y-82897881D03*
X116349994Y-81897881D03*
X116349994Y-80897881D03*
X116349994Y-79897881D03*
X116349994Y-78897881D03*
X117349992Y-82897881D03*
X117349992Y-81897881D03*
X117349992Y-80897881D03*
X117349992Y-79897881D03*
X117349992Y-78897881D03*
%TD*%
D30*
%TO.C,IC9*%
X123410000Y-83505000D03*
X123909999Y-83505000D03*
X124410001Y-83505000D03*
X124910000Y-83505000D03*
X125409999Y-83505000D03*
X125910000Y-83505000D03*
X126409999Y-83505000D03*
X126910001Y-83505000D03*
X127410000Y-83505000D03*
X127909999Y-83505000D03*
X128410001Y-83505000D03*
X128910000Y-83505000D03*
X129410001Y-83505000D03*
X129910000Y-83505000D03*
X130409999Y-83505000D03*
X130910001Y-83505000D03*
X131410000Y-83505000D03*
D31*
X131885000Y-82530189D03*
X131885000Y-82030063D03*
X131885000Y-81529937D03*
X131885000Y-81029811D03*
D30*
X131410000Y-80055000D03*
X130910001Y-80055000D03*
X130409999Y-80055000D03*
X129910000Y-80055000D03*
X129410001Y-80055000D03*
X128910000Y-80055000D03*
X128410001Y-80055000D03*
X127909999Y-80055000D03*
X127410000Y-80055000D03*
X126910001Y-80055000D03*
X126409999Y-80055000D03*
X125910000Y-80055000D03*
X125409999Y-80055000D03*
X124910000Y-80055000D03*
X124410001Y-80055000D03*
X123909999Y-80055000D03*
X123410000Y-80055000D03*
D31*
X122935000Y-81029811D03*
X122935000Y-81529937D03*
X122935000Y-82030063D03*
X122935000Y-82530189D03*
%TD*%
D32*
%TO.C,R12*%
X103320700Y-101020000D03*
X103320700Y-100000000D03*
%TD*%
D33*
%TO.C,X4*%
X95600916Y-90985194D03*
X95600916Y-89885194D03*
X95600916Y-88785194D03*
X95600916Y-87685194D03*
X95600916Y-86585194D03*
X95600916Y-85485194D03*
X95600916Y-84385194D03*
X95600916Y-83285194D03*
D34*
X106665916Y-95085194D03*
D35*
X95615916Y-94865194D03*
D36*
X96275916Y-82205194D03*
D37*
X106865916Y-82125194D03*
D38*
X108080916Y-92775194D03*
D39*
X108140916Y-88510194D03*
%TD*%
D16*
%TO.C,R36*%
X139420000Y-75040000D03*
X140440000Y-75040000D03*
%TD*%
D20*
%TO.C,C68*%
X121820000Y-82580000D03*
X120860000Y-82580000D03*
%TD*%
%TO.C,C48*%
X107810700Y-108830000D03*
X106850700Y-108830000D03*
%TD*%
D13*
%TO.C,R24*%
X101890000Y-105490000D03*
X100870000Y-105490000D03*
%TD*%
D21*
%TO.C,FM3*%
X101500000Y-111000000D03*
%TD*%
D16*
%TO.C,R37*%
X139420000Y-75980000D03*
X140440000Y-75980000D03*
%TD*%
D40*
%TO.C,IC2*%
X140828280Y-110836240D03*
X140828280Y-108524840D03*
X140828280Y-106213440D03*
D41*
X135062480Y-108524840D03*
%TD*%
D23*
%TO.C,C51*%
X101716248Y-101500000D03*
X101716248Y-99950000D03*
%TD*%
D17*
%TO.C,C47*%
X106850700Y-107910000D03*
X107810700Y-107910000D03*
%TD*%
D42*
%TO.C,IC1*%
X141207076Y-98718600D03*
X141207076Y-101030000D03*
X141207076Y-103341400D03*
D43*
X146972876Y-101030000D03*
%TD*%
D21*
%TO.C,FM2*%
X142000000Y-73500000D03*
%TD*%
D19*
%TO.C,C49*%
X103840000Y-107870000D03*
X103840000Y-108830000D03*
%TD*%
D14*
%TO.C,C65*%
X133690000Y-82215000D03*
X133690000Y-83765000D03*
%TD*%
D21*
%TO.C,FM4*%
X147800000Y-105000000D03*
%TD*%
D16*
%TO.C,R11*%
X109120000Y-106500000D03*
X110140000Y-106500000D03*
%TD*%
D13*
%TO.C,R18*%
X106940000Y-110240000D03*
X105920000Y-110240000D03*
%TD*%
D20*
%TO.C,C59*%
X134000000Y-84926801D03*
X133040000Y-84926801D03*
%TD*%
%TO.C,C50*%
X102290000Y-102660000D03*
X101330000Y-102660000D03*
%TD*%
D44*
%TO.C,RN2*%
X111550000Y-99440000D03*
X110650000Y-99440000D03*
X109750000Y-99440000D03*
X108850000Y-99440000D03*
X108850000Y-101140000D03*
X109750000Y-101140000D03*
X110650000Y-101140000D03*
X111550000Y-101140000D03*
%TD*%
D20*
%TO.C,C67*%
X121820000Y-83500000D03*
X120860000Y-83500000D03*
%TD*%
D16*
%TO.C,R23*%
X100870000Y-106430000D03*
X101890000Y-106430000D03*
%TD*%
%TO.C,R22*%
X100870000Y-103610000D03*
X101890000Y-103610000D03*
%TD*%
%TO.C,R21*%
X100870000Y-104550000D03*
X101890000Y-104550000D03*
%TD*%
D32*
%TO.C,R30*%
X143770000Y-81390000D03*
X143770000Y-80370000D03*
%TD*%
D13*
%TO.C,R2*%
X111700000Y-97840000D03*
X110680000Y-97840000D03*
%TD*%
D45*
%TO.C,Module1*%
X97600000Y-108700000D03*
X145600000Y-108700000D03*
X97600000Y-75700000D03*
X145600000Y-75700000D03*
%TD*%
D46*
%TO.C,C4*%
X143965000Y-105200000D03*
X142415000Y-105200000D03*
%TD*%
D27*
%TO.C,C3*%
X142412960Y-111588145D03*
X142412960Y-110628145D03*
%TD*%
D47*
%TO.C,X3*%
X108370000Y-78876000D03*
D48*
X108370000Y-76336000D03*
D47*
X108370000Y-73796000D03*
X105195000Y-78876000D03*
X105195000Y-73796000D03*
D48*
X103290000Y-77352000D03*
X103290000Y-75320000D03*
D49*
X107100000Y-75701000D03*
X107100000Y-76971000D03*
X105830000Y-75701000D03*
X105830000Y-76971000D03*
X104560000Y-75701000D03*
X104560000Y-76971000D03*
%TD*%
D50*
%TO.C,IC4*%
X109380000Y-108600000D03*
X109380000Y-109550000D03*
X109380000Y-110500000D03*
X111767600Y-110500000D03*
X111767600Y-108600000D03*
%TD*%
D20*
%TO.C,C62*%
X134265300Y-90406801D03*
X133305300Y-90406801D03*
%TD*%
D18*
%TO.C,R17*%
X102260000Y-107340000D03*
X102260000Y-108360000D03*
%TD*%
D16*
%TO.C,R9*%
X109120000Y-104640000D03*
X110140000Y-104640000D03*
%TD*%
D51*
%TO.C,FB2*%
X100065492Y-99960000D03*
X100065492Y-101660000D03*
%TD*%
D52*
%TO.C,IC6*%
X104080000Y-106859300D03*
X104580000Y-106859300D03*
X105080000Y-106859300D03*
X105580000Y-106859300D03*
X106080000Y-106859300D03*
X106580000Y-106859300D03*
D53*
X107349300Y-106090000D03*
X107349300Y-105590000D03*
X107349300Y-105090000D03*
X107349300Y-104590000D03*
X107349300Y-104090000D03*
X107349300Y-103590000D03*
D52*
X106580000Y-102820700D03*
X106080000Y-102820700D03*
X105580000Y-102820700D03*
X105080000Y-102820700D03*
X104580000Y-102820700D03*
X104080000Y-102820700D03*
D53*
X103310700Y-103590000D03*
X103310700Y-104090000D03*
X103310700Y-104590000D03*
X103310700Y-105090000D03*
X103310700Y-105590000D03*
X103310700Y-106090000D03*
D54*
X105330000Y-104840000D03*
%TD*%
D18*
%TO.C,R29*%
X140184700Y-80070000D03*
X140184700Y-81090000D03*
%TD*%
D13*
%TO.C,R35*%
X115225227Y-84660000D03*
X114205227Y-84660000D03*
%TD*%
D23*
%TO.C,C64*%
X138070000Y-80765000D03*
X138070000Y-79215000D03*
%TD*%
D13*
%TO.C,R4*%
X111710000Y-95760000D03*
X110690000Y-95760000D03*
%TD*%
%TO.C,R8*%
X110140000Y-103700000D03*
X109120000Y-103700000D03*
%TD*%
D17*
%TO.C,C5*%
X113700000Y-73560000D03*
X114660000Y-73560000D03*
%TD*%
D44*
%TO.C,RN1*%
X106860000Y-99440000D03*
X105960000Y-99440000D03*
X105060000Y-99440000D03*
X104160000Y-99440000D03*
X104160000Y-101140000D03*
X105060000Y-101140000D03*
X105960000Y-101140000D03*
X106860000Y-101140000D03*
%TD*%
D27*
%TO.C,C61*%
X139260000Y-81040000D03*
X139260000Y-80080000D03*
%TD*%
D22*
%TO.C,IC5*%
X113520003Y-100293012D03*
X113520003Y-99493012D03*
X113520003Y-98693013D03*
X113520003Y-97893013D03*
X113520003Y-97093013D03*
X113520003Y-96293013D03*
X113520003Y-95493013D03*
X113520003Y-94693013D03*
X113520003Y-93893013D03*
X113520003Y-93093013D03*
X113520003Y-92293013D03*
X113520003Y-91493013D03*
X113520003Y-90693013D03*
X113520003Y-89893014D03*
X113520003Y-89093014D03*
X114320003Y-100293012D03*
X114320003Y-99493012D03*
X114320003Y-98693013D03*
X114320003Y-97893013D03*
X114320003Y-97093013D03*
X114320003Y-96293013D03*
X114320003Y-95493013D03*
X114320003Y-94693013D03*
X114320003Y-93893013D03*
X114320003Y-93093013D03*
X114320003Y-92293013D03*
X114320003Y-91493013D03*
X114320003Y-90693013D03*
X114320003Y-89893014D03*
X114320003Y-89093014D03*
X115120002Y-100293012D03*
X115120002Y-99493012D03*
X115120002Y-98693013D03*
X115120002Y-97893013D03*
X115120002Y-97093013D03*
X115120002Y-96293013D03*
X115120002Y-95493013D03*
X115120002Y-94693013D03*
X115120002Y-93893013D03*
X115120002Y-93093013D03*
X115120002Y-92293013D03*
X115120002Y-91493013D03*
X115120002Y-90693013D03*
X115120002Y-89893014D03*
X115120002Y-89093014D03*
X115920002Y-100293012D03*
X115920002Y-99493012D03*
X115920002Y-98693013D03*
X115920002Y-97893013D03*
X115920002Y-97093013D03*
X115920002Y-96293013D03*
X115920002Y-95493013D03*
X115920002Y-94693013D03*
X115920002Y-93893013D03*
X115920002Y-93093013D03*
X115920002Y-92293013D03*
X115920002Y-91493013D03*
X115920002Y-90693013D03*
X115920002Y-89893014D03*
X115920002Y-89093014D03*
X116720002Y-100293012D03*
X116720002Y-99493012D03*
X116720002Y-98693013D03*
X116720002Y-97893013D03*
X116720002Y-97093013D03*
X116720002Y-96293013D03*
X116720002Y-95493013D03*
X116720002Y-94693013D03*
X116720002Y-93893013D03*
X116720002Y-93093013D03*
X116720002Y-92293013D03*
X116720002Y-91493013D03*
X116720002Y-90693013D03*
X116720002Y-89893014D03*
X116720002Y-89093014D03*
X117520002Y-100293012D03*
X117520002Y-99493012D03*
X117520002Y-98693013D03*
X117520002Y-97893013D03*
X117520002Y-97093013D03*
X117520002Y-96293013D03*
X117520002Y-95493013D03*
X117520002Y-94693013D03*
X117520002Y-93893013D03*
X117520002Y-93093013D03*
X117520002Y-92293013D03*
X117520002Y-91493013D03*
X117520002Y-90693013D03*
X117520002Y-89893014D03*
X117520002Y-89093014D03*
X118320002Y-100293012D03*
X118320002Y-99493012D03*
X118320002Y-98693013D03*
X118320002Y-97893013D03*
X118320002Y-97093013D03*
X118320002Y-96293013D03*
X118320002Y-95493013D03*
X118320002Y-94693013D03*
X118320002Y-93893013D03*
X118320002Y-93093013D03*
X118320002Y-92293013D03*
X118320002Y-91493013D03*
X118320002Y-90693013D03*
X118320002Y-89893014D03*
X118320002Y-89093014D03*
X119120002Y-100293012D03*
X119120002Y-99493012D03*
X119120002Y-98693013D03*
X119120002Y-97893013D03*
X119120002Y-97093013D03*
X119120002Y-96293013D03*
X119120002Y-95493013D03*
X119120002Y-94693013D03*
X119120002Y-93893013D03*
X119120002Y-93093013D03*
X119120002Y-92293013D03*
X119120002Y-91493013D03*
X119120002Y-90693013D03*
X119120002Y-89893014D03*
X119120002Y-89093014D03*
X119920002Y-100293012D03*
X119920002Y-99493012D03*
X119920002Y-98693013D03*
X119920002Y-97893013D03*
X119920002Y-97093013D03*
X119920002Y-96293013D03*
X119920002Y-95493013D03*
X119920002Y-94693013D03*
X119920002Y-93893013D03*
X119920002Y-93093013D03*
X119920002Y-92293013D03*
X119920002Y-91493013D03*
X119920002Y-90693013D03*
X119920002Y-89893014D03*
X119920002Y-89093014D03*
X120720002Y-100293012D03*
X120720002Y-99493012D03*
X120720002Y-98693013D03*
X120720002Y-97893013D03*
X120720002Y-97093013D03*
X120720002Y-96293013D03*
X120720002Y-95493013D03*
X120720002Y-94693013D03*
X120720002Y-93893013D03*
X120720002Y-93093013D03*
X120720002Y-92293013D03*
X120720002Y-91493013D03*
X120720002Y-90693013D03*
X120720002Y-89893014D03*
X120720002Y-89093014D03*
X121520002Y-100293012D03*
X121520002Y-99493012D03*
X121520002Y-98693013D03*
X121520002Y-97893013D03*
X121520002Y-97093013D03*
X121520002Y-96293013D03*
X121520002Y-95493013D03*
X121520002Y-94693013D03*
X121520002Y-93893013D03*
X121520002Y-93093013D03*
X121520002Y-92293013D03*
X121520002Y-91493013D03*
X121520002Y-90693013D03*
X121520002Y-89893014D03*
X121520002Y-89093014D03*
X122320002Y-100293012D03*
X122320002Y-99493012D03*
X122320002Y-98693013D03*
X122320002Y-97893013D03*
X122320002Y-97093013D03*
X122320002Y-96293013D03*
X122320002Y-95493013D03*
X122320002Y-94693013D03*
X122320002Y-93893013D03*
X122320002Y-93093013D03*
X122320002Y-92293013D03*
X122320002Y-91493013D03*
X122320002Y-90693013D03*
X122320002Y-89893014D03*
X122320002Y-89093014D03*
X123120002Y-100293012D03*
X123120002Y-99493012D03*
X123120002Y-98693013D03*
X123120002Y-97893013D03*
X123120002Y-97093013D03*
X123120002Y-96293013D03*
X123120002Y-95493013D03*
X123120002Y-94693013D03*
X123120002Y-93893013D03*
X123120002Y-93093013D03*
X123120002Y-92293013D03*
X123120002Y-91493013D03*
X123120002Y-90693013D03*
X123120002Y-89893014D03*
X123120002Y-89093014D03*
X123920001Y-100293012D03*
X123920001Y-99493012D03*
X123920001Y-98693013D03*
X123920001Y-97893013D03*
X123920001Y-97093013D03*
X123920001Y-96293013D03*
X123920001Y-95493013D03*
X123920001Y-94693013D03*
X123920001Y-93893013D03*
X123920001Y-93093013D03*
X123920001Y-92293013D03*
X123920001Y-91493013D03*
X123920001Y-90693013D03*
X123920001Y-89893014D03*
X123920001Y-89093014D03*
X124720001Y-100293012D03*
X124720001Y-99493012D03*
X124720001Y-98693013D03*
X124720001Y-97893013D03*
X124720001Y-97093013D03*
X124720001Y-96293013D03*
X124720001Y-95493013D03*
X124720001Y-94693013D03*
X124720001Y-93893013D03*
X124720001Y-93093013D03*
X124720001Y-92293013D03*
X124720001Y-91493013D03*
X124720001Y-90693013D03*
X124720001Y-89893014D03*
X124720001Y-89093014D03*
%TD*%
M02*
