%TF.GenerationSoftware,KiCad,Pcbnew,10.0.4-10.0.4~ubuntu24.04.1*%
%TF.CreationDate,2026-07-10T08:37:18+02:00*%
%TF.ProjectId,BB3plus CM5 STM32H7 module,42423370-6c75-4732-9043-4d352053544d,r1B5*%
%TF.SameCoordinates,Original*%
%TF.FileFunction,Copper,L3,Inr*%
%TF.FilePolarity,Positive*%
%FSLAX46Y46*%
G04 Gerber Fmt 4.6, Leading zero omitted, Abs format (unit mm)*
G04 Created by KiCad (PCBNEW 10.0.4-10.0.4~ubuntu24.04.1) date 2026-07-10 08:37:18*
%MOMM*%
%LPD*%
G01*
G04 APERTURE LIST*
%TA.AperFunction,ViaPad*%
%ADD10C,0.420000*%
%TD*%
%TA.AperFunction,ViaPad*%
%ADD11C,0.500000*%
%TD*%
%TA.AperFunction,ViaPad*%
%ADD12C,0.450000*%
%TD*%
%TA.AperFunction,Conductor*%
%ADD13C,0.152400*%
%TD*%
%TA.AperFunction,Conductor*%
%ADD14C,0.127000*%
%TD*%
G04 APERTURE END LIST*
D10*
%TO.N,/DVID converter\u002C NOR Flash/1V8_RST*%
X110510000Y-81590000D03*
%TO.N,+1V8*%
X110670000Y-80180000D03*
%TO.N,Net-(IC11-~{ECS})*%
X110470000Y-78770000D03*
%TO.N,SCL*%
X111270000Y-86300000D03*
X111261600Y-96865100D03*
X110890000Y-94100000D03*
X124443324Y-83989800D03*
X114651549Y-96733024D03*
X123947964Y-84879069D03*
D11*
%TO.N,+3V3*%
X143780000Y-79940000D03*
X141269449Y-111644197D03*
D10*
X115502522Y-93419767D03*
X122010000Y-103510000D03*
D11*
X134624236Y-79220351D03*
X140642783Y-111644197D03*
D10*
X135313900Y-74050000D03*
X142510000Y-79060000D03*
X107870000Y-101590000D03*
D11*
X130800000Y-107080000D03*
X141180409Y-102535999D03*
X140553743Y-104160000D03*
D10*
X110040000Y-74630000D03*
D11*
X141807076Y-104160000D03*
X135580000Y-79180000D03*
D10*
X97815492Y-99960000D03*
X114643896Y-73219600D03*
D11*
X141180409Y-104160000D03*
D10*
X121002312Y-93167319D03*
X112539764Y-108670236D03*
X118961414Y-93121003D03*
X117490000Y-94377086D03*
X119599402Y-96459698D03*
X121186988Y-94263012D03*
X96314805Y-87685195D03*
X142550000Y-91490000D03*
X117240191Y-93333700D03*
X121520000Y-103510000D03*
X110093082Y-96940396D03*
X120698974Y-97117793D03*
D11*
X141807076Y-102535999D03*
X132980000Y-91810000D03*
D10*
X120720004Y-96293014D03*
X130936877Y-84044767D03*
D11*
X140553743Y-102535999D03*
D10*
X109791828Y-103032100D03*
D11*
X141896116Y-111644197D03*
X140016116Y-111644197D03*
D10*
X121820000Y-82160000D03*
X119555473Y-96005473D03*
X111665100Y-94120000D03*
X97810000Y-84900000D03*
X109789410Y-106469766D03*
X118480200Y-96070039D03*
D11*
X130710000Y-108360000D03*
D10*
X121680000Y-93730000D03*
X108450000Y-105827500D03*
D11*
X139927076Y-104160000D03*
D10*
X97660000Y-87590000D03*
X144210000Y-84540000D03*
X97810000Y-91510000D03*
D11*
X140180000Y-79650000D03*
D10*
%TO.N,GND*%
X139167500Y-89665000D03*
D12*
X131994414Y-83948668D03*
D10*
X122140000Y-108440000D03*
X127100000Y-110010000D03*
X142225500Y-90385287D03*
D11*
X130560000Y-81380000D03*
D10*
X139167500Y-90385287D03*
D11*
X125056250Y-82180000D03*
D10*
X115500000Y-108400000D03*
D11*
X129773750Y-81380000D03*
D10*
X107930000Y-107310000D03*
X118700000Y-111242200D03*
X124700000Y-111242200D03*
D11*
X125056250Y-81390000D03*
D10*
X108391994Y-110432661D03*
D11*
X144467076Y-102370000D03*
D10*
X119481203Y-80032132D03*
X134173817Y-97029568D03*
X120035143Y-93346233D03*
X142990000Y-89665000D03*
X124720001Y-96330000D03*
X110372200Y-95830000D03*
X121630000Y-96290000D03*
X139932000Y-89665000D03*
X127500000Y-74380000D03*
D11*
X126628750Y-81390000D03*
X133500000Y-107200000D03*
X125842500Y-82180000D03*
D10*
X125900000Y-108360000D03*
X132997223Y-87952670D03*
X113825000Y-77100000D03*
D11*
X145140000Y-93830000D03*
D10*
X125900000Y-110030000D03*
X124420000Y-108420000D03*
D11*
X139081065Y-109028921D03*
D10*
X134740000Y-85920000D03*
X105060000Y-95080000D03*
X128300000Y-109990000D03*
X116710434Y-74395799D03*
X117720000Y-96320000D03*
X104090000Y-76070000D03*
D11*
X145210000Y-101700000D03*
X134360000Y-111070000D03*
D10*
X123900000Y-74380000D03*
X129836000Y-101414043D03*
X142209500Y-87384700D03*
X134370000Y-76050000D03*
D12*
X113480000Y-73970000D03*
D10*
X139167500Y-87384700D03*
X142214688Y-86634500D03*
X125100000Y-74380000D03*
X105330000Y-105860000D03*
X139167500Y-88134900D03*
D11*
X144467076Y-99020000D03*
D10*
X113530510Y-100106746D03*
D11*
X144467076Y-101030000D03*
D10*
X117644745Y-78917800D03*
D11*
X119100000Y-74450000D03*
X138338141Y-109698921D03*
X140046186Y-101394279D03*
X141207076Y-101800000D03*
D10*
X139167500Y-86634500D03*
D11*
X145210000Y-99020000D03*
D10*
X101715492Y-99470000D03*
X140696500Y-88134900D03*
X117250000Y-85970000D03*
X120795100Y-93893015D03*
X115795227Y-80370000D03*
D11*
X119100000Y-76040000D03*
X103600000Y-107230000D03*
X134375000Y-107200000D03*
X144467076Y-101700000D03*
D10*
X98395492Y-102060000D03*
X129899999Y-74380000D03*
X98629295Y-88161663D03*
X104344358Y-104700000D03*
X131100000Y-76060000D03*
X114300000Y-108400000D03*
D11*
X132850000Y-90410000D03*
D10*
X115565227Y-82680000D03*
D11*
X117900000Y-76040000D03*
D10*
X144800237Y-83429763D03*
D11*
X139081065Y-109698921D03*
X127415000Y-81390000D03*
X127415000Y-82180000D03*
X137570000Y-79700000D03*
D10*
X142970000Y-87384700D03*
D12*
X132850000Y-84220000D03*
D11*
X139081065Y-111038921D03*
D10*
X129900000Y-76060000D03*
X142990000Y-88134900D03*
X116385100Y-92690200D03*
X142990000Y-90385287D03*
X138219394Y-94729938D03*
D11*
X120300000Y-74560000D03*
D10*
X119110000Y-99720000D03*
X141459375Y-86634500D03*
X122700000Y-111242200D03*
X137513900Y-76550000D03*
D11*
X144467076Y-100360000D03*
D10*
X115504277Y-73370030D03*
X133496237Y-73370000D03*
X120480000Y-81100000D03*
X125060000Y-91070000D03*
X141461000Y-90385287D03*
X105097442Y-82125307D03*
X119919000Y-100392629D03*
X139928000Y-87384700D03*
X117514195Y-89403646D03*
X113408300Y-88918144D03*
X141461000Y-88917500D03*
X113109185Y-95182771D03*
X101257800Y-103053807D03*
X121891935Y-91811103D03*
X106330000Y-105860000D03*
X96370000Y-85490000D03*
X140696500Y-88917500D03*
X119120003Y-94900000D03*
X114685347Y-93418649D03*
X125190563Y-77173736D03*
X123380000Y-90690000D03*
X105348699Y-104700000D03*
X96660000Y-94870000D03*
D11*
X139240000Y-79680000D03*
D10*
X112089124Y-92715100D03*
X124568405Y-100304900D03*
D11*
X136848319Y-109700000D03*
D10*
X120700000Y-111242200D03*
D11*
X121500000Y-76040000D03*
D10*
X115500000Y-109980000D03*
D11*
X137591243Y-111040000D03*
D10*
X122718513Y-74375636D03*
D11*
X126628750Y-82180000D03*
D10*
X132120000Y-101150000D03*
D11*
X145210000Y-99690000D03*
D10*
X138920000Y-77970000D03*
D11*
X128987500Y-81380000D03*
D12*
X119575543Y-103418217D03*
D10*
X118620000Y-91670000D03*
D11*
X141207076Y-100260000D03*
X137591243Y-110370000D03*
D10*
X97640000Y-82200000D03*
X125000000Y-89040000D03*
D11*
X124270000Y-81390000D03*
X138338141Y-110368921D03*
D10*
X128700000Y-108360000D03*
X133310236Y-95589764D03*
X139932000Y-90385287D03*
D11*
X129773750Y-82170000D03*
D10*
X120860000Y-83050000D03*
X127110000Y-108360000D03*
X139167500Y-88917500D03*
X110040000Y-77710000D03*
X123593900Y-102630000D03*
D11*
X128201250Y-82180000D03*
X134570000Y-88960000D03*
D10*
X135210000Y-93855100D03*
X119120002Y-95380000D03*
D11*
X137591243Y-109030000D03*
D10*
X122384900Y-88936146D03*
D11*
X147500000Y-88410000D03*
D10*
X114540000Y-109670000D03*
D12*
X103330000Y-108830000D03*
D11*
X120300000Y-76040000D03*
D10*
X133017020Y-81876461D03*
X104330000Y-105860000D03*
D11*
X117900000Y-74450000D03*
D10*
X138947100Y-73190000D03*
X116807876Y-99011481D03*
X142225500Y-88917500D03*
X115995227Y-84770000D03*
X141449000Y-87384700D03*
X140704063Y-86634500D03*
X103641400Y-102870000D03*
X127500000Y-77130000D03*
X114690000Y-75910000D03*
X141461000Y-89665000D03*
D11*
X145210000Y-103040000D03*
D10*
X124950000Y-93950000D03*
X136080000Y-91854900D03*
D11*
X145210000Y-100360000D03*
X128987500Y-82170000D03*
D10*
X105810000Y-110710000D03*
D11*
X142340000Y-80540000D03*
D10*
X142990000Y-88917500D03*
X121025683Y-86086469D03*
X115960000Y-96020000D03*
X119950000Y-89330000D03*
D11*
X125842500Y-81390000D03*
D10*
X114055227Y-80920000D03*
X120420000Y-108420000D03*
D11*
X138338141Y-109028921D03*
D10*
X106353040Y-104700000D03*
D11*
X121539745Y-73236089D03*
X145210000Y-102370000D03*
D10*
X132290000Y-74380000D03*
X120790000Y-102374900D03*
X122960000Y-94700000D03*
D11*
X136848319Y-111040000D03*
D10*
X116966087Y-94866087D03*
X122480000Y-93790000D03*
D11*
X139081065Y-110368921D03*
D10*
X139948750Y-86634500D03*
X132290000Y-76060000D03*
D11*
X136848319Y-109030000D03*
D10*
X122330000Y-95520000D03*
X140696500Y-90385287D03*
X140696500Y-89665000D03*
D12*
X113417200Y-107815569D03*
D10*
X120860000Y-82140000D03*
X142970000Y-86634500D03*
X126314809Y-77130000D03*
D11*
X137063501Y-82464900D03*
D10*
X118013978Y-108452137D03*
X108250000Y-108350000D03*
X110174509Y-105868400D03*
X116690000Y-77100000D03*
D11*
X137591243Y-109700000D03*
X130560000Y-82170000D03*
D10*
X120650000Y-95690000D03*
X114227800Y-103110000D03*
X142225500Y-88134900D03*
X136097100Y-73190000D03*
D12*
X120135003Y-103418200D03*
D10*
X140688500Y-87384700D03*
X120135032Y-91337179D03*
X131090000Y-74380000D03*
D11*
X124270000Y-82180000D03*
X132100000Y-111120000D03*
D10*
X139932000Y-88917500D03*
X116700000Y-108340000D03*
D11*
X147500000Y-84430000D03*
D12*
X101780000Y-108390000D03*
D10*
X134716373Y-73883654D03*
D11*
X144850000Y-79930000D03*
D10*
X139932000Y-88134900D03*
X126300000Y-74380000D03*
X118785291Y-93741287D03*
X128700000Y-74380000D03*
D11*
X144467076Y-103040000D03*
D10*
X141461000Y-88134900D03*
X133485195Y-76053468D03*
X135010000Y-84120000D03*
D11*
X136848319Y-110370000D03*
D10*
X121290000Y-90740000D03*
D11*
X145210000Y-101030000D03*
X138338141Y-111038921D03*
X128201250Y-81390000D03*
D10*
X142225500Y-89665000D03*
X128690000Y-77130000D03*
X123598598Y-97523941D03*
X108140000Y-89140000D03*
D11*
X144467076Y-99690000D03*
D10*
X117074923Y-100739216D03*
X116448516Y-109875206D03*
X122690000Y-86000000D03*
%TO.N,Net-(JP1-PadCOM)*%
X111370000Y-76160000D03*
%TO.N,USB_HS_SEL*%
X121358730Y-83991270D03*
X114700000Y-74580000D03*
%TO.N,~{RESET_OUT}*%
X110500000Y-82990000D03*
X120470000Y-106780000D03*
X106500000Y-75150000D03*
X121130056Y-99114635D03*
X116180000Y-106310000D03*
X122921075Y-83887800D03*
X132500000Y-107100000D03*
X119010000Y-103410000D03*
%TO.N,ETH_TXRX_B+*%
X102720000Y-105553500D03*
%TO.N,ETH_TXRX_B-*%
X102720000Y-105006500D03*
%TO.N,ETH_TXRX_A-*%
X102720000Y-104150000D03*
%TO.N,ETH_TXRX_A+*%
X102330000Y-104590000D03*
%TO.N,~{ETH_LINK_ACT}*%
X115957225Y-109701400D03*
X110333795Y-110026057D03*
%TO.N,~{ETH_LINK100}*%
X110020000Y-111300000D03*
X112867305Y-110907626D03*
%TO.N,~{LED_ACT}*%
X112480000Y-111265100D03*
%TO.N,~{SYSMCU_CS}*%
X118537378Y-103184900D03*
%TO.N,~{DIB3_IRQ}*%
X118808385Y-108446602D03*
%TO.N,~{DIB1_IRQ}*%
X124660000Y-103600000D03*
X119317241Y-106338808D03*
X124430000Y-106046600D03*
%TO.N,~{DIB2_IRQ}*%
X119308352Y-108663634D03*
%TO.N,DIB1{slash}DIB3_MISO*%
X119431696Y-104479100D03*
%TO.N,RS485_TX_EN{slash}DOUT2*%
X128500000Y-93590000D03*
X119900000Y-111242200D03*
X127776029Y-103636507D03*
%TO.N,DIB4_MOSI*%
X116182648Y-104125506D03*
X115474900Y-94349849D03*
X119909047Y-104225100D03*
%TO.N,~{DIB1_CSA}*%
X119810000Y-108446602D03*
X115616783Y-103683473D03*
X115614445Y-97139016D03*
%TO.N,DIB4_MISO*%
X120960000Y-108500000D03*
X114953467Y-94460398D03*
X116473096Y-104558759D03*
%TO.N,DIN2*%
X121112774Y-110020988D03*
X113066055Y-109089696D03*
X109710000Y-95060000D03*
X112600843Y-94518684D03*
X111550000Y-102790000D03*
%TO.N,RTC_CM5*%
X116276628Y-99718983D03*
X121610000Y-108450000D03*
X116132646Y-103606305D03*
%TO.N,DIB4_SCLK*%
X125760000Y-103440000D03*
X122050000Y-111210000D03*
%TO.N,DIB2{slash}DIB5_SCLK*%
X121748577Y-105037600D03*
%TO.N,~{DIB2_CSA}*%
X117109021Y-109439493D03*
X116419877Y-103170912D03*
X116601990Y-106670360D03*
X121731317Y-109871790D03*
%TO.N,DIB2{slash}DIB5_MISO*%
X121920000Y-106046600D03*
X113428400Y-102590000D03*
X108768200Y-97970000D03*
X108830000Y-100251600D03*
%TO.N,~{TFT_IRQ}*%
X123990000Y-104140000D03*
X122301872Y-110054869D03*
%TO.N,DIB2{slash}DIB5_MOSI*%
X107850000Y-96200000D03*
X120299427Y-109435100D03*
X111930000Y-103170000D03*
%TO.N,~{SYSMCU_IRQ}*%
X123022830Y-108446100D03*
%TO.N,~{DIB4_IRQ}*%
X122805023Y-105140816D03*
%TO.N,~{DIB5_IRQ}*%
X110900000Y-95074494D03*
X111710000Y-109260000D03*
X111462800Y-101992328D03*
%TO.N,DIB_OE_SYNC*%
X123570000Y-108440000D03*
%TO.N,~{DIB5_CSA}*%
X117152839Y-103307160D03*
X123570000Y-109000000D03*
%TO.N,~{DIB3_CSA}*%
X116952075Y-104352243D03*
X111980000Y-94610000D03*
X123315844Y-105246317D03*
%TO.N,DIB1{slash}DIB3_SCLK*%
X109748006Y-90698813D03*
X110761446Y-102412004D03*
X111123088Y-109444599D03*
X124420000Y-109860000D03*
X115159190Y-89942486D03*
%TO.N,~{DIB4_CSA}*%
X119371139Y-96928389D03*
X125812569Y-97392097D03*
X126575300Y-105212960D03*
%TO.N,DIB1{slash}DIB3_MOSI*%
X126233397Y-104610200D03*
X121638118Y-98996558D03*
X122703431Y-101025726D03*
X125104217Y-109144217D03*
%TO.N,UART_TX{slash}DOUT1*%
X125185385Y-105110916D03*
X119050000Y-100850000D03*
X125054900Y-106524499D03*
X122623263Y-102740061D03*
%TO.N,UART_RX{slash}DIN1*%
X127139764Y-105080236D03*
%TO.N,+VAUX*%
X128893990Y-106941846D03*
X117221877Y-106682348D03*
X114400500Y-101654283D03*
D12*
%TO.N,+5V*%
X138797076Y-99070000D03*
X138230000Y-99070000D03*
D10*
X139930000Y-74160000D03*
D12*
X139997076Y-99070000D03*
X130250000Y-110080000D03*
X138230000Y-98470000D03*
X131350000Y-110080000D03*
X138797076Y-98470000D03*
X130800000Y-110080000D03*
X129680000Y-110090000D03*
X139997076Y-98470000D03*
D10*
%TO.N,GPIO_VREF*%
X125127678Y-103868622D03*
%TO.N,SDA*%
X124500000Y-84890000D03*
X112564496Y-97066153D03*
X125090186Y-84338512D03*
X111810000Y-86320000D03*
%TO.N,+1V8*%
X114335227Y-79570000D03*
D12*
X139898658Y-105440165D03*
D10*
X121510000Y-88410000D03*
X119724329Y-92613012D03*
X117738276Y-79836171D03*
X121801056Y-92729679D03*
X116065227Y-83090000D03*
X123507006Y-94274747D03*
X122471949Y-94983012D03*
X120875873Y-91264965D03*
D12*
X140470000Y-107000000D03*
D10*
X114680000Y-85950000D03*
D12*
X131690000Y-108310000D03*
D10*
X114983160Y-79333480D03*
D12*
X131710000Y-107010000D03*
X141000000Y-107000000D03*
D10*
X131450000Y-100090000D03*
D12*
X140469329Y-105440165D03*
D10*
X118928842Y-91234901D03*
D12*
X140999329Y-105440165D03*
D10*
X133051735Y-96685872D03*
D12*
X139899329Y-107000000D03*
D10*
X123240000Y-87930000D03*
X116265227Y-84300000D03*
X122696657Y-92700800D03*
X118539682Y-81814927D03*
%TO.N,BOOT0*%
X113610000Y-101050000D03*
X111330000Y-96100000D03*
X132540000Y-109180000D03*
%TO.N,~{LED_PWR}*%
X133110000Y-109280000D03*
X113610000Y-109860000D03*
X110160000Y-100340000D03*
X109560000Y-93880000D03*
%TO.N,RS485_TX{slash}DOUT3*%
X131500000Y-111330000D03*
X112970000Y-109907800D03*
X109925665Y-102002769D03*
X110120000Y-107990000D03*
X109090000Y-90450000D03*
%TO.N,RS485_RX{slash}DIN3*%
X110312679Y-103060103D03*
X134880000Y-111730000D03*
X110604471Y-109579833D03*
X114755669Y-91819779D03*
X106950000Y-93660000D03*
D12*
%TO.N,/DVID converter\u002C NOR Flash/TVDD*%
X133911900Y-87279576D03*
X133952858Y-90469900D03*
D10*
X132560000Y-85870000D03*
%TO.N,XSPIM_P1_IO10*%
X122448859Y-91787577D03*
X135109086Y-97558717D03*
%TO.N,~{XSPI_M_P1_CS}*%
X125650000Y-90900000D03*
X135780000Y-98800000D03*
%TO.N,XSPIM_P1_IO11*%
X135769816Y-100419816D03*
X124168298Y-96225191D03*
%TO.N,XSPIM_P1_IO12*%
X135700000Y-101240000D03*
X123350000Y-96324213D03*
%TO.N,XSPIM_P1_IO9*%
X134850000Y-96420000D03*
X126956390Y-91167500D03*
%TO.N,XSPI_M_P1_CLK*%
X134510000Y-97970000D03*
X125687715Y-92840700D03*
%TO.N,XSPI_M_P1_DQS1*%
X134890000Y-99540000D03*
X122161340Y-92286453D03*
%TO.N,XSPIM_P1_IO13*%
X126940236Y-95509764D03*
X134550000Y-100250000D03*
%TO.N,XSPIM_P1_IO14*%
X134566750Y-101276750D03*
X122920000Y-95400000D03*
%TO.N,XSPIM_P1_IO8*%
X133844787Y-95694047D03*
X124313434Y-91123500D03*
%TO.N,XSPI_M_P1_DQS0*%
X133820000Y-98700000D03*
X123348876Y-92517921D03*
%TO.N,XSPIM_P1_IO2*%
X123030549Y-93776171D03*
X131270000Y-98820000D03*
%TO.N,XSPIM_P1_IO15*%
X134150000Y-100790000D03*
X124100000Y-94780000D03*
%TO.N,XSPIM_P1_IO1*%
X123270000Y-91670000D03*
X132420167Y-96860995D03*
%TO.N,XSPIM_P1_IO0*%
X123968729Y-92504340D03*
X130241382Y-95794988D03*
X132350000Y-98370000D03*
%TO.N,XSPIM_P1_IO3*%
X126610000Y-95080000D03*
X132539959Y-99979181D03*
%TO.N,XSPIM_P1_IO4*%
X129740000Y-99190000D03*
X125456841Y-95150906D03*
%TO.N,XSPIM_P1_IO7*%
X133490000Y-96300000D03*
X123770260Y-91364335D03*
%TO.N,XSPIM_P1_IO6*%
X125156447Y-92699280D03*
X131214239Y-95283592D03*
%TO.N,XSPIM_P1_IO5*%
X126537965Y-94146500D03*
X131110000Y-98190000D03*
D12*
%TO.N,/DVID converter\u002C NOR Flash/DVDD*%
X138910000Y-81270000D03*
D11*
X137080000Y-93895100D03*
D12*
X137636600Y-81265282D03*
X145270000Y-81360000D03*
D10*
%TO.N,LTDC_DE*%
X124328038Y-101573990D03*
X145550000Y-84420000D03*
X136345618Y-103087022D03*
%TO.N,LTDC_HSYNC*%
X115360000Y-86480000D03*
X127536297Y-85205100D03*
X137260000Y-85040000D03*
X116270520Y-96735142D03*
%TO.N,LTDC_VSYNC*%
X118690000Y-88270000D03*
X137249971Y-84518494D03*
X115441005Y-91063407D03*
%TO.N,Net-(IC8-CTL1{slash}A1{slash}DK1)*%
X140650000Y-79160000D03*
%TO.N,Net-(IC8-EDGE{slash}HTPLG)*%
X141060000Y-81190000D03*
%TO.N,Net-(IC8-~{PD})*%
X135252221Y-79640939D03*
X140655862Y-80604607D03*
%TO.N,Net-(IC8-ISEL{slash}~{RST})*%
X135250000Y-82150000D03*
%TO.N,Net-(IC8-DSEL{slash}SDA)*%
X138140000Y-84040000D03*
%TO.N,Net-(IC8-BSEL{slash}SCL)*%
X137780000Y-83240000D03*
%TO.N,Net-(IC8-DKEN)*%
X139165975Y-94724224D03*
%TO.N,LTDC_R7*%
X138814379Y-93079885D03*
X114629486Y-92325888D03*
%TO.N,LTDC_R6*%
X139335872Y-93090593D03*
X117120003Y-92011031D03*
%TO.N,LTDC_R5*%
X139857256Y-93075481D03*
X118186953Y-92024550D03*
%TO.N,LTDC_R4*%
X140392136Y-93071074D03*
X114836360Y-97896300D03*
%TO.N,LTDC_R3*%
X140855236Y-94675236D03*
X136730000Y-100710000D03*
X122401002Y-98951772D03*
%TO.N,LTDC_R2*%
X114015100Y-97510825D03*
X126190000Y-89970000D03*
%TO.N,LTDC_R1*%
X120836375Y-100853749D03*
X130000000Y-103964900D03*
%TO.N,LTDC_R0*%
X130610000Y-104100000D03*
X120319840Y-100011139D03*
%TO.N,LTDC_G7*%
X125822871Y-89518239D03*
X122010000Y-90250000D03*
%TO.N,LTDC_G5*%
X128106817Y-89596344D03*
X122670993Y-91074469D03*
%TO.N,LTDC_G3*%
X122332042Y-100064831D03*
X145870000Y-92550000D03*
%TO.N,LTDC_G2*%
X136790000Y-96180000D03*
X122038918Y-99330367D03*
X145630000Y-91030000D03*
X127960000Y-99880511D03*
%TO.N,LTDC_G1*%
X117559113Y-99262285D03*
X129320000Y-104480000D03*
%TO.N,LTDC_G0*%
X127360000Y-97610000D03*
X124224022Y-97780160D03*
X137644900Y-95348136D03*
X145120000Y-89940000D03*
%TO.N,LTDC_B7*%
X146030000Y-89390000D03*
X124446600Y-101060149D03*
X136753190Y-102761516D03*
%TO.N,LTDC_B6*%
X117780000Y-91634900D03*
X144790000Y-88560000D03*
%TO.N,LTDC_CLK*%
X145540000Y-88120000D03*
X123519767Y-100011360D03*
X136983526Y-102293526D03*
%TO.N,LTDC_B5*%
X116438241Y-89493171D03*
X145540000Y-87430000D03*
%TO.N,LTDC_B4*%
X144790000Y-87530000D03*
X116873098Y-90963500D03*
%TO.N,LTDC_B3*%
X144800000Y-86420001D03*
X116497496Y-88533099D03*
%TO.N,LTDC_B2*%
X137230000Y-95780000D03*
X146030000Y-85950000D03*
X124402155Y-98281030D03*
X128042002Y-98258773D03*
%TO.N,LTDC_B1*%
X143950000Y-87800000D03*
X113408300Y-91212323D03*
%TO.N,LTDC_B0*%
X122720249Y-96574645D03*
X137434900Y-85730000D03*
X126830000Y-97430000D03*
X137250207Y-95007129D03*
%TO.N,REAR_DVID_CEC*%
X137253900Y-77860000D03*
%TO.N,REAR_DVID_HPD*%
X138413900Y-77250000D03*
%TO.N,REAR_DVID_SDA*%
X139303096Y-76504932D03*
%TO.N,REAR_DVID_SCL*%
X138813900Y-74800000D03*
%TO.N,XSPIM_P2_CLK*%
X114570000Y-82090000D03*
X119805147Y-90034900D03*
%TO.N,XSPIM_P2_DQS0*%
X114906355Y-81565175D03*
X118305100Y-89628367D03*
%TO.N,VMUX_EN*%
X123550000Y-85870000D03*
X124218391Y-99905100D03*
X128046474Y-100426474D03*
%TO.N,DVID_HPD*%
X136560000Y-82880000D03*
X116385607Y-91936088D03*
X115883144Y-87325038D03*
X129981339Y-84432072D03*
%TO.N,DVID_CEC*%
X118080000Y-103560000D03*
X130394890Y-84061675D03*
X120490000Y-104010000D03*
X137230000Y-96540000D03*
X137810000Y-85310000D03*
X127270000Y-103510000D03*
X117630000Y-102100000D03*
%TO.N,VMUX_SEL*%
X131921356Y-85335100D03*
X124237690Y-98776026D03*
X130670000Y-96100000D03*
X128260000Y-99130000D03*
%TO.N,Net-(IC9-HPD_A)*%
X132850000Y-82470000D03*
%TO.N,REAR_DVID_CLK_N*%
X131988500Y-74820000D03*
%TO.N,REAR_DVID_CLK_P*%
X131411500Y-74820000D03*
%TO.N,REAR_DVID_TX0_N*%
X130788500Y-74830000D03*
%TO.N,REAR_DVID_TX0_P*%
X130211500Y-74830000D03*
%TO.N,REAR_DVID_TX1_N*%
X129588500Y-74800000D03*
%TO.N,REAR_DVID_TX1_P*%
X129011500Y-74800000D03*
%TO.N,REAR_DVID_TX2_N*%
X128388500Y-74800000D03*
%TO.N,REAR_DVID_TX2_P*%
X127811500Y-74800000D03*
%TO.N,TFT_DVID_CLK_N*%
X127188500Y-74800000D03*
%TO.N,TFT_DVID_CLK_P*%
X126611500Y-74800000D03*
%TO.N,TFT_DVID_TX0_N*%
X125988500Y-74800000D03*
%TO.N,TFT_DVID_TX0_P*%
X125411500Y-74800000D03*
%TO.N,TFT_DVID_TX1_N*%
X124788500Y-74800000D03*
%TO.N,TFT_DVID_TX1_P*%
X124211500Y-74800000D03*
%TO.N,TFT_DVID_TX2_N*%
X123580000Y-74800000D03*
%TO.N,TFT_DVID_TX2_P*%
X123013835Y-74805583D03*
%TO.N,Net-(JP4-PadCOM)*%
X100720000Y-98910000D03*
%TO.N,SDMMC_D2*%
X114578369Y-89924055D03*
X96320000Y-90990000D03*
%TO.N,SDMMC_D3*%
X96320000Y-89900000D03*
X112000000Y-88120000D03*
%TO.N,SDMMC_CMD*%
X96340000Y-88790000D03*
%TO.N,SDMMC_CLK*%
X95590000Y-86970000D03*
X115478477Y-91904983D03*
%TO.N,SDMMC_D0*%
X115359931Y-88666459D03*
X96320000Y-84380000D03*
%TO.N,SDMMC_D1*%
X116567292Y-90057292D03*
X96320000Y-83280000D03*
%TO.N,~{SD_DETECT}*%
X116259707Y-93498673D03*
X108680000Y-92820000D03*
%TO.N,/Ethernet PHY\u002C PSRAM\u002C SDcard/+3V3_LAN*%
X101165492Y-101660000D03*
%TO.N,MCU_USB_ID*%
X110610000Y-93272200D03*
X114280000Y-78250000D03*
X114471124Y-94658928D03*
X111600000Y-82470000D03*
%TO.N,/CM5 socket/USB2-*%
X115046500Y-77900000D03*
%TO.N,/CM5 socket/USB2+*%
X115593500Y-77900000D03*
%TO.N,MCU_USB_VBUS*%
X111010000Y-82470000D03*
X110230000Y-94500000D03*
X112570000Y-95230000D03*
X116100000Y-77390000D03*
%TO.N,USB_FS_D+*%
X114180000Y-95310000D03*
%TO.N,USB_FS_D-*%
X113632155Y-95343127D03*
%TO.N,/CM5 socket/USB3_1_D+*%
X117440000Y-75671633D03*
%TO.N,/CM5 socket/USB3_1_D-*%
X116776950Y-75518499D03*
%TO.N,USB_HS_D+*%
X113639407Y-93845587D03*
X113386606Y-75386606D03*
%TO.N,USB_HS_D-*%
X114320558Y-93826252D03*
X113773394Y-75773394D03*
%TO.N,Net-(IC6-LED2{slash}NINT{slash}NPME{slash}NINTSEL)*%
X108260000Y-111050000D03*
%TO.N,ETH_RXD1*%
X123127828Y-98500138D03*
X112250000Y-99052706D03*
%TO.N,ETH_RXD0*%
X110064900Y-97742917D03*
X120201816Y-97492893D03*
%TO.N,ETH_CRS_DV*%
X109800316Y-98237559D03*
X122680000Y-97440000D03*
%TO.N,ETH_MDIO*%
X122719891Y-98174839D03*
X108771071Y-98520000D03*
%TO.N,Net-(IC6-RXD1{slash}MODE1)*%
X109627400Y-107010000D03*
X109016228Y-102990000D03*
X111250000Y-101470000D03*
%TO.N,/STM32H7 MCU/~{ACTIVE}*%
X126146270Y-103860000D03*
X125322081Y-108483889D03*
%TO.N,Net-(IC6-LED1{slash}NINT{slash}NPME{slash}REGOFF)*%
X108245210Y-109804790D03*
%TO.N,Net-(IC6-XTAL2)*%
X105531049Y-107390418D03*
%TO.N,Net-(IC6-XTAL1{slash}CLKIN)*%
X106130480Y-107394193D03*
%TO.N,ETH_RX_ERR*%
X107560000Y-86870000D03*
X107462779Y-100541194D03*
X122130000Y-85880000D03*
X108000000Y-104620000D03*
X107455000Y-102705000D03*
%TO.N,Net-(IC6-NRST)*%
X105580000Y-102000000D03*
%TO.N,ETH_TX_EN*%
X105027023Y-101957167D03*
X117094344Y-99903835D03*
%TO.N,ETH_MDC*%
X106587522Y-99925724D03*
X117673902Y-102765865D03*
%TO.N,ETH_REF_CLK*%
X105963900Y-97039834D03*
X114009100Y-96275735D03*
%TO.N,ETH_TXD0*%
X117126896Y-96583784D03*
X105060000Y-98140000D03*
%TO.N,ETH_TXD1*%
X116320827Y-99199257D03*
X104470000Y-99090000D03*
%TO.N,~{ETH_RESET}*%
X102530000Y-99780000D03*
X115940000Y-100150000D03*
%TO.N,/STM32H7 MCU/VDD_SDC*%
X119525319Y-94364700D03*
X121281302Y-95681167D03*
X116850000Y-101620000D03*
X120392029Y-92088289D03*
X115904900Y-95000459D03*
X116850000Y-102050000D03*
X118334900Y-99682478D03*
X116460280Y-96249282D03*
X118280000Y-94200000D03*
X116850000Y-102480000D03*
X117775316Y-92344900D03*
%TO.N,ETH_CLK*%
X116280000Y-94230000D03*
X103280000Y-96440000D03*
D12*
%TO.N,/STM32H7 MCU/VLXSMPS*%
X118390000Y-100770000D03*
%TO.N,/STM32H7 MCU/VDDSMPS*%
X119120004Y-100293011D03*
D10*
X119281498Y-101368227D03*
X121250092Y-101170809D03*
%TO.N,Net-(IC5C-VSSA)*%
X118720003Y-98174996D03*
%TO.N,/STM32H7 MCU/RCC_OSC_IN*%
X121028482Y-100368812D03*
%TO.N,/STM32H7 MCU/RCC_OSC_OUT*%
X121231515Y-99888347D03*
%TO.N,Net-(IC5C-VREFM)*%
X120484842Y-97931032D03*
%TD*%
%TO.N,~{RESET_OUT}*%
D13*
X110500000Y-82990000D02*
X111090000Y-83580000D01*
X111090000Y-83580000D02*
X119880000Y-83580000D01*
X119880000Y-83580000D02*
X120730000Y-84430000D01*
X120730000Y-84430000D02*
X122470000Y-84430000D01*
X122470000Y-84430000D02*
X122921075Y-83978925D01*
X122921075Y-83978925D02*
X122921075Y-83887800D01*
%TO.N,SCL*%
D14*
X111436700Y-96690000D02*
X111261600Y-96865100D01*
X123947964Y-84879069D02*
X120280931Y-84879069D01*
X112336100Y-85233900D02*
X111270000Y-86300000D01*
X120280931Y-84879069D02*
X119926100Y-85233900D01*
X119926100Y-85233900D02*
X112336100Y-85233900D01*
D13*
X124458781Y-84086210D02*
X124458781Y-84005257D01*
X124458781Y-84005257D02*
X124443324Y-83989800D01*
D14*
X114588396Y-96690000D02*
X111436700Y-96690000D01*
X114598396Y-96700000D02*
X114588396Y-96690000D01*
%TO.N,+3V3*%
D13*
X130970000Y-83996230D02*
X130936877Y-84029353D01*
X130936877Y-84029353D02*
X130936877Y-84044767D01*
%TO.N,USB_HS_SEL*%
D14*
X114940000Y-74580000D02*
X114700000Y-74580000D01*
X121370000Y-83980000D02*
X121370000Y-81820000D01*
X121370000Y-81010000D02*
X116340000Y-75980000D01*
X121358730Y-83991270D02*
X121370000Y-83980000D01*
X121370000Y-81820000D02*
X121370000Y-81010000D01*
X116340000Y-75980000D02*
X114940000Y-74580000D01*
%TO.N,~{RESET_OUT}*%
X119010000Y-105320000D02*
X119010000Y-103410000D01*
X120470000Y-106780000D02*
X119010000Y-105320000D01*
%TO.N,~{ETH_LINK_ACT}*%
D13*
X115340000Y-109550000D02*
X115859833Y-109550000D01*
X114480000Y-110410000D02*
X110717738Y-110410000D01*
X115859833Y-109550000D02*
X115957225Y-109647392D01*
X110717738Y-110410000D02*
X110333795Y-110026057D01*
X114480000Y-110410000D02*
X115340000Y-109550000D01*
X115957225Y-109647392D02*
X115957225Y-109701400D01*
%TO.N,~{ETH_LINK100}*%
D14*
X110020000Y-111300000D02*
X110430000Y-110890000D01*
X110430000Y-110890000D02*
X112849679Y-110890000D01*
X112872557Y-110882557D02*
X112872557Y-110902374D01*
X112850000Y-110860000D02*
X112872557Y-110882557D01*
X112849679Y-110890000D02*
X112867305Y-110907626D01*
X112872557Y-110902374D02*
X112867305Y-110907626D01*
%TO.N,~{DIB1_IRQ}*%
X124410000Y-106026600D02*
X124430000Y-106046600D01*
X124410000Y-103850000D02*
X124410000Y-106026600D01*
X124660000Y-103600000D02*
X124410000Y-103850000D01*
%TO.N,RS485_TX_EN{slash}DOUT2*%
D13*
X127750000Y-108660000D02*
X126851864Y-109558136D01*
X127750000Y-103662536D02*
X127750000Y-108660000D01*
X126851864Y-109558136D02*
X125511864Y-109558136D01*
X125511864Y-109558136D02*
X123380278Y-111689722D01*
X120347522Y-111689722D02*
X119900000Y-111242200D01*
X123380278Y-111689722D02*
X120347522Y-111689722D01*
X127776029Y-103636507D02*
X127750000Y-103662536D01*
%TO.N,~{DIB1_CSA}*%
X115616783Y-103683473D02*
X115616783Y-104297243D01*
X115616783Y-104297243D02*
X119766142Y-108446602D01*
%TO.N,DIB4_MISO*%
X120960000Y-108307799D02*
X120573501Y-107921300D01*
X119601300Y-107921300D02*
X116473096Y-104793096D01*
X116473096Y-104793096D02*
X116473096Y-104558759D01*
X120573501Y-107921300D02*
X119601300Y-107921300D01*
X120960000Y-108500000D02*
X120960000Y-108307799D01*
%TO.N,DIN2*%
D14*
X112210304Y-109089696D02*
X112200000Y-109100000D01*
X110400000Y-93680000D02*
X109710000Y-94370000D01*
X112600843Y-94250843D02*
X112030000Y-93680000D01*
X109710000Y-94370000D02*
X109710000Y-95060000D01*
X112030000Y-93680000D02*
X111190000Y-93680000D01*
X112517960Y-94435801D02*
X112600843Y-94518684D01*
X111190000Y-93680000D02*
X110400000Y-93680000D01*
X112200000Y-109100000D02*
X111440000Y-108340000D01*
X113066055Y-109089696D02*
X112210304Y-109089696D01*
X111440000Y-108340000D02*
X111440000Y-102900000D01*
X112600843Y-94518684D02*
X112600843Y-94250843D01*
X111440000Y-102900000D02*
X111550000Y-102790000D01*
%TO.N,RTC_CM5*%
X117327175Y-104037175D02*
X117327175Y-105257175D01*
X117327175Y-105257175D02*
X119750000Y-107680000D01*
X116132646Y-103606305D02*
X116896305Y-103606305D01*
X119750000Y-107680000D02*
X120840000Y-107680000D01*
X120840000Y-107680000D02*
X121610000Y-108450000D01*
X116896305Y-103606305D02*
X117327175Y-104037175D01*
%TO.N,DIB4_SCLK*%
X124860000Y-108637643D02*
X122877643Y-110620000D01*
X125560000Y-107020000D02*
X124860000Y-107720000D01*
X125760000Y-103440000D02*
X125560000Y-103640000D01*
X122877643Y-110620000D02*
X122640000Y-110620000D01*
X125560000Y-103640000D02*
X125560000Y-107020000D01*
X122640000Y-110620000D02*
X122050000Y-111210000D01*
X124860000Y-107720000D02*
X124860000Y-108637643D01*
%TO.N,~{DIB2_CSA}*%
D13*
X117099961Y-109430433D02*
X117109021Y-109439493D01*
X117099961Y-107168331D02*
X117099961Y-109430433D01*
X116601990Y-106670360D02*
X117099961Y-107168331D01*
%TO.N,DIB2{slash}DIB5_MISO*%
X111516244Y-100747954D02*
X113358290Y-102590000D01*
X113358290Y-102590000D02*
X113428400Y-102590000D01*
X109326354Y-100747954D02*
X111516244Y-100747954D01*
X108830000Y-100251600D02*
X109326354Y-100747954D01*
%TO.N,~{TFT_IRQ}*%
X123048433Y-110090000D02*
X122337003Y-110090000D01*
X123990000Y-109148433D02*
X123048433Y-110090000D01*
X122337003Y-110090000D02*
X122301872Y-110054869D01*
X123990000Y-104140000D02*
X123990000Y-109148433D01*
%TO.N,~{DIB5_IRQ}*%
D14*
X111190000Y-108740000D02*
X111710000Y-109260000D01*
X111402660Y-101992328D02*
X111136546Y-102258442D01*
X111190000Y-102960472D02*
X111190000Y-108740000D01*
X111136546Y-102258442D02*
X111136546Y-102907018D01*
X111462800Y-101992328D02*
X111402660Y-101992328D01*
X111136546Y-102907018D02*
X111190000Y-102960472D01*
%TO.N,~{DIB5_CSA}*%
D13*
X117152839Y-103307160D02*
X117568475Y-103722796D01*
X122590000Y-108689563D02*
X122780000Y-108879563D01*
X123449563Y-108879563D02*
X123570000Y-109000000D01*
X122780000Y-108879563D02*
X123449563Y-108879563D01*
X119660000Y-107230000D02*
X121810000Y-107230000D01*
X117568475Y-105138475D02*
X119660000Y-107230000D01*
X121810000Y-107230000D02*
X122590000Y-108010000D01*
X122590000Y-108010000D02*
X122590000Y-108689563D01*
X117568475Y-103722796D02*
X117568475Y-105138475D01*
%TO.N,DIB1{slash}DIB3_SCLK*%
X111123088Y-109444599D02*
X110940000Y-109261511D01*
D14*
X115159190Y-89942486D02*
X115090410Y-89942486D01*
X115090410Y-89942486D02*
X114642896Y-90390000D01*
D13*
X115115959Y-89985717D02*
X115159190Y-89942486D01*
X115084283Y-89985717D02*
X115115959Y-89985717D01*
D14*
X110056819Y-90390000D02*
X109748006Y-90698813D01*
D13*
X110940000Y-109261511D02*
X110940000Y-103051722D01*
D14*
X114642896Y-90390000D02*
X110056819Y-90390000D01*
D13*
X110761446Y-102873168D02*
X110761446Y-102412004D01*
X110940000Y-103051722D02*
X110761446Y-102873168D01*
%TO.N,~{DIB4_CSA}*%
D14*
X125799606Y-97405060D02*
X125812569Y-97392097D01*
X122218114Y-96668114D02*
X122604900Y-97054900D01*
X120241886Y-96668114D02*
X122218114Y-96668114D01*
X119371139Y-96928389D02*
X119981611Y-96928389D01*
X122604900Y-97054900D02*
X123934900Y-97054900D01*
X123934900Y-97054900D02*
X124285060Y-97405060D01*
X119981611Y-96928389D02*
X120241886Y-96668114D01*
X124285060Y-97405060D02*
X125799606Y-97405060D01*
%TO.N,DIB1{slash}DIB3_MOSI*%
X122703431Y-100990624D02*
X122703431Y-101025726D01*
D13*
X126161801Y-104681796D02*
X126233397Y-104610200D01*
X126470000Y-108680000D02*
X126470000Y-105689540D01*
X126470000Y-105689540D02*
X126161801Y-105381341D01*
D14*
X121654602Y-99013042D02*
X121654602Y-99941795D01*
X121638118Y-98996558D02*
X121654602Y-99013042D01*
D13*
X126161801Y-105381341D02*
X126161801Y-104681796D01*
D14*
X121654602Y-99941795D02*
X122703431Y-100990624D01*
D13*
X125104217Y-109144217D02*
X126005783Y-109144217D01*
X126005783Y-109144217D02*
X126470000Y-108680000D01*
%TO.N,UART_TX{slash}DOUT1*%
D14*
X125060000Y-106519399D02*
X125054900Y-106524499D01*
X119348273Y-100888273D02*
X119775000Y-101315000D01*
X125060000Y-105236301D02*
X125060000Y-106519399D01*
X122583324Y-102780000D02*
X122623263Y-102740061D01*
X119050000Y-100850000D02*
X119088273Y-100888273D01*
X119088273Y-100888273D02*
X119348273Y-100888273D01*
X119775000Y-102225000D02*
X120330000Y-102780000D01*
X125185385Y-105110916D02*
X125060000Y-105236301D01*
X119775000Y-101315000D02*
X119775000Y-102225000D01*
X120330000Y-102780000D02*
X122583324Y-102780000D01*
%TO.N,+VAUX*%
D13*
X117221877Y-106682348D02*
X117221877Y-106261547D01*
X117221877Y-106261547D02*
X115228983Y-104268653D01*
X115230000Y-102483783D02*
X114400500Y-101654283D01*
X115230000Y-103521823D02*
X115230000Y-102483783D01*
X115228983Y-104268653D02*
X115228983Y-103522840D01*
X115228983Y-103522840D02*
X115230000Y-103521823D01*
%TO.N,SDA*%
D14*
X124135831Y-85254169D02*
X120348131Y-85254169D01*
X120348131Y-85254169D02*
X120042300Y-85560000D01*
X120042300Y-85560000D02*
X112570000Y-85560000D01*
D13*
X125125037Y-84384963D02*
X125125037Y-84373363D01*
X125125037Y-84373363D02*
X125090186Y-84338512D01*
D14*
X124500000Y-84890000D02*
X124538698Y-84890000D01*
X124500000Y-84890000D02*
X124135831Y-85254169D01*
X112570000Y-85560000D02*
X111810000Y-86320000D01*
%TO.N,~{LED_PWR}*%
D13*
X110160000Y-100340000D02*
X110396945Y-100340000D01*
X112465024Y-101064800D02*
X113820000Y-102419776D01*
X113820000Y-102419776D02*
X113820000Y-109650000D01*
X110396945Y-100340000D02*
X110397205Y-100339740D01*
X112192300Y-101064800D02*
X112465024Y-101064800D01*
X111467240Y-100339740D02*
X112192300Y-101064800D01*
X110397205Y-100339740D02*
X111467240Y-100339740D01*
X113820000Y-109650000D02*
X113610000Y-109860000D01*
%TO.N,RS485_TX{slash}DOUT3*%
D14*
X109417231Y-102002769D02*
X108640000Y-102780000D01*
X108640000Y-102780000D02*
X108640000Y-104180000D01*
X108640000Y-104180000D02*
X108850000Y-104390000D01*
X108850000Y-106960000D02*
X109880000Y-107990000D01*
X109880000Y-107990000D02*
X110120000Y-107990000D01*
X108850000Y-104390000D02*
X108850000Y-106960000D01*
X109925665Y-102002769D02*
X109417231Y-102002769D01*
%TO.N,RS485_RX{slash}DIN3*%
D13*
X110604471Y-109579833D02*
X110580000Y-109555362D01*
X108781277Y-91828723D02*
X106950000Y-93660000D01*
X114746725Y-91828723D02*
X108781277Y-91828723D01*
X110580000Y-103327424D02*
X110312679Y-103060103D01*
X110580000Y-109555362D02*
X110580000Y-103327424D01*
X114755669Y-91819779D02*
X114746725Y-91828723D01*
%TO.N,XSPIM_P1_IO10*%
D14*
X124221568Y-92211568D02*
X124101835Y-92091835D01*
X135050369Y-97500000D02*
X132502821Y-97500000D01*
X122753117Y-92091835D02*
X122448859Y-91787577D01*
X127708116Y-92550289D02*
X127560827Y-92403000D01*
X132502821Y-97500000D02*
X131960000Y-96957179D01*
X132206450Y-95505978D02*
X131885372Y-95184900D01*
X127560827Y-92403000D02*
X126297340Y-92403000D01*
X124101835Y-92091835D02*
X122753117Y-92091835D01*
X131674900Y-95184900D02*
X129040289Y-92550289D01*
X126297340Y-92403000D02*
X126105908Y-92211568D01*
X126105908Y-92211568D02*
X124221568Y-92211568D01*
X132206450Y-95948223D02*
X132206450Y-95505978D01*
X135109086Y-97558717D02*
X135050369Y-97500000D01*
X129040289Y-92550289D02*
X127708116Y-92550289D01*
X131960000Y-96194673D02*
X132206450Y-95948223D01*
X131885372Y-95184900D02*
X131674900Y-95184900D01*
X131960000Y-96957179D02*
X131960000Y-96194673D01*
%TO.N,~{XSPI_M_P1_CS}*%
X127114679Y-90440000D02*
X126564399Y-90990280D01*
X135250000Y-95780000D02*
X131850000Y-92380000D01*
X135250000Y-97030000D02*
X135250000Y-95780000D01*
X130440000Y-90590000D02*
X127982761Y-90590000D01*
X126564399Y-90990280D02*
X125740280Y-90990280D01*
X127982761Y-90590000D02*
X127832761Y-90440000D01*
X125740280Y-90990280D02*
X125650000Y-90900000D01*
X135780000Y-97560000D02*
X135250000Y-97030000D01*
X131850000Y-92380000D02*
X131850000Y-92000000D01*
X127832761Y-90440000D02*
X127114679Y-90440000D01*
X131850000Y-92000000D02*
X130440000Y-90590000D01*
X135780000Y-98800000D02*
X135780000Y-97560000D01*
%TO.N,XSPIM_P1_IO11*%
X134075489Y-101770000D02*
X134126289Y-101770000D01*
X129811800Y-100448971D02*
X128952300Y-99589471D01*
X135213500Y-101299631D02*
X135213500Y-101124091D01*
X134481889Y-101922400D02*
X134481889Y-101871600D01*
X134583489Y-101770000D02*
X134634289Y-101770000D01*
X132868289Y-102012000D02*
X133110289Y-101770000D01*
X133211889Y-101871600D02*
X133211889Y-101922400D01*
X128952300Y-98315310D02*
X127400990Y-96764000D01*
X124559868Y-96710000D02*
X124168298Y-96318430D01*
X133973889Y-101922400D02*
X133973889Y-101871600D01*
X125467817Y-96559797D02*
X125317615Y-96710000D01*
X134821566Y-101691565D02*
X135213500Y-101299631D01*
X125317615Y-96710000D02*
X124559868Y-96710000D01*
X133465889Y-101922400D02*
X133465889Y-101871600D01*
X124168298Y-96318430D02*
X124168298Y-96225191D01*
X126361523Y-96764000D02*
X126157319Y-96559797D01*
X134743131Y-101770000D02*
X134821566Y-101691565D01*
X134634289Y-101770000D02*
X134743131Y-101770000D01*
X129811800Y-100457194D02*
X131366606Y-102012000D01*
X133821489Y-102024000D02*
X133872289Y-102024000D01*
X133567489Y-101770000D02*
X133618289Y-101770000D01*
X135213500Y-101124091D02*
X135769816Y-100567775D01*
X133719889Y-101871600D02*
X133719889Y-101922400D01*
X131366606Y-102012000D02*
X132868289Y-102012000D01*
X127400990Y-96764000D02*
X126361523Y-96764000D01*
X135769816Y-100567775D02*
X135769816Y-100419816D01*
X128952300Y-99589471D02*
X128952300Y-98315310D01*
X134329489Y-102024000D02*
X134380289Y-102024000D01*
X134227889Y-101871600D02*
X134227889Y-101922400D01*
X133313489Y-102024000D02*
X133364289Y-102024000D01*
X126157319Y-96559797D02*
X125467817Y-96559797D01*
X134227889Y-101922400D02*
G75*
G03*
X134329489Y-102024011I101611J0D01*
G01*
X133211889Y-101922400D02*
G75*
G03*
X133313489Y-102024011I101611J0D01*
G01*
X133618289Y-101770000D02*
G75*
G02*
X133719900Y-101871600I11J-101600D01*
G01*
X134126289Y-101770000D02*
G75*
G02*
X134227900Y-101871600I11J-101600D01*
G01*
X133110289Y-101770000D02*
G75*
G02*
X133211900Y-101871600I11J-101600D01*
G01*
X133973889Y-101871600D02*
G75*
G02*
X134075489Y-101769989I101611J0D01*
G01*
X134380289Y-102024000D02*
G75*
G03*
X134481900Y-101922400I11J101600D01*
G01*
X134481889Y-101871600D02*
G75*
G02*
X134583489Y-101769989I101611J0D01*
G01*
X133465889Y-101871600D02*
G75*
G02*
X133567489Y-101769989I101611J0D01*
G01*
X133364289Y-102024000D02*
G75*
G03*
X133465900Y-101922400I11J101600D01*
G01*
X133719889Y-101922400D02*
G75*
G03*
X133821489Y-102024011I101611J0D01*
G01*
X133872289Y-102024000D02*
G75*
G03*
X133973900Y-101922400I11J101600D01*
G01*
%TO.N,XSPIM_P1_IO12*%
X123350000Y-96394213D02*
X123350000Y-96324213D01*
X135218170Y-101937354D02*
X135182248Y-101901432D01*
X130478835Y-101512553D02*
X130442917Y-101476634D01*
X123645921Y-96394213D02*
X123350000Y-96394213D01*
X130658442Y-101835844D02*
X130622521Y-101871766D01*
X135541460Y-101757750D02*
X135577381Y-101721828D01*
X123849409Y-96597701D02*
X123645921Y-96394213D01*
X135182248Y-101757748D02*
X135218170Y-101721828D01*
X135577381Y-101362618D02*
X135700000Y-101240000D01*
X126062630Y-96788397D02*
X125562507Y-96788397D01*
X134480000Y-102296000D02*
X134644000Y-102296000D01*
X135182249Y-102116960D02*
X135218170Y-102081038D01*
X135361855Y-101721829D02*
X135397776Y-101757750D01*
X130442917Y-101476634D02*
X130243141Y-101276858D01*
X130106253Y-101141384D02*
X128723700Y-99758831D01*
X131017653Y-102195055D02*
X130981732Y-102230977D01*
X130838048Y-102230977D02*
X130802126Y-102195055D01*
X134644000Y-102296000D02*
X134858960Y-102081039D01*
X130442915Y-101692160D02*
X130478835Y-101656237D01*
X128723700Y-99758831D02*
X128723700Y-98410000D01*
X135577381Y-101578144D02*
X135541459Y-101542222D01*
X125562507Y-96788397D02*
X125403044Y-96947860D01*
X134480000Y-102296000D02*
X131262283Y-102296000D01*
X130107667Y-101141384D02*
X130106253Y-101141384D01*
X130243141Y-101276858D02*
X130107667Y-101141384D01*
X135002644Y-102081039D02*
X135038565Y-102116960D01*
X135218170Y-101721828D02*
X135218171Y-101721829D01*
X125403044Y-96947860D02*
X124474439Y-96947860D01*
X124124278Y-96597700D02*
X123849409Y-96597701D01*
X126292233Y-97018000D02*
X126062630Y-96788397D01*
X130802126Y-102051371D02*
X130838046Y-102015448D01*
X131262283Y-102296000D02*
X131161339Y-102195056D01*
X127331701Y-97018000D02*
X126292233Y-97018000D01*
X130478837Y-101871766D02*
X130442915Y-101835844D01*
X124474439Y-96947860D02*
X124124278Y-96597700D01*
X135541459Y-101398538D02*
X135577381Y-101362618D01*
X130838046Y-101871764D02*
X130802128Y-101835845D01*
X128723700Y-98410000D02*
X127331701Y-97018000D01*
X130981732Y-102230977D02*
G75*
G02*
X130838048Y-102230977I-71842J71842D01*
G01*
X135541459Y-101542222D02*
G75*
G02*
X135541479Y-101398558I71841J71822D01*
G01*
X130478835Y-101656237D02*
G75*
G03*
X130478830Y-101512558I-71835J71837D01*
G01*
X130442915Y-101835844D02*
G75*
G02*
X130442913Y-101692158I71885J71844D01*
G01*
X135218171Y-101721829D02*
G75*
G02*
X135361855Y-101721829I71842J-71842D01*
G01*
X130838046Y-102015448D02*
G75*
G03*
X130838052Y-101871758I-71846J71848D01*
G01*
X130802128Y-101835845D02*
G75*
G03*
X130658457Y-101835859I-71828J-71855D01*
G01*
X135038565Y-102116960D02*
G75*
G03*
X135182249Y-102116960I71842J71842D01*
G01*
X135218170Y-102081038D02*
G75*
G03*
X135218166Y-101937358I-71870J71838D01*
G01*
X135577381Y-101721828D02*
G75*
G03*
X135577367Y-101578158I-71881J71828D01*
G01*
X130622521Y-101871766D02*
G75*
G02*
X130478837Y-101871766I-71842J71842D01*
G01*
X134858960Y-102081039D02*
G75*
G02*
X135002644Y-102081039I71842J-71842D01*
G01*
X135397776Y-101757750D02*
G75*
G03*
X135541460Y-101757750I71842J71842D01*
G01*
X131161339Y-102195056D02*
G75*
G03*
X131017658Y-102195059I-71839J-71844D01*
G01*
X130802126Y-102195055D02*
G75*
G02*
X130802113Y-102051358I71874J71855D01*
G01*
X135182248Y-101901432D02*
G75*
G02*
X135182258Y-101757758I71852J71832D01*
G01*
%TO.N,XSPIM_P1_IO9*%
X130163684Y-90980000D02*
X130199606Y-90944079D01*
X131169466Y-92129466D02*
X131277228Y-92021701D01*
X131277227Y-92380912D02*
X131276662Y-92381477D01*
X130630654Y-91590654D02*
X130558246Y-91663061D01*
X130917454Y-92165953D02*
X130953375Y-92201874D01*
X130343290Y-90944079D02*
X130379211Y-90980000D01*
X130738419Y-91482892D02*
X130630654Y-91590654D01*
X130020000Y-90980000D02*
X129884000Y-90844000D01*
X130702498Y-91303287D02*
X130738419Y-91339208D01*
X130989862Y-91949862D02*
X130917454Y-92022269D01*
X134850000Y-95810000D02*
X134850000Y-96420000D01*
X131061706Y-91662495D02*
X131097627Y-91698416D01*
X131456835Y-92201308D02*
X131349070Y-92309070D01*
X130199038Y-91447537D02*
X130234959Y-91483458D01*
X131349070Y-92309070D02*
X131277227Y-92380912D01*
X131420914Y-92021703D02*
X131456835Y-92057624D01*
X130379211Y-91123684D02*
X130343288Y-91159604D01*
X130378643Y-91483458D02*
X130451050Y-91411050D01*
X131600516Y-92560516D02*
X131636438Y-92596438D01*
X131097059Y-92201874D02*
X131169466Y-92129466D01*
X130271446Y-91231446D02*
X130199038Y-91303853D01*
X130810258Y-91770258D02*
X130918020Y-91662493D01*
X127429890Y-90694000D02*
X126956390Y-91167500D01*
X131636438Y-92596438D02*
X131729403Y-92689403D01*
X130343288Y-91159604D02*
X130271446Y-91231446D01*
X131097627Y-91842100D02*
X130989862Y-91949862D01*
X129884000Y-90844000D02*
X127877551Y-90844000D01*
X131456267Y-92561082D02*
X131456832Y-92560516D01*
X130451050Y-91411050D02*
X130558812Y-91303285D01*
X131276662Y-92525161D02*
X131312583Y-92561082D01*
X127727551Y-90694000D02*
X127429890Y-90694000D01*
X130737851Y-91842666D02*
X130810258Y-91770258D01*
X127877551Y-90844000D02*
X127727551Y-90694000D01*
X131729403Y-92689403D02*
X134850000Y-95810000D01*
X130558246Y-91806745D02*
X130594167Y-91842666D01*
X130594167Y-91842666D02*
G75*
G03*
X130737851Y-91842666I71842J71842D01*
G01*
X130379211Y-90980000D02*
G75*
G02*
X130379169Y-91123642I-71811J-71800D01*
G01*
X130558812Y-91303285D02*
G75*
G02*
X130702544Y-91303241I71888J-71815D01*
G01*
X130738419Y-91339208D02*
G75*
G02*
X130738469Y-91482942I-71819J-71892D01*
G01*
X130953375Y-92201874D02*
G75*
G03*
X131097059Y-92201874I71842J71842D01*
G01*
X130918020Y-91662493D02*
G75*
G02*
X131061744Y-91662457I71880J-71807D01*
G01*
X131277228Y-92021701D02*
G75*
G02*
X131420944Y-92021673I71872J-71799D01*
G01*
X130234959Y-91483458D02*
G75*
G03*
X130378643Y-91483458I71842J71842D01*
G01*
X130917454Y-92022269D02*
G75*
G03*
X130917465Y-92165942I71846J-71831D01*
G01*
X131276662Y-92381477D02*
G75*
G03*
X131276681Y-92525142I71838J-71823D01*
G01*
X130020000Y-90980000D02*
G75*
G03*
X130163684Y-90980000I71842J71842D01*
G01*
X130199606Y-90944079D02*
G75*
G02*
X130343290Y-90944079I71842J-71842D01*
G01*
X130199038Y-91303853D02*
G75*
G03*
X130199033Y-91447542I71862J-71847D01*
G01*
X130558246Y-91663061D02*
G75*
G03*
X130558249Y-91806742I71854J-71839D01*
G01*
X131312583Y-92561082D02*
G75*
G03*
X131456267Y-92561082I71842J71842D01*
G01*
X131456835Y-92057624D02*
G75*
G02*
X131456869Y-92201342I-71835J-71876D01*
G01*
X131456832Y-92560516D02*
G75*
G02*
X131600516Y-92560516I71842J-71842D01*
G01*
X131097627Y-91698416D02*
G75*
G02*
X131097669Y-91842142I-71827J-71884D01*
G01*
%TO.N,XSPI_M_P1_CLK*%
X133953200Y-98224000D02*
X134004000Y-98224000D01*
X132192830Y-97732830D02*
X132430000Y-97970000D01*
X130463980Y-95413544D02*
X129020234Y-93969798D01*
X131361050Y-96021600D02*
X131361850Y-96021600D01*
X134258000Y-97970000D02*
X134510000Y-97970000D01*
X131005450Y-96377200D02*
X131005450Y-96428000D01*
X133089600Y-98071600D02*
X133089600Y-97970000D01*
X129020234Y-93969798D02*
X128009798Y-93969798D01*
X133597600Y-98122400D02*
X133597600Y-97970000D01*
X133089600Y-98072400D02*
X133089600Y-98071600D01*
X133445200Y-98224000D02*
X133496000Y-98224000D01*
X131361850Y-96275600D02*
X131361050Y-96275600D01*
X133851600Y-98071600D02*
X133851600Y-98122400D01*
X131259450Y-96631200D02*
X131259450Y-96682000D01*
X131361050Y-96275600D02*
X131157850Y-96275600D01*
X128009798Y-93969798D02*
X126951000Y-92911000D01*
X133597600Y-97970000D02*
X133597600Y-97867600D01*
X133089600Y-97970000D02*
X133089600Y-97867600D01*
X133343600Y-97970000D02*
X133343600Y-98122400D01*
X133699200Y-97766000D02*
X133750000Y-97766000D01*
X134207200Y-97970000D02*
X134258000Y-97970000D01*
X133343600Y-97867600D02*
X133343600Y-97970000D01*
X134510000Y-97970000D02*
X134535000Y-97945000D01*
X131157850Y-96275600D02*
X131107050Y-96275600D01*
X132122119Y-97662118D02*
X132192830Y-97732830D01*
X131107050Y-96529600D02*
X131157850Y-96529600D01*
X132835600Y-98071600D02*
X132835600Y-98072400D01*
X130752994Y-95413544D02*
X130463980Y-95413544D01*
X133851600Y-97867600D02*
X133851600Y-97970000D01*
X133191200Y-97766000D02*
X133242000Y-97766000D01*
X126951000Y-92911000D02*
X125758015Y-92911000D01*
X125758015Y-92911000D02*
X125687715Y-92840700D01*
X131259450Y-96682000D02*
X131259450Y-96799450D01*
X133851600Y-97970000D02*
X133851600Y-98071600D01*
X131259450Y-96799450D02*
X131474410Y-97014410D01*
X131474410Y-97232198D02*
X131545120Y-97302908D01*
X134510000Y-97970000D02*
X134535000Y-97945000D01*
X131259450Y-95920000D02*
X130752994Y-95413544D01*
X132937200Y-98174000D02*
X132988000Y-98174000D01*
X131833620Y-97591408D02*
X131904330Y-97662118D01*
X132430000Y-97970000D02*
X132734000Y-97970000D01*
X131762909Y-97302908D02*
X131833620Y-97373620D01*
X134105600Y-98122400D02*
X134105600Y-98071600D01*
X131463450Y-96123200D02*
X131463450Y-96174000D01*
X132835600Y-98072400D02*
G75*
G03*
X132937200Y-98174000I101600J0D01*
G01*
X134004000Y-98224000D02*
G75*
G03*
X134105600Y-98122400I0J101600D01*
G01*
X133496000Y-98224000D02*
G75*
G03*
X133597600Y-98122400I0J101600D01*
G01*
X131545120Y-97302908D02*
G75*
G03*
X131654015Y-97302909I54448J54451D01*
G01*
X131654015Y-97302908D02*
G75*
G02*
X131762909Y-97302908I54447J-54446D01*
G01*
X131157850Y-96529600D02*
G75*
G02*
X131259400Y-96631200I-50J-101600D01*
G01*
X132988000Y-98174000D02*
G75*
G03*
X133089600Y-98072400I0J101600D01*
G01*
X132734000Y-97970000D02*
G75*
G02*
X132835600Y-98071600I0J-101600D01*
G01*
X133597600Y-97867600D02*
G75*
G02*
X133699200Y-97766000I101600J0D01*
G01*
X131474410Y-97014410D02*
G75*
G02*
X131474453Y-97123347I-54410J-54490D01*
G01*
X134105600Y-98071600D02*
G75*
G02*
X134207200Y-97970000I101600J0D01*
G01*
X132013225Y-97662118D02*
G75*
G02*
X132122119Y-97662118I54447J-54446D01*
G01*
X131474410Y-97123304D02*
G75*
G03*
X131474361Y-97232247I54490J-54496D01*
G01*
X131107050Y-96275600D02*
G75*
G03*
X131005500Y-96377200I50J-101600D01*
G01*
X131833620Y-97482514D02*
G75*
G03*
X131833581Y-97591447I54480J-54486D01*
G01*
X133343600Y-98122400D02*
G75*
G03*
X133445200Y-98224000I101600J0D01*
G01*
X131259450Y-95920000D02*
G75*
G03*
X131361050Y-96021650I101650J0D01*
G01*
X133750000Y-97766000D02*
G75*
G02*
X133851600Y-97867600I0J-101600D01*
G01*
X133851600Y-98122400D02*
G75*
G03*
X133953200Y-98224000I101600J0D01*
G01*
X133242000Y-97766000D02*
G75*
G02*
X133343600Y-97867600I0J-101600D01*
G01*
X131904330Y-97662118D02*
G75*
G03*
X132013225Y-97662119I54448J54451D01*
G01*
X131005450Y-96428000D02*
G75*
G03*
X131107050Y-96529650I101650J0D01*
G01*
X131463450Y-96174000D02*
G75*
G02*
X131361850Y-96275650I-101650J0D01*
G01*
X133089600Y-97867600D02*
G75*
G02*
X133191200Y-97766000I101600J0D01*
G01*
X131361850Y-96021600D02*
G75*
G02*
X131463400Y-96123200I-50J-101600D01*
G01*
X131833620Y-97373620D02*
G75*
G02*
X131833653Y-97482547I-54420J-54480D01*
G01*
%TO.N,XSPI_M_P1_DQS1*%
X126743131Y-93673000D02*
X125263472Y-93673000D01*
X133453550Y-99321600D02*
X133453550Y-99372400D01*
X134317150Y-99220000D02*
X134367950Y-99220000D01*
X133809150Y-99220000D02*
X133859950Y-99220000D01*
X133555150Y-99474000D02*
X133605950Y-99474000D01*
X122266418Y-92391531D02*
X122161340Y-92286453D01*
X134063150Y-99474000D02*
X134113950Y-99474000D01*
X133961550Y-99321600D02*
X133961550Y-99372400D01*
X132241056Y-99220000D02*
X131493500Y-98472445D01*
X129934955Y-96415579D02*
X128247376Y-94728000D01*
X131493500Y-98472445D02*
X131493500Y-97976328D01*
X122266418Y-92900462D02*
X122266418Y-92391531D01*
X131493500Y-97976328D02*
X129934955Y-96417783D01*
X134550000Y-99220000D02*
X134870000Y-99540000D01*
X129934955Y-96417783D02*
X129934955Y-96415579D01*
X127798131Y-94728000D02*
X126743131Y-93673000D01*
X133707550Y-99372400D02*
X133707550Y-99321600D01*
X125263472Y-93673000D02*
X125165372Y-93574900D01*
X124065057Y-93574900D02*
X123853019Y-93362862D01*
X134870000Y-99540000D02*
X134890000Y-99540000D01*
X122609143Y-93243187D02*
X122266418Y-92900462D01*
X125165372Y-93574900D02*
X124065057Y-93574900D01*
X134215550Y-99372400D02*
X134215550Y-99321600D01*
X133351950Y-99220000D02*
X132241056Y-99220000D01*
X134367950Y-99220000D02*
X134550000Y-99220000D01*
X123853019Y-93362862D02*
X123712862Y-93362862D01*
X123593187Y-93243187D02*
X122609143Y-93243187D01*
X128247376Y-94728000D02*
X127798131Y-94728000D01*
X123712862Y-93362862D02*
X123593187Y-93243187D01*
X134215550Y-99321600D02*
G75*
G02*
X134317150Y-99219950I101650J0D01*
G01*
X133453550Y-99372400D02*
G75*
G03*
X133555150Y-99474050I101650J0D01*
G01*
X133961550Y-99372400D02*
G75*
G03*
X134063150Y-99474050I101650J0D01*
G01*
X133859950Y-99220000D02*
G75*
G02*
X133961500Y-99321600I-50J-101600D01*
G01*
X133605950Y-99474000D02*
G75*
G03*
X133707500Y-99372400I-50J101600D01*
G01*
X134113950Y-99474000D02*
G75*
G03*
X134215500Y-99372400I-50J101600D01*
G01*
X133707550Y-99321600D02*
G75*
G02*
X133809150Y-99219950I101650J0D01*
G01*
X133351950Y-99220000D02*
G75*
G02*
X133453500Y-99321600I-50J-101600D01*
G01*
%TO.N,XSPIM_P1_IO13*%
X130048306Y-97997853D02*
X127796453Y-95746000D01*
X130048306Y-98565211D02*
X130048306Y-97997853D01*
X127176472Y-95746000D02*
X126940236Y-95509764D01*
X134410000Y-100390000D02*
X132333426Y-100390000D01*
X127796453Y-95746000D02*
X127176472Y-95746000D01*
X132333426Y-100390000D02*
X131547226Y-99603800D01*
X134550000Y-100250000D02*
X134410000Y-100390000D01*
X131547226Y-99603800D02*
X131086895Y-99603800D01*
X131086895Y-99603800D02*
X130048306Y-98565211D01*
%TO.N,XSPIM_P1_IO14*%
X129597330Y-99688778D02*
X129633252Y-99652857D01*
X127493789Y-96535400D02*
X127468389Y-96510000D01*
X131629600Y-101656400D02*
X131629600Y-101605600D01*
X130674960Y-100766408D02*
X130710882Y-100730487D01*
X131249696Y-101484828D02*
X131444868Y-101680000D01*
X130136144Y-100371276D02*
X130172066Y-100407198D01*
X134473500Y-101370000D02*
X134566750Y-101276750D01*
X123630091Y-95850091D02*
X123180000Y-95400000D01*
X133170000Y-101370000D02*
X134473500Y-101370000D01*
X132239200Y-101554000D02*
X132290000Y-101554000D01*
X123180000Y-95400000D02*
X122920000Y-95400000D01*
X131213776Y-101089697D02*
X131249697Y-101125618D01*
X130315750Y-100407198D02*
X130351672Y-100371277D01*
X129286306Y-98918344D02*
X129284306Y-98916344D01*
X130495356Y-100371277D02*
X130531277Y-100407198D01*
X125778070Y-95850091D02*
X123630091Y-95850091D01*
X129956540Y-100047988D02*
X129992462Y-100012067D01*
X129776936Y-99652857D02*
X129812857Y-99688778D01*
X126437979Y-96510000D02*
X125778070Y-95850091D01*
X129812857Y-99832462D02*
X129776934Y-99868382D01*
X132137600Y-101656400D02*
X132137600Y-101655600D01*
X131444868Y-101680000D02*
X131450000Y-101680000D01*
X133115158Y-101370000D02*
X133170000Y-101370000D01*
X131249697Y-101269302D02*
X131213774Y-101305222D01*
X129286306Y-99521438D02*
X129286306Y-98918344D01*
X131985200Y-101758000D02*
X132036000Y-101758000D01*
X131034170Y-101125618D02*
X131070092Y-101089697D01*
X130495354Y-100730486D02*
X130531276Y-100766408D01*
X132727158Y-101758000D02*
X132942118Y-101543039D01*
X130172067Y-100191672D02*
X130136144Y-100227592D01*
X132942118Y-101543039D02*
X133115158Y-101370000D01*
X131450000Y-101680000D02*
X131528000Y-101758000D01*
X130854564Y-101089696D02*
X130890486Y-101125618D01*
X130890487Y-100910092D02*
X130854564Y-100946012D01*
X131213774Y-101448906D02*
X131249696Y-101484828D01*
X130136146Y-100012067D02*
X130172067Y-100047988D01*
X130531277Y-100550882D02*
X130495354Y-100586802D01*
X132493200Y-101758000D02*
X132544000Y-101758000D01*
X129776934Y-100012066D02*
X129812856Y-100047988D01*
X127468389Y-96510000D02*
X126437979Y-96510000D01*
X131731200Y-101504000D02*
X131782000Y-101504000D01*
X129284306Y-98324027D02*
X127495680Y-96535400D01*
X131883600Y-101605600D02*
X131883600Y-101656400D01*
X130854566Y-100730487D02*
X130890487Y-100766408D01*
X132391600Y-101655600D02*
X132391600Y-101656400D01*
X127495680Y-96535400D02*
X127493789Y-96535400D01*
X129284306Y-98916344D02*
X129284306Y-98324027D01*
X129453646Y-99688778D02*
X129286306Y-99521438D01*
X132544000Y-101758000D02*
X132727158Y-101758000D01*
X132036000Y-101758000D02*
G75*
G03*
X132137600Y-101656400I0J101600D01*
G01*
X130495354Y-100586802D02*
G75*
G03*
X130495398Y-100730442I71846J-71798D01*
G01*
X131070092Y-101089697D02*
G75*
G02*
X131213776Y-101089697I71842J-71842D01*
G01*
X129453646Y-99688778D02*
G75*
G03*
X129597330Y-99688778I71842J71842D01*
G01*
X131528000Y-101758000D02*
G75*
G03*
X131629600Y-101656400I0J101600D01*
G01*
X131213774Y-101305222D02*
G75*
G03*
X131213738Y-101448942I71826J-71878D01*
G01*
X130172066Y-100407198D02*
G75*
G03*
X130315750Y-100407198I71842J71842D01*
G01*
X130136144Y-100227592D02*
G75*
G03*
X130136178Y-100371242I71856J-71808D01*
G01*
X132290000Y-101554000D02*
G75*
G02*
X132391600Y-101655600I0J-101600D01*
G01*
X131249697Y-101125618D02*
G75*
G02*
X131249737Y-101269342I-71797J-71882D01*
G01*
X131782000Y-101504000D02*
G75*
G02*
X131883600Y-101605600I0J-101600D01*
G01*
X130854564Y-100946012D02*
G75*
G03*
X130854518Y-101089742I71836J-71888D01*
G01*
X132137600Y-101655600D02*
G75*
G02*
X132239200Y-101554000I101600J0D01*
G01*
X130710882Y-100730487D02*
G75*
G02*
X130854566Y-100730487I71842J-71842D01*
G01*
X132391600Y-101656400D02*
G75*
G03*
X132493200Y-101758000I101600J0D01*
G01*
X129776934Y-99868382D02*
G75*
G03*
X129776958Y-100012042I71866J-71818D01*
G01*
X130890487Y-100766408D02*
G75*
G02*
X130890537Y-100910142I-71887J-71892D01*
G01*
X130890486Y-101125618D02*
G75*
G03*
X131034170Y-101125618I71842J71842D01*
G01*
X131629600Y-101605600D02*
G75*
G02*
X131731200Y-101504000I101600J0D01*
G01*
X129812857Y-99688778D02*
G75*
G02*
X129812837Y-99832442I-71857J-71822D01*
G01*
X130531277Y-100407198D02*
G75*
G02*
X130531237Y-100550842I-71877J-71802D01*
G01*
X130351672Y-100371277D02*
G75*
G02*
X130495356Y-100371277I71842J-71842D01*
G01*
X130531276Y-100766408D02*
G75*
G03*
X130674960Y-100766408I71842J71842D01*
G01*
X130172067Y-100047988D02*
G75*
G02*
X130172037Y-100191642I-71867J-71812D01*
G01*
X129992462Y-100012067D02*
G75*
G02*
X130136146Y-100012067I71842J-71842D01*
G01*
X129633252Y-99652857D02*
G75*
G02*
X129776936Y-99652857I71842J-71842D01*
G01*
X129812856Y-100047988D02*
G75*
G03*
X129956540Y-100047988I71842J71842D01*
G01*
X131883600Y-101656400D02*
G75*
G03*
X131985200Y-101758000I101600J0D01*
G01*
%TO.N,XSPIM_P1_IO8*%
X133844787Y-95564315D02*
X133844787Y-95694047D01*
D13*
X124313434Y-91004861D02*
X124313434Y-91123500D01*
D14*
X133465372Y-95184900D02*
X133844787Y-95564315D01*
X131962310Y-93622310D02*
X131998232Y-93658232D01*
X132645376Y-94016877D02*
X132681297Y-94052798D01*
X126421538Y-91449568D02*
X124639502Y-91449568D01*
X128248289Y-91210000D02*
X127817289Y-91641000D01*
X126612970Y-91641000D02*
X126421538Y-91449568D01*
X132321520Y-93981520D02*
X132357442Y-94017442D01*
X127817289Y-91641000D02*
X126612970Y-91641000D01*
X132501126Y-94017442D02*
X132501692Y-94016877D01*
X133075862Y-94735862D02*
X133147611Y-94807611D01*
X131423496Y-92939812D02*
X131424062Y-92939247D01*
X133147611Y-94807611D02*
X133147611Y-94897139D01*
X131962877Y-93478062D02*
X131962310Y-93478626D01*
X132322087Y-93837272D02*
X132321520Y-93837836D01*
X133004586Y-94376087D02*
X133040507Y-94412008D01*
X132681297Y-94196482D02*
X132680730Y-94197046D01*
X131926956Y-93298457D02*
X131962877Y-93334378D01*
X132860336Y-94376652D02*
X132860902Y-94376087D01*
X129550000Y-91210000D02*
X128248289Y-91210000D01*
X132680730Y-94340730D02*
X132716652Y-94376652D01*
X131782706Y-93299022D02*
X131783272Y-93298457D01*
X132141916Y-93658232D02*
X132142482Y-93657667D01*
X133039940Y-94699940D02*
X133075862Y-94735862D01*
X132286166Y-93657667D02*
X132322087Y-93693588D01*
X133040507Y-94555692D02*
X133039940Y-94556256D01*
X131603100Y-93263100D02*
X131639022Y-93299022D01*
X124639502Y-91449568D02*
X124313434Y-91123500D01*
X133147611Y-94897139D02*
X133435372Y-95184900D01*
D13*
X124329227Y-90989068D02*
X124313434Y-91004861D01*
D14*
X131603667Y-93118852D02*
X131603100Y-93119416D01*
X131567746Y-92939247D02*
X131603667Y-92975168D01*
X131279812Y-92939812D02*
X129550000Y-91210000D01*
X133435372Y-95184900D02*
X133465372Y-95184900D01*
X133039940Y-94556256D02*
G75*
G03*
X133039938Y-94699942I71860J-71844D01*
G01*
X131639022Y-93299022D02*
G75*
G03*
X131782706Y-93299022I71842J71842D01*
G01*
X131783272Y-93298457D02*
G75*
G02*
X131926956Y-93298457I71842J-71842D01*
G01*
X131998232Y-93658232D02*
G75*
G03*
X132141916Y-93658232I71842J71842D01*
G01*
X132501692Y-94016877D02*
G75*
G02*
X132645376Y-94016877I71842J-71842D01*
G01*
X131279812Y-92939812D02*
G75*
G03*
X131423496Y-92939812I71842J71842D01*
G01*
X132681297Y-94052798D02*
G75*
G02*
X132681257Y-94196442I-71797J-71802D01*
G01*
X131962877Y-93334378D02*
G75*
G02*
X131962857Y-93478042I-71877J-71822D01*
G01*
X131603667Y-92975168D02*
G75*
G02*
X131603657Y-93118842I-71867J-71832D01*
G01*
X132716652Y-94376652D02*
G75*
G03*
X132860336Y-94376652I71842J71842D01*
G01*
X132321520Y-93837836D02*
G75*
G03*
X132321498Y-93981542I71880J-71864D01*
G01*
X131603100Y-93119416D02*
G75*
G03*
X131603058Y-93263142I71800J-71884D01*
G01*
X132357442Y-94017442D02*
G75*
G03*
X132501126Y-94017442I71842J71842D01*
G01*
X131424062Y-92939247D02*
G75*
G02*
X131567746Y-92939247I71842J-71842D01*
G01*
X132322087Y-93693588D02*
G75*
G02*
X132322057Y-93837242I-71887J-71812D01*
G01*
X133040507Y-94412008D02*
G75*
G02*
X133040557Y-94555742I-71807J-71892D01*
G01*
X132142482Y-93657667D02*
G75*
G02*
X132286166Y-93657667I71842J-71842D01*
G01*
X131962310Y-93478626D02*
G75*
G03*
X131962278Y-93622342I71890J-71874D01*
G01*
X132680730Y-94197046D02*
G75*
G03*
X132680718Y-94340742I71870J-71854D01*
G01*
X132860902Y-94376087D02*
G75*
G02*
X133004586Y-94376087I71842J-71842D01*
G01*
%TO.N,XSPI_M_P1_DQS0*%
X129212104Y-95188420D02*
X129248026Y-95152499D01*
D13*
X123334932Y-92561030D02*
X123348876Y-92547086D01*
D14*
X133342918Y-98852400D02*
X133342918Y-98801600D01*
X123334932Y-92561030D02*
X123857364Y-93083462D01*
X124321169Y-93346300D02*
X125260062Y-93346300D01*
X125358162Y-93444400D02*
X126837820Y-93444400D01*
X133088918Y-98547600D02*
X133088918Y-98598400D01*
X133444518Y-98700000D02*
X133495318Y-98700000D01*
X129750920Y-95511709D02*
X129786841Y-95547630D01*
X132602923Y-98830395D02*
X132733318Y-98700000D01*
X133495318Y-98700000D02*
X133820000Y-98700000D01*
X130280000Y-96400000D02*
X131749500Y-97869500D01*
X133088918Y-98598400D02*
X133088918Y-98801600D01*
X128493684Y-94470000D02*
X128494250Y-94469435D01*
X128673288Y-94793288D02*
X128709210Y-94829210D01*
X129786840Y-95906840D02*
X130280000Y-96400000D01*
X128673855Y-94649040D02*
X128673288Y-94649604D01*
X127863420Y-94470000D02*
X128050000Y-94470000D01*
X124058331Y-93083462D02*
X124321169Y-93346300D01*
X123857364Y-93083462D02*
X124058331Y-93083462D01*
X133088918Y-98801600D02*
X133088918Y-98852400D01*
X129750918Y-95870918D02*
X129786840Y-95906840D01*
X132936518Y-98446000D02*
X132987318Y-98446000D01*
X125260062Y-93346300D02*
X125358162Y-93444400D01*
X131749500Y-98366406D02*
X132213489Y-98830395D01*
X129427631Y-95332104D02*
X129391708Y-95368024D01*
X129391710Y-95152499D02*
X129427631Y-95188420D01*
X128637934Y-94469435D02*
X128673855Y-94505356D01*
X129068421Y-94972894D02*
X129032498Y-95008814D01*
X132213489Y-98830395D02*
X132602923Y-98830395D01*
X129391708Y-95511708D02*
X129427630Y-95547630D01*
X132834918Y-98598400D02*
X132834918Y-98547600D01*
X129032500Y-94793289D02*
X129068421Y-94829210D01*
X129786841Y-95691314D02*
X129750918Y-95727234D01*
D13*
X123348876Y-92547086D02*
X123348876Y-92517921D01*
D14*
X129032498Y-95152498D02*
X129068420Y-95188420D01*
X129571314Y-95547630D02*
X129607236Y-95511709D01*
X131749500Y-97869500D02*
X131749500Y-98366406D01*
X133190518Y-98954000D02*
X133241318Y-98954000D01*
X128852894Y-94829210D02*
X128888816Y-94793289D01*
X126837820Y-93444400D02*
X127863420Y-94470000D01*
X128050000Y-94470000D02*
X128350000Y-94470000D01*
X133342918Y-98801600D02*
G75*
G02*
X133444518Y-98700018I101582J0D01*
G01*
X129391708Y-95368024D02*
G75*
G03*
X129391674Y-95511742I71792J-71876D01*
G01*
X129068420Y-95188420D02*
G75*
G03*
X129212104Y-95188420I71842J71842D01*
G01*
X129248026Y-95152499D02*
G75*
G02*
X129391710Y-95152499I71842J-71842D01*
G01*
X129786841Y-95547630D02*
G75*
G02*
X129786869Y-95691342I-71841J-71870D01*
G01*
X129068421Y-94829210D02*
G75*
G02*
X129068469Y-94972942I-71821J-71890D01*
G01*
X132733318Y-98700000D02*
G75*
G03*
X132834900Y-98598400I-18J101600D01*
G01*
X133088918Y-98852400D02*
G75*
G03*
X133190518Y-98953982I101582J0D01*
G01*
X129427631Y-95188420D02*
G75*
G02*
X129427669Y-95332142I-71831J-71880D01*
G01*
X129427630Y-95547630D02*
G75*
G03*
X129571314Y-95547630I71842J71842D01*
G01*
X128350000Y-94470000D02*
G75*
G03*
X128493684Y-94470000I71842J71842D01*
G01*
X132987318Y-98446000D02*
G75*
G02*
X133088900Y-98547600I-18J-101600D01*
G01*
X128673855Y-94505356D02*
G75*
G02*
X128673857Y-94649042I-71855J-71844D01*
G01*
X133241318Y-98954000D02*
G75*
G03*
X133342900Y-98852400I-18J101600D01*
G01*
X132834918Y-98547600D02*
G75*
G02*
X132936518Y-98446018I101582J0D01*
G01*
X129750918Y-95727234D02*
G75*
G03*
X129750894Y-95870942I71882J-71866D01*
G01*
X128494250Y-94469435D02*
G75*
G02*
X128637934Y-94469435I71842J-71842D01*
G01*
X129607236Y-95511709D02*
G75*
G02*
X129750920Y-95511709I71842J-71842D01*
G01*
X128673288Y-94649604D02*
G75*
G03*
X128673334Y-94793242I71812J-71796D01*
G01*
X129032498Y-95008814D02*
G75*
G03*
X129032454Y-95152542I71802J-71886D01*
G01*
X128709210Y-94829210D02*
G75*
G03*
X128852894Y-94829210I71842J71842D01*
G01*
X128888816Y-94793289D02*
G75*
G02*
X129032500Y-94793289I71842J-71842D01*
G01*
%TO.N,XSPIM_P1_IO2*%
X131190000Y-98900000D02*
X131180000Y-98900000D01*
X123891226Y-93796200D02*
X123050578Y-93796200D01*
X126020369Y-94540000D02*
X124635026Y-94540000D01*
X127012319Y-94670000D02*
X126150369Y-94670000D01*
X130556306Y-97757554D02*
X128036752Y-95238000D01*
X126150369Y-94670000D02*
X126020369Y-94540000D01*
X128036752Y-95238000D02*
X127580319Y-95238000D01*
X131180000Y-98900000D02*
X130556306Y-98276306D01*
X130556306Y-98276306D02*
X130556306Y-97757554D01*
X123050578Y-93796200D02*
X123030549Y-93776171D01*
X124635026Y-94540000D02*
X123891226Y-93796200D01*
X131270000Y-98820000D02*
X131190000Y-98900000D01*
X127580319Y-95238000D02*
X127012319Y-94670000D01*
%TO.N,XSPIM_P1_IO15*%
X130643768Y-99554558D02*
X130679690Y-99590480D01*
X133254241Y-100851800D02*
X133254241Y-100750200D01*
X126900000Y-96000000D02*
X127691243Y-96000000D01*
X132847841Y-100647800D02*
X132898641Y-100647800D01*
X133101841Y-101105800D02*
X133152641Y-101105800D01*
X132593841Y-101055800D02*
X132644641Y-101055800D01*
X131382500Y-100612500D02*
X132151341Y-100612500D01*
X133778880Y-100851800D02*
X134088200Y-100851800D01*
X130935110Y-100453609D02*
X130971031Y-100489530D01*
X130935676Y-100309360D02*
X130935110Y-100309925D01*
X134088200Y-100851800D02*
X134150000Y-100790000D01*
X133000241Y-100851800D02*
X133000241Y-101004200D01*
X130464163Y-99590480D02*
X130500084Y-99554558D01*
X130320480Y-99374954D02*
X130284558Y-99410875D01*
X132746241Y-100851800D02*
X132746241Y-100749400D01*
X125670000Y-94770000D02*
X126900000Y-96000000D01*
X124146329Y-94770000D02*
X125670000Y-94770000D01*
X133355841Y-100647800D02*
X133406641Y-100647800D01*
X124100000Y-94780000D02*
X124136329Y-94780000D01*
X130679690Y-99590480D02*
X130935676Y-99846466D01*
X133609841Y-100851800D02*
X133660641Y-100851800D01*
X133000241Y-100749400D02*
X133000241Y-100851800D01*
X132492241Y-100953400D02*
X132492241Y-100954200D01*
X133254241Y-100750200D02*
X133254241Y-100749400D01*
X129794306Y-98103063D02*
X129794306Y-98705096D01*
X132304421Y-100765580D02*
X132379266Y-100840425D01*
X130935676Y-100150466D02*
X130935676Y-100165676D01*
X132746241Y-100953400D02*
X132746241Y-100851800D01*
X131294886Y-100524886D02*
X131382500Y-100612500D01*
X131258964Y-100488964D02*
X131294886Y-100524886D01*
X127691243Y-96000000D02*
X129794306Y-98103063D01*
X130284558Y-99554559D02*
X130320479Y-99590480D01*
X133508241Y-100749400D02*
X133508241Y-100750200D01*
X132151341Y-100612500D02*
X132304421Y-100765580D01*
X132746241Y-100954200D02*
X132746241Y-100953400D01*
X129794306Y-98705096D02*
X130320480Y-99231270D01*
X130935676Y-99846466D02*
X130935676Y-100150466D01*
X133254241Y-101004200D02*
X133254241Y-100851800D01*
X132379266Y-100840425D02*
X132390641Y-100851800D01*
X133660641Y-100851800D02*
X133778880Y-100851800D01*
X124136329Y-94780000D02*
X124146329Y-94770000D01*
X131114715Y-100489530D02*
X131115280Y-100488964D01*
X131115280Y-100488964D02*
G75*
G02*
X131258964Y-100488964I71842J-71842D01*
G01*
X133152641Y-101105800D02*
G75*
G03*
X133254200Y-101004200I-41J101600D01*
G01*
X130971031Y-100489530D02*
G75*
G03*
X131114715Y-100489530I71842J71842D01*
G01*
X132492241Y-100954200D02*
G75*
G03*
X132593841Y-101055759I101559J0D01*
G01*
X130935676Y-100165676D02*
G75*
G02*
X130935658Y-100309342I-71876J-71824D01*
G01*
X132898641Y-100647800D02*
G75*
G02*
X133000200Y-100749400I-41J-101600D01*
G01*
X130500084Y-99554558D02*
G75*
G02*
X130643768Y-99554558I71842J-71842D01*
G01*
X130320480Y-99231270D02*
G75*
G02*
X130320468Y-99374942I-71880J-71830D01*
G01*
X130320479Y-99590480D02*
G75*
G03*
X130464163Y-99590480I71842J71842D01*
G01*
X130935110Y-100309925D02*
G75*
G03*
X130935077Y-100453642I71890J-71875D01*
G01*
X133254241Y-100749400D02*
G75*
G02*
X133355841Y-100647841I101559J0D01*
G01*
X132390641Y-100851800D02*
G75*
G02*
X132492200Y-100953400I-41J-101600D01*
G01*
X130284558Y-99410875D02*
G75*
G03*
X130284575Y-99554542I71842J-71825D01*
G01*
X132644641Y-101055800D02*
G75*
G03*
X132746200Y-100954200I-41J101600D01*
G01*
X132746241Y-100749400D02*
G75*
G02*
X132847841Y-100647841I101559J0D01*
G01*
X133508241Y-100750200D02*
G75*
G03*
X133609841Y-100851759I101559J0D01*
G01*
X133406641Y-100647800D02*
G75*
G02*
X133508200Y-100749400I-41J-101600D01*
G01*
X133000241Y-101004200D02*
G75*
G03*
X133101841Y-101105759I101559J0D01*
G01*
%TO.N,XSPIM_P1_IO1*%
X132460450Y-96820712D02*
X132420167Y-96860995D01*
X128620792Y-92194689D02*
X128620792Y-92143889D01*
X130797300Y-93732563D02*
X130761377Y-93768483D01*
X130761377Y-93912167D02*
X130797299Y-93948089D01*
X131980062Y-94956300D02*
X132460450Y-95436688D01*
X128722392Y-92042289D02*
X128773192Y-92042289D01*
X129027192Y-92296289D02*
X129145499Y-92296289D01*
X130078880Y-93014143D02*
X130042957Y-93050063D01*
X129145499Y-92296289D02*
X129360459Y-92511249D01*
X127830000Y-92149000D02*
X128371903Y-92149000D01*
X128371903Y-92149000D02*
X128519192Y-92296289D01*
X130402169Y-93193748D02*
X130438090Y-93229669D01*
X131479797Y-94630587D02*
X131515719Y-94666509D01*
X131805510Y-94956300D02*
X131980062Y-94956300D01*
X128976392Y-92296289D02*
X129027192Y-92296289D01*
X130940983Y-93948089D02*
X130976905Y-93912168D01*
X131300193Y-94307299D02*
X131336115Y-94271378D01*
X123429200Y-91829200D02*
X123270000Y-91670000D01*
X131515719Y-94666509D02*
X131713193Y-94863983D01*
X124297568Y-91957568D02*
X124169200Y-91829200D01*
X130402167Y-93552957D02*
X130438089Y-93588879D01*
X129683747Y-92834537D02*
X129719669Y-92870459D01*
X131120589Y-93912168D02*
X131156510Y-93948089D01*
X131479799Y-94271378D02*
X131515720Y-94307299D01*
X127830000Y-92149000D02*
X126402550Y-92149000D01*
X126211118Y-91957568D02*
X124297568Y-91957568D01*
X124169200Y-91829200D02*
X123429200Y-91829200D01*
X129683749Y-92475328D02*
X129719670Y-92511249D01*
X130042957Y-93193747D02*
X130078879Y-93229669D01*
X129719670Y-92654933D02*
X129683747Y-92690853D01*
X130581773Y-93588879D02*
X130617695Y-93552958D01*
X131713193Y-94863983D02*
X131805510Y-94956300D01*
X131120587Y-94271377D02*
X131156509Y-94307299D01*
X131515720Y-94450983D02*
X131479797Y-94486903D01*
X129504143Y-92511249D02*
X129540065Y-92475328D01*
X128874792Y-92143889D02*
X128874792Y-92194689D01*
X130438090Y-93373353D02*
X130402167Y-93409273D01*
X126402550Y-92149000D02*
X126211118Y-91957568D01*
X129863353Y-92870459D02*
X129899275Y-92834538D01*
X132460450Y-95436688D02*
X132460450Y-96820712D01*
X130761379Y-93552958D02*
X130797300Y-93588879D01*
X130222563Y-93229669D02*
X130258485Y-93193748D01*
X131156510Y-94091773D02*
X131120587Y-94127693D01*
X130042959Y-92834538D02*
X130078880Y-92870459D01*
X129899275Y-92834538D02*
G75*
G02*
X130042959Y-92834538I71842J-71842D01*
G01*
X131120587Y-94127693D02*
G75*
G03*
X131120622Y-94271342I71813J-71807D01*
G01*
X130976905Y-93912168D02*
G75*
G02*
X131120589Y-93912168I71842J-71842D01*
G01*
X131479797Y-94486903D02*
G75*
G03*
X131479842Y-94630542I71803J-71797D01*
G01*
X129540065Y-92475328D02*
G75*
G02*
X129683749Y-92475328I71842J-71842D01*
G01*
X129719669Y-92870459D02*
G75*
G03*
X129863353Y-92870459I71842J71842D01*
G01*
X130258485Y-93193748D02*
G75*
G02*
X130402169Y-93193748I71842J-71842D01*
G01*
X130797300Y-93588879D02*
G75*
G02*
X130797279Y-93732542I-71800J-71821D01*
G01*
X128874792Y-92194689D02*
G75*
G03*
X128976392Y-92296308I101608J-11D01*
G01*
X130797299Y-93948089D02*
G75*
G03*
X130940983Y-93948089I71842J71842D01*
G01*
X130438090Y-93229669D02*
G75*
G02*
X130438079Y-93373342I-71890J-71831D01*
G01*
X129360459Y-92511249D02*
G75*
G03*
X129504143Y-92511249I71842J71842D01*
G01*
X130078879Y-93229669D02*
G75*
G03*
X130222563Y-93229669I71842J71842D01*
G01*
X129683747Y-92690853D02*
G75*
G03*
X129683742Y-92834542I71853J-71847D01*
G01*
X130042957Y-93050063D02*
G75*
G03*
X130042962Y-93193742I71843J-71837D01*
G01*
X131156509Y-94307299D02*
G75*
G03*
X131300193Y-94307299I71842J71842D01*
G01*
X131515720Y-94307299D02*
G75*
G02*
X131515679Y-94450942I-71820J-71801D01*
G01*
X128519192Y-92296289D02*
G75*
G03*
X128620789Y-92194689I8J101589D01*
G01*
X130438089Y-93588879D02*
G75*
G03*
X130581773Y-93588879I71842J71842D01*
G01*
X130761377Y-93768483D02*
G75*
G03*
X130761402Y-93912142I71823J-71817D01*
G01*
X131336115Y-94271378D02*
G75*
G02*
X131479799Y-94271378I71842J-71842D01*
G01*
X129719670Y-92511249D02*
G75*
G02*
X129719679Y-92654942I-71870J-71851D01*
G01*
X131156510Y-93948089D02*
G75*
G02*
X131156479Y-94091742I-71810J-71811D01*
G01*
X128620792Y-92143889D02*
G75*
G02*
X128722392Y-92042292I101608J-11D01*
G01*
X130078880Y-92870459D02*
G75*
G02*
X130078879Y-93014142I-71880J-71841D01*
G01*
X130402167Y-93409273D02*
G75*
G03*
X130402182Y-93552942I71833J-71827D01*
G01*
X128773192Y-92042289D02*
G75*
G02*
X128874811Y-92143889I8J-101611D01*
G01*
X130617695Y-93552958D02*
G75*
G02*
X130761379Y-93552958I71842J-71842D01*
G01*
%TO.N,XSPIM_P1_IO0*%
X123968729Y-92507236D02*
X124579193Y-93117700D01*
X128877179Y-94198398D02*
X130241382Y-95562601D01*
X125452851Y-93215800D02*
X126932510Y-93215800D01*
X126932510Y-93215800D02*
X127915109Y-94198398D01*
X127915109Y-94198398D02*
X128877179Y-94198398D01*
X130241382Y-95562601D02*
X130241382Y-95794988D01*
X123968729Y-92504340D02*
X123968729Y-92507236D01*
X124579193Y-93117700D02*
X125354752Y-93117700D01*
X125354752Y-93117700D02*
X125452851Y-93215800D01*
%TO.N,XSPIM_P1_IO3*%
X127063109Y-95080000D02*
X126610000Y-95080000D01*
X131627036Y-99324400D02*
X131174400Y-99324400D01*
X127925950Y-95492000D02*
X127475109Y-95492000D01*
D13*
X132460000Y-100017278D02*
X132501862Y-100017278D01*
D14*
X130302306Y-98452306D02*
X130302306Y-97868356D01*
X132319914Y-100017278D02*
X131627036Y-99324400D01*
D13*
X132501862Y-100017278D02*
X132539959Y-99979181D01*
D14*
X131174400Y-99324400D02*
X130302306Y-98452306D01*
X130302306Y-97868356D02*
X127925950Y-95492000D01*
X127475109Y-95492000D02*
X127063109Y-95080000D01*
X132460000Y-100017278D02*
X132319914Y-100017278D01*
%TO.N,XSPIM_P1_IO4*%
X127583433Y-96256000D02*
X129538306Y-98210873D01*
X125456841Y-95150906D02*
X125456841Y-95156841D01*
X129538306Y-98988306D02*
X129740000Y-99190000D01*
X126556000Y-96256000D02*
X127583433Y-96256000D01*
X129538306Y-98210873D02*
X129538306Y-98988306D01*
X125456841Y-95156841D02*
X126556000Y-96256000D01*
%TO.N,XSPIM_P1_IO7*%
X131738942Y-94118942D02*
X131774864Y-94154864D01*
X131559338Y-93795654D02*
X131595260Y-93759733D01*
X132098154Y-94118943D02*
X132134075Y-94154864D01*
X130481708Y-92718024D02*
X130517630Y-92682103D01*
X128190000Y-91680000D02*
X128557959Y-91680000D01*
X131918546Y-94657757D02*
X131954467Y-94693678D01*
X130122498Y-92358814D02*
X130158420Y-92322893D01*
X131738944Y-93759733D02*
X131774865Y-93795654D01*
X123953725Y-91547800D02*
X123770260Y-91364335D01*
X131200128Y-93436444D02*
X131236050Y-93400523D01*
X131918548Y-94154864D02*
X131954470Y-94118943D01*
X130840918Y-93077234D02*
X130876840Y-93041313D01*
X129440000Y-91963684D02*
X129439434Y-91964249D01*
X132565122Y-94945122D02*
X132636963Y-94873278D01*
X132852490Y-95232490D02*
X132933950Y-95313950D01*
X132565122Y-94945121D02*
X132565122Y-94945122D01*
X131056445Y-93220918D02*
X131020522Y-93256838D01*
X132098152Y-94334468D02*
X132026310Y-94406310D01*
X132385518Y-94765518D02*
X132331070Y-94819965D01*
X128110000Y-91760000D02*
X128190000Y-91680000D01*
X132493283Y-94657756D02*
X132385518Y-94765518D01*
X132933950Y-95665670D02*
X132933950Y-95743950D01*
X132933950Y-95313950D02*
X132933950Y-95665670D01*
X128110000Y-91760000D02*
X127975000Y-91895000D01*
X130661312Y-93041312D02*
X130697234Y-93077234D01*
X131379732Y-93759732D02*
X131415654Y-93795654D01*
X132852491Y-95016964D02*
X132816568Y-95052884D01*
X127975000Y-91895000D02*
X126507760Y-91895000D01*
X129942892Y-92322892D02*
X129978814Y-92358814D01*
X131774865Y-93939338D02*
X131738942Y-93975258D01*
X132816570Y-94837359D02*
X132852491Y-94873280D01*
X132205914Y-94585914D02*
X132313676Y-94478149D01*
X129439434Y-92107933D02*
X129475355Y-92143854D01*
X132026310Y-94406310D02*
X131918546Y-94514073D01*
X129619039Y-92143854D02*
X129619604Y-92143288D01*
X129942894Y-91963683D02*
X129978815Y-91999604D01*
X129619604Y-92143288D02*
X129691446Y-92071446D01*
X130697235Y-92861708D02*
X130661312Y-92897628D01*
X132331070Y-94928859D02*
X132401780Y-94999569D01*
X124373568Y-91703568D02*
X124217800Y-91547800D01*
X131020522Y-93400522D02*
X131056444Y-93436444D01*
X129691446Y-92071446D02*
X129763287Y-91999602D01*
X131379734Y-93400523D02*
X131415655Y-93436444D01*
X131020524Y-93041313D02*
X131056445Y-93077234D01*
X124217800Y-91547800D02*
X123953725Y-91547800D01*
X130338025Y-92502498D02*
X130302102Y-92538418D01*
X130661314Y-92682103D02*
X130697235Y-92718024D01*
X128557959Y-91680000D02*
X129300000Y-91680000D01*
X130302104Y-92322893D02*
X130338025Y-92358814D01*
X132636963Y-94873278D02*
X132672884Y-94837357D01*
X132457362Y-94478151D02*
X132493283Y-94514072D01*
X129300000Y-91680000D02*
X129440000Y-91820000D01*
X132134075Y-94298548D02*
X132098152Y-94334468D01*
X126507760Y-91895000D02*
X126316328Y-91703568D01*
X126316328Y-91703568D02*
X124373568Y-91703568D01*
X129978815Y-92143288D02*
X129942892Y-92179208D01*
X132816568Y-95196568D02*
X132852490Y-95232490D01*
X130302102Y-92682102D02*
X130338024Y-92718024D01*
X132510675Y-94999569D02*
X132565122Y-94945121D01*
X132098151Y-94693678D02*
X132205914Y-94585914D01*
X131415655Y-93580128D02*
X131379732Y-93616048D01*
X129763287Y-91999602D02*
X129799208Y-91963681D01*
X132933950Y-95743950D02*
X133490000Y-96300000D01*
X131379732Y-93616048D02*
G75*
G03*
X131379722Y-93759742I71868J-71852D01*
G01*
X131415655Y-93436444D02*
G75*
G02*
X131415669Y-93580142I-71855J-71856D01*
G01*
X131954470Y-94118943D02*
G75*
G02*
X132098154Y-94118943I71842J-71842D01*
G01*
X129475355Y-92143854D02*
G75*
G03*
X129619039Y-92143854I71842J71842D01*
G01*
X129978815Y-91999604D02*
G75*
G02*
X129978769Y-92143242I-71815J-71796D01*
G01*
X131236050Y-93400523D02*
G75*
G02*
X131379734Y-93400523I71842J-71842D01*
G01*
X132852491Y-94873280D02*
G75*
G02*
X132852469Y-95016942I-71891J-71820D01*
G01*
X130517630Y-92682103D02*
G75*
G02*
X130661314Y-92682103I71842J-71842D01*
G01*
X130661312Y-92897628D02*
G75*
G03*
X130661282Y-93041342I71888J-71872D01*
G01*
X131738942Y-93975258D02*
G75*
G03*
X131738942Y-94118942I71858J-71842D01*
G01*
X131020522Y-93256838D02*
G75*
G03*
X131020502Y-93400542I71878J-71862D01*
G01*
X132331070Y-94819965D02*
G75*
G03*
X132331082Y-94928847I54430J-54435D01*
G01*
X131918546Y-94514073D02*
G75*
G03*
X131918561Y-94657742I71854J-71827D01*
G01*
X131595260Y-93759733D02*
G75*
G02*
X131738944Y-93759733I71842J-71842D01*
G01*
X129942892Y-92179208D02*
G75*
G03*
X129942842Y-92322942I71808J-71892D01*
G01*
X129440000Y-91820000D02*
G75*
G02*
X129439958Y-91963642I-71800J-71800D01*
G01*
X131954467Y-94693678D02*
G75*
G03*
X132098151Y-94693678I71842J71842D01*
G01*
X132672884Y-94837357D02*
G75*
G02*
X132816544Y-94837385I71816J-71843D01*
G01*
X131056445Y-93077234D02*
G75*
G02*
X131056469Y-93220942I-71845J-71866D01*
G01*
X129799208Y-91963681D02*
G75*
G02*
X129942844Y-91963733I71792J-71819D01*
G01*
X130338025Y-92358814D02*
G75*
G02*
X130338069Y-92502542I-71825J-71886D01*
G01*
X130158420Y-92322893D02*
G75*
G02*
X130302104Y-92322893I71842J-71842D01*
G01*
X130876840Y-93041313D02*
G75*
G02*
X131020524Y-93041313I71842J-71842D01*
G01*
X132401780Y-94999569D02*
G75*
G03*
X132510675Y-94999569I54447J54451D01*
G01*
X130697235Y-92718024D02*
G75*
G02*
X130697269Y-92861742I-71835J-71876D01*
G01*
X132493283Y-94514072D02*
G75*
G02*
X132493269Y-94657742I-71883J-71828D01*
G01*
X130697234Y-93077234D02*
G75*
G03*
X130840918Y-93077234I71842J71842D01*
G01*
X130338024Y-92718024D02*
G75*
G03*
X130481708Y-92718024I71842J71842D01*
G01*
X132313676Y-94478149D02*
G75*
G02*
X132457344Y-94478169I71824J-71851D01*
G01*
X131415654Y-93795654D02*
G75*
G03*
X131559338Y-93795654I71842J71842D01*
G01*
X132816568Y-95052884D02*
G75*
G03*
X132816594Y-95196542I71832J-71816D01*
G01*
X130302102Y-92538418D02*
G75*
G03*
X130302062Y-92682142I71798J-71882D01*
G01*
X131774865Y-93795654D02*
G75*
G02*
X131774869Y-93939342I-71865J-71846D01*
G01*
X131774864Y-94154864D02*
G75*
G03*
X131918548Y-94154864I71842J71842D01*
G01*
X129439434Y-91964249D02*
G75*
G03*
X129439425Y-92107942I71866J-71851D01*
G01*
X129978814Y-92358814D02*
G75*
G03*
X130122498Y-92358814I71842J71842D01*
G01*
X132134075Y-94154864D02*
G75*
G02*
X132134069Y-94298542I-71875J-71836D01*
G01*
X131056444Y-93436444D02*
G75*
G03*
X131200128Y-93436444I71842J71842D01*
G01*
%TO.N,XSPIM_P1_IO6*%
X130001965Y-94447492D02*
X130109729Y-94339729D01*
X130935921Y-94806709D02*
X130899999Y-94770787D01*
X129570908Y-93800908D02*
X129463143Y-93908670D01*
X130925000Y-95155000D02*
X130900000Y-95130000D01*
X129678672Y-93693145D02*
X129570908Y-93800908D01*
X128100400Y-92888400D02*
X128100400Y-93091600D01*
X130037887Y-94627098D02*
X130001965Y-94591176D01*
X131200000Y-95269353D02*
X131200000Y-95219142D01*
X129139850Y-93513535D02*
X129103929Y-93549456D01*
X127490000Y-92990000D02*
X127430000Y-92990000D01*
X130397100Y-94411573D02*
X130289336Y-94519336D01*
X126075278Y-92657000D02*
X125883846Y-92465568D01*
X130576706Y-94447495D02*
X130540784Y-94411573D01*
X127694000Y-92990000D02*
X127490000Y-92990000D01*
X129858278Y-93729067D02*
X129822356Y-93693145D01*
X131214239Y-95283592D02*
X131200000Y-95269353D01*
X128924323Y-93369850D02*
X128960245Y-93333929D01*
X130289336Y-94519336D02*
X130181571Y-94627098D01*
X128252800Y-92786000D02*
X128202000Y-92786000D01*
X129319459Y-93908670D02*
X129283537Y-93872748D01*
X130720393Y-94806708D02*
X130648550Y-94878550D01*
X128354400Y-92888400D02*
X128354400Y-92887600D01*
X131135858Y-95155000D02*
X130925000Y-95155000D01*
X129211694Y-93441694D02*
X129139850Y-93513535D01*
X128924325Y-93154325D02*
X128760000Y-92990000D01*
X130756315Y-94770787D02*
X130720393Y-94806708D01*
X127998800Y-93244000D02*
X127948000Y-93244000D01*
X128960245Y-93190245D02*
X128924325Y-93154325D01*
X129678673Y-94267884D02*
X129642751Y-94231962D01*
X130361179Y-94806706D02*
X130468943Y-94698943D01*
X130217492Y-94088281D02*
X130181570Y-94052359D01*
X129319458Y-93333931D02*
X129211694Y-93441694D01*
X128100400Y-93091600D02*
X128100400Y-93142400D01*
X125390159Y-92465568D02*
X125156447Y-92699280D01*
X130648550Y-94878550D02*
X130540785Y-94986312D01*
X128960245Y-93549456D02*
X128924323Y-93513534D01*
X130468943Y-94698943D02*
X130576706Y-94591179D01*
X127097000Y-92657000D02*
X126075278Y-92657000D01*
X129930122Y-94160122D02*
X129822357Y-94267884D01*
X125883846Y-92465568D02*
X125390159Y-92465568D01*
X128100400Y-92887600D02*
X128100400Y-92888400D01*
X129642751Y-94088278D02*
X129750515Y-93980515D01*
X128760000Y-92990000D02*
X128456000Y-92990000D01*
X127846400Y-93142400D02*
X127846400Y-93091600D01*
X131200000Y-95219142D02*
X131135858Y-95155000D01*
X129750515Y-93980515D02*
X129858278Y-93872751D01*
X130109729Y-94339729D02*
X130217492Y-94231965D01*
X127430000Y-92990000D02*
X127097000Y-92657000D01*
X129499064Y-93369853D02*
X129463142Y-93333931D01*
X129391301Y-93621301D02*
X129499064Y-93513537D01*
X127744800Y-92990000D02*
X127694000Y-92990000D01*
X130397101Y-94986312D02*
X130361179Y-94950390D01*
X129283537Y-93729064D02*
X129391301Y-93621301D01*
X130037886Y-94052359D02*
X129930122Y-94160122D01*
X130900000Y-94986315D02*
X130935921Y-94950393D01*
X130181571Y-94627098D02*
G75*
G02*
X130037887Y-94627098I-71842J71842D01*
G01*
X130181570Y-94052359D02*
G75*
G03*
X130037886Y-94052359I-71842J-71842D01*
G01*
X128100400Y-93142400D02*
G75*
G02*
X127998800Y-93244000I-101600J0D01*
G01*
X129463143Y-93908670D02*
G75*
G02*
X129319459Y-93908670I-71842J71842D01*
G01*
X127948000Y-93244000D02*
G75*
G02*
X127846400Y-93142400I0J101600D01*
G01*
X129822356Y-93693145D02*
G75*
G03*
X129678672Y-93693145I-71842J-71842D01*
G01*
X130540785Y-94986312D02*
G75*
G02*
X130397101Y-94986312I-71842J71842D01*
G01*
X129642751Y-94231962D02*
G75*
G02*
X129642731Y-94088258I71849J71862D01*
G01*
X130001965Y-94591176D02*
G75*
G02*
X130001931Y-94447458I71835J71876D01*
G01*
X128202000Y-92786000D02*
G75*
G03*
X128100400Y-92887600I0J-101600D01*
G01*
X130935921Y-94950393D02*
G75*
G03*
X130935872Y-94806758I-71821J71793D01*
G01*
X129822357Y-94267884D02*
G75*
G02*
X129678673Y-94267884I-71842J71842D01*
G01*
X130217492Y-94231965D02*
G75*
G03*
X130217515Y-94088258I-71792J71865D01*
G01*
X130900000Y-95130000D02*
G75*
G02*
X130900042Y-94986358I71800J71800D01*
G01*
X129463142Y-93333931D02*
G75*
G03*
X129319458Y-93333931I-71842J-71842D01*
G01*
X127846400Y-93091600D02*
G75*
G03*
X127744800Y-92990000I-101600J0D01*
G01*
X130576706Y-94591179D02*
G75*
G03*
X130576743Y-94447458I-71806J71879D01*
G01*
X129103929Y-93549456D02*
G75*
G02*
X128960245Y-93549456I-71842J71842D01*
G01*
X129283537Y-93872748D02*
G75*
G02*
X129283531Y-93729058I71863J71848D01*
G01*
X128456000Y-92990000D02*
G75*
G02*
X128354400Y-92888400I0J101600D01*
G01*
X128924323Y-93513534D02*
G75*
G02*
X128924331Y-93369858I71877J71834D01*
G01*
X130899999Y-94770787D02*
G75*
G03*
X130756315Y-94770787I-71842J-71842D01*
G01*
X129858278Y-93872751D02*
G75*
G03*
X129858287Y-93729058I-71878J71851D01*
G01*
X130540784Y-94411573D02*
G75*
G03*
X130397100Y-94411573I-71842J-71842D01*
G01*
X129499064Y-93513537D02*
G75*
G03*
X129499059Y-93369858I-71864J71837D01*
G01*
X130361179Y-94950390D02*
G75*
G02*
X130361131Y-94806658I71821J71890D01*
G01*
X128960245Y-93333929D02*
G75*
G03*
X128960232Y-93190258I-71845J71829D01*
G01*
X128354400Y-92887600D02*
G75*
G03*
X128252800Y-92786000I-101600J0D01*
G01*
%TO.N,XSPIM_P1_IO5*%
X131110000Y-97952038D02*
X131110000Y-98190000D01*
X126537965Y-94146500D02*
X126893343Y-94146500D01*
X128141962Y-94984000D02*
X131110000Y-97952038D01*
X126893343Y-94146500D02*
X127730843Y-94984000D01*
X127730843Y-94984000D02*
X128141962Y-94984000D01*
%TO.N,LTDC_DE*%
X127805924Y-101500000D02*
X124402028Y-101500000D01*
X124402028Y-101500000D02*
X124328038Y-101573990D01*
X136118640Y-103314000D02*
X129619924Y-103314000D01*
X136345618Y-103087022D02*
X136118640Y-103314000D01*
X129619924Y-103314000D02*
X127805924Y-101500000D01*
%TO.N,LTDC_HSYNC*%
X115470000Y-86370000D02*
X119630000Y-86370000D01*
X115360000Y-86480000D02*
X115470000Y-86370000D01*
X127394900Y-85205100D02*
X127536297Y-85205100D01*
X120517231Y-85482769D02*
X127117231Y-85482769D01*
X119630000Y-86370000D02*
X120517231Y-85482769D01*
X127117231Y-85482769D02*
X127394900Y-85205100D01*
%TO.N,LTDC_VSYNC*%
X118691302Y-89823385D02*
X118691302Y-89212258D01*
X115479412Y-91025298D02*
X115479412Y-91025187D01*
X115520000Y-91017082D02*
X115702918Y-91200000D01*
X117107356Y-91407331D02*
X118691302Y-89823385D01*
X115441385Y-91063407D02*
X115477190Y-91027602D01*
X115482049Y-91022311D02*
X115487278Y-91017082D01*
X115487278Y-91017082D02*
X115520000Y-91017082D01*
X115477190Y-91027602D02*
X115477190Y-91027575D01*
X116777331Y-91407331D02*
X117107356Y-91407331D01*
X115479412Y-91025187D02*
X115482049Y-91022550D01*
X115702918Y-91200000D02*
X116570000Y-91200000D01*
X116570000Y-91200000D02*
X116777331Y-91407331D01*
X115441005Y-91063407D02*
X115441385Y-91063407D01*
X115477968Y-91026797D02*
X115477968Y-91026742D01*
X115477190Y-91027575D02*
X115477968Y-91026797D01*
X115477968Y-91026742D02*
X115479412Y-91025298D01*
X115482049Y-91022550D02*
X115482049Y-91022311D01*
X118690000Y-89210956D02*
X118690000Y-88270000D01*
X118691302Y-89212258D02*
X118690000Y-89210956D01*
%TO.N,Net-(IC8-~{PD})*%
X135252221Y-79640939D02*
X135951282Y-80340000D01*
X140391255Y-80340000D02*
X140655862Y-80604607D01*
X135951282Y-80340000D02*
X140391255Y-80340000D01*
%TO.N,LTDC_R7*%
X122679510Y-89867200D02*
X121352800Y-89867200D01*
X133250000Y-91370000D02*
X132220000Y-91370000D01*
X119623059Y-91046941D02*
X119623059Y-91593059D01*
X121352800Y-89867200D02*
X120350000Y-90870000D01*
X114640274Y-92315100D02*
X114629486Y-92325888D01*
X118264690Y-92948600D02*
X117298600Y-92948600D01*
X116665100Y-92315100D02*
X114640274Y-92315100D01*
X138474494Y-92740000D02*
X134620000Y-92740000D01*
X119623059Y-91593059D02*
X119620231Y-91593059D01*
X120350000Y-90870000D02*
X119800000Y-90870000D01*
X129510000Y-88660000D02*
X123886710Y-88660000D01*
X119620231Y-91593059D02*
X118264690Y-92948600D01*
X132220000Y-91370000D02*
X129510000Y-88660000D01*
X117298600Y-92948600D02*
X116665100Y-92315100D01*
X138814379Y-93079885D02*
X138474494Y-92740000D01*
X123886710Y-88660000D02*
X122679510Y-89867200D01*
X119800000Y-90870000D02*
X119623059Y-91046941D01*
X134620000Y-92740000D02*
X133250000Y-91370000D01*
%TO.N,LTDC_R6*%
X122584820Y-89638600D02*
X123793421Y-88430000D01*
X132320000Y-91140000D02*
X133350000Y-91140000D01*
X121251400Y-89638600D02*
X122584820Y-89638600D01*
X139335872Y-93025872D02*
X139335872Y-93090593D01*
X118170000Y-92720000D02*
X119394459Y-91495541D01*
X119394459Y-91495541D02*
X119394459Y-90945541D01*
X133350000Y-91140000D02*
X134721400Y-92511400D01*
X129610000Y-88430000D02*
X132320000Y-91140000D01*
X119698600Y-90641400D02*
X120248600Y-90641400D01*
X117120003Y-92011031D02*
X117120003Y-92440003D01*
X117400000Y-92720000D02*
X118170000Y-92720000D01*
X134721400Y-92511400D02*
X138821400Y-92511400D01*
X117120003Y-92440003D02*
X117400000Y-92720000D01*
X138821400Y-92511400D02*
X139335872Y-93025872D01*
X123793421Y-88430000D02*
X129610000Y-88430000D01*
X120248600Y-90641400D02*
X121251400Y-89638600D01*
X119394459Y-90945541D02*
X119698600Y-90641400D01*
%TO.N,LTDC_R5*%
X122490131Y-89410000D02*
X123710132Y-88190000D01*
X120955000Y-89605000D02*
X121090000Y-89470000D01*
X132420000Y-90910000D02*
X133450000Y-90910000D01*
X134822800Y-92282800D02*
X139192800Y-92282800D01*
X119160000Y-90410000D02*
X120150000Y-90410000D01*
X129700000Y-88190000D02*
X132420000Y-90910000D01*
X133450000Y-90910000D02*
X134822800Y-92282800D01*
X123710132Y-88190000D02*
X129700000Y-88190000D01*
X139857256Y-92947256D02*
X139857256Y-93075481D01*
X118186953Y-92024550D02*
X118186953Y-91383047D01*
X120955000Y-89605000D02*
X121150000Y-89410000D01*
X118186953Y-91383047D02*
X119160000Y-90410000D01*
X121150000Y-89410000D02*
X122490131Y-89410000D01*
X120150000Y-90410000D02*
X120955000Y-89605000D01*
X139192800Y-92282800D02*
X139857256Y-92947256D01*
%TO.N,LTDC_R4*%
X118890000Y-96330000D02*
X117497747Y-97722253D01*
X123273930Y-90262780D02*
X122840979Y-90695731D01*
X115707547Y-97896300D02*
X114836360Y-97896300D01*
X115881594Y-97722253D02*
X115707547Y-97896300D01*
X139983210Y-93480000D02*
X138670000Y-93480000D01*
X133480000Y-92970000D02*
X129731244Y-89221244D01*
X125866541Y-90262780D02*
X123273930Y-90262780D01*
X129731244Y-89221244D02*
X127588756Y-89221244D01*
X126438500Y-90371500D02*
X125975261Y-90371500D01*
X138160000Y-92970000D02*
X133480000Y-92970000D01*
X125975261Y-90371500D02*
X125866541Y-90262780D01*
X117497747Y-97722253D02*
X115881594Y-97722253D01*
X120420000Y-94610474D02*
X118890000Y-96140474D01*
X127588756Y-89221244D02*
X126438500Y-90371500D01*
X122464269Y-90695731D02*
X120420000Y-92740000D01*
X120420000Y-92740000D02*
X120420000Y-94610474D01*
X118890000Y-96140474D02*
X118890000Y-96330000D01*
X122840979Y-90695731D02*
X122464269Y-90695731D01*
X138670000Y-93480000D02*
X138160000Y-92970000D01*
X140392136Y-93071074D02*
X139983210Y-93480000D01*
%TO.N,LTDC_R3*%
X135503107Y-102550000D02*
X130020000Y-102550000D01*
X136730000Y-101323107D02*
X135503107Y-102550000D01*
X128495100Y-99744628D02*
X128255572Y-99505100D01*
X128255572Y-99505100D02*
X128104628Y-99505100D01*
X128495100Y-100228828D02*
X128495100Y-99744628D01*
X129423236Y-101953236D02*
X129423236Y-101156964D01*
X136730000Y-100710000D02*
X136730000Y-101323107D01*
X122618085Y-99168855D02*
X122401002Y-98951772D01*
X129423236Y-101156964D02*
X128495100Y-100228828D01*
X127768383Y-99168855D02*
X122618085Y-99168855D01*
X128104628Y-99505100D02*
X127768383Y-99168855D01*
X130020000Y-102550000D02*
X129423236Y-101953236D01*
%TO.N,LTDC_R2*%
X118105100Y-96764900D02*
X117376347Y-97493653D01*
X118352800Y-93177200D02*
X117890000Y-93640000D01*
X126190000Y-89970000D02*
X123243420Y-89970000D01*
X122771689Y-90441731D02*
X122388269Y-90441731D01*
X121116811Y-91713189D02*
X119826219Y-91713189D01*
X118105100Y-96130000D02*
X118105100Y-96764900D01*
X122388269Y-90441731D02*
X121116811Y-91713189D01*
X119060208Y-92479200D02*
X119057379Y-92479200D01*
X115786904Y-97493653D02*
X115766442Y-97514116D01*
X117376347Y-97493653D02*
X115786904Y-97493653D01*
X119826219Y-91713189D02*
X119060208Y-92479200D01*
X123243420Y-89970000D02*
X122771689Y-90441731D01*
X117890000Y-95914900D02*
X118105100Y-96130000D01*
X118359380Y-93177200D02*
X118352800Y-93177200D01*
X114018391Y-97514116D02*
X114015100Y-97510825D01*
X115766442Y-97514116D02*
X114018391Y-97514116D01*
X117890000Y-93640000D02*
X117890000Y-95914900D01*
X119057379Y-92479200D02*
X118359380Y-93177200D01*
%TO.N,LTDC_R1*%
X130000000Y-103964900D02*
X129857100Y-103822000D01*
X123840061Y-102026300D02*
X123573761Y-101760000D01*
X123995352Y-102177690D02*
X123843961Y-102026300D01*
X127759538Y-102177690D02*
X123995352Y-102177690D01*
X129857100Y-103822000D02*
X129403848Y-103822000D01*
X123573761Y-101760000D02*
X121070000Y-101760000D01*
X121070000Y-101760000D02*
X120836375Y-101526375D01*
X120836375Y-101526375D02*
X120836375Y-100853749D01*
X129403848Y-103822000D02*
X127759538Y-102177690D01*
X123843961Y-102026300D02*
X123840061Y-102026300D01*
%TO.N,LTDC_R0*%
X124281872Y-102791400D02*
X123969000Y-102478528D01*
X129297810Y-104078000D02*
X128011210Y-102791400D01*
X129577528Y-104078000D02*
X129297810Y-104078000D01*
X123749272Y-102254900D02*
X123745372Y-102254900D01*
X130370000Y-104340000D02*
X129839528Y-104340000D01*
X123745372Y-102254900D02*
X123479072Y-101988600D01*
X128011210Y-102791400D02*
X124281872Y-102791400D01*
X120320668Y-101410668D02*
X120320668Y-100011967D01*
X130610000Y-104100000D02*
X130370000Y-104340000D01*
X120320668Y-100011967D02*
X120319840Y-100011139D01*
X120898600Y-101988600D02*
X120320668Y-101410668D01*
X123479072Y-101988600D02*
X120898600Y-101988600D01*
X123969000Y-102478528D02*
X123969000Y-102474628D01*
X123969000Y-102474628D02*
X123749272Y-102254900D01*
X129839528Y-104340000D02*
X129577528Y-104078000D01*
%TO.N,LTDC_G7*%
X122010000Y-90250000D02*
X122150000Y-90110000D01*
X122150000Y-90110000D02*
X122760000Y-90110000D01*
X123380000Y-89490000D02*
X125794632Y-89490000D01*
X122760000Y-90110000D02*
X123380000Y-89490000D01*
X125794632Y-89490000D02*
X125822871Y-89518239D01*
%TO.N,LTDC_G5*%
X123535372Y-91065100D02*
X124083692Y-90516780D01*
X126531229Y-90650000D02*
X127584885Y-89596344D01*
X125930472Y-90650000D02*
X126531229Y-90650000D01*
X122670993Y-91074469D02*
X122680362Y-91065100D01*
X124083692Y-90516780D02*
X125797252Y-90516780D01*
X122680362Y-91065100D02*
X123535372Y-91065100D01*
X125797252Y-90516780D02*
X125930472Y-90650000D01*
X127584885Y-89596344D02*
X128106817Y-89596344D01*
%TO.N,LTDC_G3*%
X138130000Y-96210000D02*
X137358626Y-96981374D01*
X124157267Y-101949090D02*
X122332042Y-100123865D01*
X141680000Y-96210000D02*
X138130000Y-96210000D01*
X127892976Y-101949090D02*
X124157267Y-101949090D01*
X137358626Y-96981374D02*
X137358626Y-102742164D01*
X145870000Y-92550000D02*
X145860000Y-92560000D01*
X145330000Y-92560000D02*
X141680000Y-96210000D01*
X137358626Y-102742164D02*
X136532790Y-103568000D01*
X136532790Y-103568000D02*
X129511886Y-103568000D01*
X122332042Y-100123865D02*
X122332042Y-100064831D01*
X145860000Y-92560000D02*
X145330000Y-92560000D01*
X129511886Y-103568000D02*
X127892976Y-101949090D01*
%TO.N,LTDC_G2*%
X137755100Y-96164900D02*
X136805100Y-96164900D01*
X141790000Y-95720000D02*
X138200000Y-95720000D01*
X122106006Y-99397455D02*
X127476944Y-99397455D01*
X138200000Y-95720000D02*
X137755100Y-96164900D01*
X136805100Y-96164900D02*
X136790000Y-96180000D01*
X127476944Y-99397455D02*
X127960000Y-99880511D01*
X145630000Y-91030000D02*
X145630000Y-91880000D01*
X145630000Y-91880000D02*
X141790000Y-95720000D01*
X122038918Y-99330367D02*
X122106006Y-99397455D01*
%TO.N,LTDC_G1*%
X122873796Y-103020000D02*
X122778635Y-103115161D01*
X122778635Y-103115161D02*
X122467891Y-103115161D01*
X127860000Y-103020000D02*
X122873796Y-103020000D01*
X122372730Y-103020000D02*
X120040000Y-103020000D01*
X117890000Y-100870000D02*
X117890000Y-99593172D01*
X120040000Y-103020000D02*
X117890000Y-100870000D01*
X117890000Y-99593172D02*
X117559113Y-99262285D01*
X129320000Y-104480000D02*
X127860000Y-103020000D01*
X122467891Y-103115161D02*
X122372730Y-103020000D01*
%TO.N,LTDC_G0*%
X141622021Y-95241400D02*
X137751636Y-95241400D01*
X137751636Y-95241400D02*
X137644900Y-95348136D01*
X124303862Y-97860000D02*
X124224022Y-97780160D01*
X145026300Y-91837121D02*
X141622021Y-95241400D01*
X145026300Y-90033700D02*
X145026300Y-91837121D01*
X127110000Y-97860000D02*
X124303862Y-97860000D01*
X127360000Y-97610000D02*
X127110000Y-97860000D01*
X145120000Y-89940000D02*
X145026300Y-90033700D01*
%TO.N,LTDC_B7*%
X124484388Y-101022361D02*
X124446600Y-101060149D01*
X136111527Y-102660000D02*
X135711527Y-103060000D01*
X135711527Y-103060000D02*
X129727962Y-103060000D01*
X127690323Y-101022361D02*
X124484388Y-101022361D01*
X136651674Y-102660000D02*
X136111527Y-102660000D01*
X129727962Y-103060000D02*
X127690323Y-101022361D01*
X136753190Y-102761516D02*
X136651674Y-102660000D01*
%TO.N,LTDC_B6*%
X119804152Y-88592559D02*
X119206300Y-89190411D01*
X117780000Y-91453108D02*
X117780000Y-91634900D01*
X144750000Y-88520000D02*
X132730000Y-88520000D01*
X121733473Y-87525600D02*
X120666514Y-88592559D01*
X119206300Y-89190411D02*
X119206300Y-90026808D01*
X144790000Y-88560000D02*
X144750000Y-88520000D01*
X119206300Y-90026808D02*
X117780000Y-91453108D01*
X131735601Y-87525601D02*
X121733473Y-87525600D01*
X120666514Y-88592559D02*
X119804152Y-88592559D01*
X132730000Y-88520000D02*
X131735601Y-87525601D01*
%TO.N,LTDC_CLK*%
X123637732Y-100011360D02*
X124311421Y-100685049D01*
X135606317Y-102806000D02*
X136118791Y-102293526D01*
X123519767Y-100011360D02*
X123637732Y-100011360D01*
X124311421Y-100685049D02*
X127715049Y-100685049D01*
X127715049Y-100685049D02*
X129836000Y-102806000D01*
X136118791Y-102293526D02*
X136983526Y-102293526D01*
X129836000Y-102806000D02*
X135606317Y-102806000D01*
%TO.N,LTDC_B5*%
X145140000Y-87030000D02*
X144500000Y-87030000D01*
X116613069Y-89493171D02*
X116438241Y-89493171D01*
X144500000Y-87030000D02*
X143729400Y-86259400D01*
X121449402Y-86839801D02*
X120837802Y-87451400D01*
X118654840Y-87451400D02*
X116613069Y-89493171D01*
X138290600Y-86259400D02*
X137710199Y-86839801D01*
X120837802Y-87451400D02*
X118654840Y-87451400D01*
X137710199Y-86839801D02*
X121449402Y-86839801D01*
X145540000Y-87430000D02*
X145140000Y-87030000D01*
X143729400Y-86259400D02*
X138290600Y-86259400D01*
%TO.N,LTDC_B4*%
X144790000Y-87530000D02*
X144460000Y-87530000D01*
X133478600Y-87568600D02*
X133478600Y-87565311D01*
X133880000Y-87970000D02*
X133478600Y-87568600D01*
X132981690Y-87068401D02*
X121544091Y-87068401D01*
X118749529Y-87680000D02*
X118314900Y-88114628D01*
X143939600Y-87009600D02*
X138220400Y-87009600D01*
X144460000Y-87530000D02*
X143939600Y-87009600D01*
X137260000Y-87970000D02*
X133880000Y-87970000D01*
X117910000Y-90245477D02*
X117191977Y-90963500D01*
X121544091Y-87068401D02*
X120932491Y-87680000D01*
X120932491Y-87680000D02*
X118749529Y-87680000D01*
X118314900Y-88114628D02*
X118314900Y-88914970D01*
X117191977Y-90963500D02*
X116873098Y-90963500D01*
X117910000Y-89319870D02*
X117910000Y-90245477D01*
X138220400Y-87009600D02*
X137260000Y-87970000D01*
X118314900Y-88914970D02*
X117910000Y-89319870D01*
X133478600Y-87565311D02*
X132981690Y-87068401D01*
%TO.N,LTDC_B3*%
X137594800Y-86611200D02*
X121354713Y-86611201D01*
X116750595Y-88280000D02*
X116497496Y-88533099D01*
X144410799Y-86030800D02*
X138175200Y-86030800D01*
X117502949Y-88280000D02*
X116980000Y-88280000D01*
X121354713Y-86611201D02*
X120743113Y-87222800D01*
X138175200Y-86030800D02*
X137594800Y-86611200D01*
X144800000Y-86420001D02*
X144410799Y-86030800D01*
X118560149Y-87222800D02*
X117502949Y-88280000D01*
X116980000Y-88280000D02*
X116750595Y-88280000D01*
X120743113Y-87222800D02*
X118560149Y-87222800D01*
%TO.N,LTDC_B2*%
X145254900Y-90874628D02*
X145556500Y-90573028D01*
X137816710Y-95780000D02*
X138106710Y-95490000D01*
X138106710Y-95490000D02*
X141696712Y-95490000D01*
X128013229Y-98230000D02*
X124453185Y-98230000D01*
X124453185Y-98230000D02*
X124402155Y-98281030D01*
X145254900Y-91931811D02*
X145254900Y-90874628D01*
X146030000Y-88550000D02*
X146030000Y-85950000D01*
X141696712Y-95490000D02*
X145254900Y-91931811D01*
X145556500Y-90573028D02*
X145556500Y-89023500D01*
X137230000Y-95780000D02*
X137816710Y-95780000D01*
X128042002Y-98258773D02*
X128013229Y-98230000D01*
X145556500Y-89023500D02*
X146030000Y-88550000D01*
%TO.N,LTDC_B1*%
X117237966Y-91635931D02*
X116621167Y-91635931D01*
X143909800Y-87759800D02*
X137920200Y-87759800D01*
X119733052Y-88336948D02*
X118977700Y-89092300D01*
X137440000Y-88240000D02*
X133815025Y-88240000D01*
X116621167Y-91635931D02*
X116475818Y-91490582D01*
X133815025Y-88240000D02*
X132872026Y-87297001D01*
X115323869Y-91490582D02*
X115049366Y-91216079D01*
X137920200Y-87759800D02*
X137440000Y-88240000D01*
X115049366Y-91216079D02*
X113412056Y-91216079D01*
X116475818Y-91490582D02*
X115323869Y-91490582D01*
X143950000Y-87800000D02*
X143909800Y-87759800D01*
X132872026Y-87297001D02*
X121638780Y-87297001D01*
X120598832Y-88336948D02*
X119733052Y-88336948D01*
X118977700Y-89092300D02*
X118977700Y-89896196D01*
X121638780Y-87297001D02*
X120598832Y-88336948D01*
X113412056Y-91216079D02*
X113408300Y-91212323D01*
X118977700Y-89896196D02*
X117237966Y-91635931D01*
%TO.N,LTDC_B0*%
X124379750Y-97176460D02*
X124029589Y-96826300D01*
X125657197Y-97016997D02*
X125497734Y-97176460D01*
X126830000Y-97430000D02*
X126380944Y-97430000D01*
X126380944Y-97430000D02*
X125967941Y-97016997D01*
X122971904Y-96826300D02*
X122720249Y-96574645D01*
X124029589Y-96826300D02*
X122971904Y-96826300D01*
X125497734Y-97176460D02*
X124379750Y-97176460D01*
X125967941Y-97016997D02*
X125657197Y-97016997D01*
%TO.N,VMUX_EN*%
X127956837Y-100426474D02*
X128046474Y-100426474D01*
X124229343Y-99905100D02*
X124254443Y-99880000D01*
X127410363Y-99880000D02*
X127956837Y-100426474D01*
X124218391Y-99905100D02*
X124229343Y-99905100D01*
X124254443Y-99880000D02*
X127410363Y-99880000D01*
%TO.N,DVID_HPD*%
X129981339Y-84432072D02*
X128030811Y-86382600D01*
X130530000Y-83320000D02*
X130620000Y-83230000D01*
X120648424Y-86994200D02*
X118465458Y-86994200D01*
X118465458Y-86994200D02*
X118209658Y-87250000D01*
X129981339Y-83868661D02*
X130530000Y-83320000D01*
X135350000Y-83230000D02*
X136210000Y-83230000D01*
X118209658Y-87250000D02*
X115958182Y-87250000D01*
X130620000Y-83230000D02*
X135350000Y-83230000D01*
X115958182Y-87250000D02*
X115883144Y-87325038D01*
X121260023Y-86382601D02*
X120648424Y-86994200D01*
X129981339Y-84432072D02*
X129981339Y-83868661D01*
X128030811Y-86382600D02*
X121260023Y-86382601D01*
X136210000Y-83230000D02*
X136560000Y-82880000D01*
%TO.N,DVID_CEC*%
X137810000Y-84520000D02*
X137810000Y-85310000D01*
X130840000Y-83470000D02*
X136760000Y-83470000D01*
X130394890Y-83915110D02*
X130840000Y-83470000D01*
X130394890Y-84061675D02*
X130394890Y-83915110D01*
X136760000Y-83470000D02*
X137810000Y-84520000D01*
%TO.N,VMUX_SEL*%
X124565118Y-98648539D02*
X124437631Y-98776026D01*
X128260000Y-99130000D02*
X127778539Y-98648539D01*
X124437631Y-98776026D02*
X124237690Y-98776026D01*
X127778539Y-98648539D02*
X124565118Y-98648539D01*
%TO.N,SDMMC_D2*%
X97296978Y-90837600D02*
X97296978Y-90888400D01*
X100090978Y-90888400D02*
X100090978Y-90837600D01*
X100497378Y-90990000D02*
X100680000Y-90990000D01*
X97144578Y-90736000D02*
X97195378Y-90736000D01*
X98668578Y-90736000D02*
X98719378Y-90736000D01*
X97652578Y-90736000D02*
X97703378Y-90736000D01*
X98820978Y-90990000D02*
X98820978Y-91142400D01*
X99582978Y-91142400D02*
X99582978Y-90990000D01*
X99430578Y-91244000D02*
X99481378Y-91244000D01*
X98312978Y-90990000D02*
X98312978Y-91142400D01*
X99582978Y-90990000D02*
X99582978Y-90837600D01*
X98414578Y-91244000D02*
X98465378Y-91244000D01*
X98820978Y-90837600D02*
X98820978Y-90990000D01*
X98566978Y-91142400D02*
X98566978Y-90990000D01*
X99176578Y-90736000D02*
X99227378Y-90736000D01*
X99074978Y-91142400D02*
X99074978Y-90990000D01*
X98566978Y-90990000D02*
X98566978Y-90837600D01*
X97550978Y-90888400D02*
X97550978Y-90837600D01*
X99684578Y-90736000D02*
X99735378Y-90736000D01*
X100970000Y-90990000D02*
X102035945Y-89924055D01*
X98922578Y-91244000D02*
X98973378Y-91244000D01*
X97296978Y-90990000D02*
X97296978Y-91142400D01*
X97398578Y-91244000D02*
X97449378Y-91244000D01*
X99328978Y-90837600D02*
X99328978Y-90990000D01*
X98312978Y-90837600D02*
X98312978Y-90888400D01*
X99836978Y-90837600D02*
X99836978Y-90990000D01*
X100090978Y-90990000D02*
X100090978Y-90888400D01*
X100344978Y-90837600D02*
X100344978Y-90888400D01*
X99074978Y-90990000D02*
X99074978Y-90837600D01*
X96320000Y-90990000D02*
X96941378Y-90990000D01*
X114568014Y-89913700D02*
X114578369Y-89924055D01*
X97296978Y-90888400D02*
X97296978Y-90990000D01*
X99938578Y-91244000D02*
X99989378Y-91244000D01*
X97804978Y-90837600D02*
X97804978Y-90888400D01*
X97550978Y-90990000D02*
X97550978Y-90888400D01*
X98312978Y-90888400D02*
X98312978Y-90990000D01*
X100680000Y-90990000D02*
X100970000Y-90990000D01*
X100192578Y-90736000D02*
X100243378Y-90736000D01*
X97042978Y-90888400D02*
X97042978Y-90837600D01*
X102035945Y-89924055D02*
X114578369Y-89924055D01*
X100446578Y-90990000D02*
X100497378Y-90990000D01*
X99836978Y-90990000D02*
X99836978Y-91142400D01*
X97906578Y-90990000D02*
X97957378Y-90990000D01*
X100090978Y-91142400D02*
X100090978Y-90990000D01*
X98160578Y-90736000D02*
X98211378Y-90736000D01*
X98058978Y-90888400D02*
X98058978Y-90837600D01*
X99328978Y-90990000D02*
X99328978Y-91142400D01*
X97550978Y-91142400D02*
X97550978Y-90990000D01*
X99481378Y-91244000D02*
G75*
G03*
X99583000Y-91142400I22J101600D01*
G01*
X100090978Y-90837600D02*
G75*
G02*
X100192578Y-90735978I101622J0D01*
G01*
X97957378Y-90990000D02*
G75*
G03*
X98059000Y-90888400I22J101600D01*
G01*
X97703378Y-90736000D02*
G75*
G02*
X97805000Y-90837600I22J-101600D01*
G01*
X97804978Y-90888400D02*
G75*
G03*
X97906578Y-90990022I101622J0D01*
G01*
X100243378Y-90736000D02*
G75*
G02*
X100345000Y-90837600I22J-101600D01*
G01*
X99582978Y-90837600D02*
G75*
G02*
X99684578Y-90735978I101622J0D01*
G01*
X98820978Y-91142400D02*
G75*
G03*
X98922578Y-91244022I101622J0D01*
G01*
X99227378Y-90736000D02*
G75*
G02*
X99329000Y-90837600I22J-101600D01*
G01*
X97042978Y-90837600D02*
G75*
G02*
X97144578Y-90735978I101622J0D01*
G01*
X99074978Y-90837600D02*
G75*
G02*
X99176578Y-90735978I101622J0D01*
G01*
X99989378Y-91244000D02*
G75*
G03*
X100091000Y-91142400I22J101600D01*
G01*
X97449378Y-91244000D02*
G75*
G03*
X97551000Y-91142400I22J101600D01*
G01*
X96941378Y-90990000D02*
G75*
G03*
X97043000Y-90888400I22J101600D01*
G01*
X98058978Y-90837600D02*
G75*
G02*
X98160578Y-90735978I101622J0D01*
G01*
X98973378Y-91244000D02*
G75*
G03*
X99075000Y-91142400I22J101600D01*
G01*
X98312978Y-91142400D02*
G75*
G03*
X98414578Y-91244022I101622J0D01*
G01*
X97195378Y-90736000D02*
G75*
G02*
X97297000Y-90837600I22J-101600D01*
G01*
X98566978Y-90837600D02*
G75*
G02*
X98668578Y-90735978I101622J0D01*
G01*
X98719378Y-90736000D02*
G75*
G02*
X98821000Y-90837600I22J-101600D01*
G01*
X99735378Y-90736000D02*
G75*
G02*
X99837000Y-90837600I22J-101600D01*
G01*
X97550978Y-90837600D02*
G75*
G02*
X97652578Y-90735978I101622J0D01*
G01*
X99328978Y-91142400D02*
G75*
G03*
X99430578Y-91244022I101622J0D01*
G01*
X98211378Y-90736000D02*
G75*
G02*
X98313000Y-90837600I22J-101600D01*
G01*
X99836978Y-91142400D02*
G75*
G03*
X99938578Y-91244022I101622J0D01*
G01*
X100344978Y-90888400D02*
G75*
G03*
X100446578Y-90990022I101622J0D01*
G01*
X97296978Y-91142400D02*
G75*
G03*
X97398578Y-91244022I101622J0D01*
G01*
X98465378Y-91244000D02*
G75*
G03*
X98567000Y-91142400I22J101600D01*
G01*
%TO.N,SDMMC_D3*%
X98103866Y-89890000D02*
X98103866Y-90042400D01*
X99119866Y-89737600D02*
X99119866Y-89890000D01*
X99475466Y-89636000D02*
X99526266Y-89636000D01*
X99373866Y-89890000D02*
X99373866Y-89788400D01*
X99930000Y-89890000D02*
X101700000Y-88120000D01*
X97341866Y-90042400D02*
X97341866Y-89890000D01*
X97951466Y-89636000D02*
X98002266Y-89636000D01*
X99119866Y-89890000D02*
X99119866Y-90042400D01*
X97341866Y-89890000D02*
X97341866Y-89737600D01*
X96833866Y-89788400D02*
X96833866Y-89737600D01*
X97087866Y-89788400D02*
X97087866Y-89890000D01*
X98103866Y-89737600D02*
X98103866Y-89890000D01*
X98357866Y-90042400D02*
X98357866Y-89890000D01*
X96935466Y-89636000D02*
X96986266Y-89636000D01*
X97087866Y-89890000D02*
X97087866Y-90042400D01*
X99373866Y-90042400D02*
X99373866Y-89890000D01*
X98967466Y-89636000D02*
X99018266Y-89636000D01*
X101700000Y-88120000D02*
X112000000Y-88120000D01*
X97697466Y-90144000D02*
X97748266Y-90144000D01*
X98205466Y-90144000D02*
X98256266Y-90144000D01*
X97849866Y-90042400D02*
X97849866Y-89890000D01*
X97849866Y-89890000D02*
X97849866Y-89737600D01*
X97189466Y-90144000D02*
X97240266Y-90144000D01*
X98357866Y-89890000D02*
X98357866Y-89737600D01*
X98713466Y-90144000D02*
X98764266Y-90144000D01*
X98611866Y-89890000D02*
X98611866Y-90042400D01*
X99780266Y-89890000D02*
X99930000Y-89890000D01*
X96320000Y-89900000D02*
X96330000Y-89890000D01*
X98459466Y-89636000D02*
X98510266Y-89636000D01*
X99373866Y-89788400D02*
X99373866Y-89737600D01*
X99729466Y-89890000D02*
X99780266Y-89890000D01*
X98865866Y-89890000D02*
X98865866Y-89737600D01*
X98611866Y-89737600D02*
X98611866Y-89890000D01*
X99221466Y-90144000D02*
X99272266Y-90144000D01*
X99627866Y-89737600D02*
X99627866Y-89788400D01*
X98865866Y-90042400D02*
X98865866Y-89890000D01*
X97595866Y-89890000D02*
X97595866Y-90042400D01*
X97087866Y-89737600D02*
X97087866Y-89788400D01*
X97595866Y-89737600D02*
X97595866Y-89890000D01*
X97443466Y-89636000D02*
X97494266Y-89636000D01*
X96330000Y-89890000D02*
X96732266Y-89890000D01*
X98510266Y-89636000D02*
G75*
G02*
X98611900Y-89737600I34J-101600D01*
G01*
X98103866Y-90042400D02*
G75*
G03*
X98205466Y-90144034I101634J0D01*
G01*
X99526266Y-89636000D02*
G75*
G02*
X99627900Y-89737600I34J-101600D01*
G01*
X97595866Y-90042400D02*
G75*
G03*
X97697466Y-90144034I101634J0D01*
G01*
X99627866Y-89788400D02*
G75*
G03*
X99729466Y-89890034I101634J0D01*
G01*
X98611866Y-90042400D02*
G75*
G03*
X98713466Y-90144034I101634J0D01*
G01*
X98256266Y-90144000D02*
G75*
G03*
X98357900Y-90042400I34J101600D01*
G01*
X96986266Y-89636000D02*
G75*
G02*
X97087900Y-89737600I34J-101600D01*
G01*
X97849866Y-89737600D02*
G75*
G02*
X97951466Y-89635966I101634J0D01*
G01*
X97341866Y-89737600D02*
G75*
G02*
X97443466Y-89635966I101634J0D01*
G01*
X97748266Y-90144000D02*
G75*
G03*
X97849900Y-90042400I34J101600D01*
G01*
X98865866Y-89737600D02*
G75*
G02*
X98967466Y-89635966I101634J0D01*
G01*
X96732266Y-89890000D02*
G75*
G03*
X96833900Y-89788400I34J101600D01*
G01*
X99373866Y-89737600D02*
G75*
G02*
X99475466Y-89635966I101634J0D01*
G01*
X97240266Y-90144000D02*
G75*
G03*
X97341900Y-90042400I34J101600D01*
G01*
X99272266Y-90144000D02*
G75*
G03*
X99373900Y-90042400I34J101600D01*
G01*
X98357866Y-89737600D02*
G75*
G02*
X98459466Y-89635966I101634J0D01*
G01*
X97494266Y-89636000D02*
G75*
G02*
X97595900Y-89737600I34J-101600D01*
G01*
X99119866Y-90042400D02*
G75*
G03*
X99221466Y-90144034I101634J0D01*
G01*
X98002266Y-89636000D02*
G75*
G02*
X98103900Y-89737600I34J-101600D01*
G01*
X99018266Y-89636000D02*
G75*
G02*
X99119900Y-89737600I34J-101600D01*
G01*
X97087866Y-90042400D02*
G75*
G03*
X97189466Y-90144034I101634J0D01*
G01*
X98764266Y-90144000D02*
G75*
G03*
X98865900Y-90042400I34J101600D01*
G01*
X96833866Y-89737600D02*
G75*
G02*
X96935466Y-89635966I101634J0D01*
G01*
%TO.N,SDMMC_CLK*%
X115371345Y-91904983D02*
X114911041Y-91444679D01*
X114025321Y-91444679D02*
X113882577Y-91587423D01*
X101390000Y-91930000D02*
X96320000Y-91930000D01*
X115478477Y-91904983D02*
X115371345Y-91904983D01*
X95560000Y-87000000D02*
X95590000Y-86970000D01*
X108681327Y-91587423D02*
X108663750Y-91605000D01*
X114911041Y-91444679D02*
X114025321Y-91444679D01*
X96320000Y-91930000D02*
X95560000Y-91170000D01*
X108663750Y-91605000D02*
X101715000Y-91605000D01*
X113882577Y-91587423D02*
X108681327Y-91587423D01*
X101715000Y-91605000D02*
X101390000Y-91930000D01*
X95560000Y-91170000D02*
X95560000Y-87000000D01*
%TO.N,SDMMC_D0*%
X96912283Y-84481600D02*
X96912283Y-84532400D01*
X97166283Y-84532400D02*
X97166283Y-84481600D01*
X97775883Y-84126000D02*
X97826683Y-84126000D01*
X97166283Y-84481600D02*
X97166283Y-84380000D01*
X101858600Y-87518600D02*
X114388600Y-87518600D01*
X99220000Y-84880000D02*
X101858600Y-87518600D01*
X97013883Y-84634000D02*
X97064683Y-84634000D01*
X98182283Y-84380000D02*
X98182283Y-84278400D01*
X97928283Y-84380000D02*
X97928283Y-84457000D01*
X97420283Y-84380000D02*
X97420283Y-84482400D01*
X98537883Y-84380000D02*
X98588683Y-84380000D01*
X97928283Y-84227600D02*
X97928283Y-84380000D01*
X115359931Y-88489931D02*
X115359931Y-88666459D01*
X96320000Y-84380000D02*
X96810683Y-84380000D01*
X98283883Y-84126000D02*
X98334683Y-84126000D01*
X97166283Y-84380000D02*
X97166283Y-84227600D01*
X98588683Y-84380000D02*
X98720000Y-84380000D01*
X97674283Y-84380000D02*
X97674283Y-84227600D01*
X97420283Y-84227600D02*
X97420283Y-84380000D01*
X98182283Y-84278400D02*
X98182283Y-84227600D01*
X97521883Y-84584000D02*
X97572683Y-84584000D01*
X98182283Y-84457000D02*
X98182283Y-84380000D01*
X98005283Y-84534000D02*
X98105283Y-84534000D01*
X98436283Y-84227600D02*
X98436283Y-84278400D01*
X98720000Y-84380000D02*
X99220000Y-84880000D01*
X97674283Y-84482400D02*
X97674283Y-84380000D01*
X97267883Y-84126000D02*
X97318683Y-84126000D01*
X114388600Y-87518600D02*
X115359931Y-88489931D01*
X98334683Y-84126000D02*
G75*
G02*
X98436300Y-84227600I17J-101600D01*
G01*
X96912283Y-84532400D02*
G75*
G03*
X97013883Y-84634017I101617J0D01*
G01*
X97674283Y-84227600D02*
G75*
G02*
X97775883Y-84125983I101617J0D01*
G01*
X97064683Y-84634000D02*
G75*
G03*
X97166300Y-84532400I17J101600D01*
G01*
X97826683Y-84126000D02*
G75*
G02*
X97928300Y-84227600I17J-101600D01*
G01*
X96810683Y-84380000D02*
G75*
G02*
X96912300Y-84481600I17J-101600D01*
G01*
X98436283Y-84278400D02*
G75*
G03*
X98537883Y-84380017I101617J0D01*
G01*
X97166283Y-84227600D02*
G75*
G02*
X97267883Y-84125983I101617J0D01*
G01*
X98105283Y-84534000D02*
G75*
G03*
X98182300Y-84457000I17J77000D01*
G01*
X97318683Y-84126000D02*
G75*
G02*
X97420300Y-84227600I17J-101600D01*
G01*
X97572683Y-84584000D02*
G75*
G03*
X97674300Y-84482400I17J101600D01*
G01*
X97420283Y-84482400D02*
G75*
G03*
X97521883Y-84584017I101617J0D01*
G01*
X98182283Y-84227600D02*
G75*
G02*
X98283883Y-84125983I101617J0D01*
G01*
X97928283Y-84457000D02*
G75*
G03*
X98005283Y-84534017I77017J0D01*
G01*
%TO.N,SDMMC_D1*%
X114520000Y-87290000D02*
X102450000Y-87290000D01*
X98440000Y-83280000D02*
X96320000Y-83280000D01*
X115850000Y-89470000D02*
X115850000Y-88620000D01*
X115850000Y-88620000D02*
X114520000Y-87290000D01*
X116437292Y-90057292D02*
X115850000Y-89470000D01*
X116567292Y-90057292D02*
X116437292Y-90057292D01*
X102450000Y-87290000D02*
X98440000Y-83280000D01*
%TO.N,~{SD_DETECT}*%
X115550000Y-92820000D02*
X116228673Y-93498673D01*
X113763290Y-92110000D02*
X114404690Y-92751400D01*
X109390000Y-92110000D02*
X113763290Y-92110000D01*
X108680000Y-92820000D02*
X109390000Y-92110000D01*
X115034690Y-92751400D02*
X115103290Y-92820000D01*
X116228673Y-93498673D02*
X116259707Y-93498673D01*
X115103290Y-92820000D02*
X115550000Y-92820000D01*
X114404690Y-92751400D02*
X115034690Y-92751400D01*
%TO.N,MCU_USB_ID*%
X114358855Y-94695573D02*
X114434479Y-94695573D01*
X110617800Y-93280000D02*
X112250000Y-93280000D01*
X110610000Y-93272200D02*
X110617800Y-93280000D01*
X113710000Y-94740000D02*
X114314428Y-94740000D01*
X112250000Y-93280000D02*
X113710000Y-94740000D01*
X114434479Y-94695573D02*
X114471124Y-94658928D01*
X111600000Y-82470000D02*
X111600000Y-80930000D01*
X111600000Y-80930000D02*
X114280000Y-78250000D01*
X114314428Y-94740000D02*
X114358855Y-94695573D01*
%TO.N,MCU_USB_VBUS*%
X111010000Y-80950000D02*
X114570000Y-77390000D01*
X114570000Y-77390000D02*
X116100000Y-77390000D01*
X111900000Y-95230000D02*
X111170000Y-94500000D01*
X111010000Y-82470000D02*
X111010000Y-80950000D01*
X111170000Y-94500000D02*
X110230000Y-94500000D01*
X112570000Y-95230000D02*
X111900000Y-95230000D01*
%TO.N,ETH_RXD1*%
X120690000Y-99010000D02*
X118054666Y-99010000D01*
X116363988Y-98636653D02*
X116176483Y-98824157D01*
X121123328Y-98576672D02*
X120690000Y-99010000D01*
X116031655Y-98957957D02*
X112344749Y-98957957D01*
X116176483Y-98824157D02*
X116165455Y-98824157D01*
X112344749Y-98957957D02*
X112250000Y-99052706D01*
X116964285Y-98636653D02*
X116363988Y-98636653D01*
X117880877Y-98836211D02*
X117163844Y-98836211D01*
X118054666Y-99010000D02*
X117880877Y-98836211D01*
X117163844Y-98836211D02*
X116964285Y-98636653D01*
X123127828Y-98500138D02*
X123051294Y-98576672D01*
X116165455Y-98824157D02*
X116031655Y-98957957D01*
X123051294Y-98576672D02*
X121123328Y-98576672D01*
%TO.N,ETH_RXD0*%
X110098400Y-97742917D02*
X110450483Y-98095000D01*
X114433420Y-98095000D02*
X114609820Y-98271400D01*
X110450483Y-98095000D02*
X114433420Y-98095000D01*
X114609820Y-98271400D02*
X115748343Y-98271400D01*
X116079921Y-97950853D02*
X118009147Y-97950853D01*
X115881386Y-98138357D02*
X115892416Y-98138357D01*
X115748343Y-98271400D02*
X115881386Y-98138357D01*
X118467107Y-97492893D02*
X120201816Y-97492893D01*
X115892416Y-98138357D02*
X116079921Y-97950853D01*
X118009147Y-97950853D02*
X118467107Y-97492893D01*
X110064900Y-97742917D02*
X110098400Y-97742917D01*
%TO.N,ETH_CRS_DV*%
X118242342Y-98551096D02*
X118070255Y-98379011D01*
X118070255Y-98379011D02*
X117353223Y-98379011D01*
X115843033Y-98500000D02*
X114479210Y-98500000D01*
X117353223Y-98379011D02*
X117153663Y-98179453D01*
X114353610Y-98374400D02*
X109937157Y-98374400D01*
X122080000Y-98040000D02*
X121013421Y-98040000D01*
X115976075Y-98366957D02*
X115843033Y-98500000D01*
X114479210Y-98500000D02*
X114353610Y-98374400D01*
X122680000Y-97440000D02*
X122080000Y-98040000D01*
X121013421Y-98040000D02*
X120502325Y-98551096D01*
X116174610Y-98179453D02*
X115987105Y-98366957D01*
X115987105Y-98366957D02*
X115976075Y-98366957D01*
X120502325Y-98551096D02*
X118242342Y-98551096D01*
X117153663Y-98179453D02*
X116174610Y-98179453D01*
X109937157Y-98374400D02*
X109800316Y-98237559D01*
%TO.N,ETH_MDIO*%
X116269299Y-98408053D02*
X116081794Y-98595557D01*
X122605256Y-98289474D02*
X121087237Y-98289474D01*
X114243800Y-98653800D02*
X108904871Y-98653800D01*
X117975566Y-98607611D02*
X117258533Y-98607611D01*
X108904871Y-98653800D02*
X108771071Y-98520000D01*
X116081794Y-98595557D02*
X116070765Y-98595557D01*
X121087237Y-98289474D02*
X120596711Y-98780000D01*
X117258533Y-98607611D02*
X117058974Y-98408053D01*
X116070765Y-98595557D02*
X115936965Y-98729357D01*
X117058974Y-98408053D02*
X116269299Y-98408053D01*
X115936965Y-98729357D02*
X114319357Y-98729357D01*
X114319357Y-98729357D02*
X114243800Y-98653800D01*
X122719891Y-98174839D02*
X122605256Y-98289474D01*
X120596711Y-98780000D02*
X118147956Y-98780000D01*
X118147956Y-98780000D02*
X117975566Y-98607611D01*
%TO.N,Net-(IC6-RXD1{slash}MODE1)*%
D13*
X109627400Y-106977400D02*
X109240000Y-106590000D01*
X111006867Y-101470000D02*
X111250000Y-101470000D01*
X109240000Y-106590000D02*
X109240000Y-103213772D01*
X109240000Y-103213772D02*
X109016228Y-102990000D01*
X109627400Y-107010000D02*
X109627400Y-106977400D01*
X109016228Y-102990000D02*
X109615659Y-102390569D01*
X109615659Y-102390569D02*
X110086298Y-102390569D01*
X110086298Y-102390569D02*
X111006867Y-101470000D01*
%TO.N,/STM32H7 MCU/~{ACTIVE}*%
X125322081Y-108483889D02*
X125322081Y-108057919D01*
X125322081Y-108057919D02*
X125840527Y-107539473D01*
X126019748Y-103860000D02*
X126146270Y-103860000D01*
X125840527Y-104039221D02*
X126019748Y-103860000D01*
X125840527Y-107539473D02*
X125840527Y-104039221D01*
%TO.N,Net-(IC6-LED1{slash}NINT{slash}NPME{slash}REGOFF)*%
X108245210Y-109804790D02*
X108230000Y-109820000D01*
%TO.N,ETH_RX_ERR*%
D14*
X107462779Y-100541194D02*
X107462779Y-102697221D01*
X117970000Y-86900000D02*
X110230600Y-86900000D01*
X122130000Y-85880000D02*
X121961369Y-85711369D01*
X121961369Y-85711369D02*
X120650831Y-85711369D01*
X120650831Y-85711369D02*
X119697100Y-86665100D01*
X118204900Y-86665100D02*
X117970000Y-86900000D01*
X119697100Y-86665100D02*
X118204900Y-86665100D01*
X110230600Y-86900000D02*
X107590000Y-86900000D01*
D13*
X108000000Y-104620000D02*
X108000000Y-103250000D01*
D14*
X107590000Y-86900000D02*
X107560000Y-86870000D01*
D13*
X108000000Y-103250000D02*
X107455000Y-102705000D01*
%TO.N,ETH_TX_EN*%
X116076000Y-100582200D02*
X116754365Y-99903835D01*
X116754365Y-99903835D02*
X117094344Y-99903835D01*
X106244268Y-99415732D02*
X111225732Y-99415732D01*
X112392200Y-100582200D02*
X116076000Y-100582200D01*
X111225732Y-99415732D02*
X112392200Y-100582200D01*
X105150775Y-101833415D02*
X105150775Y-100509225D01*
X105027023Y-101957167D02*
X105150775Y-101833415D01*
X105150775Y-100509225D02*
X106244268Y-99415732D01*
%TO.N,ETH_MDC*%
D14*
X111188750Y-99720000D02*
X112292250Y-100823500D01*
X113225356Y-101430000D02*
X114060000Y-101430000D01*
X117583667Y-102856100D02*
X117673902Y-102765865D01*
X106587522Y-99925724D02*
X106793246Y-99720000D01*
X114290000Y-101200000D02*
X115000000Y-101200000D01*
X116656100Y-102856100D02*
X117583667Y-102856100D01*
X112292250Y-100823500D02*
X112618856Y-100823500D01*
X106793246Y-99720000D02*
X111188750Y-99720000D01*
X112618856Y-100823500D02*
X113225356Y-101430000D01*
X115000000Y-101200000D02*
X116656100Y-102856100D01*
X114060000Y-101430000D02*
X114290000Y-101200000D01*
%TO.N,ETH_REF_CLK*%
X107540406Y-95449594D02*
X111367185Y-95449594D01*
X112137591Y-96220000D02*
X113953365Y-96220000D01*
X105963900Y-97026100D02*
X107540406Y-95449594D01*
X113953365Y-96220000D02*
X114009100Y-96275735D01*
X111367185Y-95449594D02*
X112137591Y-96220000D01*
X105963900Y-97039834D02*
X105963900Y-97026100D01*
%TO.N,ETH_TXD0*%
X115895420Y-96890514D02*
X115895420Y-96859871D01*
X106859372Y-97315496D02*
X106044868Y-98130000D01*
X113367436Y-97560000D02*
X110780965Y-97560000D01*
X106044868Y-98130000D02*
X105070000Y-98130000D01*
X110780965Y-97560000D02*
X110536461Y-97315496D01*
X115469579Y-96743453D02*
X115083032Y-97130000D01*
X105070000Y-98130000D02*
X105060000Y-98140000D01*
X117126896Y-96583784D02*
X117126896Y-96633104D01*
X117126896Y-96633104D02*
X116649758Y-97110242D01*
X115083032Y-97130000D02*
X113797436Y-97130000D01*
X113797436Y-97130000D02*
X113367436Y-97560000D01*
X115895420Y-96859871D02*
X115779002Y-96743453D01*
X110536461Y-97315496D02*
X106859372Y-97315496D01*
X115779002Y-96743453D02*
X115469579Y-96743453D01*
X116649758Y-97110242D02*
X116115148Y-97110242D01*
X116115148Y-97110242D02*
X115895420Y-96890514D01*
%TO.N,ETH_TXD1*%
X112056270Y-99486270D02*
X114523730Y-99486270D01*
X114810743Y-99199257D02*
X116320827Y-99199257D01*
X104470000Y-99090000D02*
X104660000Y-98900000D01*
X111470000Y-98900000D02*
X112056270Y-99486270D01*
X104660000Y-98900000D02*
X111470000Y-98900000D01*
X114523730Y-99486270D02*
X114810743Y-99199257D01*
%TO.N,~{ETH_RESET}*%
X115940000Y-100150000D02*
X115520000Y-99730000D01*
X105300000Y-99130000D02*
X104650000Y-99780000D01*
X111350000Y-99130000D02*
X105300000Y-99130000D01*
X111950000Y-99730000D02*
X111350000Y-99130000D01*
X104650000Y-99780000D02*
X102530000Y-99780000D01*
X115520000Y-99730000D02*
X111950000Y-99730000D01*
%TO.N,ETH_CLK*%
X110210000Y-92340000D02*
X106110000Y-96440000D01*
X115110000Y-93150000D02*
X114940000Y-92980000D01*
X116280000Y-94230000D02*
X116024749Y-93974749D01*
X115110000Y-93640000D02*
X115110000Y-93150000D01*
X115444749Y-93974749D02*
X115110000Y-93640000D01*
X114310000Y-92980000D02*
X113670000Y-92340000D01*
X113670000Y-92340000D02*
X110210000Y-92340000D01*
X106110000Y-96440000D02*
X103280000Y-96440000D01*
X116024749Y-93974749D02*
X115444749Y-93974749D01*
X114940000Y-92980000D02*
X114310000Y-92980000D01*
%TD*%
%TA.AperFunction,Conductor*%
%TO.N,+5V*%
G36*
X140055716Y-98101932D02*
G01*
X140123576Y-98115431D01*
X140159839Y-98130452D01*
X140208966Y-98163277D01*
X140236722Y-98191033D01*
X140269547Y-98240160D01*
X140284568Y-98276422D01*
X140298067Y-98344280D01*
X140300000Y-98363908D01*
X140300000Y-99136091D01*
X140298067Y-99155719D01*
X140284568Y-99223577D01*
X140269547Y-99259839D01*
X140236722Y-99308966D01*
X140208966Y-99336722D01*
X140159839Y-99369547D01*
X140123577Y-99384568D01*
X140082184Y-99392802D01*
X140055715Y-99398067D01*
X140036092Y-99400000D01*
X139300000Y-99400000D01*
X139300000Y-105784880D01*
X139298067Y-105804507D01*
X139284568Y-105872366D01*
X139269547Y-105908629D01*
X139231110Y-105966155D01*
X139218599Y-105981400D01*
X134548640Y-110651358D01*
X134493242Y-110679584D01*
X134451469Y-110677395D01*
X134413049Y-110667101D01*
X134413044Y-110667100D01*
X134413043Y-110667100D01*
X134306957Y-110667100D01*
X134306952Y-110667100D01*
X134204492Y-110694554D01*
X134204487Y-110694556D01*
X134112613Y-110747598D01*
X134037598Y-110822613D01*
X133984556Y-110914487D01*
X133984555Y-110914490D01*
X133981622Y-110925438D01*
X133947759Y-110977581D01*
X133889714Y-110999862D01*
X133884450Y-111000000D01*
X132554028Y-111000000D01*
X132494897Y-110980787D01*
X132466907Y-110949701D01*
X132422401Y-110872613D01*
X132347387Y-110797599D01*
X132347386Y-110797598D01*
X132255512Y-110744556D01*
X132255507Y-110744554D01*
X132153047Y-110717100D01*
X132153043Y-110717100D01*
X132046957Y-110717100D01*
X132046952Y-110717100D01*
X131944492Y-110744554D01*
X131944487Y-110744556D01*
X131852613Y-110797598D01*
X131777598Y-110872613D01*
X131738163Y-110940919D01*
X131691958Y-110982522D01*
X131630125Y-110989022D01*
X131625003Y-110987792D01*
X131547782Y-110967100D01*
X131547777Y-110967100D01*
X131452223Y-110967100D01*
X131452218Y-110967100D01*
X131359928Y-110991829D01*
X131358692Y-110992342D01*
X131356071Y-110992863D01*
X131353557Y-110993537D01*
X131353512Y-110993372D01*
X131320193Y-111000000D01*
X129563908Y-111000000D01*
X129544284Y-110998067D01*
X129512450Y-110991735D01*
X129476422Y-110984568D01*
X129440160Y-110969547D01*
X129391033Y-110936722D01*
X129363277Y-110908966D01*
X129330452Y-110859839D01*
X129315431Y-110823575D01*
X129301933Y-110755717D01*
X129300000Y-110736091D01*
X129300000Y-109863908D01*
X129301933Y-109844282D01*
X129315431Y-109776424D01*
X129330452Y-109740160D01*
X129363279Y-109691030D01*
X129391030Y-109663279D01*
X129440160Y-109630451D01*
X129476424Y-109615431D01*
X129486248Y-109613477D01*
X129544282Y-109601932D01*
X129563908Y-109600000D01*
X132911501Y-109600000D01*
X132961798Y-109613476D01*
X132969926Y-109618169D01*
X132969929Y-109618169D01*
X132969932Y-109618171D01*
X133062218Y-109642899D01*
X133062220Y-109642899D01*
X133062223Y-109642900D01*
X133062225Y-109642900D01*
X133157775Y-109642900D01*
X133157777Y-109642900D01*
X133250070Y-109618170D01*
X133250071Y-109618170D01*
X133250071Y-109618169D01*
X133250074Y-109618169D01*
X133332826Y-109570392D01*
X133400392Y-109502826D01*
X133448169Y-109420074D01*
X133448170Y-109420071D01*
X133448171Y-109420069D01*
X133466171Y-109352890D01*
X133492206Y-109307793D01*
X137600000Y-105200000D01*
X137600000Y-98363908D01*
X137601933Y-98344282D01*
X137615431Y-98276424D01*
X137615432Y-98276422D01*
X137630452Y-98240160D01*
X137663279Y-98191030D01*
X137691030Y-98163279D01*
X137740160Y-98130451D01*
X137776424Y-98115431D01*
X137844282Y-98101933D01*
X137863908Y-98100000D01*
X140036092Y-98100000D01*
X140055716Y-98101932D01*
G37*
%TD.AperFunction*%
%TD*%
%TA.AperFunction,Conductor*%
%TO.N,+3V3*%
G36*
X142241003Y-103570484D02*
G01*
X142250789Y-103571447D01*
X142260559Y-103572895D01*
X142313863Y-103583498D01*
X142332723Y-103589220D01*
X142350692Y-103596663D01*
X142368074Y-103605954D01*
X142400729Y-103627773D01*
X142415971Y-103640282D01*
X142429716Y-103654027D01*
X142442227Y-103669272D01*
X142464041Y-103701919D01*
X142473337Y-103719310D01*
X142480776Y-103737269D01*
X142486501Y-103756141D01*
X142497102Y-103809432D01*
X142498550Y-103819195D01*
X142499515Y-103828989D01*
X142500000Y-103838853D01*
X142500000Y-111731145D01*
X142499515Y-111741009D01*
X142498550Y-111750803D01*
X142497102Y-111760566D01*
X142486501Y-111813857D01*
X142480776Y-111832729D01*
X142473337Y-111850688D01*
X142464041Y-111868079D01*
X142442227Y-111900726D01*
X142429716Y-111915971D01*
X142415971Y-111929716D01*
X142400726Y-111942227D01*
X142368079Y-111964041D01*
X142350686Y-111973338D01*
X142332726Y-111980777D01*
X142313857Y-111986501D01*
X142294897Y-111990272D01*
X142286068Y-111992029D01*
X142281441Y-111992949D01*
X142263065Y-111996604D01*
X142253314Y-111998050D01*
X142243538Y-111999014D01*
X142233666Y-111999500D01*
X139899256Y-111999500D01*
X139889395Y-111999015D01*
X139879616Y-111998051D01*
X139869854Y-111996604D01*
X139868693Y-111996373D01*
X139841607Y-111990985D01*
X139826494Y-111987978D01*
X139819065Y-111986501D01*
X139800196Y-111980777D01*
X139782236Y-111973338D01*
X139764845Y-111964042D01*
X139732196Y-111942227D01*
X139716951Y-111929716D01*
X139703206Y-111915971D01*
X139690695Y-111900726D01*
X139668878Y-111868074D01*
X139659584Y-111850685D01*
X139652145Y-111832726D01*
X139646422Y-111813858D01*
X139635822Y-111760568D01*
X139634373Y-111750802D01*
X139633408Y-111741004D01*
X139632924Y-111731144D01*
X139632924Y-107466884D01*
X139637844Y-107435809D01*
X139641710Y-107423910D01*
X139678249Y-107373612D01*
X139734751Y-107354430D01*
X139744978Y-107354162D01*
X139773645Y-107357554D01*
X139849578Y-107377900D01*
X139849580Y-107377900D01*
X139949075Y-107377900D01*
X139949078Y-107377900D01*
X139949080Y-107377900D01*
X139949082Y-107377899D01*
X139949085Y-107377899D01*
X139949127Y-107377887D01*
X139950567Y-107377548D01*
X139956740Y-107376091D01*
X139958919Y-107375264D01*
X139965084Y-107373612D01*
X140045189Y-107352148D01*
X140045190Y-107352148D01*
X140045190Y-107352147D01*
X140045193Y-107352147D01*
X140120572Y-107308626D01*
X140149947Y-107297350D01*
X140168813Y-107293340D01*
X140220816Y-107296065D01*
X140224765Y-107297349D01*
X140224910Y-107297396D01*
X140244121Y-107305950D01*
X140255298Y-107312403D01*
X140324136Y-107352147D01*
X140324138Y-107352148D01*
X140420243Y-107377899D01*
X140420245Y-107377899D01*
X140420249Y-107377900D01*
X140420251Y-107377900D01*
X140519746Y-107377900D01*
X140519749Y-107377900D01*
X140519751Y-107377900D01*
X140519753Y-107377899D01*
X140519756Y-107377899D01*
X140519798Y-107377887D01*
X140521238Y-107377548D01*
X140527411Y-107376091D01*
X140529590Y-107375264D01*
X140535755Y-107373612D01*
X140615860Y-107352148D01*
X140615861Y-107352148D01*
X140615861Y-107352147D01*
X140615864Y-107352147D01*
X140670904Y-107320368D01*
X140700280Y-107309091D01*
X140719152Y-107305080D01*
X140771142Y-107307803D01*
X140775242Y-107309135D01*
X140794444Y-107317683D01*
X140854136Y-107352147D01*
X140854138Y-107352148D01*
X140950243Y-107377899D01*
X140950245Y-107377899D01*
X140950249Y-107377900D01*
X140950251Y-107377900D01*
X141049749Y-107377900D01*
X141049750Y-107377900D01*
X141049751Y-107377900D01*
X141049751Y-107377899D01*
X141049754Y-107377899D01*
X141049756Y-107377899D01*
X141049769Y-107377895D01*
X141051225Y-107377551D01*
X141051237Y-107377549D01*
X141057404Y-107376093D01*
X141059586Y-107375264D01*
X141145860Y-107352148D01*
X141145859Y-107352148D01*
X141145864Y-107352147D01*
X141145866Y-107352145D01*
X141150664Y-107350860D01*
X141150665Y-107350860D01*
X141180330Y-107342911D01*
X141204071Y-107318540D01*
X141232036Y-107302395D01*
X141302395Y-107232036D01*
X141352147Y-107145864D01*
X141377900Y-107049751D01*
X141377900Y-106950249D01*
X141377900Y-106950247D01*
X141377549Y-106948761D01*
X141377547Y-106948755D01*
X141376092Y-106942591D01*
X141375264Y-106940410D01*
X141352149Y-106854144D01*
X141352148Y-106854139D01*
X141352146Y-106854134D01*
X141302396Y-106767965D01*
X141232034Y-106697603D01*
X141232035Y-106697603D01*
X141145864Y-106647852D01*
X141145858Y-106647850D01*
X141049758Y-106622100D01*
X141049756Y-106622100D01*
X141049751Y-106622100D01*
X140950249Y-106622100D01*
X140950243Y-106622100D01*
X140950240Y-106622100D01*
X140854140Y-106647850D01*
X140854134Y-106647852D01*
X140854133Y-106647853D01*
X140799097Y-106679628D01*
X140769716Y-106690906D01*
X140750852Y-106694916D01*
X140698859Y-106692195D01*
X140694767Y-106690866D01*
X140689344Y-106688452D01*
X140689018Y-106688418D01*
X140688773Y-106688198D01*
X140675544Y-106682309D01*
X140615867Y-106647854D01*
X140615864Y-106647852D01*
X140615858Y-106647850D01*
X140519758Y-106622100D01*
X140519756Y-106622100D01*
X140519751Y-106622100D01*
X140420249Y-106622100D01*
X140420243Y-106622100D01*
X140420240Y-106622100D01*
X140324140Y-106647850D01*
X140324134Y-106647852D01*
X140324131Y-106647854D01*
X140248762Y-106691368D01*
X140219380Y-106702648D01*
X140200515Y-106706658D01*
X140148516Y-106703934D01*
X140144425Y-106702605D01*
X140139008Y-106700193D01*
X140138681Y-106700159D01*
X140138436Y-106699938D01*
X140125207Y-106694049D01*
X140045193Y-106647852D01*
X140045187Y-106647850D01*
X139949087Y-106622100D01*
X139949085Y-106622100D01*
X139949080Y-106622100D01*
X139849578Y-106622100D01*
X139849572Y-106622100D01*
X139849569Y-106622100D01*
X139774951Y-106642095D01*
X139743643Y-106645384D01*
X139738632Y-106645122D01*
X139731158Y-106644730D01*
X139673115Y-106622445D01*
X139639970Y-106572835D01*
X139637065Y-106563026D01*
X139632924Y-106534459D01*
X139632924Y-105907229D01*
X139637844Y-105876154D01*
X139641710Y-105864255D01*
X139659240Y-105840124D01*
X139676143Y-105815530D01*
X139677439Y-105815070D01*
X139678249Y-105813957D01*
X139734751Y-105794775D01*
X139744980Y-105794507D01*
X139773646Y-105797899D01*
X139846006Y-105817288D01*
X139848225Y-105817954D01*
X139848907Y-105818065D01*
X139848909Y-105818065D01*
X139948404Y-105818065D01*
X139948407Y-105818065D01*
X139948409Y-105818065D01*
X139948411Y-105818064D01*
X139948414Y-105818064D01*
X139948456Y-105818052D01*
X139949896Y-105817713D01*
X139956069Y-105816256D01*
X139958248Y-105815429D01*
X139959953Y-105814972D01*
X140044518Y-105792313D01*
X140044519Y-105792313D01*
X140044519Y-105792312D01*
X140044522Y-105792312D01*
X140119901Y-105748791D01*
X140149276Y-105737515D01*
X140168142Y-105733505D01*
X140220145Y-105736230D01*
X140224094Y-105737514D01*
X140224239Y-105737561D01*
X140243450Y-105746115D01*
X140254627Y-105752568D01*
X140323465Y-105792312D01*
X140323467Y-105792313D01*
X140419572Y-105818064D01*
X140419574Y-105818064D01*
X140419578Y-105818065D01*
X140419580Y-105818065D01*
X140519075Y-105818065D01*
X140519078Y-105818065D01*
X140519080Y-105818065D01*
X140519082Y-105818064D01*
X140519085Y-105818064D01*
X140519127Y-105818052D01*
X140520567Y-105817713D01*
X140526740Y-105816256D01*
X140528919Y-105815429D01*
X140530891Y-105814900D01*
X140615189Y-105792313D01*
X140615190Y-105792313D01*
X140615190Y-105792312D01*
X140615193Y-105792312D01*
X140670233Y-105760533D01*
X140699609Y-105749256D01*
X140718481Y-105745245D01*
X140770471Y-105747968D01*
X140774571Y-105749300D01*
X140793773Y-105757848D01*
X140853465Y-105792312D01*
X140853467Y-105792313D01*
X140949572Y-105818064D01*
X140949574Y-105818064D01*
X140949578Y-105818065D01*
X140949580Y-105818065D01*
X141049078Y-105818065D01*
X141049079Y-105818065D01*
X141049080Y-105818065D01*
X141049080Y-105818064D01*
X141049083Y-105818064D01*
X141049085Y-105818064D01*
X141049098Y-105818060D01*
X141050554Y-105817716D01*
X141050566Y-105817714D01*
X141056733Y-105816258D01*
X141058915Y-105815429D01*
X141145189Y-105792313D01*
X141145188Y-105792313D01*
X141145193Y-105792312D01*
X141145195Y-105792310D01*
X141149993Y-105791025D01*
X141149994Y-105791025D01*
X141179659Y-105783076D01*
X141203400Y-105758705D01*
X141231365Y-105742560D01*
X141301724Y-105672201D01*
X141351476Y-105586029D01*
X141377229Y-105489916D01*
X141377229Y-105390414D01*
X141377229Y-105390412D01*
X141376878Y-105388926D01*
X141376876Y-105388920D01*
X141375421Y-105382756D01*
X141374593Y-105380575D01*
X141351478Y-105294309D01*
X141351477Y-105294304D01*
X141351475Y-105294299D01*
X141301725Y-105208130D01*
X141231363Y-105137768D01*
X141231364Y-105137768D01*
X141145193Y-105088017D01*
X141145187Y-105088015D01*
X141049087Y-105062265D01*
X141049085Y-105062265D01*
X141049080Y-105062265D01*
X140949578Y-105062265D01*
X140949572Y-105062265D01*
X140949569Y-105062265D01*
X140853469Y-105088015D01*
X140853463Y-105088017D01*
X140853462Y-105088018D01*
X140798426Y-105119793D01*
X140769045Y-105131071D01*
X140750181Y-105135081D01*
X140698188Y-105132360D01*
X140694096Y-105131031D01*
X140688673Y-105128617D01*
X140688347Y-105128583D01*
X140688102Y-105128363D01*
X140674873Y-105122474D01*
X140615196Y-105088019D01*
X140615193Y-105088017D01*
X140615187Y-105088015D01*
X140519087Y-105062265D01*
X140519085Y-105062265D01*
X140519080Y-105062265D01*
X140419578Y-105062265D01*
X140419572Y-105062265D01*
X140419569Y-105062265D01*
X140323469Y-105088015D01*
X140323463Y-105088017D01*
X140323460Y-105088019D01*
X140248091Y-105131533D01*
X140218709Y-105142813D01*
X140199844Y-105146823D01*
X140147845Y-105144099D01*
X140143754Y-105142770D01*
X140138337Y-105140358D01*
X140138010Y-105140324D01*
X140137765Y-105140103D01*
X140124536Y-105134214D01*
X140044522Y-105088017D01*
X140044516Y-105088015D01*
X139948416Y-105062265D01*
X139948414Y-105062265D01*
X139948409Y-105062265D01*
X139848907Y-105062265D01*
X139848905Y-105062265D01*
X139848902Y-105062265D01*
X139848898Y-105062266D01*
X139848892Y-105062267D01*
X139774949Y-105082080D01*
X139743643Y-105085369D01*
X139739528Y-105085154D01*
X139731158Y-105084715D01*
X139673115Y-105062430D01*
X139639970Y-105012820D01*
X139637065Y-105003011D01*
X139632924Y-104974444D01*
X139632924Y-103838854D01*
X139633408Y-103828994D01*
X139634373Y-103819196D01*
X139635822Y-103809431D01*
X139636633Y-103805350D01*
X139646423Y-103756135D01*
X139652143Y-103737278D01*
X139659586Y-103719307D01*
X139668873Y-103701932D01*
X139690702Y-103669262D01*
X139703206Y-103654027D01*
X139716951Y-103640281D01*
X139732185Y-103627778D01*
X139764853Y-103605950D01*
X139782231Y-103596662D01*
X139800205Y-103589217D01*
X139819060Y-103583498D01*
X139872356Y-103572897D01*
X139882121Y-103571449D01*
X139891920Y-103570484D01*
X139901779Y-103570000D01*
X142231151Y-103570000D01*
X142241003Y-103570484D01*
G37*
%TD.AperFunction*%
%TD*%
M02*
