%TF.GenerationSoftware,KiCad,Pcbnew,10.0.1-10.0.1~ubuntu24.04.1*%
%TF.CreationDate,2026-04-20T10:02:46+02:00*%
%TF.ProjectId,BB3plus CM5 STM32H7 module,42423370-6c75-4732-9043-4d352053544d,r1B5*%
%TF.SameCoordinates,Original*%
%TF.FileFunction,Copper,L6,Bot*%
%TF.FilePolarity,Positive*%
%FSLAX46Y46*%
G04 Gerber Fmt 4.6, Leading zero omitted, Abs format (unit mm)*
G04 Created by KiCad (PCBNEW 10.0.1-10.0.1~ubuntu24.04.1) date 2026-04-20 10:02:46*
%MOMM*%
%LPD*%
G01*
G04 APERTURE LIST*
G04 Aperture macros list*
%AMRoundRect*
0 Rectangle with rounded corners*
0 $1 Rounding radius*
0 $2 $3 $4 $5 $6 $7 $8 $9 X,Y pos of 4 corners*
0 Add a 4 corners polygon primitive as box body*
4,1,4,$2,$3,$4,$5,$6,$7,$8,$9,$2,$3,0*
0 Add four circle primitives for the rounded corners*
1,1,$1+$1,$2,$3*
1,1,$1+$1,$4,$5*
1,1,$1+$1,$6,$7*
1,1,$1+$1,$8,$9*
0 Add four rect primitives between the rounded corners*
20,1,$1+$1,$2,$3,$4,$5,0*
20,1,$1+$1,$4,$5,$6,$7,0*
20,1,$1+$1,$6,$7,$8,$9,0*
20,1,$1+$1,$8,$9,$2,$3,0*%
G04 Aperture macros list end*
%TA.AperFunction,EtchedComponent*%
%ADD10C,0.000000*%
%TD*%
%TA.AperFunction,SMDPad,CuDef*%
%ADD11RoundRect,0.225000X-0.250000X0.225000X-0.250000X-0.225000X0.250000X-0.225000X0.250000X0.225000X0*%
%TD*%
%TA.AperFunction,SMDPad,CuDef*%
%ADD12R,0.230000X0.660000*%
%TD*%
%TA.AperFunction,SMDPad,CuDef*%
%ADD13R,0.350000X0.660000*%
%TD*%
%TA.AperFunction,SMDPad,CuDef*%
%ADD14RoundRect,0.140000X-0.170000X0.140000X-0.170000X-0.140000X0.170000X-0.140000X0.170000X0.140000X0*%
%TD*%
%TA.AperFunction,SMDPad,CuDef*%
%ADD15R,1.400000X1.200000*%
%TD*%
%TA.AperFunction,SMDPad,CuDef*%
%ADD16RoundRect,0.225000X0.225000X0.250000X-0.225000X0.250000X-0.225000X-0.250000X0.225000X-0.250000X0*%
%TD*%
%TA.AperFunction,SMDPad,CuDef*%
%ADD17RoundRect,0.140000X0.140000X0.170000X-0.140000X0.170000X-0.140000X-0.170000X0.140000X-0.170000X0*%
%TD*%
%TA.AperFunction,SMDPad,CuDef*%
%ADD18RoundRect,0.225000X-0.225000X-0.250000X0.225000X-0.250000X0.225000X0.250000X-0.225000X0.250000X0*%
%TD*%
%TA.AperFunction,SMDPad,CuDef*%
%ADD19RoundRect,0.140000X-0.140000X-0.170000X0.140000X-0.170000X0.140000X0.170000X-0.140000X0.170000X0*%
%TD*%
%TA.AperFunction,SMDPad,CuDef*%
%ADD20RoundRect,0.135000X0.135000X0.185000X-0.135000X0.185000X-0.135000X-0.185000X0.135000X-0.185000X0*%
%TD*%
%TA.AperFunction,SMDPad,CuDef*%
%ADD21RoundRect,0.135000X-0.135000X-0.185000X0.135000X-0.185000X0.135000X0.185000X-0.135000X0.185000X0*%
%TD*%
%TA.AperFunction,SMDPad,CuDef*%
%ADD22RoundRect,0.225000X0.250000X-0.225000X0.250000X0.225000X-0.250000X0.225000X-0.250000X-0.225000X0*%
%TD*%
%TA.AperFunction,SMDPad,CuDef*%
%ADD23C,0.200000*%
%TD*%
%TA.AperFunction,SMDPad,CuDef*%
%ADD24RoundRect,0.140000X0.170000X-0.140000X0.170000X0.140000X-0.170000X0.140000X-0.170000X-0.140000X0*%
%TD*%
%TA.AperFunction,SMDPad,CuDef*%
%ADD25RoundRect,0.050800X0.449200X0.499200X-0.449200X0.499200X-0.449200X-0.499200X0.449200X-0.499200X0*%
%TD*%
%TA.AperFunction,SMDPad,CuDef*%
%ADD26RoundRect,0.042333X-0.402167X-0.833967X0.402167X-0.833967X0.402167X0.833967X-0.402167X0.833967X0*%
%TD*%
%TA.AperFunction,SMDPad,CuDef*%
%ADD27R,1.200000X1.400000*%
%TD*%
%TA.AperFunction,SMDPad,CuDef*%
%ADD28RoundRect,0.050800X-0.499200X0.449200X-0.499200X-0.449200X0.499200X-0.449200X0.499200X0.449200X0*%
%TD*%
%TA.AperFunction,ViaPad*%
%ADD29C,0.420000*%
%TD*%
%TA.AperFunction,ViaPad*%
%ADD30C,0.500000*%
%TD*%
%TA.AperFunction,ViaPad*%
%ADD31C,0.450000*%
%TD*%
%TA.AperFunction,Conductor*%
%ADD32C,0.152400*%
%TD*%
%TA.AperFunction,Conductor*%
%ADD33C,0.127000*%
%TD*%
%TA.AperFunction,Conductor*%
%ADD34C,0.203200*%
%TD*%
%TA.AperFunction,Conductor*%
%ADD35C,0.508000*%
%TD*%
%TA.AperFunction,Conductor*%
%ADD36C,0.254000*%
%TD*%
%TA.AperFunction,Conductor*%
%ADD37C,0.406400*%
%TD*%
%TA.AperFunction,Conductor*%
%ADD38C,0.304800*%
%TD*%
%TA.AperFunction,Conductor*%
%ADD39C,0.177800*%
%TD*%
G04 APERTURE END LIST*
D10*
%TA.AperFunction,EtchedComponent*%
%TO.C,JP1*%
G36*
X110976700Y-77285200D02*
G01*
X110443300Y-77285200D01*
X110443300Y-76624800D01*
X110976700Y-76624800D01*
X110976700Y-77285200D01*
G37*
%TD.AperFunction*%
%TA.AperFunction,EtchedComponent*%
%TO.C,JP6*%
G36*
X140005200Y-91756700D02*
G01*
X139344800Y-91756700D01*
X139344800Y-91223300D01*
X140005200Y-91223300D01*
X140005200Y-91756700D01*
G37*
%TD.AperFunction*%
%TA.AperFunction,EtchedComponent*%
%TO.C,JP2*%
G36*
X136415200Y-81746700D02*
G01*
X135754800Y-81746700D01*
X135754800Y-81213300D01*
X136415200Y-81213300D01*
X136415200Y-81746700D01*
G37*
%TD.AperFunction*%
%TA.AperFunction,EtchedComponent*%
%TO.C,NT1*%
G36*
X117480000Y-98220000D02*
G01*
X117080000Y-98220000D01*
X117080000Y-98020000D01*
X117480000Y-98020000D01*
X117480000Y-98220000D01*
G37*
%TD.AperFunction*%
%TA.AperFunction,EtchedComponent*%
%TO.C,JP3*%
G36*
X140047883Y-84006700D02*
G01*
X139387483Y-84006700D01*
X139387483Y-83473300D01*
X140047883Y-83473300D01*
X140047883Y-84006700D01*
G37*
%TD.AperFunction*%
%TA.AperFunction,EtchedComponent*%
%TO.C,JP4*%
G36*
X140047883Y-85326700D02*
G01*
X139387483Y-85326700D01*
X139387483Y-84793300D01*
X140047883Y-84793300D01*
X140047883Y-85326700D01*
G37*
%TD.AperFunction*%
%TA.AperFunction,EtchedComponent*%
%TO.C,JP8*%
G36*
X140047883Y-82666700D02*
G01*
X139387483Y-82666700D01*
X139387483Y-82133300D01*
X140047883Y-82133300D01*
X140047883Y-82666700D01*
G37*
%TD.AperFunction*%
%TA.AperFunction,EtchedComponent*%
%TO.C,JP7*%
G36*
X140045200Y-78831500D02*
G01*
X139384800Y-78831500D01*
X139384800Y-78298100D01*
X140045200Y-78298100D01*
X140045200Y-78831500D01*
G37*
%TD.AperFunction*%
%TA.AperFunction,EtchedComponent*%
%TO.C,NT2*%
G36*
X121260000Y-98099999D02*
G01*
X121060000Y-98099999D01*
X121060000Y-97699999D01*
X121260000Y-97699999D01*
X121260000Y-98099999D01*
G37*
%TD.AperFunction*%
%TA.AperFunction,EtchedComponent*%
%TO.C,JP5*%
G36*
X136415200Y-80476700D02*
G01*
X135754800Y-80476700D01*
X135754800Y-79943300D01*
X136415200Y-79943300D01*
X136415200Y-80476700D01*
G37*
%TD.AperFunction*%
%TD*%
D11*
%TO.P,JP1,COM,COM_COM*%
%TO.N,Net-(JP1-PadCOM)*%
X110710000Y-76180000D03*
%TO.P,JP1,NC,NC_NC*%
%TO.N,GND*%
X110710000Y-77730000D03*
%TO.P,JP1,NO,NO_NO*%
%TO.N,+3V3*%
X110710000Y-74630000D03*
%TD*%
D12*
%TO.P,X1,1,GND_1*%
%TO.N,GND*%
X114300000Y-110515000D03*
%TO.P,X1,2,GND_2*%
X114300000Y-107805000D03*
%TO.P,X1,3,Ethernet_Pair3_P_3*%
%TO.N,unconnected-(X1-Ethernet_Pair3_P-Pad3)*%
X114700000Y-110515000D03*
%TO.P,X1,4,Ethernet_Pair1_P_4*%
%TO.N,ETH_TXRX_B+*%
X114700000Y-107805000D03*
%TO.P,X1,5,Ethernet_Pair3_N_5*%
%TO.N,unconnected-(X1-Ethernet_Pair3_N-Pad5)*%
X115100000Y-110515000D03*
%TO.P,X1,6,Ethernet_Pair1_N_6*%
%TO.N,ETH_TXRX_B-*%
X115100000Y-107805000D03*
%TO.P,X1,7,GND_7*%
%TO.N,GND*%
X115500000Y-110515000D03*
%TO.P,X1,8,GND_8*%
X115500000Y-107805000D03*
%TO.P,X1,9,Ethernet_Pair2_N_9*%
%TO.N,unconnected-(X1-Ethernet_Pair2_N-Pad9)*%
X115900000Y-110515000D03*
%TO.P,X1,10,Ethernet_Pair0_N_10*%
%TO.N,ETH_TXRX_A-*%
X115900000Y-107805000D03*
%TO.P,X1,11,Ethernet_Pair2_P_11*%
%TO.N,unconnected-(X1-Ethernet_Pair2_P-Pad11)*%
X116300000Y-110515000D03*
%TO.P,X1,12,Ethernet_Pair0_P_12*%
%TO.N,ETH_TXRX_A+*%
X116300000Y-107805000D03*
%TO.P,X1,13,GND_13*%
%TO.N,GND*%
X116700000Y-110515000D03*
%TO.P,X1,14,GND_14*%
X116700000Y-107805000D03*
%TO.P,X1,15,Ethernet_nLED3(3.3v)_15*%
%TO.N,~{ETH_LINK_ACT}*%
X117100000Y-110515000D03*
%TO.P,X1,16,Fan_Tacho_16*%
%TO.N,unconnected-(X1-Fan_Tacho-Pad16)*%
X117100000Y-107805000D03*
%TO.P,X1,17,Ethernet_nLED2(3.3v)_17*%
%TO.N,~{ETH_LINK100}*%
X117500000Y-110515000D03*
%TO.P,X1,18,Ethernet_SYNC_OUT(1.8v)_18*%
%TO.N,unconnected-(X1-Ethernet_SYNC_OUT(1.8v)-Pad18)*%
X117500000Y-107805000D03*
%TO.P,X1,19,Fan_PWM_19*%
%TO.N,unconnected-(X1-Fan_PWM-Pad19)*%
X117900000Y-110515000D03*
%TO.P,X1,20,EEPROM_nWP_20*%
%TO.N,unconnected-(X1-EEPROM_nWP-Pad20)*%
X117900000Y-107805000D03*
%TO.P,X1,21,LED_nACT_21*%
%TO.N,~{LED_ACT}*%
X118300000Y-110515000D03*
%TO.P,X1,22,GND_22*%
%TO.N,GND*%
X118300000Y-107805000D03*
%TO.P,X1,23,GND_23*%
X118700000Y-110515000D03*
%TO.P,X1,24,GPIO26_24*%
%TO.N,~{SYSMCU_CS}*%
X118700000Y-107805000D03*
%TO.P,X1,25,GPIO21_25*%
%TO.N,~{DIB3_IRQ}*%
X119100000Y-110515000D03*
%TO.P,X1,26,GPIO19_26*%
%TO.N,~{DIB1_IRQ}*%
X119100000Y-107805000D03*
%TO.P,X1,27,GPIO20_27*%
%TO.N,~{DIB2_IRQ}*%
X119500000Y-110515000D03*
%TO.P,X1,28,GPIO13_28*%
%TO.N,DIB1{slash}DIB3_MISO*%
X119500000Y-107805000D03*
%TO.P,X1,29,GPIO16_29*%
%TO.N,RS485_TX_EN{slash}DOUT2*%
X119900000Y-110515000D03*
%TO.P,X1,30,GPIO6_30*%
%TO.N,DIB4_MOSI*%
X119900000Y-107805000D03*
%TO.P,X1,31,GPIO12_31*%
%TO.N,~{DIB1_CSA}*%
X120300000Y-110515000D03*
%TO.P,X1,32,GND_32*%
%TO.N,GND*%
X120300000Y-107805000D03*
%TO.P,X1,33,GND_33*%
X120700000Y-110515000D03*
%TO.P,X1,34,GPIO5_34*%
%TO.N,DIB4_MISO*%
X120700000Y-107805000D03*
%TO.P,X1,35,ID_SC/GPIO1_35*%
%TO.N,DIN2*%
X121100000Y-110515000D03*
%TO.P,X1,36,ID_SD/GPIO0_36*%
%TO.N,RTC_CM5*%
X121100000Y-107805000D03*
%TO.P,X1,37,GPIO7_37*%
%TO.N,DIB4_SCLK*%
X121500000Y-110515000D03*
%TO.P,X1,38,GPIO11_38*%
%TO.N,DIB2{slash}DIB5_SCLK*%
X121500000Y-107805000D03*
%TO.P,X1,39,GPIO8_39*%
%TO.N,~{DIB2_CSA}*%
X121900000Y-110515000D03*
%TO.P,X1,40,GPIO9_40*%
%TO.N,DIB2{slash}DIB5_MISO*%
X121900000Y-107805000D03*
%TO.P,X1,41,GPIO25_41*%
%TO.N,~{TFT_IRQ}*%
X122300000Y-110515000D03*
%TO.P,X1,42,GND_42*%
%TO.N,GND*%
X122300000Y-107805000D03*
%TO.P,X1,43,GND_43*%
X122700000Y-110515000D03*
%TO.P,X1,44,GPIO10_44*%
%TO.N,DIB2{slash}DIB5_MOSI*%
X122700000Y-107805000D03*
%TO.P,X1,45,GPIO24_45*%
%TO.N,~{SYSMCU_IRQ}*%
X123100000Y-110515000D03*
%TO.P,X1,46,GPIO22_46*%
%TO.N,~{DIB4_IRQ}*%
X123100000Y-107805000D03*
%TO.P,X1,47,GPIO23_47*%
%TO.N,~{DIB5_IRQ}*%
X123500000Y-110515000D03*
%TO.P,X1,48,GPIO27_48*%
%TO.N,DIB_OE_SYNC*%
X123500000Y-107805000D03*
%TO.P,X1,49,GPIO18_49*%
%TO.N,~{DIB5_CSA}*%
X123900000Y-110515000D03*
%TO.P,X1,50,GPIO17_50*%
%TO.N,~{DIB3_CSA}*%
X123900000Y-107805000D03*
%TO.P,X1,51,GPIO15_51*%
%TO.N,DIB1{slash}DIB3_SCLK*%
X124300000Y-110515000D03*
%TO.P,X1,52,GND_52*%
%TO.N,GND*%
X124300000Y-107805000D03*
%TO.P,X1,53,GND_53*%
X124700000Y-110515000D03*
%TO.P,X1,54,GPIO4_54*%
%TO.N,~{DIB4_CSA}*%
X124700000Y-107805000D03*
%TO.P,X1,55,GPIO14_55*%
%TO.N,DIB1{slash}DIB3_MOSI*%
X125100000Y-110515000D03*
%TO.P,X1,56,GPIO3_56*%
%TO.N,UART_TX{slash}DOUT1*%
X125100000Y-107805000D03*
%TO.P,X1,57,SD_CLK_57*%
%TO.N,unconnected-(X1-SD_CLK-Pad57)*%
X125500000Y-110515000D03*
%TO.P,X1,58,GPIO2_58*%
%TO.N,UART_RX{slash}DIN1*%
X125500000Y-107805000D03*
%TO.P,X1,59,GND_59*%
%TO.N,GND*%
X125900000Y-110515000D03*
%TO.P,X1,60,GND_60*%
X125900000Y-107805000D03*
%TO.P,X1,61,SD_DAT3_61*%
%TO.N,unconnected-(X1-SD_DAT3-Pad61)*%
X126300000Y-110515000D03*
%TO.P,X1,62,SD_CMD_62*%
%TO.N,unconnected-(X1-SD_CMD-Pad62)*%
X126300000Y-107805000D03*
%TO.P,X1,63,SD_DAT0_63*%
%TO.N,unconnected-(X1-SD_DAT0-Pad63)*%
X126700000Y-110515000D03*
%TO.P,X1,64,SD_DAT5_64*%
%TO.N,unconnected-(X1-SD_DAT5-Pad64)*%
X126700000Y-107805000D03*
%TO.P,X1,65,GND_65*%
%TO.N,GND*%
X127100000Y-110515000D03*
%TO.P,X1,66,GND_66*%
X127100000Y-107805000D03*
%TO.P,X1,67,SD_DAT1_67*%
%TO.N,unconnected-(X1-SD_DAT1-Pad67)*%
X127500000Y-110515000D03*
%TO.P,X1,68,SD_DAT4_68*%
%TO.N,unconnected-(X1-SD_DAT4-Pad68)*%
X127500000Y-107805000D03*
%TO.P,X1,69,SD_DAT2_69*%
%TO.N,unconnected-(X1-SD_DAT2-Pad69)*%
X127900000Y-110515000D03*
%TO.P,X1,70,SD_DAT7_70*%
%TO.N,unconnected-(X1-SD_DAT7-Pad70)*%
X127900000Y-107805000D03*
%TO.P,X1,71,GND_71*%
%TO.N,GND*%
X128300000Y-110515000D03*
%TO.P,X1,72,SD_DAT6_72*%
%TO.N,unconnected-(X1-SD_DAT6-Pad72)*%
X128300000Y-107805000D03*
%TO.P,X1,73,SD_VDD_Override_73*%
%TO.N,unconnected-(X1-SD_VDD_Override-Pad73)*%
X128700000Y-110515000D03*
%TO.P,X1,74,GND_74*%
%TO.N,GND*%
X128700000Y-107805000D03*
%TO.P,X1,75,SD_PWR_ON_75*%
%TO.N,unconnected-(X1-SD_PWR_ON-Pad75)*%
X129100000Y-110515000D03*
%TO.P,X1,76,VBAT_76*%
%TO.N,+VAUX*%
X129100000Y-107805000D03*
%TO.P,X1,77,+5v(Input)_77*%
%TO.N,+5V*%
X129500000Y-110515000D03*
%TO.P,X1,78,GPIO_VREF(1.8v/3.3v_Input)_78*%
%TO.N,GPIO_VREF*%
X129500000Y-107805000D03*
%TO.P,X1,79,+5v(Input)_79*%
%TO.N,+5V*%
X129900000Y-110515000D03*
%TO.P,X1,80,SCL0_80*%
%TO.N,SCL*%
X129900000Y-107805000D03*
%TO.P,X1,81,+5v(Input)_81*%
%TO.N,+5V*%
X130300000Y-110515000D03*
%TO.P,X1,82,SDA0_82*%
%TO.N,SDA*%
X130300000Y-107805000D03*
%TO.P,X1,83,+5v(Input)_83*%
%TO.N,+5V*%
X130700000Y-110515000D03*
%TO.P,X1,84,CM5_3.3v_84*%
%TO.N,+3V3*%
X130700000Y-107805000D03*
%TO.P,X1,85,+5v(Input)_85*%
%TO.N,+5V*%
X131100000Y-110515000D03*
%TO.P,X1,86,CM5_3.3v_86*%
%TO.N,+3V3*%
X131100000Y-107805000D03*
%TO.P,X1,87,+5v(Input)_87*%
%TO.N,+5V*%
X131500000Y-110515000D03*
%TO.P,X1,88,CM5_1.8v_88*%
%TO.N,+1V8*%
X131500000Y-107805000D03*
%TO.P,X1,89,WiFi_nDisable_89*%
%TO.N,GND*%
X131900000Y-110515000D03*
%TO.P,X1,90,CM5_1.8v_90*%
%TO.N,+1V8*%
X131900000Y-107805000D03*
%TO.P,X1,91,BT_nDisable_91*%
%TO.N,GND*%
X132300000Y-110515000D03*
%TO.P,X1,92,PWR_Button/~{RESET}_92*%
%TO.N,~{RESET_OUT}*%
X132300000Y-107805000D03*
%TO.P,X1,93,nRPIBOOT_93*%
%TO.N,BOOT0*%
X132700000Y-110515000D03*
%TO.P,X1,94,CC1_94*%
%TO.N,unconnected-(X1-CC1-Pad94)*%
X132700000Y-107805000D03*
%TO.P,X1,95,LED_nPWR_95*%
%TO.N,~{LED_PWR}*%
X133100000Y-110515000D03*
%TO.P,X1,96,CC2_96*%
%TO.N,unconnected-(X1-CC2-Pad96)*%
X133100000Y-107805000D03*
%TO.P,X1,97,CAM_GPIO0_97*%
%TO.N,RS485_TX{slash}DOUT3*%
X133500000Y-110515000D03*
%TO.P,X1,98,GND_98*%
%TO.N,GND*%
X133500000Y-107805000D03*
%TO.P,X1,99,PMIC_EN_99*%
%TO.N,unconnected-(X1-PMIC_EN-Pad99)*%
X133900000Y-110515000D03*
%TO.P,X1,100,CAM_GPIO1_100*%
%TO.N,RS485_RX{slash}DIN3*%
X133900000Y-107805000D03*
D13*
%TO.P,X1,SH,SH_SH*%
%TO.N,GND*%
X113825000Y-110515000D03*
X134375000Y-110515000D03*
X113825000Y-107805000D03*
X134375000Y-107805000D03*
%TD*%
D12*
%TO.P,X2,101,USB_OTG_ID_101*%
%TO.N,MCU_USB_ID*%
X114300000Y-76595000D03*
%TO.P,X2,102,PCIe_CLK_nREQ_102*%
%TO.N,unconnected-(X2-PCIe_CLK_nREQ-Pad102)*%
X114300000Y-73885000D03*
%TO.P,X2,103,USB_N_103*%
%TO.N,/CM5 socket/USB2-*%
X114700000Y-76595000D03*
%TO.P,X2,104,PCIE_nWAKE_104*%
%TO.N,unconnected-(X2-PCIE_nWAKE-Pad104)*%
X114700000Y-73885000D03*
%TO.P,X2,105,USB_P_105*%
%TO.N,/CM5 socket/USB2+*%
X115100000Y-76595000D03*
%TO.P,X2,106,PCIE_PWR_EN_106*%
%TO.N,unconnected-(X2-PCIE_PWR_EN-Pad106)*%
X115100000Y-73885000D03*
%TO.P,X2,107,GND_107*%
%TO.N,GND*%
X115500000Y-76595000D03*
%TO.P,X2,108,GND_108*%
X115500000Y-73885000D03*
%TO.P,X2,109,PCIe_nRST_109*%
%TO.N,unconnected-(X2-PCIe_nRST-Pad109)*%
X115900000Y-76595000D03*
%TO.P,X2,110,PCIe_CLK_P_110*%
%TO.N,unconnected-(X2-PCIe_CLK_P-Pad110)*%
X115900000Y-73885000D03*
%TO.P,X2,111,VBUS_EN_(3.3v)_111*%
%TO.N,MCU_USB_VBUS*%
X116300000Y-76595000D03*
%TO.P,X2,112,PCIe_CLK_N_112*%
%TO.N,unconnected-(X2-PCIe_CLK_N-Pad112)*%
X116300000Y-73885000D03*
%TO.P,X2,113,GND_113*%
%TO.N,GND*%
X116700000Y-76595000D03*
%TO.P,X2,114,GND_114*%
X116700000Y-73885000D03*
%TO.P,X2,115,MIPI0_D0_N_115*%
%TO.N,unconnected-(X2-MIPI0_D0_N-Pad115)*%
X117100000Y-76595000D03*
%TO.P,X2,116,PCIe_RX_P_116*%
%TO.N,unconnected-(X2-PCIe_RX_P-Pad116)*%
X117100000Y-73885000D03*
%TO.P,X2,117,MIPI0_D0_P_117*%
%TO.N,unconnected-(X2-MIPI0_D0_P-Pad117)*%
X117500000Y-76595000D03*
%TO.P,X2,118,PCIe_RX_N_118*%
%TO.N,unconnected-(X2-PCIe_RX_N-Pad118)*%
X117500000Y-73885000D03*
%TO.P,X2,119,GND_119*%
%TO.N,GND*%
X117900000Y-76595000D03*
%TO.P,X2,120,GND_120*%
X117900000Y-73885000D03*
%TO.P,X2,121,MIPI0_D1_N_121*%
%TO.N,unconnected-(X2-MIPI0_D1_N-Pad121)*%
X118300000Y-76595000D03*
%TO.P,X2,122,PCIe_TX_P_122*%
%TO.N,unconnected-(X2-PCIe_TX_P-Pad122)*%
X118300000Y-73885000D03*
%TO.P,X2,123,MIPI0_D1_P_123*%
%TO.N,unconnected-(X2-MIPI0_D1_P-Pad123)*%
X118700000Y-76595000D03*
%TO.P,X2,124,PCIe_TX_N_124*%
%TO.N,unconnected-(X2-PCIe_TX_N-Pad124)*%
X118700000Y-73885000D03*
%TO.P,X2,125,GND_125*%
%TO.N,GND*%
X119100000Y-76595000D03*
%TO.P,X2,126,GND_126*%
X119100000Y-73885000D03*
%TO.P,X2,127,MIPI0_C_N_127*%
%TO.N,unconnected-(X2-MIPI0_C_N-Pad127)*%
X119500000Y-76595000D03*
%TO.P,X2,128,USB3-0-RX_N_128*%
%TO.N,unconnected-(X2-USB3-0-RX_N-Pad128)*%
X119500000Y-73885000D03*
%TO.P,X2,129,MIPI0_C_P_129*%
%TO.N,unconnected-(X2-MIPI0_C_P-Pad129)*%
X119900000Y-76595000D03*
%TO.P,X2,130,USB3-0-RX_P_130*%
%TO.N,unconnected-(X2-USB3-0-RX_P-Pad130)*%
X119900000Y-73885000D03*
%TO.P,X2,131,GND_131*%
%TO.N,GND*%
X120300000Y-76595000D03*
%TO.P,X2,132,GND_132*%
X120300000Y-73885000D03*
%TO.P,X2,133,MIPI0_D2_N_133*%
%TO.N,unconnected-(X2-MIPI0_D2_N-Pad133)*%
X120700000Y-76595000D03*
%TO.P,X2,134,USB3-0-DP_134*%
%TO.N,USB_FS_D+*%
X120700000Y-73885000D03*
%TO.P,X2,135,MIPI0_D2_P_135*%
%TO.N,unconnected-(X2-MIPI0_D2_P-Pad135)*%
X121100000Y-76595000D03*
%TO.P,X2,136,USB3-0-DM_136*%
%TO.N,USB_FS_D-*%
X121100000Y-73885000D03*
%TO.P,X2,137,GND_137*%
%TO.N,GND*%
X121500000Y-76595000D03*
%TO.P,X2,138,GND_138*%
X121500000Y-73885000D03*
%TO.P,X2,139,MIPI0_D3_N_139*%
%TO.N,unconnected-(X2-MIPI0_D3_N-Pad139)*%
X121900000Y-76595000D03*
%TO.P,X2,140,USB3-0-TX_N_140*%
%TO.N,unconnected-(X2-USB3-0-TX_N-Pad140)*%
X121900000Y-73885000D03*
%TO.P,X2,141,MIPI0_D3_P_141*%
%TO.N,unconnected-(X2-MIPI0_D3_P-Pad141)*%
X122300000Y-76595000D03*
%TO.P,X2,142,USB3-0-TX_P_142*%
%TO.N,unconnected-(X2-USB3-0-TX_P-Pad142)*%
X122300000Y-73885000D03*
%TO.P,X2,143,HDMI1_HOTPLUG_143*%
%TO.N,unconnected-(X2-HDMI1_HOTPLUG-Pad143)*%
X122700000Y-76595000D03*
%TO.P,X2,144,GND_144*%
%TO.N,GND*%
X122700000Y-73885000D03*
%TO.P,X2,145,HDMI1_SDA_145*%
%TO.N,unconnected-(X2-HDMI1_SDA-Pad145)*%
X123100000Y-76595000D03*
%TO.P,X2,146,HDMI1_TX2_P_146*%
%TO.N,TFT_DVID_TX2_P*%
X123100000Y-73885000D03*
%TO.P,X2,147,HDMI1_SCL_147*%
%TO.N,unconnected-(X2-HDMI1_SCL-Pad147)*%
X123500000Y-76595000D03*
%TO.P,X2,148,HDMI1_TX2_N_148*%
%TO.N,TFT_DVID_TX2_N*%
X123500000Y-73885000D03*
%TO.P,X2,149,HDMI1_CEC_149*%
%TO.N,unconnected-(X2-HDMI1_CEC-Pad149)*%
X123900000Y-76595000D03*
%TO.P,X2,150,GND_150*%
%TO.N,GND*%
X123900000Y-73885000D03*
%TO.P,X2,151,HDMI0_CEC_151*%
%TO.N,REAR_DVID_CEC*%
X124300000Y-76595000D03*
%TO.P,X2,152,HDMI1_TX1_P_152*%
%TO.N,TFT_DVID_TX1_P*%
X124300000Y-73885000D03*
%TO.P,X2,153,HDMI0_HOTPLUG_153*%
%TO.N,REAR_DVID_HPD*%
X124700000Y-76595000D03*
%TO.P,X2,154,HDMI1_TX1_N_154*%
%TO.N,TFT_DVID_TX1_N*%
X124700000Y-73885000D03*
%TO.P,X2,155,GND_155*%
%TO.N,GND*%
X125100000Y-76595000D03*
%TO.P,X2,156,GND_156*%
X125100000Y-73885000D03*
%TO.P,X2,157,USB3-1-RX_N_157*%
%TO.N,unconnected-(X2-USB3-1-RX_N-Pad157)*%
X125500000Y-76595000D03*
%TO.P,X2,158,HDMI1_TX0_P_158*%
%TO.N,TFT_DVID_TX0_P*%
X125500000Y-73885000D03*
%TO.P,X2,159,USB3-1-RX_P_159*%
%TO.N,unconnected-(X2-USB3-1-RX_P-Pad159)*%
X125900000Y-76595000D03*
%TO.P,X2,160,HDMI1_TX0_N_160*%
%TO.N,TFT_DVID_TX0_N*%
X125900000Y-73885000D03*
%TO.P,X2,161,GND_161*%
%TO.N,GND*%
X126300000Y-76595000D03*
%TO.P,X2,162,GND_162*%
X126300000Y-73885000D03*
%TO.P,X2,163,USB3-1-DP_163*%
%TO.N,/CM5 socket/USB3_1_D+*%
X126700000Y-76595000D03*
%TO.P,X2,164,HDMI1_CLK_P_164*%
%TO.N,TFT_DVID_CLK_P*%
X126700000Y-73885000D03*
%TO.P,X2,165,USB3-1-DM_165*%
%TO.N,/CM5 socket/USB3_1_D-*%
X127100000Y-76595000D03*
%TO.P,X2,166,HDMI1_CLK_N_166*%
%TO.N,TFT_DVID_CLK_N*%
X127100000Y-73885000D03*
%TO.P,X2,167,GND_167*%
%TO.N,GND*%
X127500000Y-76595000D03*
%TO.P,X2,168,GND_168*%
X127500000Y-73885000D03*
%TO.P,X2,169,USB3-1-TX_N_169*%
%TO.N,unconnected-(X2-USB3-1-TX_N-Pad169)*%
X127900000Y-76595000D03*
%TO.P,X2,170,HDMI0_TX2_P_170*%
%TO.N,REAR_DVID_TX2_P*%
X127900000Y-73885000D03*
%TO.P,X2,171,USB3-1-TX_P_171*%
%TO.N,unconnected-(X2-USB3-1-TX_P-Pad171)*%
X128300000Y-76595000D03*
%TO.P,X2,172,HDMI0_TX2_N_172*%
%TO.N,REAR_DVID_TX2_N*%
X128300000Y-73885000D03*
%TO.P,X2,173,GND_173*%
%TO.N,GND*%
X128700000Y-76595000D03*
%TO.P,X2,174,GND_174*%
X128700000Y-73885000D03*
%TO.P,X2,175,MIPI1_D0_N_175*%
%TO.N,unconnected-(X2-MIPI1_D0_N-Pad175)*%
X129100000Y-76595000D03*
%TO.P,X2,176,HDMI0_TX1_P_176*%
%TO.N,REAR_DVID_TX1_P*%
X129100000Y-73885000D03*
%TO.P,X2,177,MIPI1_D0_P_177*%
%TO.N,unconnected-(X2-MIPI1_D0_P-Pad177)*%
X129500000Y-76595000D03*
%TO.P,X2,178,HDMI0_TX1_N_178*%
%TO.N,REAR_DVID_TX1_N*%
X129500000Y-73885000D03*
%TO.P,X2,179,GND_179*%
%TO.N,GND*%
X129900000Y-76595000D03*
%TO.P,X2,180,GND_180*%
X129900000Y-73885000D03*
%TO.P,X2,181,MIPI1_D1_N_181*%
%TO.N,unconnected-(X2-MIPI1_D1_N-Pad181)*%
X130300000Y-76595000D03*
%TO.P,X2,182,HDMI0_TX0_P_182*%
%TO.N,REAR_DVID_TX0_P*%
X130300000Y-73885000D03*
%TO.P,X2,183,MIPI1_D1_P_183*%
%TO.N,unconnected-(X2-MIPI1_D1_P-Pad183)*%
X130700000Y-76595000D03*
%TO.P,X2,184,HDMI0_TX0_N_184*%
%TO.N,REAR_DVID_TX0_N*%
X130700000Y-73885000D03*
%TO.P,X2,185,GND_185*%
%TO.N,GND*%
X131100000Y-76595000D03*
%TO.P,X2,186,GND_186*%
X131100000Y-73885000D03*
%TO.P,X2,187,MIPI1_C_N_187*%
%TO.N,unconnected-(X2-MIPI1_C_N-Pad187)*%
X131500000Y-76595000D03*
%TO.P,X2,188,HDMI0_CLK_P_188*%
%TO.N,REAR_DVID_CLK_P*%
X131500000Y-73885000D03*
%TO.P,X2,189,MIPI1_C_P_189*%
%TO.N,unconnected-(X2-MIPI1_C_P-Pad189)*%
X131900000Y-76595000D03*
%TO.P,X2,190,HDMI0_CLK_N_190*%
%TO.N,REAR_DVID_CLK_N*%
X131900000Y-73885000D03*
%TO.P,X2,191,GND_191*%
%TO.N,GND*%
X132300000Y-76595000D03*
%TO.P,X2,192,GND_192*%
X132300000Y-73885000D03*
%TO.P,X2,193,MIPI1_D2_N_193*%
%TO.N,unconnected-(X2-MIPI1_D2_N-Pad193)*%
X132700000Y-76595000D03*
%TO.P,X2,194,MIPI1_D3_N_194*%
%TO.N,unconnected-(X2-MIPI1_D3_N-Pad194)*%
X132700000Y-73885000D03*
%TO.P,X2,195,MIPI1_D2_P_195*%
%TO.N,unconnected-(X2-MIPI1_D2_P-Pad195)*%
X133100000Y-76595000D03*
%TO.P,X2,196,MIPI1_D3_P_196*%
%TO.N,unconnected-(X2-MIPI1_D3_P-Pad196)*%
X133100000Y-73885000D03*
%TO.P,X2,197,GND_197*%
%TO.N,GND*%
X133500000Y-76595000D03*
%TO.P,X2,198,GND_198*%
X133500000Y-73885000D03*
%TO.P,X2,199,HDMI0_SDA_199*%
%TO.N,REAR_DVID_SDA*%
X133900000Y-76595000D03*
%TO.P,X2,200,HDMI0_SCL_200*%
%TO.N,REAR_DVID_SCL*%
X133900000Y-73885000D03*
D13*
%TO.P,X2,SH,SH_SH*%
%TO.N,GND*%
X113825000Y-76595000D03*
X134375000Y-76595000D03*
X113825000Y-73885000D03*
X134375000Y-73885000D03*
%TD*%
D14*
%TO.P,C26,1,1_1*%
%TO.N,+3V3*%
X120620002Y-92783012D03*
%TO.P,C26,2,2_2*%
%TO.N,GND*%
X120620002Y-93743012D03*
%TD*%
D15*
%TO.P,Y2,1,1_1*%
%TO.N,Net-(IC6-XTAL2)*%
X104675700Y-108900000D03*
%TO.P,Y2,2,NC_2*%
%TO.N,unconnected-(Y2-NC-Pad2)*%
X106875700Y-108900000D03*
%TO.P,Y2,3,3_3*%
%TO.N,Net-(IC6-XTAL1{slash}CLKIN)*%
X106875700Y-110500000D03*
%TO.P,Y2,4,NC_4*%
%TO.N,unconnected-(Y2-NC-Pad4)*%
X104675700Y-110500000D03*
%TD*%
D16*
%TO.P,JP6,COM,COM_COM*%
%TO.N,Net-(IC8-DKEN)*%
X140450000Y-91490000D03*
%TO.P,JP6,NC,NC_NC*%
%TO.N,GND*%
X138900000Y-91490000D03*
%TO.P,JP6,NO,NO_NO*%
%TO.N,+3V3*%
X142000000Y-91490000D03*
%TD*%
D17*
%TO.P,C24,1,1_1*%
%TO.N,/STM32H7 MCU/VLXSMPS*%
X118300000Y-100513012D03*
%TO.P,C24,2,2_2*%
%TO.N,GND*%
X117340000Y-100513012D03*
%TD*%
D18*
%TO.P,JP2,COM,COM_COM*%
%TO.N,Net-(IC8-ISEL{slash}~{RST})*%
X135310000Y-81480000D03*
%TO.P,JP2,NC,NC_NC*%
%TO.N,~{RESET_OUT}*%
X136860000Y-81480000D03*
%TO.P,JP2,NO,NO_NO*%
%TO.N,Net-(JP2-PadNO)*%
X133760000Y-81480000D03*
%TD*%
%TO.P,C66,1,1_1*%
%TO.N,GND*%
X132315000Y-90160000D03*
%TO.P,C66,2,2_2*%
%TO.N,/DVID converter\u002C NOR Flash/TVDD*%
X133865000Y-90160000D03*
%TD*%
D19*
%TO.P,C72,1,1_1*%
%TO.N,+1V8*%
X118085227Y-80030000D03*
%TO.P,C72,2,2_2*%
%TO.N,GND*%
X119045227Y-80030000D03*
%TD*%
D20*
%TO.P,R14,1,1_1*%
%TO.N,+3V3*%
X97810000Y-84385194D03*
%TO.P,R14,2,2_2*%
%TO.N,SDMMC_D0*%
X96790000Y-84385194D03*
%TD*%
D21*
%TO.P,R27,1,1_1*%
%TO.N,Net-(JP3-PadNO)*%
X143172926Y-83740000D03*
%TO.P,R27,2,2_2*%
%TO.N,GND*%
X144192926Y-83740000D03*
%TD*%
D19*
%TO.P,C14,1,1_1*%
%TO.N,+3V3*%
X121510002Y-93343012D03*
%TO.P,C14,2,2_2*%
%TO.N,GND*%
X122470002Y-93343012D03*
%TD*%
D17*
%TO.P,C44,1,1_1*%
%TO.N,GND*%
X107735700Y-107310000D03*
%TO.P,C44,2,2_2*%
%TO.N,Net-(IC6-XTAL1{slash}CLKIN)*%
X106775700Y-107310000D03*
%TD*%
D22*
%TO.P,C12,1,1_1*%
%TO.N,GND*%
X119810000Y-102860000D03*
%TO.P,C12,2,2_2*%
%TO.N,/STM32H7 MCU/VDDSMPS*%
X119810000Y-101310000D03*
%TD*%
D16*
%TO.P,C15,1,1_1*%
%TO.N,GND*%
X119920000Y-99250000D03*
%TO.P,C15,2,2_2*%
%TO.N,/STM32H7 MCU/VDD_SDC*%
X118370000Y-99250000D03*
%TD*%
D19*
%TO.P,C37,1,1_1*%
%TO.N,+1V8*%
X123600000Y-94260000D03*
%TO.P,C37,2,2_2*%
%TO.N,GND*%
X124560000Y-94260000D03*
%TD*%
D23*
%TO.P,NT1,1,1_1*%
%TO.N,GND*%
X117080000Y-98120000D03*
%TO.P,NT1,2,2_2*%
%TO.N,Net-(IC5C-VSSA)*%
X117480000Y-98120000D03*
%TD*%
D11*
%TO.P,C57,1,1_1*%
%TO.N,+1V8*%
X129980000Y-100365000D03*
%TO.P,C57,2,2_2*%
%TO.N,GND*%
X129980000Y-101915000D03*
%TD*%
D20*
%TO.P,R19,1,1_1*%
%TO.N,~{XSPI_M_P1_CS}*%
X135460000Y-99020000D03*
%TO.P,R19,2,2_2*%
%TO.N,+1V8*%
X134440000Y-99020000D03*
%TD*%
D16*
%TO.P,JP3,COM,COM_COM*%
%TO.N,Net-(IC8-BSEL{slash}SCL)*%
X140492683Y-83740000D03*
%TO.P,JP3,NC,NC_NC*%
%TO.N,SCL*%
X138942683Y-83740000D03*
%TO.P,JP3,NO,NO_NO*%
%TO.N,Net-(JP3-PadNO)*%
X142042683Y-83740000D03*
%TD*%
D20*
%TO.P,R26,1,1_1*%
%TO.N,Net-(JP2-PadNO)*%
X132470000Y-81480000D03*
%TO.P,R26,2,2_2*%
%TO.N,GND*%
X131450000Y-81480000D03*
%TD*%
D14*
%TO.P,C56,1,1_1*%
%TO.N,+1V8*%
X131170000Y-100090000D03*
%TO.P,C56,2,2_2*%
%TO.N,GND*%
X131170000Y-101050000D03*
%TD*%
D21*
%TO.P,R25,1,1_1*%
%TO.N,Net-(IC6-LED2{slash}NINT{slash}NPME{slash}NINTSEL)*%
X108630000Y-111060000D03*
%TO.P,R25,2,2_2*%
%TO.N,~{ETH_LINK100}*%
X109650000Y-111060000D03*
%TD*%
D19*
%TO.P,C43,1,1_1*%
%TO.N,GND*%
X103815700Y-107310000D03*
%TO.P,C43,2,2_2*%
%TO.N,Net-(IC6-XTAL2)*%
X104775700Y-107310000D03*
%TD*%
D22*
%TO.P,C9,1,1_1*%
%TO.N,+3V3*%
X111950000Y-93575000D03*
%TO.P,C9,2,2_2*%
%TO.N,GND*%
X111950000Y-92025000D03*
%TD*%
D24*
%TO.P,C36,1,1_1*%
%TO.N,+1V8*%
X121540002Y-92453012D03*
%TO.P,C36,2,2_2*%
%TO.N,GND*%
X121540002Y-91493012D03*
%TD*%
D21*
%TO.P,R20,1,1_1*%
%TO.N,Net-(IC6-LED1{slash}NINT{slash}NPME{slash}REGOFF)*%
X108630000Y-109810000D03*
%TO.P,R20,2,2_2*%
%TO.N,~{ETH_LINK_ACT}*%
X109650000Y-109810000D03*
%TD*%
D24*
%TO.P,C35,1,1_1*%
%TO.N,+1V8*%
X119120002Y-90833012D03*
%TO.P,C35,2,2_2*%
%TO.N,GND*%
X119120002Y-89873012D03*
%TD*%
D14*
%TO.P,C16,1,1_1*%
%TO.N,/STM32H7 MCU/VDD_SDC*%
X121630000Y-95330000D03*
%TO.P,C16,2,2_2*%
%TO.N,GND*%
X121630000Y-96290000D03*
%TD*%
D24*
%TO.P,C18,1,1_1*%
%TO.N,+3V3*%
X120710000Y-96290000D03*
%TO.P,C18,2,2_2*%
%TO.N,GND*%
X120710000Y-95330000D03*
%TD*%
D14*
%TO.P,C30,1,1_1*%
%TO.N,+3V3*%
X120780000Y-97160000D03*
%TO.P,C30,2,2_2*%
%TO.N,Net-(IC5C-VREFM)*%
X120780000Y-98120000D03*
%TD*%
D24*
%TO.P,C25,1,1_1*%
%TO.N,+3V3*%
X119550000Y-96300000D03*
%TO.P,C25,2,2_2*%
%TO.N,GND*%
X119550000Y-95340000D03*
%TD*%
D20*
%TO.P,R10,1,1_1*%
%TO.N,+3V3*%
X97810000Y-90985194D03*
%TO.P,R10,2,2_2*%
%TO.N,SDMMC_D2*%
X96790000Y-90985194D03*
%TD*%
D24*
%TO.P,C54,1,1_1*%
%TO.N,+1V8*%
X132850000Y-96315000D03*
%TO.P,C54,2,2_2*%
%TO.N,GND*%
X132850000Y-95355000D03*
%TD*%
D20*
%TO.P,R13,1,1_1*%
%TO.N,+3V3*%
X97810000Y-89885194D03*
%TO.P,R13,2,2_2*%
%TO.N,SDMMC_D3*%
X96790000Y-89885194D03*
%TD*%
D22*
%TO.P,C55,1,1_1*%
%TO.N,+1V8*%
X131660000Y-96050000D03*
%TO.P,C55,2,2_2*%
%TO.N,GND*%
X131660000Y-94500000D03*
%TD*%
D24*
%TO.P,C38,1,1_1*%
%TO.N,+1V8*%
X120620002Y-90843012D03*
%TO.P,C38,2,2_2*%
%TO.N,GND*%
X120620002Y-89883012D03*
%TD*%
D20*
%TO.P,R15,1,1_1*%
%TO.N,+3V3*%
X97810000Y-83285194D03*
%TO.P,R15,2,2_2*%
%TO.N,SDMMC_D1*%
X96790000Y-83285194D03*
%TD*%
D17*
%TO.P,C10,1,1_1*%
%TO.N,+3V3*%
X117740000Y-95630000D03*
%TO.P,C10,2,2_2*%
%TO.N,GND*%
X116780000Y-95630000D03*
%TD*%
D21*
%TO.P,R28,1,1_1*%
%TO.N,Net-(JP4-PadNO)*%
X143172926Y-85060000D03*
%TO.P,R28,2,2_2*%
%TO.N,+3V3*%
X144192926Y-85060000D03*
%TD*%
%TO.P,R32,1,1_1*%
%TO.N,Net-(JP8-PadNO)*%
X143172926Y-82400000D03*
%TO.P,R32,2,2_2*%
%TO.N,+3V3*%
X144192926Y-82400000D03*
%TD*%
D18*
%TO.P,C74,1,1_1*%
%TO.N,+1V8*%
X118355227Y-81230000D03*
%TO.P,C74,2,2_2*%
%TO.N,GND*%
X119905227Y-81230000D03*
%TD*%
D14*
%TO.P,C29,1,1_1*%
%TO.N,+3V3*%
X118760002Y-97163012D03*
%TO.P,C29,2,2_2*%
%TO.N,Net-(IC5C-VSSA)*%
X118760002Y-98123012D03*
%TD*%
D20*
%TO.P,R33,1,1_1*%
%TO.N,Net-(IC9-HPD_A)*%
X132470000Y-82420000D03*
%TO.P,R33,2,2_2*%
%TO.N,+3V3*%
X131450000Y-82420000D03*
%TD*%
D11*
%TO.P,C71,1,1_1*%
%TO.N,+1V8*%
X115525227Y-79395000D03*
%TO.P,C71,2,2_2*%
%TO.N,GND*%
X115525227Y-80945000D03*
%TD*%
D25*
%TO.P,FB5,1*%
%TO.N,/DVID converter\u002C NOR Flash/TVDD*%
X134020000Y-91800000D03*
%TO.P,FB5,2*%
%TO.N,+3V3*%
X132320000Y-91800000D03*
%TD*%
D14*
%TO.P,C40,1,1_1*%
%TO.N,+1V8*%
X119700002Y-92783012D03*
%TO.P,C40,2,2_2*%
%TO.N,GND*%
X119700002Y-93743012D03*
%TD*%
D26*
%TO.P,L1,1,1_1*%
%TO.N,/STM32H7 MCU/VDD_SDC*%
X116347202Y-101983012D03*
%TO.P,L1,2,2_2*%
%TO.N,/STM32H7 MCU/VLXSMPS*%
X118430002Y-101983012D03*
%TD*%
D17*
%TO.P,C19,1,1_1*%
%TO.N,/STM32H7 MCU/VDD_SDC*%
X120650002Y-91893012D03*
%TO.P,C19,2,2_2*%
%TO.N,GND*%
X119690002Y-91893012D03*
%TD*%
D24*
%TO.P,C23,1,1_1*%
%TO.N,+3V3*%
X115500000Y-93750000D03*
%TO.P,C23,2,2_2*%
%TO.N,GND*%
X115500000Y-92790000D03*
%TD*%
D16*
%TO.P,JP4,COM,COM_COM*%
%TO.N,Net-(IC8-DSEL{slash}SDA)*%
X140492683Y-85060000D03*
%TO.P,JP4,NC,NC_NC*%
%TO.N,SDA*%
X138942683Y-85060000D03*
%TO.P,JP4,NO,NO_NO*%
%TO.N,Net-(JP4-PadNO)*%
X142042683Y-85060000D03*
%TD*%
D24*
%TO.P,C17,1,1_1*%
%TO.N,+3V3*%
X116870000Y-93740000D03*
%TO.P,C17,2,2_2*%
%TO.N,GND*%
X116870000Y-92780000D03*
%TD*%
%TO.P,C28,1,1_1*%
%TO.N,GND*%
X115730000Y-96303012D03*
%TO.P,C28,2,2_2*%
%TO.N,/STM32H7 MCU/VDD_SDC*%
X115730000Y-95343012D03*
%TD*%
D27*
%TO.P,Y1,1,1_1*%
%TO.N,/STM32H7 MCU/RCC_OSC_IN*%
X125450000Y-101270000D03*
%TO.P,Y1,2,NC_2*%
%TO.N,unconnected-(Y1-NC-Pad2)*%
X125450000Y-99070000D03*
%TO.P,Y1,3,3_3*%
%TO.N,/STM32H7 MCU/RCC_OSC_OUT*%
X127050000Y-99070000D03*
%TO.P,Y1,4,NC_4*%
%TO.N,unconnected-(Y1-NC-Pad4)*%
X127050000Y-101270000D03*
%TD*%
D24*
%TO.P,C6,1,1_1*%
%TO.N,GND*%
X123660000Y-102180000D03*
%TO.P,C6,2,2_2*%
%TO.N,/STM32H7 MCU/RCC_OSC_IN*%
X123660000Y-101220000D03*
%TD*%
D14*
%TO.P,C70,1,1_1*%
%TO.N,+1V8*%
X114331660Y-80260000D03*
%TO.P,C70,2,2_2*%
%TO.N,GND*%
X114331660Y-81220000D03*
%TD*%
D19*
%TO.P,C21,1,1_1*%
%TO.N,+3V3*%
X121510002Y-94263012D03*
%TO.P,C21,2,2_2*%
%TO.N,GND*%
X122470002Y-94263012D03*
%TD*%
%TO.P,C34,1,1_1*%
%TO.N,+1V8*%
X123600000Y-95290000D03*
%TO.P,C34,2,2_2*%
%TO.N,GND*%
X124560000Y-95290000D03*
%TD*%
D14*
%TO.P,C22,1,1_1*%
%TO.N,/STM32H7 MCU/VDD_SDC*%
X117790000Y-92780000D03*
%TO.P,C22,2,2_2*%
%TO.N,GND*%
X117790000Y-93740000D03*
%TD*%
%TO.P,C75,1,1_1*%
%TO.N,+1V8*%
X115565227Y-83610000D03*
%TO.P,C75,2,2_2*%
%TO.N,GND*%
X115565227Y-84570000D03*
%TD*%
D20*
%TO.P,R16,1,1_1*%
%TO.N,+3V3*%
X97810000Y-88785194D03*
%TO.P,R16,2,2_2*%
%TO.N,SDMMC_CMD*%
X96790000Y-88785194D03*
%TD*%
D14*
%TO.P,C27,1,1_1*%
%TO.N,/STM32H7 MCU/VDD_SDC*%
X116800000Y-97150000D03*
%TO.P,C27,2,2_2*%
%TO.N,GND*%
X116800000Y-98110000D03*
%TD*%
D28*
%TO.P,FB1,1*%
%TO.N,/STM32H7 MCU/VDDSMPS*%
X121700000Y-101160000D03*
%TO.P,FB1,2*%
%TO.N,+3V3*%
X121700000Y-102860000D03*
%TD*%
D17*
%TO.P,C13,1,1_1*%
%TO.N,+3V3*%
X117730000Y-94710000D03*
%TO.P,C13,2,2_2*%
%TO.N,GND*%
X116770000Y-94710000D03*
%TD*%
D22*
%TO.P,C42,1,1_1*%
%TO.N,+1V8*%
X120800000Y-88175000D03*
%TO.P,C42,2,2_2*%
%TO.N,GND*%
X120800000Y-86625000D03*
%TD*%
D16*
%TO.P,C45,1,1_1*%
%TO.N,GND*%
X98625854Y-87588220D03*
%TO.P,C45,2,2_2*%
%TO.N,+3V3*%
X97075854Y-87588220D03*
%TD*%
D22*
%TO.P,C41,1,1_1*%
%TO.N,+1V8*%
X122700000Y-88175000D03*
%TO.P,C41,2,2_2*%
%TO.N,GND*%
X122700000Y-86625000D03*
%TD*%
D14*
%TO.P,C33,1,1_1*%
%TO.N,+3V3*%
X121650000Y-97160000D03*
%TO.P,C33,2,2_2*%
%TO.N,Net-(IC5C-VREFM)*%
X121650000Y-98120000D03*
%TD*%
D17*
%TO.P,C63,1,1_1*%
%TO.N,/DVID converter\u002C NOR Flash/DVDD*%
X136600000Y-93830000D03*
%TO.P,C63,2,2_2*%
%TO.N,GND*%
X135640000Y-93830000D03*
%TD*%
D19*
%TO.P,C53,1,1_1*%
%TO.N,GND*%
X100880000Y-102670000D03*
%TO.P,C53,2,2_2*%
%TO.N,/Ethernet PHY\u002C PSRAM\u002C SDcard/+3V3_LAN*%
X101840000Y-102670000D03*
%TD*%
D16*
%TO.P,JP8,COM,COM_COM*%
%TO.N,Net-(IC8-EDGE{slash}HTPLG)*%
X140492683Y-82400000D03*
%TO.P,JP8,NC,NC_NC*%
%TO.N,DVID_HPD*%
X138942683Y-82400000D03*
%TO.P,JP8,NO,NO_NO*%
%TO.N,Net-(JP8-PadNO)*%
X142042683Y-82400000D03*
%TD*%
D14*
%TO.P,C7,1,1_1*%
%TO.N,GND*%
X123740000Y-98270000D03*
%TO.P,C7,2,2_2*%
%TO.N,/STM32H7 MCU/RCC_OSC_OUT*%
X123740000Y-99230000D03*
%TD*%
D24*
%TO.P,C20,1,1_1*%
%TO.N,+3V3*%
X118630000Y-96300000D03*
%TO.P,C20,2,2_2*%
%TO.N,GND*%
X118630000Y-95340000D03*
%TD*%
D16*
%TO.P,JP7,COM,COM_COM*%
%TO.N,Net-(IC8-CTL1{slash}A1{slash}DK1)*%
X140490000Y-78564800D03*
%TO.P,JP7,NC,NC_NC*%
%TO.N,GND*%
X138940000Y-78564800D03*
%TO.P,JP7,NO,NO_NO*%
%TO.N,+3V3*%
X142040000Y-78564800D03*
%TD*%
D14*
%TO.P,C31,1,1_1*%
%TO.N,+VAUX*%
X114050000Y-101730000D03*
%TO.P,C31,2,2_2*%
%TO.N,GND*%
X114050000Y-102690000D03*
%TD*%
D20*
%TO.P,R6,1,1_1*%
%TO.N,ETH_RX_ERR*%
X105320000Y-102870000D03*
%TO.P,R6,2,2_2*%
%TO.N,GND*%
X104300000Y-102870000D03*
%TD*%
D19*
%TO.P,C39,1,1_1*%
%TO.N,+1V8*%
X123330000Y-93150000D03*
%TO.P,C39,2,2_2*%
%TO.N,GND*%
X124290000Y-93150000D03*
%TD*%
D14*
%TO.P,C11,1,1_1*%
%TO.N,+3V3*%
X118780002Y-92783012D03*
%TO.P,C11,2,2_2*%
%TO.N,GND*%
X118780002Y-93743012D03*
%TD*%
D23*
%TO.P,NT2,1,1_1*%
%TO.N,GND*%
X121160000Y-97700000D03*
%TO.P,NT2,2,2_2*%
%TO.N,Net-(IC5C-VREFM)*%
X121160000Y-98099998D03*
%TD*%
D14*
%TO.P,C32,1,1_1*%
%TO.N,+3V3*%
X117830000Y-97170000D03*
%TO.P,C32,2,2_2*%
%TO.N,Net-(IC5C-VSSA)*%
X117830000Y-98130000D03*
%TD*%
D11*
%TO.P,C76,1,1_1*%
%TO.N,+1V8*%
X116755227Y-83885000D03*
%TO.P,C76,2,2_2*%
%TO.N,GND*%
X116755227Y-85435000D03*
%TD*%
D18*
%TO.P,JP5,COM,COM_COM*%
%TO.N,Net-(IC8-~{PD})*%
X135310000Y-80210000D03*
%TO.P,JP5,NC,NC_NC*%
%TO.N,GND*%
X136860000Y-80210000D03*
%TO.P,JP5,NO,NO_NO*%
%TO.N,+3V3*%
X133760000Y-80210000D03*
%TD*%
D29*
%TO.N,GND*%
X110040000Y-77710000D03*
%TO.N,+3V3*%
X110040000Y-74630000D03*
%TO.N,Net-(JP1-PadCOM)*%
X111370000Y-76160000D03*
%TO.N,SCL*%
X111270000Y-86300000D03*
X111261600Y-96865100D03*
X110895378Y-94073447D03*
X124443324Y-83989800D03*
X114651549Y-96733024D03*
X123947964Y-84879069D03*
D30*
%TO.N,+3V3*%
X143780000Y-79940000D03*
X141269449Y-111644197D03*
D29*
X115521722Y-93419767D03*
X122010000Y-103510000D03*
D30*
X134624236Y-79220351D03*
X140642783Y-111644197D03*
D29*
X135313900Y-74050000D03*
X142510000Y-79060000D03*
X107870000Y-101590000D03*
D30*
X130800000Y-107080000D03*
X141180409Y-102535999D03*
X140553743Y-104160000D03*
X141807076Y-104160000D03*
X135580000Y-79180000D03*
D29*
X97815492Y-99960000D03*
X114643896Y-73219600D03*
D30*
X141180409Y-104160000D03*
D29*
X121002312Y-93167319D03*
X112539764Y-108670236D03*
X118961414Y-93121003D03*
X117490000Y-94377086D03*
X119599402Y-96459698D03*
X121186988Y-94263012D03*
X96314805Y-87685195D03*
X142550000Y-91490000D03*
X117240191Y-93333700D03*
X121520000Y-103510000D03*
X110093082Y-96940396D03*
X120698974Y-97117793D03*
D30*
X141807076Y-102535999D03*
X132980000Y-91810000D03*
D29*
X120720004Y-96293014D03*
X130936877Y-84044767D03*
D30*
X140553743Y-102535999D03*
D29*
X109791828Y-103032100D03*
D30*
X141896116Y-111644197D03*
X140016116Y-111644197D03*
D29*
X121820000Y-82160000D03*
X119555473Y-96005473D03*
X111720000Y-94170000D03*
X97810000Y-84900000D03*
X109789410Y-106469766D03*
X118480200Y-96070039D03*
D30*
X130710000Y-108360000D03*
D29*
X121680000Y-93730000D03*
X108450000Y-105827500D03*
X103320000Y-101410000D03*
D30*
X139927076Y-104160000D03*
D29*
X97660000Y-87590000D03*
X144210000Y-84540000D03*
X97810000Y-91510000D03*
D30*
X140180000Y-79650000D03*
D29*
%TO.N,GND*%
X139167500Y-89665000D03*
D31*
X131994414Y-83948668D03*
D29*
X122140000Y-108440000D03*
X127100000Y-110010000D03*
X142225500Y-90385287D03*
D30*
X130560000Y-81380000D03*
D29*
X139167500Y-90385287D03*
D30*
X125056250Y-82180000D03*
D29*
X115500000Y-108400000D03*
D30*
X129773750Y-81380000D03*
D29*
X107367300Y-107310000D03*
X118700000Y-111242200D03*
X124700000Y-111242200D03*
D30*
X125056250Y-81390000D03*
D29*
X108391994Y-110432661D03*
D30*
X144467076Y-102370000D03*
D29*
X119481203Y-80032132D03*
X134173817Y-97029568D03*
X120035143Y-93346233D03*
X142990000Y-89665000D03*
X124720001Y-96330000D03*
X110372200Y-95830000D03*
X121630000Y-96290000D03*
X139932000Y-89665000D03*
X127500000Y-74380000D03*
D30*
X126628750Y-81390000D03*
X133500000Y-107200000D03*
X125842500Y-82180000D03*
D29*
X125900000Y-108360000D03*
X132997223Y-87952670D03*
X113825000Y-77100000D03*
D30*
X145140000Y-93830000D03*
D29*
X125900000Y-110030000D03*
X124420000Y-108420000D03*
D30*
X139081065Y-109028921D03*
D29*
X134740000Y-85920000D03*
X105060000Y-95080000D03*
X128300000Y-109990000D03*
X116710434Y-74395799D03*
X117720000Y-96320000D03*
X104090000Y-76070000D03*
D30*
X145210000Y-101700000D03*
X134360000Y-111070000D03*
D29*
X123900000Y-74380000D03*
X129836000Y-101414043D03*
X142209500Y-87384700D03*
X134370000Y-76050000D03*
D31*
X113480000Y-73970000D03*
D29*
X139167500Y-87384700D03*
X142214688Y-86634500D03*
X125100000Y-74380000D03*
X105330000Y-105860000D03*
X139167500Y-88134900D03*
D30*
X144467076Y-99020000D03*
D29*
X113610000Y-100110000D03*
D30*
X144467076Y-101030000D03*
D29*
X117644745Y-78917800D03*
D30*
X119100000Y-74450000D03*
X138338141Y-109698921D03*
X140046186Y-101394279D03*
X141207076Y-101800000D03*
D29*
X139167500Y-86634500D03*
D30*
X145210000Y-99020000D03*
D29*
X101715492Y-99470000D03*
X140696500Y-88134900D03*
X117250000Y-85970000D03*
X120795100Y-93893015D03*
X115795227Y-80370000D03*
D30*
X119100000Y-76040000D03*
X103330000Y-107300000D03*
X134375000Y-107200000D03*
X144467076Y-101700000D03*
D29*
X98395492Y-102060000D03*
X129899999Y-74380000D03*
X98629295Y-88161663D03*
X104344358Y-104700000D03*
X131100000Y-76060000D03*
X114300000Y-108400000D03*
D30*
X132850000Y-90410000D03*
D29*
X115565227Y-82680000D03*
D30*
X117900000Y-76040000D03*
D29*
X144800237Y-83429763D03*
D30*
X139081065Y-109698921D03*
X127415000Y-81390000D03*
X127415000Y-82180000D03*
X137570000Y-79700000D03*
D29*
X142970000Y-87384700D03*
D31*
X132850000Y-84220000D03*
D30*
X139081065Y-111038921D03*
D29*
X129900000Y-76060000D03*
X142990000Y-88134900D03*
X116385100Y-92690200D03*
X142990000Y-90385287D03*
X138219394Y-94729938D03*
D30*
X120300000Y-74560000D03*
D29*
X119110000Y-99720000D03*
X141459375Y-86634500D03*
X122700000Y-111242200D03*
X137513900Y-76550000D03*
D30*
X144467076Y-100360000D03*
D29*
X115504277Y-73370030D03*
X133496237Y-73370000D03*
X120480000Y-81100000D03*
X125060000Y-91070000D03*
X141461000Y-90385287D03*
X105097442Y-82125307D03*
X119919000Y-100392629D03*
X139928000Y-87384700D03*
X117514195Y-89403646D03*
X113408300Y-88918144D03*
X141461000Y-88917500D03*
X113064821Y-94982662D03*
X101257800Y-103053807D03*
X121891935Y-91811103D03*
X106330000Y-105860000D03*
X96370000Y-85490000D03*
X140696500Y-88917500D03*
X119120003Y-94900000D03*
X114720004Y-93374996D03*
X125190563Y-77173736D03*
X105348699Y-104700000D03*
X96660000Y-94870000D03*
D30*
X139240000Y-79680000D03*
D29*
X112200000Y-92530000D03*
X124568405Y-100304900D03*
D30*
X136848319Y-109700000D03*
D29*
X120700000Y-111242200D03*
D30*
X121500000Y-76040000D03*
D29*
X115500000Y-109980000D03*
D30*
X137591243Y-111040000D03*
D29*
X122718513Y-74375636D03*
D30*
X126628750Y-82180000D03*
D29*
X132120000Y-101150000D03*
D30*
X145210000Y-99690000D03*
D29*
X138920000Y-77970000D03*
D30*
X128987500Y-81380000D03*
D31*
X119575543Y-103418217D03*
D29*
X118620000Y-91670000D03*
D30*
X141207076Y-100260000D03*
X137591243Y-110370000D03*
D29*
X97640000Y-82200000D03*
X125000000Y-89040000D03*
D30*
X124270000Y-81390000D03*
X138338141Y-110368921D03*
D29*
X128700000Y-108360000D03*
X133310236Y-95589764D03*
X139932000Y-90385287D03*
D30*
X129773750Y-82170000D03*
D29*
X120860000Y-83050000D03*
X127110000Y-108360000D03*
X139167500Y-88917500D03*
X123593900Y-102630000D03*
D30*
X128201250Y-82180000D03*
X134570000Y-88960000D03*
D29*
X135210000Y-93855100D03*
X119120002Y-95380000D03*
D30*
X137591243Y-109030000D03*
D29*
X122384900Y-88936146D03*
D30*
X147500000Y-88410000D03*
D29*
X114540000Y-109670000D03*
D31*
X103330000Y-108830000D03*
D30*
X120300000Y-76040000D03*
D29*
X133017020Y-81876461D03*
X104330000Y-105860000D03*
D30*
X117900000Y-74450000D03*
D29*
X138947100Y-73190000D03*
X116807876Y-99011481D03*
X142225500Y-88917500D03*
X115995227Y-84770000D03*
X141449000Y-87384700D03*
X140704063Y-86634500D03*
X103610000Y-102770000D03*
X127500000Y-77130000D03*
X114690000Y-75910000D03*
X141461000Y-89665000D03*
D30*
X145210000Y-103040000D03*
D29*
X124950000Y-93950000D03*
X136080000Y-91854900D03*
D30*
X145210000Y-100360000D03*
X128987500Y-82170000D03*
D29*
X105810000Y-110710000D03*
D30*
X142340000Y-80540000D03*
D29*
X142990000Y-88917500D03*
X121025683Y-86086469D03*
X115960000Y-96020000D03*
X119950000Y-89330000D03*
D30*
X125842500Y-81390000D03*
D29*
X114055227Y-80920000D03*
X120420000Y-108420000D03*
D30*
X138338141Y-109028921D03*
D29*
X106353040Y-104700000D03*
D30*
X121539745Y-73236089D03*
X145210000Y-102370000D03*
D29*
X132290000Y-74380000D03*
X120790000Y-102374900D03*
X122960000Y-94700000D03*
D30*
X136848319Y-111040000D03*
D29*
X116966087Y-94866087D03*
X122480000Y-93790000D03*
D30*
X139081065Y-110368921D03*
D29*
X139948750Y-86634500D03*
X132290000Y-76060000D03*
D30*
X136848319Y-109030000D03*
D29*
X122330000Y-95520000D03*
X140696500Y-90385287D03*
X140696500Y-89665000D03*
D31*
X113417200Y-107815569D03*
D29*
X120860000Y-82140000D03*
X142970000Y-86634500D03*
X126314809Y-77130000D03*
D30*
X137063501Y-82464900D03*
D29*
X118013978Y-108452137D03*
X108250000Y-108350000D03*
X110174509Y-105868400D03*
X116690000Y-77100000D03*
D30*
X137591243Y-109700000D03*
X130560000Y-82170000D03*
D29*
X120650000Y-95690000D03*
X114227800Y-103110000D03*
X142225500Y-88134900D03*
X136097100Y-73190000D03*
D31*
X120135003Y-103418200D03*
D29*
X140688500Y-87384700D03*
X120135032Y-91337179D03*
X131090000Y-74380000D03*
D30*
X124270000Y-82180000D03*
X132100000Y-111120000D03*
D29*
X139932000Y-88917500D03*
X116700000Y-108340000D03*
D30*
X147500000Y-84430000D03*
D31*
X101780000Y-108390000D03*
D29*
X134716373Y-73883654D03*
D30*
X144850000Y-79930000D03*
D29*
X139932000Y-88134900D03*
X126300000Y-74380000D03*
X118785291Y-93741287D03*
X128700000Y-74380000D03*
D30*
X144467076Y-103040000D03*
D29*
X141461000Y-88134900D03*
X133485195Y-76053468D03*
X135010000Y-84120000D03*
D30*
X136848319Y-110370000D03*
X145210000Y-101030000D03*
X138338141Y-111038921D03*
X128201250Y-81390000D03*
D29*
X142225500Y-89665000D03*
X128690000Y-77130000D03*
X123598598Y-97523941D03*
X108140000Y-89140000D03*
D30*
X144467076Y-99690000D03*
D29*
X117074923Y-100739216D03*
X116448516Y-109875206D03*
X122690000Y-86000000D03*
%TO.N,~{RESET_OUT}*%
X105588800Y-102152467D03*
X112100000Y-83380000D03*
X120470000Y-106780000D03*
X106500000Y-75150000D03*
X121130056Y-99114635D03*
X116180000Y-106310000D03*
X122910000Y-83990000D03*
X132500000Y-107100000D03*
X119010000Y-103410000D03*
%TO.N,ETH_TXRX_B+*%
X102720000Y-105553500D03*
%TO.N,ETH_TXRX_B-*%
X102720000Y-105006500D03*
%TO.N,ETH_TXRX_A-*%
X102720000Y-104150000D03*
%TO.N,ETH_TXRX_A+*%
X102330000Y-104590000D03*
%TO.N,~{ETH_LINK_ACT}*%
X115957225Y-109701400D03*
X110333795Y-110026057D03*
%TO.N,~{ETH_LINK100}*%
X110020000Y-111300000D03*
X112867305Y-110907626D03*
%TO.N,~{LED_ACT}*%
X112480000Y-111265100D03*
%TO.N,~{SYSMCU_CS}*%
X118537378Y-103184900D03*
%TO.N,~{DIB3_IRQ}*%
X118808385Y-108446602D03*
%TO.N,~{DIB1_IRQ}*%
X124660000Y-103600000D03*
X119317241Y-106338808D03*
X124430000Y-106046600D03*
%TO.N,~{DIB2_IRQ}*%
X119308352Y-108663634D03*
%TO.N,DIB1{slash}DIB3_MISO*%
X119431696Y-104479100D03*
%TO.N,RS485_TX_EN{slash}DOUT2*%
X128500000Y-93590000D03*
X119900000Y-111242200D03*
X127776029Y-103636507D03*
%TO.N,DIB4_MOSI*%
X116182648Y-104125506D03*
X115474900Y-94344326D03*
X119909047Y-104225100D03*
%TO.N,~{DIB1_CSA}*%
X119810000Y-108446602D03*
X115616783Y-103683473D03*
X115614445Y-97139016D03*
%TO.N,DIB4_MISO*%
X120960000Y-108500000D03*
X114953467Y-94460398D03*
X116473096Y-104558759D03*
%TO.N,DIN2*%
X121112774Y-110020988D03*
X113066055Y-109089696D03*
X109710000Y-95060000D03*
X112611229Y-94725129D03*
X111511646Y-102468660D03*
%TO.N,RTC_CM5*%
X116228096Y-99768096D03*
X121610000Y-108450000D03*
X116132646Y-103606305D03*
%TO.N,DIB4_SCLK*%
X125760000Y-103440000D03*
X122050000Y-111210000D03*
%TO.N,DIB2{slash}DIB5_SCLK*%
X121748577Y-105037600D03*
%TO.N,~{DIB2_CSA}*%
X117109021Y-109439493D03*
X116419877Y-103170912D03*
X116601990Y-106670360D03*
X121731317Y-109871790D03*
%TO.N,DIB2{slash}DIB5_MISO*%
X121920000Y-106046600D03*
X113428400Y-102590000D03*
X108768200Y-97970000D03*
X108830000Y-100251600D03*
%TO.N,~{TFT_IRQ}*%
X123990000Y-104140000D03*
X122301872Y-110054869D03*
%TO.N,DIB2{slash}DIB5_MOSI*%
X107850000Y-96200000D03*
X120299427Y-109435100D03*
X111930000Y-103170000D03*
%TO.N,~{SYSMCU_IRQ}*%
X123022830Y-108446100D03*
%TO.N,~{DIB4_IRQ}*%
X122805023Y-105140816D03*
%TO.N,~{DIB5_IRQ}*%
X110485600Y-95074494D03*
X111710000Y-109260000D03*
X111443388Y-101951600D03*
%TO.N,DIB_OE_SYNC*%
X123570000Y-108440000D03*
%TO.N,~{DIB5_CSA}*%
X117152839Y-103307160D03*
X123570000Y-109000000D03*
%TO.N,~{DIB3_CSA}*%
X116952075Y-104352243D03*
X112810000Y-95460000D03*
X123315844Y-105246317D03*
%TO.N,DIB1{slash}DIB3_SCLK*%
X109748006Y-90698813D03*
X110761446Y-102412004D03*
X111123088Y-109444599D03*
X124420000Y-109860000D03*
X115159190Y-89942486D03*
%TO.N,~{DIB4_CSA}*%
X119371139Y-96928389D03*
X125812569Y-97392097D03*
X126575300Y-105212960D03*
%TO.N,DIB1{slash}DIB3_MOSI*%
X126233397Y-104610200D03*
X121638118Y-98996558D03*
X122703431Y-101025726D03*
X125104217Y-109144217D03*
%TO.N,UART_TX{slash}DOUT1*%
X125185385Y-105110916D03*
X119050000Y-100850000D03*
X125054900Y-106524499D03*
X122623263Y-102740061D03*
%TO.N,UART_RX{slash}DIN1*%
X127139764Y-105080236D03*
%TO.N,+VAUX*%
X128893990Y-106941846D03*
X117221877Y-106682348D03*
X114400500Y-101654283D03*
D31*
%TO.N,+5V*%
X138797076Y-99070000D03*
X138230000Y-99070000D03*
D29*
X139930000Y-74160000D03*
D31*
X139997076Y-99070000D03*
X130250000Y-110080000D03*
X138230000Y-98470000D03*
X131350000Y-110080000D03*
X138797076Y-98470000D03*
X130800000Y-110080000D03*
X129680000Y-110090000D03*
X139997076Y-98470000D03*
D29*
%TO.N,GPIO_VREF*%
X125127678Y-103868622D03*
%TO.N,SDA*%
X124500000Y-84890000D03*
X112564496Y-97066153D03*
X125090186Y-84338512D03*
X111810000Y-86320000D03*
%TO.N,+1V8*%
X114335227Y-79570000D03*
D31*
X139898658Y-105440165D03*
D29*
X121510000Y-88410000D03*
X119724329Y-92613012D03*
X117738276Y-79836171D03*
X121801056Y-92729679D03*
X116065227Y-83090000D03*
X123507006Y-94274747D03*
X122471949Y-94983012D03*
X120875873Y-91264965D03*
D31*
X140470000Y-107000000D03*
D29*
X114680000Y-85950000D03*
D31*
X131690000Y-108310000D03*
D29*
X114983160Y-79333480D03*
D31*
X131710000Y-107010000D03*
X141000000Y-107000000D03*
D29*
X131450000Y-100090000D03*
D31*
X140469329Y-105440165D03*
D29*
X118928842Y-91234901D03*
D31*
X140999329Y-105440165D03*
D29*
X133051735Y-96685872D03*
D31*
X139899329Y-107000000D03*
D29*
X123250000Y-88550000D03*
X116265227Y-84300000D03*
X122696657Y-92700800D03*
X118539682Y-81814927D03*
%TO.N,BOOT0*%
X113500000Y-100970000D03*
X111330000Y-96100000D03*
X132540000Y-109180000D03*
%TO.N,~{LED_PWR}*%
X133110000Y-109280000D03*
X113610000Y-109860000D03*
X110160000Y-100340000D03*
X109670000Y-94380000D03*
%TO.N,RS485_TX{slash}DOUT3*%
X131500000Y-111330000D03*
X112970000Y-109907800D03*
X109925665Y-102002769D03*
X110120000Y-107990000D03*
X109090000Y-90450000D03*
%TO.N,RS485_RX{slash}DIN3*%
X110312679Y-103060103D03*
X134880000Y-111730000D03*
X110604471Y-109579833D03*
X114755669Y-91819779D03*
X106950000Y-93660000D03*
D31*
%TO.N,/DVID converter\u002C NOR Flash/TVDD*%
X133911900Y-87279576D03*
X133952858Y-90469900D03*
D29*
X132560000Y-85870000D03*
%TO.N,XSPIM_P1_IO10*%
X122448859Y-91787577D03*
X135109086Y-97558717D03*
%TO.N,~{XSPI_M_P1_CS}*%
X125650000Y-90900000D03*
X135780000Y-98800000D03*
%TO.N,XSPIM_P1_IO11*%
X135769816Y-100419816D03*
X124168298Y-96225191D03*
%TO.N,XSPIM_P1_IO12*%
X135700000Y-101240000D03*
X123350000Y-96324213D03*
%TO.N,XSPIM_P1_IO9*%
X134850000Y-96420000D03*
X126956390Y-91167500D03*
%TO.N,XSPI_M_P1_CLK*%
X134510000Y-97970000D03*
X125687715Y-92840700D03*
%TO.N,XSPI_M_P1_DQS1*%
X134890000Y-99540000D03*
X122161340Y-92286453D03*
%TO.N,XSPIM_P1_IO13*%
X126940236Y-95509764D03*
X134550000Y-100250000D03*
%TO.N,XSPIM_P1_IO14*%
X134566750Y-101276750D03*
X122920000Y-95400000D03*
%TO.N,XSPIM_P1_IO8*%
X133844787Y-95694047D03*
X124313434Y-91123500D03*
%TO.N,XSPI_M_P1_DQS0*%
X133820000Y-98700000D03*
X123348876Y-92517921D03*
%TO.N,XSPIM_P1_IO2*%
X123030549Y-93776171D03*
X131270000Y-98820000D03*
%TO.N,XSPIM_P1_IO15*%
X134150000Y-100790000D03*
X124100000Y-94780000D03*
%TO.N,XSPIM_P1_IO1*%
X123270000Y-91670000D03*
X132420167Y-96860995D03*
%TO.N,XSPIM_P1_IO0*%
X123968729Y-92504340D03*
X130241382Y-95794988D03*
X132350000Y-98370000D03*
%TO.N,XSPIM_P1_IO3*%
X126610000Y-95080000D03*
X132539959Y-99979181D03*
%TO.N,XSPIM_P1_IO4*%
X129740000Y-99190000D03*
X125456841Y-95150906D03*
%TO.N,XSPIM_P1_IO7*%
X133490000Y-96300000D03*
X123770260Y-91364335D03*
%TO.N,XSPIM_P1_IO6*%
X125156447Y-92699280D03*
X131214239Y-95283592D03*
%TO.N,XSPIM_P1_IO5*%
X126537965Y-94146500D03*
X131110000Y-98190000D03*
D31*
%TO.N,/DVID converter\u002C NOR Flash/DVDD*%
X138910000Y-81270000D03*
D30*
X137080000Y-93895100D03*
D31*
X137636600Y-81265282D03*
X145270000Y-81360000D03*
D29*
%TO.N,LTDC_DE*%
X124328038Y-101573990D03*
X145550000Y-84420000D03*
X136345618Y-103087022D03*
%TO.N,LTDC_HSYNC*%
X115360000Y-86480000D03*
X127536297Y-85205100D03*
X137260000Y-85040000D03*
X116270520Y-96735142D03*
%TO.N,LTDC_VSYNC*%
X118690000Y-88270000D03*
X137249971Y-84518494D03*
X115441005Y-91063407D03*
%TO.N,Net-(IC8-CTL1{slash}A1{slash}DK1)*%
X140650000Y-79160000D03*
%TO.N,Net-(IC8-EDGE{slash}HTPLG)*%
X141060000Y-81190000D03*
%TO.N,Net-(IC8-~{PD})*%
X135252221Y-79640939D03*
X140655862Y-80604607D03*
%TO.N,Net-(IC8-ISEL{slash}~{RST})*%
X135250000Y-82150000D03*
%TO.N,Net-(IC8-DSEL{slash}SDA)*%
X138140000Y-84040000D03*
%TO.N,Net-(IC8-BSEL{slash}SCL)*%
X137780000Y-83240000D03*
%TO.N,Net-(IC8-DKEN)*%
X139165975Y-94724224D03*
%TO.N,LTDC_R7*%
X138814379Y-93079885D03*
X114629486Y-92325888D03*
%TO.N,LTDC_R6*%
X139335872Y-93090593D03*
X117120003Y-92011031D03*
%TO.N,LTDC_R5*%
X139857256Y-93075481D03*
X118186953Y-92024550D03*
%TO.N,LTDC_R4*%
X140392136Y-93071074D03*
X114836360Y-97896300D03*
%TO.N,LTDC_R3*%
X140855236Y-94675236D03*
X136730000Y-100710000D03*
X122401002Y-98951772D03*
%TO.N,LTDC_R2*%
X114015100Y-97510825D03*
X126190000Y-89970000D03*
%TO.N,LTDC_R1*%
X120836375Y-100853749D03*
X130000000Y-103964900D03*
%TO.N,LTDC_R0*%
X130610000Y-104100000D03*
X120319840Y-100011139D03*
%TO.N,LTDC_G7*%
X125822871Y-89518239D03*
X122010000Y-90250000D03*
%TO.N,LTDC_G5*%
X128106817Y-89596344D03*
X122670993Y-91074469D03*
%TO.N,LTDC_G3*%
X122332042Y-100064831D03*
X145870000Y-92550000D03*
%TO.N,LTDC_G2*%
X136790000Y-96180000D03*
X122038918Y-99330367D03*
X145630000Y-91030000D03*
X127960000Y-99880511D03*
%TO.N,LTDC_G1*%
X117559113Y-99262285D03*
X129320000Y-104480000D03*
%TO.N,LTDC_G0*%
X127360000Y-97610000D03*
X124224022Y-97780160D03*
X137644900Y-95348136D03*
X145120000Y-89940000D03*
%TO.N,LTDC_B7*%
X146030000Y-89390000D03*
X124446600Y-101060149D03*
X136753190Y-102761516D03*
%TO.N,LTDC_B6*%
X117780000Y-91634900D03*
X144790000Y-88560000D03*
%TO.N,LTDC_CLK*%
X145540000Y-88120000D03*
X123519767Y-100011360D03*
X136983526Y-102293526D03*
%TO.N,LTDC_B5*%
X116438241Y-89493171D03*
X145540000Y-87430000D03*
%TO.N,LTDC_B4*%
X144790000Y-87530000D03*
X116873098Y-90963500D03*
%TO.N,LTDC_B3*%
X144800000Y-86420001D03*
X116497496Y-88533099D03*
%TO.N,LTDC_B2*%
X137230000Y-95780000D03*
X146030000Y-85950000D03*
X124402155Y-98281030D03*
X128042002Y-98258773D03*
%TO.N,LTDC_B1*%
X143950000Y-87800000D03*
X113408300Y-91227013D03*
%TO.N,LTDC_B0*%
X122720249Y-96574645D03*
X137434900Y-85730000D03*
X126830000Y-97430000D03*
X137250207Y-95007129D03*
%TO.N,REAR_DVID_CEC*%
X137253900Y-77860000D03*
%TO.N,REAR_DVID_HPD*%
X138413900Y-77250000D03*
%TO.N,REAR_DVID_SDA*%
X139303096Y-76504932D03*
%TO.N,REAR_DVID_SCL*%
X138813900Y-74800000D03*
%TO.N,XSPIM_P2_CLK*%
X114570000Y-82090000D03*
X119805147Y-90034900D03*
%TO.N,XSPIM_P2_DQS0*%
X114906355Y-81565175D03*
X118305100Y-89628367D03*
%TO.N,VMUX_EN*%
X123550000Y-85870000D03*
X124218391Y-99905100D03*
X128046474Y-100426474D03*
%TO.N,DVID_HPD*%
X136560000Y-82880000D03*
X116385607Y-91936088D03*
X115883144Y-87325038D03*
X129981339Y-84432072D03*
%TO.N,DVID_CEC*%
X118080000Y-103560000D03*
X130394890Y-84061675D03*
X120490000Y-104010000D03*
X137230000Y-96540000D03*
X137810000Y-85310000D03*
X127270000Y-103510000D03*
X117630000Y-102100000D03*
%TO.N,VMUX_SEL*%
X131921356Y-85335100D03*
X124237690Y-98776026D03*
X130670000Y-96100000D03*
X128260000Y-99130000D03*
%TO.N,Net-(IC9-HPD_A)*%
X132850000Y-82470000D03*
%TO.N,REAR_DVID_CLK_N*%
X131988500Y-74820000D03*
%TO.N,REAR_DVID_CLK_P*%
X131411500Y-74820000D03*
%TO.N,REAR_DVID_TX0_N*%
X130788500Y-74830000D03*
%TO.N,REAR_DVID_TX0_P*%
X130211500Y-74830000D03*
%TO.N,REAR_DVID_TX1_N*%
X129588500Y-74800000D03*
%TO.N,REAR_DVID_TX1_P*%
X129011500Y-74800000D03*
%TO.N,REAR_DVID_TX2_N*%
X128388500Y-74800000D03*
%TO.N,REAR_DVID_TX2_P*%
X127811500Y-74800000D03*
%TO.N,TFT_DVID_CLK_N*%
X127188500Y-74800000D03*
%TO.N,TFT_DVID_CLK_P*%
X126611500Y-74800000D03*
%TO.N,TFT_DVID_TX0_N*%
X125988500Y-74800000D03*
%TO.N,TFT_DVID_TX0_P*%
X125411500Y-74800000D03*
%TO.N,TFT_DVID_TX1_N*%
X124788500Y-74800000D03*
%TO.N,TFT_DVID_TX1_P*%
X124211500Y-74800000D03*
%TO.N,TFT_DVID_TX2_N*%
X123580000Y-74800000D03*
%TO.N,TFT_DVID_TX2_P*%
X123013835Y-74805583D03*
%TO.N,SDMMC_D2*%
X114578369Y-89924055D03*
X96320000Y-90990000D03*
%TO.N,SDMMC_D3*%
X96320000Y-89900000D03*
X112000000Y-88120000D03*
%TO.N,SDMMC_CMD*%
X96340000Y-88790000D03*
%TO.N,SDMMC_CLK*%
X95590000Y-86970000D03*
X115478477Y-91904983D03*
%TO.N,SDMMC_D0*%
X115359931Y-88666459D03*
X96320000Y-84380000D03*
%TO.N,SDMMC_D1*%
X116567292Y-90057292D03*
X96320000Y-83280000D03*
%TO.N,~{SD_DETECT}*%
X116278752Y-94253489D03*
X108680000Y-92820000D03*
%TO.N,/Ethernet PHY\u002C PSRAM\u002C SDcard/+3V3_LAN*%
X101165492Y-101660000D03*
X103060000Y-107870000D03*
X101220000Y-106830000D03*
%TO.N,MCU_USB_ID*%
X110595039Y-93178185D03*
X114280000Y-78250000D03*
X114471124Y-94658928D03*
X111600000Y-85330000D03*
%TO.N,/CM5 socket/USB2-*%
X115046500Y-77900000D03*
%TO.N,/CM5 socket/USB2+*%
X115593500Y-77900000D03*
%TO.N,MCU_USB_VBUS*%
X111010000Y-85310000D03*
X110365100Y-92710000D03*
X114862269Y-93906618D03*
X116100000Y-77390000D03*
%TO.N,USB_FS_D+*%
X114180000Y-95310000D03*
%TO.N,USB_FS_D-*%
X113603843Y-95336157D03*
%TO.N,/CM5 socket/USB3_1_D+*%
X117440000Y-75671633D03*
%TO.N,/CM5 socket/USB3_1_D-*%
X116776950Y-75518499D03*
%TO.N,USB_HS_D+*%
X113639407Y-93845587D03*
X113386606Y-75386606D03*
%TO.N,USB_HS_D-*%
X114321332Y-93825387D03*
X113773394Y-75773394D03*
%TO.N,USB_HS_SEL*%
X121358730Y-83991270D03*
X114700000Y-74580000D03*
%TO.N,Net-(IC6-LED2{slash}NINT{slash}NPME{slash}NINTSEL)*%
X108260000Y-111050000D03*
%TO.N,ETH_RXD1*%
X123127828Y-98500138D03*
X111864894Y-99052706D03*
%TO.N,ETH_RXD0*%
X110064900Y-97742917D03*
X120201816Y-97492893D03*
%TO.N,ETH_CRS_DV*%
X109800316Y-98237559D03*
X122680000Y-97440000D03*
%TO.N,ETH_MDIO*%
X122719891Y-98174839D03*
X108771071Y-98520000D03*
%TO.N,Net-(IC6-RXD1{slash}MODE1)*%
X109627400Y-107010000D03*
X109016228Y-102990000D03*
X111211600Y-101160000D03*
%TO.N,/STM32H7 MCU/~{ACTIVE}*%
X126146270Y-103860000D03*
X125322081Y-108483889D03*
%TO.N,Net-(IC6-LED1{slash}NINT{slash}NPME{slash}REGOFF)*%
X108245210Y-109804790D03*
%TO.N,Net-(IC6-XTAL2)*%
X105531049Y-107390418D03*
%TO.N,Net-(IC6-XTAL1{slash}CLKIN)*%
X106130480Y-107394193D03*
%TO.N,ETH_RX_ERR*%
X107560000Y-86870000D03*
X107462779Y-100541194D03*
X122130000Y-85880000D03*
X108000000Y-104620000D03*
X107770000Y-103020000D03*
%TO.N,ETH_TX_EN*%
X105027023Y-101957167D03*
X117094344Y-99903835D03*
%TO.N,ETH_MDC*%
X106587522Y-99925724D03*
X117673902Y-102765865D03*
%TO.N,ETH_REF_CLK*%
X105963900Y-97039834D03*
X114009100Y-96275735D03*
%TO.N,ETH_TXD0*%
X117126896Y-96583784D03*
X105060000Y-98140000D03*
%TO.N,ETH_TXD1*%
X116319802Y-99211311D03*
X104470000Y-99090000D03*
%TO.N,/STM32H7 MCU/VDD_SDC*%
X119525319Y-94364700D03*
X121281302Y-95681167D03*
X116850000Y-101620000D03*
X120392029Y-92088289D03*
X115904900Y-95000459D03*
X116850000Y-102050000D03*
X118334900Y-99682478D03*
X116460280Y-96249282D03*
X118280000Y-94200000D03*
X116850000Y-102480000D03*
X117775316Y-92344900D03*
D31*
%TO.N,/STM32H7 MCU/VLXSMPS*%
X118390000Y-100770000D03*
%TO.N,/STM32H7 MCU/VDDSMPS*%
X119120004Y-100293011D03*
D29*
X119281498Y-101368227D03*
X121250092Y-101170809D03*
%TO.N,Net-(IC5C-VSSA)*%
X118720003Y-98174996D03*
%TO.N,/STM32H7 MCU/RCC_OSC_IN*%
X121028482Y-100368812D03*
%TO.N,/STM32H7 MCU/RCC_OSC_OUT*%
X121231515Y-99888347D03*
%TO.N,Net-(IC5C-VREFM)*%
X120484842Y-97931032D03*
%TD*%
%TO.N,GND*%
D32*
X110710000Y-77730000D02*
X110060000Y-77730000D01*
X110060000Y-77730000D02*
X110040000Y-77710000D01*
%TO.N,+3V3*%
X110710000Y-74630000D02*
X110040000Y-74630000D01*
%TO.N,Net-(JP1-PadCOM)*%
X111370000Y-76160000D02*
X110730000Y-76160000D01*
X110730000Y-76160000D02*
X110710000Y-76180000D01*
%TO.N,SCL*%
X124443324Y-83989800D02*
X125153124Y-83280000D01*
X125153124Y-83280000D02*
X136950000Y-83280000D01*
X110895378Y-94073447D02*
X110997800Y-93971025D01*
D33*
X129900000Y-107620000D02*
X129900000Y-106905132D01*
X129900000Y-106905132D02*
X128404000Y-105409132D01*
D32*
X110997800Y-86572200D02*
X111270000Y-86300000D01*
X136950000Y-83280000D02*
X137320000Y-83650000D01*
D33*
X129107200Y-99659999D02*
X129108600Y-99658599D01*
X129107199Y-100219511D02*
X129107200Y-99659999D01*
D32*
X138849214Y-83650000D02*
X138939214Y-83740000D01*
X110997800Y-93971025D02*
X110997800Y-86572200D01*
X138110000Y-83650000D02*
X138849214Y-83650000D01*
D33*
X124642957Y-85590000D02*
X123947964Y-84895007D01*
X128404000Y-105409132D02*
X128404000Y-100922710D01*
X128404000Y-100922710D02*
X129107199Y-100219511D01*
X129108600Y-99658599D02*
X129108600Y-89438600D01*
X125260000Y-85590000D02*
X124642957Y-85590000D01*
D32*
X137320000Y-83650000D02*
X138110000Y-83650000D01*
D33*
X129108600Y-89438600D02*
X125260000Y-85590000D01*
%TO.N,+3V3*%
X117179999Y-93740000D02*
X117240191Y-93679808D01*
X131450000Y-82420000D02*
X131960000Y-81910000D01*
X111931812Y-93826938D02*
X111931812Y-93958188D01*
D34*
X119550000Y-96300000D02*
X118630000Y-96300000D01*
D32*
X97810000Y-84385194D02*
X97810000Y-84900000D01*
D33*
X133760000Y-79990000D02*
X134529649Y-79220351D01*
X116870000Y-93740000D02*
X117179999Y-93740000D01*
D35*
X121520000Y-103510000D02*
X122010000Y-103510000D01*
D33*
X111931812Y-93958188D02*
X111720000Y-94170000D01*
X144192926Y-84850000D02*
X144204899Y-84850000D01*
X142030000Y-78580000D02*
X142510000Y-79060000D01*
D32*
X132970000Y-91800000D02*
X132980000Y-91810000D01*
X97810000Y-90985194D02*
X97810000Y-88785194D01*
D34*
X117850000Y-97150000D02*
X117830000Y-97170000D01*
D32*
X144192926Y-80352926D02*
X143780000Y-79940000D01*
D36*
X117890000Y-94780000D02*
X117740000Y-94630000D01*
D34*
X118753014Y-97170000D02*
X118760002Y-97163012D01*
D33*
X144204899Y-84850000D02*
X144210000Y-84844899D01*
D32*
X97810000Y-90985194D02*
X97810000Y-91500000D01*
D36*
X117890000Y-95400000D02*
X117890000Y-94780000D01*
D33*
X133760000Y-80210000D02*
X133760000Y-79990000D01*
D34*
X118630000Y-97033010D02*
X118760002Y-97163012D01*
D32*
X97075854Y-87588220D02*
X97658220Y-87588220D01*
X132320000Y-91800000D02*
X132970000Y-91800000D01*
X131100000Y-107380000D02*
X130800000Y-107080000D01*
D33*
X144210000Y-84844899D02*
X144210000Y-84540000D01*
X131960000Y-80920000D02*
X132670000Y-80210000D01*
D32*
X144192926Y-82460000D02*
X144192926Y-80352926D01*
D34*
X118630000Y-96300000D02*
X118630000Y-97033010D01*
D32*
X131100000Y-107620000D02*
X131100000Y-107380000D01*
D33*
X132670000Y-80210000D02*
X133760000Y-80210000D01*
D32*
X97658220Y-87588220D02*
X97660000Y-87590000D01*
X120741181Y-97160000D02*
X120698974Y-97117793D01*
D36*
X117740000Y-95550000D02*
X117890000Y-95400000D01*
D32*
X130700000Y-108350000D02*
X130710000Y-108360000D01*
D33*
X117240191Y-93679808D02*
X117240191Y-93333700D01*
D32*
X121510002Y-93343012D02*
X121510002Y-93560002D01*
X97810000Y-83285194D02*
X97810000Y-84385194D01*
D33*
X142000000Y-91490000D02*
X142550000Y-91490000D01*
D34*
X117830000Y-97170000D02*
X118753014Y-97170000D01*
D32*
X121510002Y-93560002D02*
X121680000Y-93730000D01*
D33*
X142030000Y-78564800D02*
X142030000Y-78580000D01*
X134529649Y-79220351D02*
X134624236Y-79220351D01*
D36*
X121650000Y-97160000D02*
X120780000Y-97160000D01*
D32*
X97810000Y-91500000D02*
X97800000Y-91510000D01*
D37*
X96411780Y-87588220D02*
X96314804Y-87685196D01*
D33*
X131960000Y-81910000D02*
X131960000Y-80920000D01*
D32*
X96314805Y-87685195D02*
X96314804Y-87685196D01*
X130700000Y-107620000D02*
X130700000Y-108350000D01*
D33*
X111929937Y-93825063D02*
X111931812Y-93826938D01*
D37*
X97075854Y-87588220D02*
X96411780Y-87588220D01*
D32*
X121510002Y-94263012D02*
X121186988Y-94263012D01*
%TO.N,GND*%
D33*
X134375000Y-111055000D02*
X134360000Y-111070000D01*
D32*
X133500000Y-107200000D02*
X133500000Y-107805000D01*
D33*
X113417200Y-107815569D02*
X113814431Y-107815569D01*
D32*
X105970000Y-111302700D02*
X105971500Y-111304200D01*
X134375000Y-76595000D02*
X134375000Y-76055000D01*
D33*
X113825000Y-110225000D02*
X114130000Y-109920000D01*
D32*
X120419222Y-108420000D02*
X120420000Y-108420000D01*
X120300000Y-108300778D02*
X120419222Y-108420000D01*
X133490000Y-76460000D02*
X133500000Y-76450000D01*
D33*
X121500000Y-76595000D02*
X121500000Y-76120000D01*
X119550000Y-95340000D02*
X119120003Y-95340000D01*
D32*
X121500000Y-73275834D02*
X121539745Y-73236089D01*
X128300000Y-110700000D02*
X128300000Y-109970000D01*
X115500000Y-109980000D02*
X115510000Y-109970000D01*
D36*
X116780000Y-95550000D02*
X116800000Y-95530000D01*
D32*
X122700000Y-86010000D02*
X122690000Y-86000000D01*
X103815700Y-107310000D02*
X103770000Y-107355700D01*
D33*
X119919000Y-100392629D02*
X119919000Y-100177548D01*
D32*
X133500000Y-76470000D02*
X133490000Y-76460000D01*
D33*
X115530000Y-92790000D02*
X115480000Y-92790000D01*
X134375000Y-107805000D02*
X134375000Y-107225000D01*
D35*
X130970000Y-101050000D02*
X130660001Y-101050000D01*
D32*
X118017863Y-108452137D02*
X118122400Y-108347600D01*
D34*
X115565227Y-84570000D02*
X115795227Y-84570000D01*
D33*
X126314809Y-77080216D02*
X126314809Y-76609809D01*
D32*
X124700000Y-111242200D02*
X124700000Y-110700000D01*
X133075472Y-95355000D02*
X133310236Y-95589764D01*
X118300000Y-108122400D02*
X118300000Y-107620000D01*
X114300000Y-110700000D02*
X114300000Y-109920000D01*
D33*
X125114809Y-76609809D02*
X125100000Y-76595000D01*
X116810000Y-98120000D02*
X116800000Y-98110000D01*
D32*
X115500000Y-108290000D02*
X115500000Y-107620000D01*
D33*
X112180000Y-92025000D02*
X112200000Y-92045000D01*
X115305000Y-92790000D02*
X114720004Y-93374996D01*
D32*
X118013978Y-108452137D02*
X118017863Y-108452137D01*
D33*
X114130000Y-109920000D02*
X114300000Y-109920000D01*
X116900002Y-98123012D02*
X116900002Y-98919355D01*
D32*
X132300000Y-76780000D02*
X132300000Y-76180000D01*
D33*
X119100000Y-76595000D02*
X119100000Y-76120000D01*
X123660000Y-102475000D02*
X123593900Y-102541100D01*
D35*
X119575560Y-103418200D02*
X119575543Y-103418217D01*
D33*
X121186719Y-97673281D02*
X121160000Y-97700000D01*
D32*
X105971500Y-111304200D02*
X107779900Y-111304200D01*
D33*
X123593900Y-102541100D02*
X123593900Y-102630000D01*
X136860000Y-80550000D02*
X136860000Y-80410000D01*
X115500000Y-76220000D02*
X115190000Y-75910000D01*
X124290000Y-93150000D02*
X124560000Y-93420000D01*
X134375000Y-107225000D02*
X134400000Y-107200000D01*
X115190000Y-75910000D02*
X114690000Y-75910000D01*
X129900000Y-76595000D02*
X129900000Y-76060000D01*
D32*
X114300000Y-109920000D02*
X114590000Y-109630000D01*
D33*
X123740000Y-97665343D02*
X123598598Y-97523941D01*
D32*
X133500000Y-76780000D02*
X133500000Y-76470000D01*
D34*
X117080000Y-98120000D02*
X116810000Y-98120000D01*
D33*
X113825000Y-76595000D02*
X113825000Y-77055000D01*
X121883491Y-97673281D02*
X121186719Y-97673281D01*
D32*
X122700000Y-111242200D02*
X122700000Y-110700000D01*
X118122400Y-108300000D02*
X118300000Y-108122400D01*
X131100000Y-76780000D02*
X131100000Y-76180000D01*
X120850000Y-86700000D02*
X120850000Y-86220000D01*
X129900000Y-73700000D02*
X129899999Y-74203522D01*
X135235100Y-93830000D02*
X135210000Y-93855100D01*
X107779900Y-111304200D02*
X107779900Y-107354200D01*
D33*
X114190001Y-103110000D02*
X114227800Y-103110000D01*
D32*
X125900000Y-109980000D02*
X125910000Y-109970000D01*
X121500000Y-73700000D02*
X121500000Y-73275834D01*
D33*
X115500000Y-92790000D02*
X115305000Y-92790000D01*
X119120003Y-95340000D02*
X119120003Y-94900000D01*
D35*
X130295958Y-101414043D02*
X129836000Y-101414043D01*
D33*
X120300000Y-76595000D02*
X120300000Y-76040000D01*
D32*
X133500000Y-76450000D02*
X133500000Y-76180000D01*
D35*
X131660000Y-94500000D02*
X131995000Y-94500000D01*
X119700002Y-93743012D02*
X120620002Y-93743012D01*
D33*
X138930000Y-78564800D02*
X138930000Y-77980000D01*
X125100000Y-76595000D02*
X125100000Y-77083173D01*
X119915002Y-100173550D02*
X119915002Y-99323012D01*
D32*
X120300000Y-73700000D02*
X120300000Y-74560000D01*
D33*
X116900002Y-98919355D02*
X116807876Y-99011481D01*
X117113796Y-100739216D02*
X117074923Y-100739216D01*
D36*
X115795227Y-80370000D02*
X115795227Y-80675000D01*
D32*
X133500000Y-73700000D02*
X133496237Y-73696237D01*
X122140000Y-108440000D02*
X122140000Y-108340000D01*
X116700000Y-107620000D02*
X116700000Y-108340000D01*
X122140000Y-108340000D02*
X122300000Y-108180000D01*
D35*
X130660001Y-101050000D02*
X130295958Y-101414043D01*
D33*
X120672679Y-95542679D02*
X120672679Y-95667321D01*
D32*
X120850000Y-86220000D02*
X120983531Y-86086469D01*
D36*
X116800000Y-95530000D02*
X116800000Y-94650000D01*
D32*
X108409333Y-110450000D02*
X108520000Y-110450000D01*
D33*
X138900000Y-91490000D02*
X138900000Y-90652787D01*
D32*
X107367300Y-107310000D02*
X107735700Y-107310000D01*
D36*
X118780002Y-93743012D02*
X117793012Y-93743012D01*
D32*
X127130000Y-108360000D02*
X127100000Y-108330000D01*
X132300000Y-110920000D02*
X132100000Y-111120000D01*
D36*
X120620002Y-89883012D02*
X120503012Y-89883012D01*
D32*
X124560000Y-95180000D02*
X124560000Y-94260000D01*
X120700000Y-111242200D02*
X120700000Y-110700000D01*
X122300000Y-108180000D02*
X122300000Y-107620000D01*
X132850000Y-95355000D02*
X133075472Y-95355000D01*
X135640000Y-93830000D02*
X135235100Y-93830000D01*
X118122400Y-108347600D02*
X118122400Y-108300000D01*
X125900000Y-110700000D02*
X125900000Y-109980000D01*
X108391994Y-110432661D02*
X108409333Y-110450000D01*
D33*
X115500000Y-76595000D02*
X115500000Y-76220000D01*
X114331660Y-81220000D02*
X114331660Y-81196433D01*
X119690002Y-91893012D02*
X118843012Y-91893012D01*
X119919000Y-100177548D02*
X119915002Y-100173550D01*
D32*
X115500000Y-110700000D02*
X115500000Y-109980000D01*
X103770000Y-111302700D02*
X105970000Y-111302700D01*
X122906990Y-94700000D02*
X122470002Y-94263012D01*
D33*
X130660000Y-81480000D02*
X130560000Y-81380000D01*
D32*
X116755227Y-85435000D02*
X117250000Y-85929773D01*
D36*
X119120002Y-89873012D02*
X119663014Y-89330000D01*
D35*
X120135003Y-103418200D02*
X119575560Y-103418200D01*
D33*
X114050000Y-102969999D02*
X114190001Y-103110000D01*
X113814431Y-107815569D02*
X113825000Y-107805000D01*
X124560000Y-93420000D02*
X124560000Y-94260000D01*
X122126100Y-96796100D02*
X122126100Y-97430672D01*
D32*
X116700000Y-110126690D02*
X116448516Y-109875206D01*
D33*
X125100000Y-77083173D02*
X125190563Y-77173736D01*
X118630000Y-95340000D02*
X119120003Y-95340000D01*
D36*
X116800000Y-94650000D02*
X116780000Y-94630000D01*
D33*
X112200000Y-92045000D02*
X112200000Y-92530000D01*
D32*
X103770000Y-107355700D02*
X103770000Y-111302700D01*
D33*
X138930000Y-77980000D02*
X138920000Y-77970000D01*
X138900000Y-90652787D02*
X139167500Y-90385287D01*
D36*
X120503012Y-89883012D02*
X119950000Y-89330000D01*
D33*
X121630000Y-96290000D02*
X121630000Y-96300000D01*
D36*
X119663014Y-89330000D02*
X119950000Y-89330000D01*
D33*
X128690000Y-77130000D02*
X128690000Y-76605000D01*
D32*
X103610000Y-102770000D02*
X104200000Y-102770000D01*
X127100000Y-110700000D02*
X127100000Y-109970000D01*
D33*
X113825000Y-110515000D02*
X113825000Y-110225000D01*
X131450000Y-81480000D02*
X130660000Y-81480000D01*
X118843012Y-91893012D02*
X118620000Y-91670000D01*
X134375000Y-110515000D02*
X134375000Y-111055000D01*
D32*
X114300000Y-107620000D02*
X114300000Y-108340000D01*
D33*
X113825000Y-77055000D02*
X113850000Y-77080000D01*
D32*
X119100000Y-73700000D02*
X119100000Y-74300000D01*
D33*
X117793012Y-93743012D02*
X117790000Y-93740000D01*
D32*
X104200000Y-102770000D02*
X104300000Y-102870000D01*
X120300000Y-107620000D02*
X120300000Y-108300778D01*
X133496237Y-73696237D02*
X133496237Y-73370000D01*
X122960000Y-94700000D02*
X122906990Y-94700000D01*
X127130000Y-108370000D02*
X127130000Y-108360000D01*
D33*
X121630000Y-96300000D02*
X122126100Y-96796100D01*
D35*
X118787016Y-93743012D02*
X118785291Y-93741287D01*
D32*
X118700000Y-111242200D02*
X118700000Y-110700000D01*
D35*
X131995000Y-94500000D02*
X132850000Y-95355000D01*
D32*
X107779900Y-107354200D02*
X107735700Y-107310000D01*
X125900000Y-107620000D02*
X125900000Y-108340000D01*
D33*
X116870000Y-92780000D02*
X116474900Y-92780000D01*
D32*
X144192926Y-83740000D02*
X144490000Y-83740000D01*
D33*
X114050000Y-102690000D02*
X114050000Y-102969999D01*
D32*
X131900000Y-110700000D02*
X131900000Y-110920000D01*
X116700000Y-110700000D02*
X116700000Y-110126690D01*
X144490000Y-83740000D02*
X144800237Y-83429763D01*
X128700000Y-107620000D02*
X128700000Y-108350000D01*
D33*
X144726041Y-83355567D02*
X144800237Y-83429763D01*
X117900000Y-76595000D02*
X117900000Y-76120000D01*
D32*
X122700000Y-86625000D02*
X122700000Y-86010000D01*
D33*
X114331660Y-81196433D02*
X114055227Y-80920000D01*
X136860000Y-80410000D02*
X137570000Y-79700000D01*
D32*
X127100000Y-108330000D02*
X127100000Y-107620000D01*
X132300000Y-110700000D02*
X132300000Y-110920000D01*
X128700000Y-108350000D02*
X128650000Y-108400000D01*
X117900000Y-73700000D02*
X117900000Y-74300000D01*
X124300000Y-107620000D02*
X124300000Y-108245846D01*
D34*
X115795227Y-84570000D02*
X115995227Y-84770000D01*
D32*
X131900000Y-110920000D02*
X132100000Y-111120000D01*
D33*
X127500000Y-77150000D02*
X127500000Y-76595000D01*
X123740000Y-98270000D02*
X123740000Y-97665343D01*
D35*
X119700002Y-93743012D02*
X118787016Y-93743012D01*
D32*
X120983531Y-86086469D02*
X121025683Y-86086469D01*
D33*
X122126100Y-97430672D02*
X121883491Y-97673281D01*
D32*
X134375000Y-76055000D02*
X134370000Y-76050000D01*
D36*
X115795227Y-80675000D02*
X115525227Y-80945000D01*
D33*
X117340000Y-100513012D02*
X117113796Y-100739216D01*
D32*
X117250000Y-85929773D02*
X117250000Y-85970000D01*
D33*
X116474900Y-92780000D02*
X116385100Y-92690200D01*
X128690000Y-76605000D02*
X128700000Y-76595000D01*
X120672679Y-95667321D02*
X120650000Y-95690000D01*
D32*
X124300000Y-108245846D02*
X124397111Y-108342957D01*
%TO.N,~{RESET_OUT}*%
D33*
X116163476Y-106293476D02*
X116180000Y-106310000D01*
X120224280Y-102100000D02*
X120458415Y-101865865D01*
X119010000Y-103410000D02*
X119130000Y-103290000D01*
X115875820Y-106293476D02*
X116163476Y-106293476D01*
X106810000Y-75460000D02*
X106500000Y-75150000D01*
X106810000Y-82990000D02*
X106810000Y-75460000D01*
X120461765Y-100403780D02*
X120690000Y-100175545D01*
X106810000Y-82990000D02*
X111710000Y-82990000D01*
X107492467Y-102152467D02*
X108900000Y-103560000D01*
X119130000Y-103290000D02*
X119130000Y-102451518D01*
X111710000Y-82990000D02*
X112100000Y-83380000D01*
X120855884Y-99974116D02*
X120855884Y-99404116D01*
D32*
X135720000Y-82950000D02*
X136860000Y-81810000D01*
X105580000Y-102130000D02*
X105588800Y-102138800D01*
D33*
X120855884Y-99404116D02*
X121130056Y-99129944D01*
X108900000Y-103560000D02*
X113142344Y-103560000D01*
D32*
X122910000Y-83990000D02*
X123950000Y-82950000D01*
D33*
X105588800Y-102152467D02*
X107492467Y-102152467D01*
D32*
X132300000Y-107620000D02*
X132300000Y-107300000D01*
D33*
X120690000Y-100140000D02*
X120855884Y-99974116D01*
D32*
X132300000Y-107300000D02*
X132500000Y-107100000D01*
D33*
X121130056Y-99129944D02*
X121130056Y-99114635D01*
X119130000Y-102451518D02*
X119481518Y-102100000D01*
D32*
X123950000Y-82950000D02*
X135720000Y-82950000D01*
D33*
X119481518Y-102100000D02*
X120224280Y-102100000D01*
D32*
X105588800Y-102138800D02*
X105588800Y-102152467D01*
D33*
X113142344Y-103560000D02*
X115875820Y-106293476D01*
X120458415Y-101865865D02*
X120461765Y-101869215D01*
D32*
X136860000Y-81810000D02*
X136860000Y-81490000D01*
D33*
X105588800Y-102152467D02*
X105588800Y-84211200D01*
X120690000Y-100175545D02*
X120690000Y-100140000D01*
X105588800Y-84211200D02*
X106810000Y-82990000D01*
X120461765Y-101869215D02*
X120461765Y-100403780D01*
%TO.N,ETH_TXRX_B+*%
X114700000Y-107309999D02*
X114700000Y-107805000D01*
X114773000Y-107236999D02*
X114700000Y-107309999D01*
X111343800Y-105427000D02*
X111343800Y-105096800D01*
X111775600Y-106062000D02*
X111674000Y-106062000D01*
X114027611Y-106783719D02*
X114143767Y-106899875D01*
X112690000Y-105427000D02*
X112977394Y-105427000D01*
X111267600Y-104792000D02*
X111166000Y-104792000D01*
X110658000Y-105427000D02*
X110314021Y-105427000D01*
X111343800Y-105731800D02*
X111343800Y-105427000D01*
X111089800Y-104868200D02*
X111089800Y-105096800D01*
X111343800Y-105096800D02*
X111343800Y-104868200D01*
X102720000Y-105497000D02*
X102720000Y-105553500D01*
X114773000Y-107222606D02*
X114773000Y-107236999D01*
X102720000Y-105553500D02*
X102720000Y-105600000D01*
X112283600Y-104792000D02*
X112182000Y-104792000D01*
X114566426Y-107016032D02*
X114597611Y-107047217D01*
X112359800Y-105096800D02*
X112359800Y-104868200D01*
X112105800Y-105427000D02*
X112105800Y-105731800D01*
X110759600Y-105427000D02*
X110658000Y-105427000D01*
X112977394Y-105427000D02*
X114027611Y-106477217D01*
X102846500Y-105427000D02*
X102720000Y-105553500D01*
X110314021Y-105427000D02*
X102846500Y-105427000D01*
X114597611Y-107047217D02*
X114773000Y-107222606D01*
X112105800Y-104868200D02*
X112105800Y-105096800D01*
X114450269Y-106899875D02*
X114566426Y-107016032D01*
X112105800Y-105096800D02*
X112105800Y-105427000D01*
X112182000Y-104792000D02*
G75*
G03*
X112105800Y-104868200I0J-76200D01*
G01*
X114027611Y-106630468D02*
G75*
G03*
X114027604Y-106783726I76589J-76632D01*
G01*
X114027611Y-106477217D02*
G75*
G02*
X114027569Y-106630425I-76611J-76583D01*
G01*
X111343800Y-104868200D02*
G75*
G03*
X111267600Y-104792000I-76200J0D01*
G01*
X111166000Y-104792000D02*
G75*
G03*
X111089800Y-104868200I0J-76200D01*
G01*
X111674000Y-106062000D02*
G75*
G02*
X111343800Y-105731800I0J330200D01*
G01*
X114143767Y-106899875D02*
G75*
G03*
X114297018Y-106899876I76626J76627D01*
G01*
X111089800Y-105096800D02*
G75*
G02*
X110759600Y-105427000I-330200J0D01*
G01*
X114297018Y-106899875D02*
G75*
G02*
X114450269Y-106899875I76625J-76627D01*
G01*
X112105800Y-105731800D02*
G75*
G02*
X111775600Y-106062000I-330200J0D01*
G01*
X112359800Y-104868200D02*
G75*
G03*
X112283600Y-104792000I-76200J0D01*
G01*
X112690000Y-105427000D02*
G75*
G02*
X112359800Y-105096800I0J330200D01*
G01*
%TO.N,ETH_TXRX_B-*%
X115027000Y-107236999D02*
X115027000Y-107117394D01*
X102886500Y-105173000D02*
X102720000Y-105006500D01*
X110759600Y-105173000D02*
X110658000Y-105173000D01*
X110314021Y-105173000D02*
X102886500Y-105173000D01*
X113082606Y-105173000D02*
X112690000Y-105173000D01*
X111597800Y-105096800D02*
X111597800Y-104868200D01*
X112283600Y-104538000D02*
X112182000Y-104538000D01*
X102720000Y-105063000D02*
X102720000Y-105006500D01*
X111597800Y-105731800D02*
X111597800Y-105427000D01*
X110835800Y-104868200D02*
X110835800Y-105096800D01*
X115100000Y-107805000D02*
X115100000Y-107309999D01*
X111267600Y-104538000D02*
X111166000Y-104538000D01*
X112613800Y-105096800D02*
X112613800Y-104868200D01*
X111775600Y-105808000D02*
X111674000Y-105808000D01*
X110658000Y-105173000D02*
X110314021Y-105173000D01*
X115100000Y-107309999D02*
X115027000Y-107236999D01*
X111851800Y-104868200D02*
X111851800Y-105096800D01*
X111597800Y-105427000D02*
X111597800Y-105096800D01*
X115027000Y-107117394D02*
X113082606Y-105173000D01*
X111851800Y-105427000D02*
X111851800Y-105731800D01*
X111851800Y-105096800D02*
X111851800Y-105427000D01*
X111674000Y-105808000D02*
G75*
G02*
X111597800Y-105731800I0J76200D01*
G01*
X111166000Y-104538000D02*
G75*
G03*
X110835800Y-104868200I0J-330200D01*
G01*
X111597800Y-104868200D02*
G75*
G03*
X111267600Y-104538000I-330200J0D01*
G01*
X112690000Y-105173000D02*
G75*
G02*
X112613800Y-105096800I0J76200D01*
G01*
X112182000Y-104538000D02*
G75*
G03*
X111851800Y-104868200I0J-330200D01*
G01*
X110835800Y-105096800D02*
G75*
G02*
X110759600Y-105173000I-76200J0D01*
G01*
X111851800Y-105731800D02*
G75*
G02*
X111775600Y-105808000I-76200J0D01*
G01*
X112613800Y-104868200D02*
G75*
G03*
X112283600Y-104538000I-330200J0D01*
G01*
%TO.N,ETH_TXRX_A-*%
X102720000Y-104150000D02*
X102720000Y-103957000D01*
X115900000Y-107590000D02*
X115900000Y-107805000D01*
X115973000Y-107352606D02*
X115973000Y-107517000D01*
X103623062Y-103877000D02*
X103699262Y-103877000D01*
X108687394Y-104257000D02*
X112877394Y-104257000D01*
X102761020Y-104108980D02*
X102720000Y-104150000D01*
X102820000Y-104108980D02*
X102761020Y-104108980D01*
X102720000Y-103957000D02*
X102800000Y-103877000D01*
X103470662Y-104070950D02*
X103470662Y-104029400D01*
X104385062Y-103877000D02*
X104461262Y-103877000D01*
X102800000Y-103877000D02*
X102937262Y-103877000D01*
X105760000Y-103877000D02*
X108307394Y-103877000D01*
X112877394Y-104257000D02*
X115973000Y-107352606D01*
X103242062Y-104223350D02*
X103318262Y-104223350D01*
X104613662Y-104029400D02*
X104613662Y-104070954D01*
X105223262Y-103877000D02*
X105760000Y-103877000D01*
X103089662Y-104029400D02*
X103089662Y-104070950D01*
X103851662Y-104029400D02*
X103851662Y-104070950D01*
X102820000Y-104108980D02*
X102820000Y-104107990D01*
X104232662Y-104070950D02*
X104232662Y-104029400D01*
X104994662Y-104070954D02*
X104994662Y-104029400D01*
X115973000Y-107517000D02*
X115900000Y-107590000D01*
X104766062Y-104223354D02*
X104842262Y-104223354D01*
X104004062Y-104223350D02*
X104080262Y-104223350D01*
X108307394Y-103877000D02*
X108687394Y-104257000D01*
X105147062Y-103877000D02*
X105223262Y-103877000D01*
X104994662Y-104029400D02*
G75*
G02*
X105147062Y-103876962I152438J0D01*
G01*
X103851662Y-104070950D02*
G75*
G03*
X104004062Y-104223338I152438J50D01*
G01*
X103470662Y-104029400D02*
G75*
G02*
X103623062Y-103876962I152438J0D01*
G01*
X104232662Y-104029400D02*
G75*
G02*
X104385062Y-103876962I152438J0D01*
G01*
X104613662Y-104070954D02*
G75*
G03*
X104766062Y-104223438I152438J-46D01*
G01*
X104842262Y-104223354D02*
G75*
G03*
X104994654Y-104070954I38J152354D01*
G01*
X103318262Y-104223350D02*
G75*
G03*
X103470750Y-104070950I38J152450D01*
G01*
X103089662Y-104070950D02*
G75*
G03*
X103242062Y-104223338I152438J50D01*
G01*
X103699262Y-103877000D02*
G75*
G02*
X103851700Y-104029400I38J-152400D01*
G01*
X104080262Y-104223350D02*
G75*
G03*
X104232750Y-104070950I38J152450D01*
G01*
X104461262Y-103877000D02*
G75*
G02*
X104613700Y-104029400I38J-152400D01*
G01*
X102937262Y-103877000D02*
G75*
G02*
X103089700Y-104029400I38J-152400D01*
G01*
%TO.N,ETH_TXRX_A+*%
X116227000Y-107517000D02*
X116227000Y-107247394D01*
X112982606Y-104003000D02*
X108792606Y-104003000D01*
X102662482Y-103623000D02*
X102318500Y-103966982D01*
X108792606Y-104003000D02*
X108412606Y-103623000D01*
X116300000Y-107805000D02*
X116300000Y-107590000D01*
X116227000Y-107247394D02*
X112982606Y-104003000D01*
X102318500Y-103966982D02*
X102318500Y-104578500D01*
X116300000Y-107590000D02*
X116227000Y-107517000D01*
X102318500Y-104578500D02*
X102330000Y-104590000D01*
X108412606Y-103623000D02*
X102662482Y-103623000D01*
%TO.N,~{ETH_LINK_ACT}*%
D32*
X109650000Y-109810000D02*
X110117738Y-109810000D01*
X116171167Y-109487458D02*
X115957225Y-109701400D01*
X116608553Y-109487458D02*
X116171167Y-109487458D01*
X117100000Y-110700000D02*
X117100000Y-109978905D01*
X110117738Y-109810000D02*
X110333795Y-110026057D01*
X117100000Y-109978905D02*
X116608553Y-109487458D01*
%TO.N,~{ETH_LINK100}*%
D33*
X113243519Y-110893519D02*
X112881412Y-110893519D01*
X117500000Y-110972000D02*
X117312000Y-111160000D01*
X117500000Y-110515000D02*
X117500000Y-110972000D01*
X117312000Y-111160000D02*
X113510000Y-111160000D01*
X113510000Y-111160000D02*
X113243519Y-110893519D01*
X112881412Y-110893519D02*
X112867305Y-110907626D01*
%TO.N,~{LED_ACT}*%
D32*
X112634900Y-111420000D02*
X112480000Y-111265100D01*
X118300000Y-110700000D02*
X118300000Y-111202400D01*
X118082400Y-111420000D02*
X112634900Y-111420000D01*
X118300000Y-111202400D02*
X118082400Y-111420000D01*
%TO.N,~{SYSMCU_CS}*%
X118580000Y-103227522D02*
X118537378Y-103184900D01*
X118700000Y-106489991D02*
X118580000Y-106369991D01*
X118700000Y-107620000D02*
X118700000Y-106489991D01*
X118580000Y-106369991D02*
X118580000Y-103227522D01*
%TO.N,~{DIB3_IRQ}*%
X118849404Y-108487621D02*
X118808385Y-108446602D01*
X118849404Y-109888884D02*
X118849404Y-108487621D01*
X119100000Y-110700000D02*
X119100000Y-110139480D01*
X119100000Y-110139480D02*
X118849404Y-109888884D01*
%TO.N,~{DIB1_IRQ}*%
X119100000Y-106556049D02*
X119317241Y-106338808D01*
X119100000Y-107620000D02*
X119100000Y-106556049D01*
%TO.N,~{DIB2_IRQ}*%
X119500000Y-110700000D02*
X119500000Y-108855282D01*
X119500000Y-108855282D02*
X119308352Y-108663634D01*
%TO.N,DIB1{slash}DIB3_MISO*%
X119716150Y-104763554D02*
X119431696Y-104479100D01*
X119716150Y-106627490D02*
X119716150Y-104763554D01*
X119500000Y-107620000D02*
X119500000Y-106843640D01*
X119500000Y-106843640D02*
X119716150Y-106627490D01*
%TO.N,RS485_TX_EN{slash}DOUT2*%
D33*
X128500000Y-93590000D02*
X128880000Y-93970000D01*
D32*
X119900000Y-110700000D02*
X119900000Y-111242200D01*
D33*
X128880000Y-93970000D02*
X128880000Y-99563910D01*
X128880000Y-99563910D02*
X128878600Y-99565310D01*
X128150000Y-103230000D02*
X127776029Y-103603971D01*
X127776029Y-103603971D02*
X127776029Y-103636507D01*
X128878600Y-99565310D02*
X128878600Y-100124820D01*
X128878600Y-100124820D02*
X128150000Y-100853420D01*
X128150000Y-100853420D02*
X128150000Y-103230000D01*
%TO.N,DIB4_MOSI*%
D32*
X119995550Y-106743221D02*
X119995550Y-104311603D01*
D33*
X115419400Y-100724022D02*
X115232800Y-100910622D01*
D32*
X119900000Y-106838771D02*
X119995550Y-106743221D01*
D33*
X115520004Y-94482947D02*
X115026300Y-94976651D01*
D32*
X119900000Y-107620000D02*
X119900000Y-106838771D01*
D33*
X115232800Y-100910622D02*
X115232800Y-103829962D01*
X115528344Y-104125506D02*
X116182648Y-104125506D01*
X115026300Y-94976651D02*
X115026300Y-97081343D01*
X115026300Y-97081343D02*
X115419400Y-97474443D01*
X115520004Y-94368943D02*
X115520004Y-94482947D01*
X115419400Y-97474443D02*
X115419400Y-100724022D01*
D32*
X119995550Y-104311603D02*
X119909047Y-104225100D01*
D33*
X115232800Y-103829962D02*
X115528344Y-104125506D01*
%TO.N,~{DIB1_CSA}*%
X115698502Y-100768208D02*
X115461400Y-101005311D01*
D32*
X115698502Y-97221255D02*
X115616263Y-97139016D01*
X115698502Y-97335768D02*
X115698502Y-97221255D01*
D33*
X115461400Y-103528090D02*
X115616783Y-103683473D01*
D32*
X120300000Y-110040000D02*
X120300000Y-110515000D01*
D33*
X115698502Y-97335768D02*
X115698502Y-100768208D01*
X115461400Y-101005311D02*
X115461400Y-103528090D01*
D32*
X119810000Y-109550000D02*
X120300000Y-110040000D01*
X115616263Y-97139016D02*
X115614445Y-97139016D01*
X119810000Y-108446602D02*
X119810000Y-109550000D01*
%TO.N,DIB4_MISO*%
D33*
X114761400Y-96053907D02*
X114761400Y-94918261D01*
X120960000Y-108400000D02*
X120700000Y-108140000D01*
X114200000Y-96615307D02*
X114761400Y-96053907D01*
X116473096Y-104558759D02*
X115638307Y-104558759D01*
X114953467Y-94726194D02*
X114953467Y-94460398D01*
X114450000Y-98071254D02*
X114450000Y-97100000D01*
X114450000Y-97100000D02*
X114200000Y-96850000D01*
X120960000Y-108500000D02*
X120960000Y-108400000D01*
X115004200Y-98625454D02*
X114450000Y-98071254D01*
X120700000Y-108140000D02*
X120700000Y-107805000D01*
X115638307Y-104558759D02*
X115004200Y-103924651D01*
X115004200Y-103924651D02*
X115004200Y-98625454D01*
X114200000Y-96850000D02*
X114200000Y-96615307D01*
X114761400Y-94918261D02*
X114953467Y-94726194D01*
%TO.N,DIN2*%
X109710000Y-95060000D02*
X109710000Y-95830000D01*
X121100000Y-110515000D02*
X121100000Y-110033762D01*
X110550000Y-96670000D02*
X110550000Y-101610000D01*
X110550000Y-101610000D02*
X111408660Y-102468660D01*
X121100000Y-110033762D02*
X121112774Y-110020988D01*
X109710000Y-95830000D02*
X110550000Y-96670000D01*
X111408660Y-102468660D02*
X111511646Y-102468660D01*
%TO.N,RTC_CM5*%
X121440472Y-108450000D02*
X121610000Y-108450000D01*
X121100000Y-108109528D02*
X121440472Y-108450000D01*
X121100000Y-107805000D02*
X121100000Y-108109528D01*
X116228096Y-99768096D02*
X116228096Y-100561904D01*
X115690000Y-101100000D02*
X115690000Y-103030000D01*
X116228096Y-100561904D02*
X115690000Y-101100000D01*
X115690000Y-103030000D02*
X116102713Y-103442712D01*
%TO.N,DIB4_SCLK*%
X121738000Y-111210000D02*
X122050000Y-111210000D01*
X121500000Y-110972000D02*
X121738000Y-111210000D01*
X121500000Y-110515000D02*
X121500000Y-110972000D01*
%TO.N,DIB2{slash}DIB5_SCLK*%
D32*
X121500000Y-107620000D02*
X121500000Y-105286177D01*
X121500000Y-105286177D02*
X121748577Y-105037600D01*
%TO.N,~{DIB2_CSA}*%
X121733956Y-109871774D02*
X121733455Y-109871273D01*
D33*
X121900000Y-110515000D02*
X121900000Y-110040473D01*
X116601990Y-106670360D02*
X117327175Y-105945175D01*
X117327175Y-105945175D02*
X117327175Y-104078210D01*
D32*
X121733455Y-109871273D02*
X121731834Y-109871273D01*
D33*
X121900000Y-110040473D02*
X121731317Y-109871790D01*
D32*
X121733956Y-109947150D02*
X121733956Y-109871774D01*
D33*
X117327175Y-104078210D02*
X116419877Y-103170912D01*
D32*
X121731834Y-109871273D02*
X121731317Y-109871790D01*
%TO.N,DIB2{slash}DIB5_MISO*%
X108768200Y-97970000D02*
X108383271Y-98354929D01*
X108830000Y-100230000D02*
X108830000Y-100251600D01*
X121900000Y-107620000D02*
X121900000Y-106066600D01*
X108383271Y-98354929D02*
X108383271Y-98836002D01*
X108380400Y-98838873D02*
X108380400Y-99780400D01*
X108383271Y-98836002D02*
X108380400Y-98838873D01*
X121900000Y-106066600D02*
X121920000Y-106046600D01*
X113411259Y-102607141D02*
X113428400Y-102590000D01*
X108380400Y-99780400D02*
X108830000Y-100230000D01*
%TO.N,~{TFT_IRQ}*%
X122300000Y-110056741D02*
X122301872Y-110054869D01*
X122300000Y-110700000D02*
X122300000Y-110056741D01*
%TO.N,DIB2{slash}DIB5_MOSI*%
X110971009Y-103170000D02*
X110191578Y-102390569D01*
D33*
X122700000Y-107805000D02*
X122700000Y-108150000D01*
X122590000Y-108760000D02*
X121914900Y-109435100D01*
X122590000Y-108260000D02*
X122590000Y-108760000D01*
D32*
X110191578Y-102390569D02*
X109720569Y-102390569D01*
D33*
X122700000Y-108150000D02*
X122590000Y-108260000D01*
X121914900Y-109435100D02*
X120299427Y-109435100D01*
D32*
X111930000Y-103170000D02*
X110971009Y-103170000D01*
X122700000Y-107620000D02*
X122700000Y-107968004D01*
X107850000Y-100520000D02*
X107850000Y-96200000D01*
X109720569Y-102390569D02*
X107850000Y-100520000D01*
%TO.N,~{SYSMCU_IRQ}*%
X123100000Y-110700000D02*
X123100000Y-110102395D01*
X123023837Y-108447107D02*
X123022830Y-108446100D01*
X123100000Y-110102395D02*
X123023837Y-110026232D01*
X123023837Y-110026232D02*
X123023837Y-108447107D01*
%TO.N,~{DIB4_IRQ}*%
X122805023Y-105283929D02*
X122805023Y-105140816D01*
X123100000Y-107620000D02*
X123100000Y-105578906D01*
X123100000Y-105578906D02*
X122805023Y-105283929D01*
%TO.N,~{DIB5_IRQ}*%
X110791300Y-95380194D02*
X110791300Y-101381300D01*
X111890000Y-111260000D02*
X111890000Y-109440000D01*
X110791300Y-101381300D02*
X111361600Y-101951600D01*
X111890000Y-109440000D02*
X111710000Y-109260000D01*
X110485600Y-95074494D02*
X110791300Y-95380194D01*
X111361600Y-101951600D02*
X111443388Y-101951600D01*
X123024600Y-111677800D02*
X112307800Y-111677800D01*
X112307800Y-111677800D02*
X111890000Y-111260000D01*
X123500000Y-110700000D02*
X123500000Y-111202400D01*
X123500000Y-111202400D02*
X123024600Y-111677800D01*
%TO.N,DIB_OE_SYNC*%
X123570000Y-108440000D02*
X123570000Y-108298842D01*
X123570000Y-108298842D02*
X123500000Y-108228842D01*
X123500000Y-107620000D02*
X123499174Y-107620826D01*
X123500000Y-108228842D02*
X123500000Y-107620000D01*
%TO.N,~{DIB5_CSA}*%
X123900000Y-110700000D02*
X123900000Y-109330000D01*
X123900000Y-109330000D02*
X123570000Y-109000000D01*
%TO.N,~{DIB3_CSA}*%
D33*
X116952075Y-104610252D02*
X116628468Y-104933859D01*
X113150000Y-98650000D02*
X113150000Y-95800000D01*
X114775595Y-104019336D02*
X114775595Y-100275595D01*
X116628468Y-104933859D02*
X115690118Y-104933859D01*
X114775595Y-100275595D02*
X113150000Y-98650000D01*
X116952075Y-104352243D02*
X116952075Y-104610252D01*
X115690118Y-104933859D02*
X114775595Y-104019336D01*
D32*
X123900000Y-107620000D02*
X123900000Y-105830473D01*
D33*
X113150000Y-95800000D02*
X112810000Y-95460000D01*
D32*
X123900000Y-105830473D02*
X123315844Y-105246317D01*
%TO.N,DIB1{slash}DIB3_SCLK*%
X109158871Y-98359367D02*
X109156000Y-98356496D01*
X110761446Y-102412004D02*
X110761446Y-102402760D01*
X109156000Y-99986000D02*
X109156000Y-98683504D01*
X124420000Y-109860000D02*
X124420000Y-110082421D01*
X110313465Y-101954779D02*
X110313465Y-101842136D01*
X109156000Y-98356496D02*
X109156000Y-96076000D01*
X110308700Y-101138700D02*
X109156000Y-99986000D01*
X109156000Y-98683504D02*
X109158871Y-98680633D01*
X109010000Y-94300000D02*
X109748006Y-93561994D01*
X109010000Y-95930000D02*
X109010000Y-94300000D01*
X115109074Y-89942486D02*
X115159190Y-89942486D01*
X124300000Y-110202421D02*
X124300000Y-110700000D01*
X110313465Y-101842136D02*
X110308700Y-101837371D01*
X109156000Y-96076000D02*
X109010000Y-95930000D01*
X110761446Y-102402760D02*
X110313465Y-101954779D01*
X115089801Y-89923213D02*
X115109074Y-89942486D01*
X109158871Y-98680633D02*
X109158871Y-98359367D01*
X109748006Y-93561994D02*
X109748006Y-90698813D01*
X110308700Y-101837371D02*
X110308700Y-101138700D01*
X124420000Y-110082421D02*
X124300000Y-110202421D01*
%TO.N,~{DIB4_CSA}*%
X124667100Y-106731834D02*
X124667100Y-106363866D01*
X124700000Y-106764734D02*
X124667100Y-106731834D01*
X125818006Y-105212960D02*
X126575300Y-105212960D01*
X124667100Y-106363866D02*
X125818006Y-105212960D01*
X124700000Y-107620000D02*
X124700000Y-106764734D01*
%TO.N,DIB1{slash}DIB3_MOSI*%
X125100000Y-110700000D02*
X125100000Y-109148434D01*
X125100000Y-109148434D02*
X125104217Y-109144217D01*
%TO.N,UART_TX{slash}DOUT1*%
X125100000Y-107620000D02*
X125100000Y-106569599D01*
X125100000Y-106569599D02*
X125054900Y-106524499D01*
%TO.N,UART_RX{slash}DIN1*%
X125500000Y-106980000D02*
X127139764Y-105340236D01*
X125500000Y-107620000D02*
X125500000Y-106980000D01*
X127139764Y-105340236D02*
X127139764Y-105080236D01*
%TO.N,+VAUX*%
X129100000Y-107620000D02*
X129100000Y-107039558D01*
X129100000Y-107039558D02*
X129002288Y-106941846D01*
X129002288Y-106941846D02*
X128893990Y-106941846D01*
%TO.N,+5V*%
D36*
X139930000Y-74160000D02*
X139930000Y-74960000D01*
X148290000Y-81630000D02*
X148290000Y-91920000D01*
X141740000Y-98470000D02*
X139997076Y-98470000D01*
X144220000Y-79250000D02*
X145910000Y-79250000D01*
X139930000Y-74960000D02*
X144220000Y-79250000D01*
X145910000Y-79250000D02*
X148290000Y-81630000D01*
X148290000Y-91920000D02*
X141740000Y-98470000D01*
%TO.N,GPIO_VREF*%
D33*
X125128622Y-103868622D02*
X125127678Y-103868622D01*
X126825100Y-104235100D02*
X125495100Y-104235100D01*
X129500000Y-107620000D02*
X129500000Y-106910000D01*
X125495100Y-104235100D02*
X125128622Y-103868622D01*
X129500000Y-106910000D02*
X126825100Y-104235100D01*
%TO.N,SDA*%
X130300000Y-106910000D02*
X128658000Y-105268000D01*
D32*
X136856658Y-83545868D02*
X138157444Y-84846654D01*
D33*
X129337200Y-89343910D02*
X129186645Y-89193355D01*
X124971400Y-85361400D02*
X124500000Y-84890000D01*
X128658000Y-105268000D02*
X128658000Y-100992000D01*
X125354689Y-85361400D02*
X124971400Y-85361400D01*
X129335799Y-99754690D02*
X129337200Y-99753288D01*
X112564496Y-95887786D02*
X111290000Y-94613290D01*
D32*
X138157444Y-84846654D02*
X138942683Y-84846654D01*
D33*
X111290000Y-94613290D02*
X111290000Y-86840000D01*
X129337200Y-99753288D02*
X129337200Y-89343910D01*
X129186645Y-89193355D02*
X125354689Y-85361400D01*
X130300000Y-107620000D02*
X130300000Y-106910000D01*
X112564496Y-97066153D02*
X112564496Y-95887786D01*
X128658000Y-100992000D02*
X129335799Y-100314201D01*
D32*
X125882830Y-83545868D02*
X136856658Y-83545868D01*
D33*
X111290000Y-86840000D02*
X111810000Y-86320000D01*
D32*
X125090186Y-84338512D02*
X125882830Y-83545868D01*
D33*
X129335799Y-100314201D02*
X129335799Y-99754690D01*
%TO.N,+1V8*%
D36*
X123600000Y-95180000D02*
X123600000Y-94260000D01*
D33*
X134420000Y-98720000D02*
X133180000Y-97480000D01*
D36*
X114825227Y-80260000D02*
X114331660Y-80260000D01*
D32*
X119003842Y-91234901D02*
X118928842Y-91234901D01*
X131450000Y-100090000D02*
X130970000Y-100090000D01*
D33*
X123145857Y-93150000D02*
X122696657Y-92700800D01*
D32*
X115565227Y-83590000D02*
X116065227Y-83090000D01*
D33*
X114331660Y-79573567D02*
X114335227Y-79570000D01*
D32*
X121540179Y-92453012D02*
X121801056Y-92713889D01*
X131900000Y-107620000D02*
X131900000Y-108100000D01*
X121275000Y-88175000D02*
X121510000Y-88410000D01*
D38*
X114331660Y-80260000D02*
X114331660Y-79573567D01*
D33*
X123330000Y-93150000D02*
X123145857Y-93150000D01*
D32*
X119748412Y-92637095D02*
X119724329Y-92613012D01*
X131900000Y-108100000D02*
X131690000Y-108310000D01*
X117742927Y-80030000D02*
X117738276Y-80025349D01*
X117738276Y-80025349D02*
X117738276Y-79836171D01*
X131500000Y-107620000D02*
X131500000Y-107220000D01*
X122700559Y-92696898D02*
X122696657Y-92700800D01*
X120761956Y-91264965D02*
X120875873Y-91264965D01*
D33*
X133180000Y-96814137D02*
X133051735Y-96685872D01*
D32*
X119700002Y-92783012D02*
X119748412Y-92734602D01*
X122700000Y-88175000D02*
X122875000Y-88175000D01*
X115565227Y-83610000D02*
X115565227Y-83590000D01*
D35*
X130970000Y-100090000D02*
X130055000Y-100090000D01*
D32*
X121540002Y-92453012D02*
X121540179Y-92453012D01*
X120620002Y-91123011D02*
X120761956Y-91264965D01*
X132850000Y-96594999D02*
X132940873Y-96685872D01*
D33*
X133180000Y-97480000D02*
X133180000Y-96814137D01*
D38*
X118085227Y-80960000D02*
X118085227Y-80030000D01*
D36*
X115525227Y-79560000D02*
X114825227Y-80260000D01*
D35*
X130055000Y-100090000D02*
X129780000Y-100365000D01*
D37*
X131925000Y-96315000D02*
X131660000Y-96050000D01*
D38*
X116480227Y-83610000D02*
X115565227Y-83610000D01*
D33*
X134420000Y-99070000D02*
X134420000Y-98720000D01*
D32*
X132850000Y-96315000D02*
X132850000Y-96594999D01*
X120800000Y-88175000D02*
X121275000Y-88175000D01*
X122700559Y-92693569D02*
X122700559Y-92696898D01*
X122875000Y-88175000D02*
X123250000Y-88550000D01*
X121801056Y-92713889D02*
X121801056Y-92729679D01*
X119748412Y-92734602D02*
X119748412Y-92637095D01*
X119120002Y-91118741D02*
X119003842Y-91234901D01*
X120620002Y-90843012D02*
X120620002Y-91123011D01*
X132940873Y-96685872D02*
X133051735Y-96685872D01*
X118085227Y-80030000D02*
X117742927Y-80030000D01*
D38*
X116755227Y-83885000D02*
X116480227Y-83610000D01*
X118355227Y-81230000D02*
X118085227Y-80960000D01*
D36*
X115525227Y-79395000D02*
X115525227Y-79560000D01*
D32*
X131500000Y-107220000D02*
X131710000Y-107010000D01*
X119120002Y-90833012D02*
X119120002Y-91118741D01*
D37*
X132850000Y-96315000D02*
X131925000Y-96315000D01*
%TO.N,BOOT0*%
D33*
X111330000Y-96100000D02*
X111380000Y-96100000D01*
X112980000Y-100450000D02*
X113500000Y-100970000D01*
D32*
X132700000Y-110700000D02*
X132690000Y-110690000D01*
X132700000Y-109340000D02*
X132540000Y-109180000D01*
X132700000Y-110515000D02*
X132700000Y-109340000D01*
D33*
X111380000Y-96100000D02*
X111636700Y-96356700D01*
X111636700Y-96356700D02*
X111636700Y-97506700D01*
X111636700Y-97506700D02*
X112980000Y-98850000D01*
X112980000Y-98850000D02*
X112980000Y-100450000D01*
%TO.N,~{LED_PWR}*%
D32*
X109322200Y-94727800D02*
X109670000Y-94380000D01*
X109410000Y-98788714D02*
X109412871Y-98785843D01*
X133100000Y-110515000D02*
X133100000Y-109290000D01*
X133100000Y-109290000D02*
X133110000Y-109280000D01*
X109322200Y-95220633D02*
X109322200Y-94727800D01*
X109410000Y-95308433D02*
X109322200Y-95220633D01*
X109412871Y-98254157D02*
X109410000Y-98251286D01*
X109410000Y-98251286D02*
X109410000Y-95308433D01*
X110160000Y-100340000D02*
X109410000Y-99590000D01*
X109412871Y-98785843D02*
X109412871Y-98254157D01*
X109410000Y-99590000D02*
X109410000Y-98788714D01*
%TO.N,RS485_TX{slash}DOUT3*%
D33*
X110120000Y-107990000D02*
X111052200Y-107990000D01*
D32*
X108126400Y-96472033D02*
X108237800Y-96360633D01*
X108237800Y-96360633D02*
X108237800Y-91302200D01*
X132980000Y-111550000D02*
X131720000Y-111550000D01*
D33*
X111052200Y-107990000D02*
X112970000Y-109907800D01*
D32*
X109758434Y-101835188D02*
X108126400Y-100203154D01*
X133500000Y-111030000D02*
X132980000Y-111550000D01*
X131720000Y-111550000D02*
X131500000Y-111330000D01*
X133500000Y-110515000D02*
X133500000Y-111030000D01*
X108237800Y-91302200D02*
X109090000Y-90450000D01*
X108126400Y-100203154D02*
X108126400Y-96472033D01*
%TO.N,RS485_RX{slash}DIN3*%
X106950000Y-93660000D02*
X107080000Y-93790000D01*
X107080000Y-93790000D02*
X107080000Y-100375540D01*
X133900000Y-107805000D02*
X133900000Y-108650000D01*
X134880000Y-109630000D02*
X134880000Y-111730000D01*
X107410000Y-101070000D02*
X107940000Y-101070000D01*
X107074979Y-100380561D02*
X107074979Y-100734979D01*
X107074979Y-100734979D02*
X107410000Y-101070000D01*
X110086368Y-102644569D02*
X110312679Y-102870880D01*
X109514569Y-102644569D02*
X110086368Y-102644569D01*
X107080000Y-100375540D02*
X107074979Y-100380561D01*
X133900000Y-108650000D02*
X134880000Y-109630000D01*
X110312679Y-102870880D02*
X110312679Y-103060103D01*
X107940000Y-101070000D02*
X109514569Y-102644569D01*
%TO.N,/DVID converter\u002C NOR Flash/TVDD*%
D35*
X134020000Y-91800000D02*
X134020000Y-90315000D01*
X134020000Y-90315000D02*
X133865000Y-90160000D01*
%TO.N,XSPIM_P1_IO0*%
D33*
X130088982Y-96550347D02*
X130139782Y-96550347D01*
X130139782Y-96296347D02*
X130088982Y-96296347D01*
X132350000Y-97980000D02*
X132350000Y-98370000D01*
X130139782Y-96804347D02*
X130088982Y-96804347D01*
X130241382Y-97451382D02*
X130380000Y-97590000D01*
X130241382Y-97210747D02*
X130241382Y-97451382D01*
X130837200Y-97590000D02*
X130888000Y-97590000D01*
X130241382Y-95794988D02*
X130241382Y-96194747D01*
X130241382Y-96550347D02*
X130393782Y-96550347D01*
X129987382Y-96397947D02*
X129987382Y-96448747D01*
X130241382Y-97159947D02*
X130241382Y-97210747D01*
X130139782Y-96550347D02*
X130241382Y-96550347D01*
X130583200Y-97844000D02*
X130634000Y-97844000D01*
X129987382Y-96905947D02*
X129987382Y-96956747D01*
X131960000Y-97590000D02*
X132350000Y-97980000D01*
X130393782Y-96804347D02*
X130241382Y-96804347D01*
X130088982Y-97058347D02*
X130139782Y-97058347D01*
X130495382Y-96651947D02*
X130495382Y-96702747D01*
X130481600Y-97691600D02*
X130481600Y-97742400D01*
X131030000Y-97590000D02*
X131960000Y-97590000D01*
X130735600Y-97742400D02*
X130735600Y-97691600D01*
X130888000Y-97590000D02*
X131030000Y-97590000D01*
X130241382Y-96804347D02*
X130139782Y-96804347D01*
X130393782Y-96550347D02*
G75*
G02*
X130495353Y-96651947I18J-101553D01*
G01*
X130139782Y-97058347D02*
G75*
G02*
X130241353Y-97159947I18J-101553D01*
G01*
X130088982Y-96296347D02*
G75*
G03*
X129987447Y-96397947I18J-101553D01*
G01*
X130380000Y-97590000D02*
G75*
G02*
X130481600Y-97691600I0J-101600D01*
G01*
X130481600Y-97742400D02*
G75*
G03*
X130583200Y-97844000I101600J0D01*
G01*
X130735600Y-97691600D02*
G75*
G02*
X130837200Y-97590000I101600J0D01*
G01*
X129987382Y-96956747D02*
G75*
G03*
X130088982Y-97058318I101618J47D01*
G01*
X129987382Y-96448747D02*
G75*
G03*
X130088982Y-96550318I101618J47D01*
G01*
X130088982Y-96804347D02*
G75*
G03*
X129987447Y-96905947I18J-101553D01*
G01*
X130241382Y-96194747D02*
G75*
G02*
X130139782Y-96296282I-101582J47D01*
G01*
X130634000Y-97844000D02*
G75*
G03*
X130735600Y-97742400I0J101600D01*
G01*
X130495382Y-96702747D02*
G75*
G02*
X130393782Y-96804282I-101582J47D01*
G01*
%TO.N,/DVID converter\u002C NOR Flash/DVDD*%
D32*
X136600000Y-93830000D02*
X137014900Y-93830000D01*
X137014900Y-93830000D02*
X137080000Y-93895100D01*
%TO.N,LTDC_DE*%
D33*
X136387022Y-103087022D02*
X136345618Y-103087022D01*
X137750000Y-102410000D02*
X136990000Y-103170000D01*
X137750000Y-98310000D02*
X137750000Y-102410000D01*
X136990000Y-103170000D02*
X136470000Y-103170000D01*
X146040000Y-84420000D02*
X146920000Y-85300000D01*
X146920000Y-85300000D02*
X146920000Y-92810000D01*
X140420000Y-95640000D02*
X137750000Y-98310000D01*
X145550000Y-84420000D02*
X146040000Y-84420000D01*
X146920000Y-92810000D02*
X144090000Y-95640000D01*
X136470000Y-103170000D02*
X136387022Y-103087022D01*
X144090000Y-95640000D02*
X140420000Y-95640000D01*
%TO.N,LTDC_HSYNC*%
X127701397Y-85040000D02*
X130310000Y-85040000D01*
X115827315Y-87891226D02*
X115508044Y-87571956D01*
X115254900Y-95071340D02*
X115481567Y-94844673D01*
X137115544Y-85040000D02*
X137260000Y-85040000D01*
X116010000Y-91913290D02*
X115827315Y-91730604D01*
X115431630Y-96750000D02*
X115254900Y-96573270D01*
X115481567Y-94844673D02*
X115530214Y-94844673D01*
X137035544Y-84960000D02*
X137115544Y-85040000D01*
X116255662Y-96750000D02*
X115431630Y-96750000D01*
X130390000Y-84960000D02*
X137035544Y-84960000D01*
X116270520Y-96735142D02*
X116255662Y-96750000D01*
X115880812Y-94494075D02*
X115880812Y-94118996D01*
X115530214Y-94844673D02*
X115880812Y-94494075D01*
X115508044Y-87571956D02*
X115508044Y-86628044D01*
X115880812Y-94118996D02*
X116010000Y-93989808D01*
X115508044Y-86628044D02*
X115360000Y-86480000D01*
X127536297Y-85205100D02*
X127701397Y-85040000D01*
X115254900Y-96573270D02*
X115254900Y-95071340D01*
X115827315Y-91730604D02*
X115827315Y-87891226D01*
X116010000Y-93989808D02*
X116010000Y-91913290D01*
X130310000Y-85040000D02*
X130390000Y-84960000D01*
%TO.N,LTDC_VSYNC*%
X118690000Y-88270000D02*
X118690000Y-87470000D01*
X124574900Y-84364900D02*
X125020000Y-84810000D01*
X130359645Y-84630355D02*
X137138110Y-84630355D01*
X137138110Y-84630355D02*
X137249971Y-84518494D01*
X118609098Y-88189098D02*
X118690000Y-88270000D01*
X125020000Y-84810000D02*
X130180000Y-84810000D01*
X130180000Y-84810000D02*
X130359645Y-84630355D01*
X118690000Y-87470000D02*
X121795100Y-84364900D01*
X121795100Y-84364900D02*
X124574900Y-84364900D01*
%TO.N,Net-(IC8-CTL1{slash}A1{slash}DK1)*%
X140480000Y-78564800D02*
X140480000Y-78990000D01*
X140480000Y-78990000D02*
X140650000Y-79160000D01*
%TO.N,Net-(IC8-EDGE{slash}HTPLG)*%
X140480000Y-82460000D02*
X140480000Y-82120000D01*
X141060000Y-81540000D02*
X141060000Y-81190000D01*
X140480000Y-82120000D02*
X141060000Y-81540000D01*
%TO.N,Net-(IC8-~{PD})*%
X135310000Y-80210000D02*
X135310000Y-79698718D01*
X135310000Y-79698718D02*
X135252221Y-79640939D01*
%TO.N,Net-(IC8-ISEL{slash}~{RST})*%
X135310000Y-81490000D02*
X135250000Y-81550000D01*
X135250000Y-81550000D02*
X135250000Y-82150000D01*
%TO.N,Net-(IC8-DSEL{slash}SDA)*%
X140492683Y-85020000D02*
X140492683Y-84545000D01*
X138140000Y-84111108D02*
X138140000Y-84040000D01*
X140492683Y-84545000D02*
X140341762Y-84394079D01*
X138494079Y-84394079D02*
X138140000Y-84040000D01*
X140341762Y-84394079D02*
X138494079Y-84394079D01*
%TO.N,Net-(IC8-BSEL{slash}SCL)*%
X140489214Y-83740000D02*
X140489214Y-83329214D01*
X137950000Y-83070000D02*
X137780000Y-83240000D01*
X140230000Y-83070000D02*
X137950000Y-83070000D01*
X140489214Y-83329214D02*
X140230000Y-83070000D01*
%TO.N,Net-(IC8-DKEN)*%
X139545776Y-94724224D02*
X140840000Y-93430000D01*
X140840000Y-92460000D02*
X140520000Y-92140000D01*
X139165975Y-94724224D02*
X139545776Y-94724224D01*
X140520000Y-92130000D02*
X140450000Y-92060000D01*
X140840000Y-93430000D02*
X140840000Y-92460000D01*
X140520000Y-92140000D02*
X140520000Y-92130000D01*
X140450000Y-92060000D02*
X140450000Y-91490000D01*
%TO.N,LTDC_R7*%
X138814379Y-93079885D02*
X138810000Y-93075506D01*
%TO.N,LTDC_R3*%
X140135620Y-94947800D02*
X136730000Y-98353420D01*
X140855236Y-94675236D02*
X140675554Y-94675236D01*
X140402990Y-94947800D02*
X140135620Y-94947800D01*
X140675554Y-94675236D02*
X140402990Y-94947800D01*
X136730000Y-98353420D02*
X136730000Y-100710000D01*
%TO.N,LTDC_B7*%
X141815000Y-95405000D02*
X140325000Y-95405000D01*
X137520000Y-98210000D02*
X137520000Y-98480000D01*
X146005100Y-89414900D02*
X146005100Y-91214900D01*
X137517500Y-98482500D02*
X137517500Y-102290024D01*
X146030000Y-89390000D02*
X146005100Y-89414900D01*
X137520000Y-98480000D02*
X137517500Y-98482500D01*
X146005100Y-91214900D02*
X141815000Y-95405000D01*
X137046008Y-102761516D02*
X136753190Y-102761516D01*
X140325000Y-95405000D02*
X137520000Y-98210000D01*
X137517500Y-102290024D02*
X137046008Y-102761516D01*
%TO.N,LTDC_CLK*%
X137263500Y-98143210D02*
X137263500Y-102013552D01*
X145540000Y-90589528D02*
X140989528Y-95140000D01*
X140500311Y-95176400D02*
X140230310Y-95176400D01*
X140536711Y-95140000D02*
X140500311Y-95176400D01*
X140989528Y-95140000D02*
X140536711Y-95140000D01*
X145540000Y-88120000D02*
X145540000Y-90589528D01*
X140230310Y-95176400D02*
X137263500Y-98143210D01*
X137263500Y-102013552D02*
X136983526Y-102293526D01*
%TO.N,LTDC_B0*%
X137257264Y-95007129D02*
X137570000Y-94694393D01*
X137570000Y-94694393D02*
X137570000Y-85865100D01*
X137570000Y-85865100D02*
X137434900Y-85730000D01*
X137250207Y-95007129D02*
X137257264Y-95007129D01*
%TO.N,REAR_DVID_CEC*%
X124880000Y-77860000D02*
X124300000Y-77280000D01*
X124300000Y-77280000D02*
X124300000Y-76595000D01*
X137253900Y-77860000D02*
X124880000Y-77860000D01*
%TO.N,REAR_DVID_HPD*%
X136920000Y-77610000D02*
X125018000Y-77610000D01*
X124700000Y-77292000D02*
X124700000Y-76595000D01*
X137280000Y-77250000D02*
X136920000Y-77610000D01*
X125018000Y-77610000D02*
X124700000Y-77292000D01*
X138413900Y-77250000D02*
X137280000Y-77250000D01*
%TO.N,REAR_DVID_SDA*%
X134130000Y-75660000D02*
X138710000Y-75660000D01*
X139303096Y-76253096D02*
X139303096Y-76504932D01*
X133900000Y-76595000D02*
X133900000Y-75890000D01*
X138710000Y-75660000D02*
X139303096Y-76253096D01*
X133900000Y-75890000D02*
X134130000Y-75660000D01*
%TO.N,REAR_DVID_SCL*%
D32*
X133900000Y-73885000D02*
X133900000Y-74367400D01*
X134332600Y-74800000D02*
X138813900Y-74800000D01*
X133900000Y-74367400D02*
X134332600Y-74800000D01*
%TO.N,XSPIM_P2_CLK*%
D33*
X117930000Y-89950000D02*
X118299112Y-90319112D01*
X117930000Y-88410000D02*
X117930000Y-89950000D01*
X114570000Y-82090000D02*
X114570000Y-85050000D01*
X119520935Y-90319112D02*
X119805147Y-90034900D01*
X114570000Y-85050000D02*
X117930000Y-88410000D01*
X118299112Y-90319112D02*
X119520935Y-90319112D01*
%TO.N,XSPIM_P2_DQS0*%
X117317884Y-86992357D02*
X117281962Y-87028278D01*
X118036315Y-87710787D02*
X118000393Y-87746708D01*
X118215921Y-87746709D02*
X118179999Y-87710787D01*
X117748943Y-87638942D02*
X117748942Y-87638942D01*
X117461569Y-87207884D02*
X117497490Y-87171963D01*
X115089127Y-81747947D02*
X114906355Y-81565175D01*
X117389728Y-87279727D02*
X117389727Y-87279727D01*
X117497490Y-87028279D02*
X117461568Y-86992357D01*
X117138278Y-87028278D02*
X117102358Y-86992358D01*
X117765207Y-87872996D02*
X117694496Y-87802285D01*
X117856705Y-87387494D02*
X117820783Y-87351572D01*
X117677099Y-87351572D02*
X117569335Y-87459335D01*
X118000393Y-87746708D02*
X117928550Y-87818550D01*
X116960000Y-86850000D02*
X115089127Y-84979127D01*
X117928550Y-87818550D02*
X117874101Y-87872996D01*
X115089127Y-84979127D02*
X115089127Y-81747947D01*
X118305100Y-89628367D02*
X118305100Y-88195100D01*
X118305100Y-88195100D02*
X118180000Y-88070000D01*
X117102358Y-86992358D02*
X116960000Y-86850000D01*
X117748942Y-87638942D02*
X117856705Y-87531178D01*
X117405992Y-87513781D02*
X117335281Y-87443070D01*
X117694497Y-87693391D02*
X117748943Y-87638942D01*
X117335282Y-87334176D02*
X117389728Y-87279727D01*
X118180000Y-87926315D02*
X118215921Y-87890393D01*
X117389727Y-87279727D02*
X117461569Y-87207884D01*
X117569335Y-87459335D02*
X117514886Y-87513781D01*
X117497490Y-87171963D02*
G75*
G03*
X117497511Y-87028258I-71890J71863D01*
G01*
X117281962Y-87028278D02*
G75*
G02*
X117138278Y-87028278I-71842J71842D01*
G01*
X117335281Y-87443070D02*
G75*
G02*
X117335258Y-87334152I54419J54470D01*
G01*
X117874101Y-87872996D02*
G75*
G02*
X117765207Y-87872996I-54447J54446D01*
G01*
X117820783Y-87351572D02*
G75*
G03*
X117677099Y-87351572I-71842J-71842D01*
G01*
X117514886Y-87513781D02*
G75*
G02*
X117405992Y-87513781I-54447J54446D01*
G01*
X118179999Y-87710787D02*
G75*
G03*
X118036315Y-87710787I-71842J-71842D01*
G01*
X118180000Y-88070000D02*
G75*
G02*
X118180042Y-87926358I71800J71800D01*
G01*
X117856705Y-87531178D02*
G75*
G03*
X117856741Y-87387458I-71805J71878D01*
G01*
X118215921Y-87890393D02*
G75*
G03*
X118215872Y-87746758I-71821J71793D01*
G01*
X117694496Y-87802285D02*
G75*
G02*
X117694458Y-87693352I54404J54485D01*
G01*
X117461568Y-86992357D02*
G75*
G03*
X117317884Y-86992357I-71842J-71842D01*
G01*
%TO.N,VMUX_EN*%
X128650000Y-99830000D02*
X128053526Y-100426474D01*
X123550000Y-85875000D02*
X127545000Y-89870000D01*
X127545000Y-89870000D02*
X127545000Y-93385000D01*
X127545000Y-93385000D02*
X128650000Y-94490000D01*
X128053526Y-100426474D02*
X128046474Y-100426474D01*
X123550000Y-85870000D02*
X123550000Y-85875000D01*
X128650000Y-94490000D02*
X128650000Y-99830000D01*
%TO.N,DVID_HPD*%
X137460000Y-82880000D02*
X137880000Y-82460000D01*
X136560000Y-82880000D02*
X137460000Y-82880000D01*
X116385607Y-91936088D02*
X116356088Y-91936088D01*
X116060000Y-87501894D02*
X115883144Y-87325038D01*
X116060000Y-91640000D02*
X116060000Y-87501894D01*
X137880000Y-82460000D02*
X138930000Y-82460000D01*
X116356088Y-91936088D02*
X116060000Y-91640000D01*
%TO.N,DVID_CEC*%
X117297802Y-102432198D02*
X117297802Y-102921651D01*
X137230000Y-96540000D02*
X138020000Y-95750000D01*
X117630000Y-102100000D02*
X117297802Y-102432198D01*
X127020000Y-103510000D02*
X127270000Y-103510000D01*
X124355100Y-103064900D02*
X126574900Y-103064900D01*
X138020000Y-95750000D02*
X138020000Y-95130000D01*
X123410000Y-104010000D02*
X124355100Y-103064900D01*
X117936151Y-103560000D02*
X118080000Y-103560000D01*
X138020000Y-95130000D02*
X137810000Y-94920000D01*
X126574900Y-103064900D02*
X127020000Y-103510000D01*
X117297802Y-102921651D02*
X117936151Y-103560000D01*
X137810000Y-94920000D02*
X137810000Y-85310000D01*
X120490000Y-104010000D02*
X123410000Y-104010000D01*
%TO.N,VMUX_SEL*%
X131908600Y-85335100D02*
X131921356Y-85335100D01*
X130670000Y-96100000D02*
X130670000Y-86573700D01*
X130670000Y-86573700D02*
X131908600Y-85335100D01*
%TO.N,Net-(IC9-HPD_A)*%
X132800000Y-82420000D02*
X132850000Y-82470000D01*
X132470000Y-82420000D02*
X132800000Y-82420000D01*
%TO.N,REAR_DVID_CLK_N*%
X131900000Y-73700000D02*
X131890000Y-73710000D01*
X131890000Y-73710000D02*
X131890000Y-74591500D01*
X131890000Y-74591500D02*
X131988500Y-74690000D01*
%TO.N,REAR_DVID_CLK_P*%
X131490000Y-73710000D02*
X131490000Y-74611500D01*
X131490000Y-74611500D02*
X131411500Y-74690000D01*
%TO.N,REAR_DVID_TX0_N*%
X130690000Y-73710000D02*
X130690000Y-74601500D01*
X130690000Y-74601500D02*
X130788500Y-74700000D01*
X130700000Y-73700000D02*
X130690000Y-73710000D01*
%TO.N,REAR_DVID_TX0_P*%
X130300000Y-74611500D02*
X130211500Y-74700000D01*
X130300000Y-73700000D02*
X130300000Y-74611500D01*
%TO.N,REAR_DVID_TX1_N*%
X129500000Y-74601277D02*
X129588500Y-74689777D01*
X129500000Y-73700000D02*
X129500000Y-74601277D01*
%TO.N,REAR_DVID_TX1_P*%
X129100000Y-74601277D02*
X129011500Y-74689777D01*
X129100000Y-73700000D02*
X129100000Y-74601277D01*
%TO.N,REAR_DVID_TX2_N*%
X128300000Y-73700000D02*
X128300000Y-74598084D01*
X128300000Y-74598084D02*
X128388500Y-74686584D01*
%TO.N,REAR_DVID_TX2_P*%
X127900000Y-73700000D02*
X127900000Y-74598084D01*
X127900000Y-74598084D02*
X127811500Y-74686584D01*
%TO.N,TFT_DVID_CLK_N*%
X127100000Y-74601228D02*
X127188500Y-74689728D01*
X127100000Y-73700000D02*
X127100000Y-74601228D01*
%TO.N,TFT_DVID_CLK_P*%
X126700000Y-74601228D02*
X126611500Y-74689728D01*
X126700000Y-73700000D02*
X126700000Y-74601228D01*
%TO.N,TFT_DVID_TX0_N*%
X125900000Y-74602002D02*
X125988500Y-74690502D01*
X125900000Y-73700000D02*
X125900000Y-74602002D01*
%TO.N,TFT_DVID_TX0_P*%
X125500000Y-74602002D02*
X125411500Y-74690502D01*
X125500000Y-73700000D02*
X125500000Y-74602002D01*
%TO.N,TFT_DVID_TX1_N*%
X124700000Y-74593286D02*
X124788500Y-74681786D01*
X124700000Y-73700000D02*
X124700000Y-74593286D01*
%TO.N,TFT_DVID_TX1_P*%
X124300000Y-74593286D02*
X124211500Y-74681786D01*
X124300000Y-73700000D02*
X124300000Y-74593286D01*
%TO.N,TFT_DVID_TX2_N*%
X123500000Y-74569109D02*
X123588500Y-74657609D01*
X123500000Y-73700000D02*
X123500000Y-74569109D01*
%TO.N,TFT_DVID_TX2_P*%
X123100000Y-74569109D02*
X123011500Y-74657609D01*
X123100000Y-73700000D02*
X123100000Y-74569109D01*
%TO.N,SDMMC_D2*%
D32*
X96790000Y-90985194D02*
X96324806Y-90985194D01*
X96324806Y-90985194D02*
X96320000Y-90990000D01*
%TO.N,SDMMC_D3*%
X96790000Y-89885194D02*
X96334806Y-89885194D01*
X96334806Y-89885194D02*
X96320000Y-89900000D01*
%TO.N,SDMMC_CMD*%
X96344806Y-88785194D02*
X96340000Y-88790000D01*
X96790000Y-88785194D02*
X96344806Y-88785194D01*
%TO.N,SDMMC_D0*%
X96790000Y-84385194D02*
X96325194Y-84385194D01*
X96325194Y-84385194D02*
X96320000Y-84380000D01*
%TO.N,SDMMC_D1*%
X96325194Y-83285194D02*
X96320000Y-83280000D01*
X96790000Y-83285194D02*
X96325194Y-83285194D01*
%TO.N,/Ethernet PHY\u002C PSRAM\u002C SDcard/+3V3_LAN*%
X101840000Y-102670000D02*
X101840000Y-102334508D01*
X101585492Y-102080000D02*
X101165492Y-101660000D01*
X103060000Y-107870000D02*
X102260000Y-107870000D01*
X102260000Y-107870000D02*
X101220000Y-106830000D01*
X101840000Y-102670000D02*
X101810000Y-102670000D01*
X101840000Y-102334508D02*
X101585492Y-102080000D01*
%TO.N,MCU_USB_ID*%
D33*
X110740200Y-86189800D02*
X111600000Y-85330000D01*
X110595039Y-93178185D02*
X110740200Y-93033024D01*
X114300000Y-76595000D02*
X114300000Y-78230000D01*
X110740200Y-93033024D02*
X110740200Y-86189800D01*
X114471124Y-94658928D02*
X114472071Y-94657981D01*
X114472071Y-94657981D02*
X114472071Y-94602398D01*
X114300000Y-78230000D02*
X114280000Y-78250000D01*
%TO.N,/CM5 socket/USB2-*%
D39*
X114747600Y-76857600D02*
X114747600Y-77233126D01*
X114747600Y-77233126D02*
X115167599Y-77653125D01*
X115167599Y-77778901D02*
X115046500Y-77900000D01*
X114700000Y-76810000D02*
X114747600Y-76857600D01*
X114700000Y-76595000D02*
X114700000Y-76810000D01*
X115167599Y-77653125D02*
X115167599Y-77778901D01*
%TO.N,/CM5 socket/USB2+*%
X115100000Y-76810000D02*
X115052400Y-76857600D01*
X115472401Y-77778901D02*
X115593500Y-77900000D01*
X115052400Y-77106874D02*
X115472401Y-77526875D01*
X115472401Y-77526875D02*
X115472401Y-77778901D01*
X115100000Y-76595000D02*
X115100000Y-76810000D01*
X115052400Y-76857600D02*
X115052400Y-77106874D01*
%TO.N,MCU_USB_VBUS*%
D33*
X116300000Y-76595000D02*
X116300000Y-77190000D01*
X110365100Y-92710000D02*
X110365100Y-85954900D01*
X116300000Y-77190000D02*
X116100000Y-77390000D01*
X110365100Y-85954900D02*
X111010000Y-85310000D01*
%TO.N,USB_FS_D+*%
D39*
X120382648Y-72793700D02*
X120100000Y-72793700D01*
X119673280Y-73052780D02*
X119673280Y-72915620D01*
X112402400Y-73783126D02*
X112402400Y-82236874D01*
X118655834Y-72793700D02*
X113391826Y-72793700D01*
X118941760Y-72793700D02*
X118880800Y-72793700D01*
X119246560Y-73174700D02*
X119185600Y-73174700D01*
X112982400Y-82816874D02*
X112982400Y-93866874D01*
X119978080Y-72915620D02*
X119978080Y-73052780D01*
X114057401Y-94941875D02*
X114057401Y-95187401D01*
X119063680Y-73052780D02*
X119063680Y-72915620D01*
X119551360Y-72793700D02*
X119490400Y-72793700D01*
X114057401Y-95187401D02*
X114180000Y-95310000D01*
X120747600Y-73329600D02*
X120747600Y-73158652D01*
X112402400Y-82236874D02*
X112982400Y-82816874D01*
X119856160Y-73174700D02*
X119795200Y-73174700D01*
X112982400Y-93866874D02*
X114057401Y-94941875D01*
X118880800Y-72793700D02*
X118655834Y-72793700D01*
X120700000Y-73885000D02*
X120700000Y-73377200D01*
X120700000Y-73377200D02*
X120747600Y-73329600D01*
X120747600Y-73158652D02*
X120382648Y-72793700D01*
X113391826Y-72793700D02*
X112402400Y-73783126D01*
X119368480Y-72915620D02*
X119368480Y-73052780D01*
X119063680Y-72915620D02*
G75*
G03*
X118941760Y-72793720I-121880J20D01*
G01*
X120100000Y-72793700D02*
G75*
G03*
X119978100Y-72915620I0J-121900D01*
G01*
X119673280Y-72915620D02*
G75*
G03*
X119551360Y-72793720I-121880J20D01*
G01*
X119978080Y-73052780D02*
G75*
G02*
X119856160Y-73174680I-121880J-20D01*
G01*
X119185600Y-73174700D02*
G75*
G02*
X119063700Y-73052780I0J121900D01*
G01*
X119368480Y-73052780D02*
G75*
G02*
X119246560Y-73174680I-121880J-20D01*
G01*
X119795200Y-73174700D02*
G75*
G02*
X119673300Y-73052780I0J121900D01*
G01*
X119490400Y-72793700D02*
G75*
G03*
X119368500Y-72915620I0J-121900D01*
G01*
%TO.N,USB_FS_D-*%
X112677600Y-93993126D02*
X112677600Y-82943126D01*
X112677600Y-82943126D02*
X112097600Y-82363126D01*
X113752599Y-95068125D02*
X112677600Y-93993126D01*
X112097600Y-73656874D02*
X113265574Y-72488900D01*
X113630000Y-95310000D02*
X113752599Y-95187401D01*
X113265574Y-72488900D02*
X120508900Y-72488900D01*
X113752599Y-95187401D02*
X113752599Y-95068125D01*
X121052400Y-73032400D02*
X121052400Y-73342399D01*
X112097600Y-82363126D02*
X112097600Y-73656874D01*
X121100000Y-73389999D02*
X121100000Y-73885000D01*
X120508900Y-72488900D02*
X121052400Y-73032400D01*
X121052400Y-73342399D02*
X121100000Y-73389999D01*
%TO.N,/CM5 socket/USB3_1_D+*%
X123810000Y-75560000D02*
X117524733Y-75560000D01*
X124342000Y-75560000D02*
X124088000Y-75560000D01*
X126700000Y-76595000D02*
X126700000Y-76099999D01*
X126747600Y-76052399D02*
X126747600Y-75893126D01*
X125866000Y-75814000D02*
X125612000Y-75814000D01*
X126414474Y-75560000D02*
X126120000Y-75560000D01*
X124850000Y-75814000D02*
X124596000Y-75814000D01*
X125358000Y-75560000D02*
X125104000Y-75560000D01*
X124088000Y-75560000D02*
X123810000Y-75560000D01*
X126747600Y-75893126D02*
X126414474Y-75560000D01*
X126700000Y-76099999D02*
X126747600Y-76052399D01*
X125104000Y-75560000D02*
G75*
G03*
X124977000Y-75687000I0J-127000D01*
G01*
X124469000Y-75687000D02*
G75*
G03*
X124342000Y-75560000I-127000J0D01*
G01*
X124596000Y-75814000D02*
G75*
G02*
X124469000Y-75687000I0J127000D01*
G01*
X125485000Y-75687000D02*
G75*
G03*
X125358000Y-75560000I-127000J0D01*
G01*
X126120000Y-75560000D02*
G75*
G03*
X125993000Y-75687000I0J-127000D01*
G01*
X124977000Y-75687000D02*
G75*
G02*
X124850000Y-75814000I-127000J0D01*
G01*
X125993000Y-75687000D02*
G75*
G02*
X125866000Y-75814000I-127000J0D01*
G01*
X125612000Y-75814000D02*
G75*
G02*
X125485000Y-75687000I0J127000D01*
G01*
%TO.N,/CM5 socket/USB3_1_D-*%
X127100000Y-75814474D02*
X126531259Y-75245733D01*
X126531259Y-75245733D02*
X117049716Y-75245733D01*
X117049716Y-75245733D02*
X116776950Y-75518499D01*
X127100000Y-76595000D02*
X127100000Y-75814474D01*
%TO.N,USB_HS_D+*%
X113829703Y-93174771D02*
X113829703Y-93655291D01*
X113829703Y-93655291D02*
X113639407Y-93845587D01*
X113835200Y-93169274D02*
X113829703Y-93174771D01*
X112907600Y-76056874D02*
X112907600Y-81533126D01*
X113386606Y-75386606D02*
X113386606Y-75577868D01*
X113835200Y-82460726D02*
X113835200Y-93169274D01*
X112907600Y-81533126D02*
X113835200Y-82460726D01*
X113386606Y-75577868D02*
X112907600Y-76056874D01*
%TO.N,USB_HS_D-*%
X113212400Y-81406874D02*
X113212400Y-76183126D01*
X114232340Y-93753126D02*
X114134505Y-93655291D01*
X114134505Y-93301021D02*
X114140000Y-93295526D01*
X114140000Y-93295526D02*
X114140000Y-82334474D01*
X114140000Y-82334474D02*
X113212400Y-81406874D01*
X113212400Y-76183126D02*
X113567763Y-75827763D01*
X114134505Y-93655291D02*
X114134505Y-93301021D01*
%TO.N,Net-(IC6-LED2{slash}NINT{slash}NPME{slash}NINTSEL)*%
D32*
X108630000Y-111060000D02*
X108270000Y-111060000D01*
X108270000Y-111060000D02*
X108260000Y-111050000D01*
%TO.N,Net-(IC6-XTAL2)*%
X104856118Y-107390418D02*
X104775700Y-107310000D01*
X104675700Y-108900000D02*
X105500000Y-108900000D01*
X105570000Y-107429369D02*
X105531049Y-107390418D01*
X105570000Y-108830000D02*
X105570000Y-107429369D01*
X105500000Y-108900000D02*
X105570000Y-108830000D01*
X105531049Y-107390418D02*
X104856118Y-107390418D01*
%TO.N,Net-(IC6-XTAL1{slash}CLKIN)*%
X106214673Y-107310000D02*
X106775700Y-107310000D01*
X105971500Y-109595800D02*
X105971500Y-107553173D01*
X106775700Y-107310000D02*
X106775700Y-107174300D01*
X105971500Y-107553173D02*
X106214673Y-107310000D01*
X106875700Y-110500000D02*
X105971500Y-109595800D01*
%TO.N,ETH_RX_ERR*%
X107350800Y-98730792D02*
X107353671Y-98733663D01*
X107620000Y-102870000D02*
X107770000Y-103020000D01*
X107353671Y-100432086D02*
X107462779Y-100541194D01*
X107353671Y-97576329D02*
X107353671Y-98406655D01*
X107353671Y-98733663D02*
X107353671Y-100432086D01*
X107560000Y-86870000D02*
X107360000Y-87070000D01*
X107360000Y-87070000D02*
X107360000Y-97570000D01*
X105320000Y-102870000D02*
X107620000Y-102870000D01*
X107360000Y-97570000D02*
X107353671Y-97576329D01*
X107353671Y-98406655D02*
X107350800Y-98409526D01*
X107350800Y-98409526D02*
X107350800Y-98730792D01*
%TO.N,ETH_MDC*%
X106671868Y-99925724D02*
X106587522Y-99925724D01*
%TO.N,/STM32H7 MCU/VDD_SDC*%
D35*
X116850000Y-102480000D02*
X116850000Y-101620000D01*
D32*
X115901498Y-95003861D02*
X115904900Y-95000459D01*
D33*
X116347202Y-101983012D02*
X116486988Y-101983012D01*
X116486988Y-101983012D02*
X116850000Y-101620000D01*
D32*
X115779153Y-95003861D02*
X115901498Y-95003861D01*
X116720000Y-96983010D02*
X116720000Y-96509002D01*
X116720000Y-96509002D02*
X116460280Y-96249282D01*
X116900002Y-97163012D02*
X116720000Y-96983010D01*
%TO.N,/STM32H7 MCU/VDDSMPS*%
D33*
X119830002Y-101313012D02*
X119336713Y-101313012D01*
X121451238Y-101176776D02*
X121256059Y-101176776D01*
X121256059Y-101176776D02*
X121250092Y-101170809D01*
X119336713Y-101313012D02*
X119281498Y-101368227D01*
X121470002Y-101158012D02*
X121451238Y-101176776D01*
%TO.N,Net-(IC5C-VSSA)*%
D35*
X118760002Y-98123012D02*
X117836988Y-98123012D01*
D34*
X117480000Y-98120000D02*
X117820000Y-98120000D01*
D33*
X117820000Y-98120000D02*
X117830000Y-98130000D01*
%TO.N,/STM32H7 MCU/RCC_OSC_IN*%
X121028908Y-100368243D02*
X121029048Y-100368383D01*
X123660000Y-101220000D02*
X123660000Y-100690000D01*
X121028908Y-100368243D02*
X121028908Y-100368467D01*
X121035925Y-100356024D02*
X121035530Y-100355629D01*
X123670000Y-100680000D02*
X123415000Y-100680000D01*
D32*
X121028908Y-100368243D02*
X121029048Y-100368383D01*
X121028919Y-100368375D02*
X121028482Y-100368812D01*
D33*
X123185000Y-100450000D02*
X121297459Y-100450000D01*
X121204271Y-100356812D02*
X121050612Y-100356812D01*
D32*
X121029207Y-100368511D02*
X121029248Y-100368511D01*
X121033106Y-100364653D02*
X121029248Y-100368511D01*
X121029465Y-100368062D02*
X121029048Y-100367645D01*
X121033106Y-100341260D02*
X121033106Y-100364653D01*
D33*
X121029000Y-100368375D02*
X121028919Y-100368375D01*
X121031924Y-100358366D02*
X121031924Y-100365835D01*
X125450000Y-101170000D02*
X124960000Y-100680000D01*
D32*
X121029000Y-100368375D02*
X121028908Y-100368467D01*
X121028908Y-100368243D02*
X121028908Y-100368467D01*
D33*
X121297459Y-100450000D02*
X121204271Y-100356812D01*
X121029207Y-100368511D02*
X121029656Y-100368062D01*
D32*
X121029048Y-100367645D02*
X121029048Y-100368383D01*
D33*
X121029465Y-100368062D02*
X121029656Y-100368062D01*
D32*
X121029207Y-100368511D02*
X121029656Y-100368062D01*
D33*
X121031924Y-100365835D02*
X121029248Y-100368511D01*
X121029207Y-100368511D02*
X121029248Y-100368511D01*
X121035530Y-100355629D02*
X121034661Y-100355629D01*
X124960000Y-100680000D02*
X123670000Y-100680000D01*
X121029465Y-100368062D02*
X121029048Y-100367645D01*
D32*
X121029465Y-100368062D02*
X121029656Y-100368062D01*
D33*
X123660000Y-100690000D02*
X123670000Y-100680000D01*
X123415000Y-100680000D02*
X123185000Y-100450000D01*
X121029000Y-100368375D02*
X121028908Y-100368467D01*
X125450000Y-101270000D02*
X125450000Y-101170000D01*
X121029048Y-100367645D02*
X121029048Y-100368383D01*
D32*
X121029000Y-100368375D02*
X121028919Y-100368375D01*
D33*
X121028919Y-100368375D02*
X121028482Y-100368812D01*
X121050612Y-100356812D02*
X121049824Y-100356024D01*
X121049824Y-100356024D02*
X121035925Y-100356024D01*
X121034661Y-100355629D02*
X121031924Y-100358366D01*
%TO.N,/STM32H7 MCU/RCC_OSC_OUT*%
X121233043Y-99887630D02*
X121232679Y-99887630D01*
X121231962Y-99888347D02*
X121231515Y-99888347D01*
X121232679Y-99887630D02*
X121231962Y-99888347D01*
X126183900Y-99936100D02*
X124686100Y-99936100D01*
X123740000Y-99230000D02*
X123740000Y-99530000D01*
X124390000Y-99530000D02*
X123740000Y-99530000D01*
X124610000Y-99750000D02*
X124390000Y-99530000D01*
X123740000Y-99530000D02*
X122400000Y-99530000D01*
X127050000Y-99070000D02*
X126183900Y-99936100D01*
X122224533Y-99705467D02*
X121415206Y-99705467D01*
X124610000Y-99860000D02*
X124610000Y-99750000D01*
X124686100Y-99936100D02*
X124610000Y-99860000D01*
X122400000Y-99530000D02*
X122224533Y-99705467D01*
X121415206Y-99705467D02*
X121233043Y-99887630D01*
%TO.N,Net-(IC5C-VREFM)*%
D35*
X121620000Y-98120000D02*
X120701988Y-98120000D01*
%TO.N,Net-(JP2-PadNO)*%
D33*
X132470000Y-81480000D02*
X133750000Y-81480000D01*
X133750000Y-81480000D02*
X133760000Y-81490000D01*
%TO.N,Net-(JP3-PadNO)*%
D32*
X143172926Y-83740000D02*
X142039214Y-83740000D01*
%TO.N,Net-(JP4-PadNO)*%
X143172926Y-85020000D02*
X142042683Y-85020000D01*
%TO.N,Net-(JP8-PadNO)*%
X142030000Y-82460000D02*
X143172926Y-82460000D01*
%TD*%
%TA.AperFunction,Conductor*%
%TO.N,/STM32H7 MCU/VLXSMPS*%
G36*
X118700635Y-100219213D02*
G01*
X118737180Y-100269513D01*
X118742104Y-100300600D01*
X118742104Y-100342767D01*
X118767855Y-100438871D01*
X118767855Y-100438872D01*
X118795163Y-100486169D01*
X118808090Y-100546985D01*
X118782802Y-100603784D01*
X118779177Y-100607603D01*
X118759611Y-100627169D01*
X118711829Y-100709928D01*
X118711829Y-100709929D01*
X118687100Y-100802218D01*
X118687100Y-100897781D01*
X118711829Y-100990070D01*
X118711829Y-100990071D01*
X118711831Y-100990074D01*
X118759608Y-101072826D01*
X118827174Y-101140392D01*
X118881280Y-101171630D01*
X118922883Y-101217835D01*
X118929382Y-101279668D01*
X118928153Y-101284787D01*
X118918598Y-101320447D01*
X118918598Y-101416008D01*
X118943327Y-101508297D01*
X118943327Y-101508298D01*
X118943329Y-101508301D01*
X118991106Y-101591053D01*
X118991108Y-101591055D01*
X119058672Y-101658619D01*
X119060636Y-101660126D01*
X119061640Y-101661587D01*
X119063335Y-101663282D01*
X119063021Y-101663595D01*
X119095855Y-101711363D01*
X119100000Y-101739941D01*
X119100000Y-102133812D01*
X119080787Y-102192943D01*
X119070535Y-102204947D01*
X118946545Y-102328936D01*
X118946543Y-102328939D01*
X118913600Y-102408471D01*
X118913600Y-102799400D01*
X118908676Y-102814554D01*
X118908676Y-102830487D01*
X118899310Y-102843377D01*
X118894387Y-102858531D01*
X118881496Y-102867896D01*
X118872131Y-102880787D01*
X118856977Y-102885710D01*
X118844087Y-102895076D01*
X118813000Y-102900000D01*
X118796672Y-102900000D01*
X118746372Y-102886522D01*
X118677453Y-102846731D01*
X118677448Y-102846729D01*
X118585159Y-102822000D01*
X118585155Y-102822000D01*
X118489601Y-102822000D01*
X118489596Y-102822000D01*
X118397307Y-102846729D01*
X118397302Y-102846731D01*
X118328384Y-102886522D01*
X118278084Y-102900000D01*
X118163908Y-102900000D01*
X118144284Y-102898067D01*
X118117774Y-102892794D01*
X118063528Y-102862413D01*
X118037499Y-102805949D01*
X118036802Y-102794127D01*
X118036802Y-102718089D01*
X118036801Y-102718083D01*
X118012072Y-102625794D01*
X118012072Y-102625793D01*
X118012071Y-102625791D01*
X117964294Y-102543039D01*
X117929465Y-102508210D01*
X117925779Y-102500976D01*
X117919213Y-102496206D01*
X117911933Y-102473800D01*
X117901239Y-102452812D01*
X117900000Y-102437075D01*
X117900000Y-102383550D01*
X117917752Y-102328914D01*
X117917095Y-102328535D01*
X117918880Y-102325442D01*
X117919213Y-102324419D01*
X117920352Y-102322892D01*
X117920387Y-102322830D01*
X117920392Y-102322826D01*
X117968169Y-102240074D01*
X117992900Y-102147777D01*
X117992900Y-102052223D01*
X117982122Y-102012000D01*
X117968170Y-101959929D01*
X117968170Y-101959928D01*
X117943122Y-101916544D01*
X117920392Y-101877174D01*
X117920389Y-101877171D01*
X117917095Y-101871465D01*
X117918328Y-101870752D01*
X117900034Y-101819070D01*
X117900000Y-101816449D01*
X117900000Y-100463908D01*
X117901933Y-100444282D01*
X117915431Y-100376424D01*
X117930452Y-100340160D01*
X117956885Y-100300600D01*
X117963279Y-100291030D01*
X117991030Y-100263279D01*
X118040160Y-100230451D01*
X118076424Y-100215431D01*
X118144282Y-100201933D01*
X118163908Y-100200000D01*
X118641504Y-100200000D01*
X118700635Y-100219213D01*
G37*
%TD.AperFunction*%
%TD*%
%TA.AperFunction,Conductor*%
%TO.N,+5V*%
G36*
X131266810Y-109801236D02*
G01*
X131361001Y-109816155D01*
X131390930Y-109825880D01*
X131468749Y-109865531D01*
X131494212Y-109884031D01*
X131555968Y-109945787D01*
X131574468Y-109971250D01*
X131614118Y-110049066D01*
X131623844Y-110079001D01*
X131632712Y-110134992D01*
X131632124Y-110164980D01*
X131632584Y-110165026D01*
X131632100Y-110169939D01*
X131632100Y-110769081D01*
X131630854Y-110784862D01*
X131623752Y-110829574D01*
X131613972Y-110859584D01*
X131587028Y-110912291D01*
X131543006Y-110956196D01*
X131497454Y-110967100D01*
X131452218Y-110967100D01*
X131359929Y-110991829D01*
X131359928Y-110991829D01*
X131277171Y-111039610D01*
X131238358Y-111078423D01*
X131182960Y-111106649D01*
X131166775Y-111107886D01*
X130341946Y-111104205D01*
X129787190Y-111101728D01*
X129771503Y-111100426D01*
X129677653Y-111085175D01*
X129647838Y-111075370D01*
X129570361Y-111035588D01*
X129545023Y-111017076D01*
X129483568Y-110955346D01*
X129465175Y-110929935D01*
X129425734Y-110852271D01*
X129416064Y-110822418D01*
X129401231Y-110728490D01*
X129400000Y-110712798D01*
X129400000Y-110188914D01*
X129401236Y-110173189D01*
X129416155Y-110078996D01*
X129425880Y-110049069D01*
X129425882Y-110049066D01*
X129465533Y-109971246D01*
X129484028Y-109945790D01*
X129545790Y-109884028D01*
X129571246Y-109865533D01*
X129649070Y-109825879D01*
X129678996Y-109816155D01*
X129773189Y-109801236D01*
X129788914Y-109800000D01*
X131251086Y-109800000D01*
X131266810Y-109801236D01*
G37*
%TD.AperFunction*%
%TD*%
M02*
