%TF.GenerationSoftware,KiCad,Pcbnew,9.0.7-9.0.7~ubuntu24.04.1*%
%TF.CreationDate,2026-04-01T13:29:47+02:00*%
%TF.ProjectId,BB3plus CM5 STM32H7 module,42423370-6c75-4732-9043-4d352053544d,r1B4*%
%TF.SameCoordinates,Original*%
%TF.FileFunction,Legend,Bot*%
%TF.FilePolarity,Positive*%
%FSLAX46Y46*%
G04 Gerber Fmt 4.6, Leading zero omitted, Abs format (unit mm)*
G04 Created by KiCad (PCBNEW 9.0.7-9.0.7~ubuntu24.04.1) date 2026-04-01 13:29:47*
%MOMM*%
%LPD*%
G01*
G04 APERTURE LIST*
G04 Aperture macros list*
%AMRoundRect*
0 Rectangle with rounded corners*
0 $1 Rounding radius*
0 $2 $3 $4 $5 $6 $7 $8 $9 X,Y pos of 4 corners*
0 Add a 4 corners polygon primitive as box body*
4,1,4,$2,$3,$4,$5,$6,$7,$8,$9,$2,$3,0*
0 Add four circle primitives for the rounded corners*
1,1,$1+$1,$2,$3*
1,1,$1+$1,$4,$5*
1,1,$1+$1,$6,$7*
1,1,$1+$1,$8,$9*
0 Add four rect primitives between the rounded corners*
20,1,$1+$1,$2,$3,$4,$5,0*
20,1,$1+$1,$4,$5,$6,$7,0*
20,1,$1+$1,$6,$7,$8,$9,0*
20,1,$1+$1,$8,$9,$2,$3,0*%
G04 Aperture macros list end*
%ADD10C,0.050800*%
%ADD11C,0.152400*%
%ADD12C,0.100000*%
%ADD13C,0.120000*%
%ADD14C,0.127000*%
%ADD15C,0.000000*%
%ADD16RoundRect,0.225000X0.225000X0.250000X-0.225000X0.250000X-0.225000X-0.250000X0.225000X-0.250000X0*%
%ADD17RoundRect,0.135000X0.135000X0.185000X-0.135000X0.185000X-0.135000X-0.185000X0.135000X-0.185000X0*%
%ADD18RoundRect,0.225000X-0.225000X-0.250000X0.225000X-0.250000X0.225000X0.250000X-0.225000X0.250000X0*%
%ADD19RoundRect,0.135000X-0.135000X-0.185000X0.135000X-0.185000X0.135000X0.185000X-0.135000X0.185000X0*%
%ADD20C,2.387600*%
%ADD21C,0.990600*%
%ADD22C,6.100000*%
%ADD23R,0.230000X0.660000*%
%ADD24R,0.350000X0.660000*%
%ADD25RoundRect,0.140000X-0.170000X0.140000X-0.170000X-0.140000X0.170000X-0.140000X0.170000X0.140000X0*%
%ADD26RoundRect,0.102000X-0.700000X0.600000X-0.700000X-0.600000X0.700000X-0.600000X0.700000X0.600000X0*%
%ADD27RoundRect,0.140000X0.170000X-0.140000X0.170000X0.140000X-0.170000X0.140000X-0.170000X-0.140000X0*%
%ADD28RoundRect,0.140000X0.140000X0.170000X-0.140000X0.170000X-0.140000X-0.170000X0.140000X-0.170000X0*%
%ADD29RoundRect,0.140000X-0.140000X-0.170000X0.140000X-0.170000X0.140000X0.170000X-0.140000X0.170000X0*%
%ADD30RoundRect,0.225000X0.250000X-0.225000X0.250000X0.225000X-0.250000X0.225000X-0.250000X-0.225000X0*%
%ADD31RoundRect,0.225000X-0.250000X0.225000X-0.250000X-0.225000X0.250000X-0.225000X0.250000X0.225000X0*%
%ADD32RoundRect,0.057252X0.506248X0.556248X-0.506248X0.556248X-0.506248X-0.556248X0.506248X-0.556248X0*%
%ADD33RoundRect,0.048381X-0.459619X-0.891419X0.459619X-0.891419X0.459619X0.891419X-0.459619X0.891419X0*%
%ADD34RoundRect,0.102000X-0.600000X-0.700000X0.600000X-0.700000X0.600000X0.700000X-0.600000X0.700000X0*%
%ADD35RoundRect,0.057252X-0.556248X0.506248X-0.556248X-0.506248X0.556248X-0.506248X0.556248X0.506248X0*%
G04 APERTURE END LIST*
D10*
X114510000Y-77750000D02*
X114100000Y-77750000D01*
X114303739Y-77371976D01*
X114510000Y-77750000D01*
G36*
X114510000Y-77750000D02*
G01*
X114100000Y-77750000D01*
X114303739Y-77371976D01*
X114510000Y-77750000D01*
G37*
X114507049Y-111670000D02*
X114097049Y-111670000D01*
X114300788Y-111291976D01*
X114507049Y-111670000D01*
G36*
X114507049Y-111670000D02*
G01*
X114097049Y-111670000D01*
X114300788Y-111291976D01*
X114507049Y-111670000D01*
G37*
X133896261Y-73078024D02*
X133690000Y-72700000D01*
X134100000Y-72700000D01*
X133896261Y-73078024D01*
G36*
X133896261Y-73078024D02*
G01*
X133690000Y-72700000D01*
X134100000Y-72700000D01*
X133896261Y-73078024D01*
G37*
X133896261Y-107078024D02*
X133690000Y-106700000D01*
X134100000Y-106700000D01*
X133896261Y-107078024D01*
G36*
X133896261Y-107078024D02*
G01*
X133690000Y-106700000D01*
X134100000Y-106700000D01*
X133896261Y-107078024D01*
G37*
D11*
X134265279Y-106517471D02*
X134613622Y-106517471D01*
X134439451Y-106517471D02*
X134439451Y-105907871D01*
X134439451Y-105907871D02*
X134497508Y-105994957D01*
X134497508Y-105994957D02*
X134555565Y-106053014D01*
X134555565Y-106053014D02*
X134613622Y-106082043D01*
X133887908Y-105907871D02*
X133829851Y-105907871D01*
X133829851Y-105907871D02*
X133771794Y-105936900D01*
X133771794Y-105936900D02*
X133742766Y-105965928D01*
X133742766Y-105965928D02*
X133713737Y-106023985D01*
X133713737Y-106023985D02*
X133684708Y-106140100D01*
X133684708Y-106140100D02*
X133684708Y-106285243D01*
X133684708Y-106285243D02*
X133713737Y-106401357D01*
X133713737Y-106401357D02*
X133742766Y-106459414D01*
X133742766Y-106459414D02*
X133771794Y-106488443D01*
X133771794Y-106488443D02*
X133829851Y-106517471D01*
X133829851Y-106517471D02*
X133887908Y-106517471D01*
X133887908Y-106517471D02*
X133945966Y-106488443D01*
X133945966Y-106488443D02*
X133974994Y-106459414D01*
X133974994Y-106459414D02*
X134004023Y-106401357D01*
X134004023Y-106401357D02*
X134033051Y-106285243D01*
X134033051Y-106285243D02*
X134033051Y-106140100D01*
X134033051Y-106140100D02*
X134004023Y-106023985D01*
X134004023Y-106023985D02*
X133974994Y-105965928D01*
X133974994Y-105965928D02*
X133945966Y-105936900D01*
X133945966Y-105936900D02*
X133887908Y-105907871D01*
X133307337Y-105907871D02*
X133249280Y-105907871D01*
X133249280Y-105907871D02*
X133191223Y-105936900D01*
X133191223Y-105936900D02*
X133162195Y-105965928D01*
X133162195Y-105965928D02*
X133133166Y-106023985D01*
X133133166Y-106023985D02*
X133104137Y-106140100D01*
X133104137Y-106140100D02*
X133104137Y-106285243D01*
X133104137Y-106285243D02*
X133133166Y-106401357D01*
X133133166Y-106401357D02*
X133162195Y-106459414D01*
X133162195Y-106459414D02*
X133191223Y-106488443D01*
X133191223Y-106488443D02*
X133249280Y-106517471D01*
X133249280Y-106517471D02*
X133307337Y-106517471D01*
X133307337Y-106517471D02*
X133365395Y-106488443D01*
X133365395Y-106488443D02*
X133394423Y-106459414D01*
X133394423Y-106459414D02*
X133423452Y-106401357D01*
X133423452Y-106401357D02*
X133452480Y-106285243D01*
X133452480Y-106285243D02*
X133452480Y-106140100D01*
X133452480Y-106140100D02*
X133423452Y-106023985D01*
X133423452Y-106023985D02*
X133394423Y-105965928D01*
X133394423Y-105965928D02*
X133365395Y-105936900D01*
X133365395Y-105936900D02*
X133307337Y-105907871D01*
X95059497Y-104900193D02*
X95669097Y-104900193D01*
X95059497Y-104638936D02*
X95378811Y-104638936D01*
X95378811Y-104638936D02*
X95436868Y-104667964D01*
X95436868Y-104667964D02*
X95465897Y-104726021D01*
X95465897Y-104726021D02*
X95465897Y-104813107D01*
X95465897Y-104813107D02*
X95436868Y-104871164D01*
X95436868Y-104871164D02*
X95407840Y-104900193D01*
X95465897Y-104435735D02*
X95465897Y-104203507D01*
X95669097Y-104348650D02*
X95146583Y-104348650D01*
X95146583Y-104348650D02*
X95088526Y-104319621D01*
X95088526Y-104319621D02*
X95059497Y-104261564D01*
X95059497Y-104261564D02*
X95059497Y-104203507D01*
X95465897Y-104087392D02*
X95465897Y-103855164D01*
X95669097Y-104000307D02*
X95146583Y-104000307D01*
X95146583Y-104000307D02*
X95088526Y-103971278D01*
X95088526Y-103971278D02*
X95059497Y-103913221D01*
X95059497Y-103913221D02*
X95059497Y-103855164D01*
X95465897Y-103651964D02*
X94856297Y-103651964D01*
X95436868Y-103651964D02*
X95465897Y-103593907D01*
X95465897Y-103593907D02*
X95465897Y-103477792D01*
X95465897Y-103477792D02*
X95436868Y-103419735D01*
X95436868Y-103419735D02*
X95407840Y-103390707D01*
X95407840Y-103390707D02*
X95349783Y-103361678D01*
X95349783Y-103361678D02*
X95175611Y-103361678D01*
X95175611Y-103361678D02*
X95117554Y-103390707D01*
X95117554Y-103390707D02*
X95088526Y-103419735D01*
X95088526Y-103419735D02*
X95059497Y-103477792D01*
X95059497Y-103477792D02*
X95059497Y-103593907D01*
X95059497Y-103593907D02*
X95088526Y-103651964D01*
X95088526Y-103129449D02*
X95059497Y-103071392D01*
X95059497Y-103071392D02*
X95059497Y-102955278D01*
X95059497Y-102955278D02*
X95088526Y-102897221D01*
X95088526Y-102897221D02*
X95146583Y-102868192D01*
X95146583Y-102868192D02*
X95175611Y-102868192D01*
X95175611Y-102868192D02*
X95233668Y-102897221D01*
X95233668Y-102897221D02*
X95262697Y-102955278D01*
X95262697Y-102955278D02*
X95262697Y-103042364D01*
X95262697Y-103042364D02*
X95291726Y-103100421D01*
X95291726Y-103100421D02*
X95349783Y-103129449D01*
X95349783Y-103129449D02*
X95378811Y-103129449D01*
X95378811Y-103129449D02*
X95436868Y-103100421D01*
X95436868Y-103100421D02*
X95465897Y-103042364D01*
X95465897Y-103042364D02*
X95465897Y-102955278D01*
X95465897Y-102955278D02*
X95436868Y-102897221D01*
X95117554Y-102606935D02*
X95088526Y-102577906D01*
X95088526Y-102577906D02*
X95059497Y-102606935D01*
X95059497Y-102606935D02*
X95088526Y-102635963D01*
X95088526Y-102635963D02*
X95117554Y-102606935D01*
X95117554Y-102606935D02*
X95059497Y-102606935D01*
X95436868Y-102606935D02*
X95407840Y-102577906D01*
X95407840Y-102577906D02*
X95378811Y-102606935D01*
X95378811Y-102606935D02*
X95407840Y-102635963D01*
X95407840Y-102635963D02*
X95436868Y-102606935D01*
X95436868Y-102606935D02*
X95378811Y-102606935D01*
X95698126Y-101881220D02*
X94914354Y-102403734D01*
X95698126Y-101242591D02*
X94914354Y-101765105D01*
X95465897Y-100778134D02*
X94972411Y-100778134D01*
X94972411Y-100778134D02*
X94914354Y-100807162D01*
X94914354Y-100807162D02*
X94885326Y-100836191D01*
X94885326Y-100836191D02*
X94856297Y-100894248D01*
X94856297Y-100894248D02*
X94856297Y-100981334D01*
X94856297Y-100981334D02*
X94885326Y-101039391D01*
X95088526Y-100778134D02*
X95059497Y-100836191D01*
X95059497Y-100836191D02*
X95059497Y-100952305D01*
X95059497Y-100952305D02*
X95088526Y-101010362D01*
X95088526Y-101010362D02*
X95117554Y-101039391D01*
X95117554Y-101039391D02*
X95175611Y-101068419D01*
X95175611Y-101068419D02*
X95349783Y-101068419D01*
X95349783Y-101068419D02*
X95407840Y-101039391D01*
X95407840Y-101039391D02*
X95436868Y-101010362D01*
X95436868Y-101010362D02*
X95465897Y-100952305D01*
X95465897Y-100952305D02*
X95465897Y-100836191D01*
X95465897Y-100836191D02*
X95436868Y-100778134D01*
X95059497Y-100487848D02*
X95465897Y-100487848D01*
X95669097Y-100487848D02*
X95640068Y-100516876D01*
X95640068Y-100516876D02*
X95611040Y-100487848D01*
X95611040Y-100487848D02*
X95640068Y-100458819D01*
X95640068Y-100458819D02*
X95669097Y-100487848D01*
X95669097Y-100487848D02*
X95611040Y-100487848D01*
X95465897Y-100284647D02*
X95465897Y-100052419D01*
X95669097Y-100197562D02*
X95146583Y-100197562D01*
X95146583Y-100197562D02*
X95088526Y-100168533D01*
X95088526Y-100168533D02*
X95059497Y-100110476D01*
X95059497Y-100110476D02*
X95059497Y-100052419D01*
X95059497Y-99849219D02*
X95669097Y-99849219D01*
X95059497Y-99587962D02*
X95378811Y-99587962D01*
X95378811Y-99587962D02*
X95436868Y-99616990D01*
X95436868Y-99616990D02*
X95465897Y-99675047D01*
X95465897Y-99675047D02*
X95465897Y-99762133D01*
X95465897Y-99762133D02*
X95436868Y-99820190D01*
X95436868Y-99820190D02*
X95407840Y-99849219D01*
X95465897Y-99036419D02*
X95059497Y-99036419D01*
X95465897Y-99297676D02*
X95146583Y-99297676D01*
X95146583Y-99297676D02*
X95088526Y-99268647D01*
X95088526Y-99268647D02*
X95059497Y-99210590D01*
X95059497Y-99210590D02*
X95059497Y-99123504D01*
X95059497Y-99123504D02*
X95088526Y-99065447D01*
X95088526Y-99065447D02*
X95117554Y-99036419D01*
X95059497Y-98746133D02*
X95669097Y-98746133D01*
X95436868Y-98746133D02*
X95465897Y-98688076D01*
X95465897Y-98688076D02*
X95465897Y-98571961D01*
X95465897Y-98571961D02*
X95436868Y-98513904D01*
X95436868Y-98513904D02*
X95407840Y-98484876D01*
X95407840Y-98484876D02*
X95349783Y-98455847D01*
X95349783Y-98455847D02*
X95175611Y-98455847D01*
X95175611Y-98455847D02*
X95117554Y-98484876D01*
X95117554Y-98484876D02*
X95088526Y-98513904D01*
X95088526Y-98513904D02*
X95059497Y-98571961D01*
X95059497Y-98571961D02*
X95059497Y-98688076D01*
X95059497Y-98688076D02*
X95088526Y-98746133D01*
X95117554Y-98194590D02*
X95088526Y-98165561D01*
X95088526Y-98165561D02*
X95059497Y-98194590D01*
X95059497Y-98194590D02*
X95088526Y-98223618D01*
X95088526Y-98223618D02*
X95117554Y-98194590D01*
X95117554Y-98194590D02*
X95059497Y-98194590D01*
X95088526Y-97643047D02*
X95059497Y-97701104D01*
X95059497Y-97701104D02*
X95059497Y-97817218D01*
X95059497Y-97817218D02*
X95088526Y-97875275D01*
X95088526Y-97875275D02*
X95117554Y-97904304D01*
X95117554Y-97904304D02*
X95175611Y-97933332D01*
X95175611Y-97933332D02*
X95349783Y-97933332D01*
X95349783Y-97933332D02*
X95407840Y-97904304D01*
X95407840Y-97904304D02*
X95436868Y-97875275D01*
X95436868Y-97875275D02*
X95465897Y-97817218D01*
X95465897Y-97817218D02*
X95465897Y-97701104D01*
X95465897Y-97701104D02*
X95436868Y-97643047D01*
X95059497Y-97294704D02*
X95088526Y-97352761D01*
X95088526Y-97352761D02*
X95117554Y-97381790D01*
X95117554Y-97381790D02*
X95175611Y-97410818D01*
X95175611Y-97410818D02*
X95349783Y-97410818D01*
X95349783Y-97410818D02*
X95407840Y-97381790D01*
X95407840Y-97381790D02*
X95436868Y-97352761D01*
X95436868Y-97352761D02*
X95465897Y-97294704D01*
X95465897Y-97294704D02*
X95465897Y-97207618D01*
X95465897Y-97207618D02*
X95436868Y-97149561D01*
X95436868Y-97149561D02*
X95407840Y-97120533D01*
X95407840Y-97120533D02*
X95349783Y-97091504D01*
X95349783Y-97091504D02*
X95175611Y-97091504D01*
X95175611Y-97091504D02*
X95117554Y-97120533D01*
X95117554Y-97120533D02*
X95088526Y-97149561D01*
X95088526Y-97149561D02*
X95059497Y-97207618D01*
X95059497Y-97207618D02*
X95059497Y-97294704D01*
X95059497Y-96830247D02*
X95465897Y-96830247D01*
X95407840Y-96830247D02*
X95436868Y-96801218D01*
X95436868Y-96801218D02*
X95465897Y-96743161D01*
X95465897Y-96743161D02*
X95465897Y-96656075D01*
X95465897Y-96656075D02*
X95436868Y-96598018D01*
X95436868Y-96598018D02*
X95378811Y-96568990D01*
X95378811Y-96568990D02*
X95059497Y-96568990D01*
X95378811Y-96568990D02*
X95436868Y-96539961D01*
X95436868Y-96539961D02*
X95465897Y-96481904D01*
X95465897Y-96481904D02*
X95465897Y-96394818D01*
X95465897Y-96394818D02*
X95436868Y-96336761D01*
X95436868Y-96336761D02*
X95378811Y-96307732D01*
X95378811Y-96307732D02*
X95059497Y-96307732D01*
X95698126Y-95582018D02*
X94914354Y-96104532D01*
X95088526Y-95146589D02*
X95059497Y-95204646D01*
X95059497Y-95204646D02*
X95059497Y-95320761D01*
X95059497Y-95320761D02*
X95088526Y-95378818D01*
X95088526Y-95378818D02*
X95146583Y-95407846D01*
X95146583Y-95407846D02*
X95378811Y-95407846D01*
X95378811Y-95407846D02*
X95436868Y-95378818D01*
X95436868Y-95378818D02*
X95465897Y-95320761D01*
X95465897Y-95320761D02*
X95465897Y-95204646D01*
X95465897Y-95204646D02*
X95436868Y-95146589D01*
X95436868Y-95146589D02*
X95378811Y-95117561D01*
X95378811Y-95117561D02*
X95320754Y-95117561D01*
X95320754Y-95117561D02*
X95262697Y-95407846D01*
X95088526Y-94624075D02*
X95059497Y-94682132D01*
X95059497Y-94682132D02*
X95059497Y-94798247D01*
X95059497Y-94798247D02*
X95088526Y-94856304D01*
X95088526Y-94856304D02*
X95146583Y-94885332D01*
X95146583Y-94885332D02*
X95378811Y-94885332D01*
X95378811Y-94885332D02*
X95436868Y-94856304D01*
X95436868Y-94856304D02*
X95465897Y-94798247D01*
X95465897Y-94798247D02*
X95465897Y-94682132D01*
X95465897Y-94682132D02*
X95436868Y-94624075D01*
X95436868Y-94624075D02*
X95378811Y-94595047D01*
X95378811Y-94595047D02*
X95320754Y-94595047D01*
X95320754Y-94595047D02*
X95262697Y-94885332D01*
X95465897Y-94391847D02*
X95465897Y-94072533D01*
X95465897Y-94072533D02*
X95059497Y-94391847D01*
X95059497Y-94391847D02*
X95059497Y-94072533D01*
X95291726Y-93840304D02*
X95291726Y-93375847D01*
X95059497Y-92998475D02*
X95088526Y-93056532D01*
X95088526Y-93056532D02*
X95117554Y-93085561D01*
X95117554Y-93085561D02*
X95175611Y-93114589D01*
X95175611Y-93114589D02*
X95349783Y-93114589D01*
X95349783Y-93114589D02*
X95407840Y-93085561D01*
X95407840Y-93085561D02*
X95436868Y-93056532D01*
X95436868Y-93056532D02*
X95465897Y-92998475D01*
X95465897Y-92998475D02*
X95465897Y-92911389D01*
X95465897Y-92911389D02*
X95436868Y-92853332D01*
X95436868Y-92853332D02*
X95407840Y-92824304D01*
X95407840Y-92824304D02*
X95349783Y-92795275D01*
X95349783Y-92795275D02*
X95175611Y-92795275D01*
X95175611Y-92795275D02*
X95117554Y-92824304D01*
X95117554Y-92824304D02*
X95088526Y-92853332D01*
X95088526Y-92853332D02*
X95059497Y-92911389D01*
X95059497Y-92911389D02*
X95059497Y-92998475D01*
X95465897Y-92534018D02*
X94856297Y-92534018D01*
X95436868Y-92534018D02*
X95465897Y-92475961D01*
X95465897Y-92475961D02*
X95465897Y-92359846D01*
X95465897Y-92359846D02*
X95436868Y-92301789D01*
X95436868Y-92301789D02*
X95407840Y-92272761D01*
X95407840Y-92272761D02*
X95349783Y-92243732D01*
X95349783Y-92243732D02*
X95175611Y-92243732D01*
X95175611Y-92243732D02*
X95117554Y-92272761D01*
X95117554Y-92272761D02*
X95088526Y-92301789D01*
X95088526Y-92301789D02*
X95059497Y-92359846D01*
X95059497Y-92359846D02*
X95059497Y-92475961D01*
X95059497Y-92475961D02*
X95088526Y-92534018D01*
X95088526Y-91750246D02*
X95059497Y-91808303D01*
X95059497Y-91808303D02*
X95059497Y-91924418D01*
X95059497Y-91924418D02*
X95088526Y-91982475D01*
X95088526Y-91982475D02*
X95146583Y-92011503D01*
X95146583Y-92011503D02*
X95378811Y-92011503D01*
X95378811Y-92011503D02*
X95436868Y-91982475D01*
X95436868Y-91982475D02*
X95465897Y-91924418D01*
X95465897Y-91924418D02*
X95465897Y-91808303D01*
X95465897Y-91808303D02*
X95436868Y-91750246D01*
X95436868Y-91750246D02*
X95378811Y-91721218D01*
X95378811Y-91721218D02*
X95320754Y-91721218D01*
X95320754Y-91721218D02*
X95262697Y-92011503D01*
X95465897Y-91459961D02*
X95059497Y-91459961D01*
X95407840Y-91459961D02*
X95436868Y-91430932D01*
X95436868Y-91430932D02*
X95465897Y-91372875D01*
X95465897Y-91372875D02*
X95465897Y-91285789D01*
X95465897Y-91285789D02*
X95436868Y-91227732D01*
X95436868Y-91227732D02*
X95378811Y-91198704D01*
X95378811Y-91198704D02*
X95059497Y-91198704D01*
X95698126Y-90472989D02*
X94914354Y-90995503D01*
X95088526Y-90037560D02*
X95059497Y-90095617D01*
X95059497Y-90095617D02*
X95059497Y-90211732D01*
X95059497Y-90211732D02*
X95088526Y-90269789D01*
X95088526Y-90269789D02*
X95146583Y-90298817D01*
X95146583Y-90298817D02*
X95378811Y-90298817D01*
X95378811Y-90298817D02*
X95436868Y-90269789D01*
X95436868Y-90269789D02*
X95465897Y-90211732D01*
X95465897Y-90211732D02*
X95465897Y-90095617D01*
X95465897Y-90095617D02*
X95436868Y-90037560D01*
X95436868Y-90037560D02*
X95378811Y-90008532D01*
X95378811Y-90008532D02*
X95320754Y-90008532D01*
X95320754Y-90008532D02*
X95262697Y-90298817D01*
X95088526Y-89515046D02*
X95059497Y-89573103D01*
X95059497Y-89573103D02*
X95059497Y-89689218D01*
X95059497Y-89689218D02*
X95088526Y-89747275D01*
X95088526Y-89747275D02*
X95146583Y-89776303D01*
X95146583Y-89776303D02*
X95378811Y-89776303D01*
X95378811Y-89776303D02*
X95436868Y-89747275D01*
X95436868Y-89747275D02*
X95465897Y-89689218D01*
X95465897Y-89689218D02*
X95465897Y-89573103D01*
X95465897Y-89573103D02*
X95436868Y-89515046D01*
X95436868Y-89515046D02*
X95378811Y-89486018D01*
X95378811Y-89486018D02*
X95320754Y-89486018D01*
X95320754Y-89486018D02*
X95262697Y-89776303D01*
X95465897Y-89282818D02*
X95465897Y-88963504D01*
X95465897Y-88963504D02*
X95059497Y-89282818D01*
X95059497Y-89282818D02*
X95059497Y-88963504D01*
X95291726Y-88731275D02*
X95291726Y-88266818D01*
X95059497Y-87976532D02*
X95669097Y-87976532D01*
X95436868Y-87976532D02*
X95465897Y-87918475D01*
X95465897Y-87918475D02*
X95465897Y-87802360D01*
X95465897Y-87802360D02*
X95436868Y-87744303D01*
X95436868Y-87744303D02*
X95407840Y-87715275D01*
X95407840Y-87715275D02*
X95349783Y-87686246D01*
X95349783Y-87686246D02*
X95175611Y-87686246D01*
X95175611Y-87686246D02*
X95117554Y-87715275D01*
X95117554Y-87715275D02*
X95088526Y-87744303D01*
X95088526Y-87744303D02*
X95059497Y-87802360D01*
X95059497Y-87802360D02*
X95059497Y-87918475D01*
X95059497Y-87918475D02*
X95088526Y-87976532D01*
X95059497Y-87424989D02*
X95669097Y-87424989D01*
X95436868Y-87424989D02*
X95465897Y-87366932D01*
X95465897Y-87366932D02*
X95465897Y-87250817D01*
X95465897Y-87250817D02*
X95436868Y-87192760D01*
X95436868Y-87192760D02*
X95407840Y-87163732D01*
X95407840Y-87163732D02*
X95349783Y-87134703D01*
X95349783Y-87134703D02*
X95175611Y-87134703D01*
X95175611Y-87134703D02*
X95117554Y-87163732D01*
X95117554Y-87163732D02*
X95088526Y-87192760D01*
X95088526Y-87192760D02*
X95059497Y-87250817D01*
X95059497Y-87250817D02*
X95059497Y-87366932D01*
X95059497Y-87366932D02*
X95088526Y-87424989D01*
X95669097Y-86931503D02*
X95669097Y-86554131D01*
X95669097Y-86554131D02*
X95436868Y-86757331D01*
X95436868Y-86757331D02*
X95436868Y-86670246D01*
X95436868Y-86670246D02*
X95407840Y-86612189D01*
X95407840Y-86612189D02*
X95378811Y-86583160D01*
X95378811Y-86583160D02*
X95320754Y-86554131D01*
X95320754Y-86554131D02*
X95175611Y-86554131D01*
X95175611Y-86554131D02*
X95117554Y-86583160D01*
X95117554Y-86583160D02*
X95088526Y-86612189D01*
X95088526Y-86612189D02*
X95059497Y-86670246D01*
X95059497Y-86670246D02*
X95059497Y-86844417D01*
X95059497Y-86844417D02*
X95088526Y-86902474D01*
X95088526Y-86902474D02*
X95117554Y-86931503D01*
X95465897Y-86292875D02*
X94856297Y-86292875D01*
X95436868Y-86292875D02*
X95465897Y-86234818D01*
X95465897Y-86234818D02*
X95465897Y-86118703D01*
X95465897Y-86118703D02*
X95436868Y-86060646D01*
X95436868Y-86060646D02*
X95407840Y-86031618D01*
X95407840Y-86031618D02*
X95349783Y-86002589D01*
X95349783Y-86002589D02*
X95175611Y-86002589D01*
X95175611Y-86002589D02*
X95117554Y-86031618D01*
X95117554Y-86031618D02*
X95088526Y-86060646D01*
X95088526Y-86060646D02*
X95059497Y-86118703D01*
X95059497Y-86118703D02*
X95059497Y-86234818D01*
X95059497Y-86234818D02*
X95088526Y-86292875D01*
X95059497Y-85654246D02*
X95088526Y-85712303D01*
X95088526Y-85712303D02*
X95146583Y-85741332D01*
X95146583Y-85741332D02*
X95669097Y-85741332D01*
X95465897Y-85160761D02*
X95059497Y-85160761D01*
X95465897Y-85422018D02*
X95146583Y-85422018D01*
X95146583Y-85422018D02*
X95088526Y-85392989D01*
X95088526Y-85392989D02*
X95059497Y-85334932D01*
X95059497Y-85334932D02*
X95059497Y-85247846D01*
X95059497Y-85247846D02*
X95088526Y-85189789D01*
X95088526Y-85189789D02*
X95117554Y-85160761D01*
X95088526Y-84899503D02*
X95059497Y-84841446D01*
X95059497Y-84841446D02*
X95059497Y-84725332D01*
X95059497Y-84725332D02*
X95088526Y-84667275D01*
X95088526Y-84667275D02*
X95146583Y-84638246D01*
X95146583Y-84638246D02*
X95175611Y-84638246D01*
X95175611Y-84638246D02*
X95233668Y-84667275D01*
X95233668Y-84667275D02*
X95262697Y-84725332D01*
X95262697Y-84725332D02*
X95262697Y-84812418D01*
X95262697Y-84812418D02*
X95291726Y-84870475D01*
X95291726Y-84870475D02*
X95349783Y-84899503D01*
X95349783Y-84899503D02*
X95378811Y-84899503D01*
X95378811Y-84899503D02*
X95436868Y-84870475D01*
X95436868Y-84870475D02*
X95465897Y-84812418D01*
X95465897Y-84812418D02*
X95465897Y-84725332D01*
X95465897Y-84725332D02*
X95436868Y-84667275D01*
X95291726Y-84376989D02*
X95291726Y-83912532D01*
X95088526Y-83360989D02*
X95059497Y-83419046D01*
X95059497Y-83419046D02*
X95059497Y-83535160D01*
X95059497Y-83535160D02*
X95088526Y-83593217D01*
X95088526Y-83593217D02*
X95117554Y-83622246D01*
X95117554Y-83622246D02*
X95175611Y-83651274D01*
X95175611Y-83651274D02*
X95349783Y-83651274D01*
X95349783Y-83651274D02*
X95407840Y-83622246D01*
X95407840Y-83622246D02*
X95436868Y-83593217D01*
X95436868Y-83593217D02*
X95465897Y-83535160D01*
X95465897Y-83535160D02*
X95465897Y-83419046D01*
X95465897Y-83419046D02*
X95436868Y-83360989D01*
X95059497Y-83099732D02*
X95465897Y-83099732D01*
X95407840Y-83099732D02*
X95436868Y-83070703D01*
X95436868Y-83070703D02*
X95465897Y-83012646D01*
X95465897Y-83012646D02*
X95465897Y-82925560D01*
X95465897Y-82925560D02*
X95436868Y-82867503D01*
X95436868Y-82867503D02*
X95378811Y-82838475D01*
X95378811Y-82838475D02*
X95059497Y-82838475D01*
X95378811Y-82838475D02*
X95436868Y-82809446D01*
X95436868Y-82809446D02*
X95465897Y-82751389D01*
X95465897Y-82751389D02*
X95465897Y-82664303D01*
X95465897Y-82664303D02*
X95436868Y-82606246D01*
X95436868Y-82606246D02*
X95378811Y-82577217D01*
X95378811Y-82577217D02*
X95059497Y-82577217D01*
X95669097Y-81996646D02*
X95669097Y-82286932D01*
X95669097Y-82286932D02*
X95378811Y-82315960D01*
X95378811Y-82315960D02*
X95407840Y-82286932D01*
X95407840Y-82286932D02*
X95436868Y-82228875D01*
X95436868Y-82228875D02*
X95436868Y-82083732D01*
X95436868Y-82083732D02*
X95407840Y-82025675D01*
X95407840Y-82025675D02*
X95378811Y-81996646D01*
X95378811Y-81996646D02*
X95320754Y-81967617D01*
X95320754Y-81967617D02*
X95175611Y-81967617D01*
X95175611Y-81967617D02*
X95117554Y-81996646D01*
X95117554Y-81996646D02*
X95088526Y-82025675D01*
X95088526Y-82025675D02*
X95059497Y-82083732D01*
X95059497Y-82083732D02*
X95059497Y-82228875D01*
X95059497Y-82228875D02*
X95088526Y-82286932D01*
X95088526Y-82286932D02*
X95117554Y-82315960D01*
X95291726Y-81706361D02*
X95291726Y-81241904D01*
X95059497Y-80951618D02*
X95465897Y-80951618D01*
X95407840Y-80951618D02*
X95436868Y-80922589D01*
X95436868Y-80922589D02*
X95465897Y-80864532D01*
X95465897Y-80864532D02*
X95465897Y-80777446D01*
X95465897Y-80777446D02*
X95436868Y-80719389D01*
X95436868Y-80719389D02*
X95378811Y-80690361D01*
X95378811Y-80690361D02*
X95059497Y-80690361D01*
X95378811Y-80690361D02*
X95436868Y-80661332D01*
X95436868Y-80661332D02*
X95465897Y-80603275D01*
X95465897Y-80603275D02*
X95465897Y-80516189D01*
X95465897Y-80516189D02*
X95436868Y-80458132D01*
X95436868Y-80458132D02*
X95378811Y-80429103D01*
X95378811Y-80429103D02*
X95059497Y-80429103D01*
X95088526Y-79877561D02*
X95059497Y-79935618D01*
X95059497Y-79935618D02*
X95059497Y-80051732D01*
X95059497Y-80051732D02*
X95088526Y-80109789D01*
X95088526Y-80109789D02*
X95117554Y-80138818D01*
X95117554Y-80138818D02*
X95175611Y-80167846D01*
X95175611Y-80167846D02*
X95349783Y-80167846D01*
X95349783Y-80167846D02*
X95407840Y-80138818D01*
X95407840Y-80138818D02*
X95436868Y-80109789D01*
X95436868Y-80109789D02*
X95465897Y-80051732D01*
X95465897Y-80051732D02*
X95465897Y-79935618D01*
X95465897Y-79935618D02*
X95436868Y-79877561D01*
X95465897Y-79355047D02*
X95059497Y-79355047D01*
X95465897Y-79616304D02*
X95146583Y-79616304D01*
X95146583Y-79616304D02*
X95088526Y-79587275D01*
X95088526Y-79587275D02*
X95059497Y-79529218D01*
X95059497Y-79529218D02*
X95059497Y-79442132D01*
X95059497Y-79442132D02*
X95088526Y-79384075D01*
X95088526Y-79384075D02*
X95117554Y-79355047D01*
X135923622Y-72555928D02*
X135894594Y-72526900D01*
X135894594Y-72526900D02*
X135836537Y-72497871D01*
X135836537Y-72497871D02*
X135691394Y-72497871D01*
X135691394Y-72497871D02*
X135633337Y-72526900D01*
X135633337Y-72526900D02*
X135604308Y-72555928D01*
X135604308Y-72555928D02*
X135575279Y-72613985D01*
X135575279Y-72613985D02*
X135575279Y-72672043D01*
X135575279Y-72672043D02*
X135604308Y-72759128D01*
X135604308Y-72759128D02*
X135952651Y-73107471D01*
X135952651Y-73107471D02*
X135575279Y-73107471D01*
X135197908Y-72497871D02*
X135139851Y-72497871D01*
X135139851Y-72497871D02*
X135081794Y-72526900D01*
X135081794Y-72526900D02*
X135052766Y-72555928D01*
X135052766Y-72555928D02*
X135023737Y-72613985D01*
X135023737Y-72613985D02*
X134994708Y-72730100D01*
X134994708Y-72730100D02*
X134994708Y-72875243D01*
X134994708Y-72875243D02*
X135023737Y-72991357D01*
X135023737Y-72991357D02*
X135052766Y-73049414D01*
X135052766Y-73049414D02*
X135081794Y-73078443D01*
X135081794Y-73078443D02*
X135139851Y-73107471D01*
X135139851Y-73107471D02*
X135197908Y-73107471D01*
X135197908Y-73107471D02*
X135255966Y-73078443D01*
X135255966Y-73078443D02*
X135284994Y-73049414D01*
X135284994Y-73049414D02*
X135314023Y-72991357D01*
X135314023Y-72991357D02*
X135343051Y-72875243D01*
X135343051Y-72875243D02*
X135343051Y-72730100D01*
X135343051Y-72730100D02*
X135314023Y-72613985D01*
X135314023Y-72613985D02*
X135284994Y-72555928D01*
X135284994Y-72555928D02*
X135255966Y-72526900D01*
X135255966Y-72526900D02*
X135197908Y-72497871D01*
X134617337Y-72497871D02*
X134559280Y-72497871D01*
X134559280Y-72497871D02*
X134501223Y-72526900D01*
X134501223Y-72526900D02*
X134472195Y-72555928D01*
X134472195Y-72555928D02*
X134443166Y-72613985D01*
X134443166Y-72613985D02*
X134414137Y-72730100D01*
X134414137Y-72730100D02*
X134414137Y-72875243D01*
X134414137Y-72875243D02*
X134443166Y-72991357D01*
X134443166Y-72991357D02*
X134472195Y-73049414D01*
X134472195Y-73049414D02*
X134501223Y-73078443D01*
X134501223Y-73078443D02*
X134559280Y-73107471D01*
X134559280Y-73107471D02*
X134617337Y-73107471D01*
X134617337Y-73107471D02*
X134675395Y-73078443D01*
X134675395Y-73078443D02*
X134704423Y-73049414D01*
X134704423Y-73049414D02*
X134733452Y-72991357D01*
X134733452Y-72991357D02*
X134762480Y-72875243D01*
X134762480Y-72875243D02*
X134762480Y-72730100D01*
X134762480Y-72730100D02*
X134733452Y-72613985D01*
X134733452Y-72613985D02*
X134704423Y-72555928D01*
X134704423Y-72555928D02*
X134675395Y-72526900D01*
X134675395Y-72526900D02*
X134617337Y-72497871D01*
X114675279Y-78527471D02*
X115023622Y-78527471D01*
X114849451Y-78527471D02*
X114849451Y-77917871D01*
X114849451Y-77917871D02*
X114907508Y-78004957D01*
X114907508Y-78004957D02*
X114965565Y-78063014D01*
X114965565Y-78063014D02*
X115023622Y-78092043D01*
X114297908Y-77917871D02*
X114239851Y-77917871D01*
X114239851Y-77917871D02*
X114181794Y-77946900D01*
X114181794Y-77946900D02*
X114152766Y-77975928D01*
X114152766Y-77975928D02*
X114123737Y-78033985D01*
X114123737Y-78033985D02*
X114094708Y-78150100D01*
X114094708Y-78150100D02*
X114094708Y-78295243D01*
X114094708Y-78295243D02*
X114123737Y-78411357D01*
X114123737Y-78411357D02*
X114152766Y-78469414D01*
X114152766Y-78469414D02*
X114181794Y-78498443D01*
X114181794Y-78498443D02*
X114239851Y-78527471D01*
X114239851Y-78527471D02*
X114297908Y-78527471D01*
X114297908Y-78527471D02*
X114355966Y-78498443D01*
X114355966Y-78498443D02*
X114384994Y-78469414D01*
X114384994Y-78469414D02*
X114414023Y-78411357D01*
X114414023Y-78411357D02*
X114443051Y-78295243D01*
X114443051Y-78295243D02*
X114443051Y-78150100D01*
X114443051Y-78150100D02*
X114414023Y-78033985D01*
X114414023Y-78033985D02*
X114384994Y-77975928D01*
X114384994Y-77975928D02*
X114355966Y-77946900D01*
X114355966Y-77946900D02*
X114297908Y-77917871D01*
X113514137Y-78527471D02*
X113862480Y-78527471D01*
X113688309Y-78527471D02*
X113688309Y-77917871D01*
X113688309Y-77917871D02*
X113746366Y-78004957D01*
X113746366Y-78004957D02*
X113804423Y-78063014D01*
X113804423Y-78063014D02*
X113862480Y-78092043D01*
X114666376Y-111917471D02*
X115014719Y-111917471D01*
X114840548Y-111917471D02*
X114840548Y-111307871D01*
X114840548Y-111307871D02*
X114898605Y-111394957D01*
X114898605Y-111394957D02*
X114956662Y-111453014D01*
X114956662Y-111453014D02*
X115014719Y-111482043D01*
X144047212Y-91155314D02*
X144047212Y-91590743D01*
X144047212Y-91590743D02*
X144076241Y-91677828D01*
X144076241Y-91677828D02*
X144134298Y-91735886D01*
X144134298Y-91735886D02*
X144221384Y-91764914D01*
X144221384Y-91764914D02*
X144279441Y-91764914D01*
X143756927Y-91764914D02*
X143756927Y-91155314D01*
X143756927Y-91155314D02*
X143524698Y-91155314D01*
X143524698Y-91155314D02*
X143466641Y-91184343D01*
X143466641Y-91184343D02*
X143437612Y-91213371D01*
X143437612Y-91213371D02*
X143408584Y-91271428D01*
X143408584Y-91271428D02*
X143408584Y-91358514D01*
X143408584Y-91358514D02*
X143437612Y-91416571D01*
X143437612Y-91416571D02*
X143466641Y-91445600D01*
X143466641Y-91445600D02*
X143524698Y-91474628D01*
X143524698Y-91474628D02*
X143756927Y-91474628D01*
X142857041Y-91155314D02*
X143147327Y-91155314D01*
X143147327Y-91155314D02*
X143176355Y-91445600D01*
X143176355Y-91445600D02*
X143147327Y-91416571D01*
X143147327Y-91416571D02*
X143089270Y-91387543D01*
X143089270Y-91387543D02*
X142944127Y-91387543D01*
X142944127Y-91387543D02*
X142886070Y-91416571D01*
X142886070Y-91416571D02*
X142857041Y-91445600D01*
X142857041Y-91445600D02*
X142828012Y-91503657D01*
X142828012Y-91503657D02*
X142828012Y-91648800D01*
X142828012Y-91648800D02*
X142857041Y-91706857D01*
X142857041Y-91706857D02*
X142886070Y-91735886D01*
X142886070Y-91735886D02*
X142944127Y-91764914D01*
X142944127Y-91764914D02*
X143089270Y-91764914D01*
X143089270Y-91764914D02*
X143147327Y-91735886D01*
X143147327Y-91735886D02*
X143176355Y-91706857D01*
X132351885Y-80864087D02*
X132555085Y-80573801D01*
X132700228Y-80864087D02*
X132700228Y-80254487D01*
X132700228Y-80254487D02*
X132467999Y-80254487D01*
X132467999Y-80254487D02*
X132409942Y-80283516D01*
X132409942Y-80283516D02*
X132380913Y-80312544D01*
X132380913Y-80312544D02*
X132351885Y-80370601D01*
X132351885Y-80370601D02*
X132351885Y-80457687D01*
X132351885Y-80457687D02*
X132380913Y-80515744D01*
X132380913Y-80515744D02*
X132409942Y-80544773D01*
X132409942Y-80544773D02*
X132467999Y-80573801D01*
X132467999Y-80573801D02*
X132700228Y-80573801D01*
X132119656Y-80312544D02*
X132090628Y-80283516D01*
X132090628Y-80283516D02*
X132032571Y-80254487D01*
X132032571Y-80254487D02*
X131887428Y-80254487D01*
X131887428Y-80254487D02*
X131829371Y-80283516D01*
X131829371Y-80283516D02*
X131800342Y-80312544D01*
X131800342Y-80312544D02*
X131771313Y-80370601D01*
X131771313Y-80370601D02*
X131771313Y-80428659D01*
X131771313Y-80428659D02*
X131800342Y-80515744D01*
X131800342Y-80515744D02*
X132148685Y-80864087D01*
X132148685Y-80864087D02*
X131771313Y-80864087D01*
X131219771Y-80254487D02*
X131510057Y-80254487D01*
X131510057Y-80254487D02*
X131539085Y-80544773D01*
X131539085Y-80544773D02*
X131510057Y-80515744D01*
X131510057Y-80515744D02*
X131452000Y-80486716D01*
X131452000Y-80486716D02*
X131306857Y-80486716D01*
X131306857Y-80486716D02*
X131248800Y-80515744D01*
X131248800Y-80515744D02*
X131219771Y-80544773D01*
X131219771Y-80544773D02*
X131190742Y-80602830D01*
X131190742Y-80602830D02*
X131190742Y-80747973D01*
X131190742Y-80747973D02*
X131219771Y-80806030D01*
X131219771Y-80806030D02*
X131248800Y-80835059D01*
X131248800Y-80835059D02*
X131306857Y-80864087D01*
X131306857Y-80864087D02*
X131452000Y-80864087D01*
X131452000Y-80864087D02*
X131510057Y-80835059D01*
X131510057Y-80835059D02*
X131539085Y-80806030D01*
X138870422Y-81054571D02*
X138870422Y-81490000D01*
X138870422Y-81490000D02*
X138899451Y-81577085D01*
X138899451Y-81577085D02*
X138957508Y-81635143D01*
X138957508Y-81635143D02*
X139044594Y-81664171D01*
X139044594Y-81664171D02*
X139102651Y-81664171D01*
X138580137Y-81664171D02*
X138580137Y-81054571D01*
X138580137Y-81054571D02*
X138347908Y-81054571D01*
X138347908Y-81054571D02*
X138289851Y-81083600D01*
X138289851Y-81083600D02*
X138260822Y-81112628D01*
X138260822Y-81112628D02*
X138231794Y-81170685D01*
X138231794Y-81170685D02*
X138231794Y-81257771D01*
X138231794Y-81257771D02*
X138260822Y-81315828D01*
X138260822Y-81315828D02*
X138289851Y-81344857D01*
X138289851Y-81344857D02*
X138347908Y-81373885D01*
X138347908Y-81373885D02*
X138580137Y-81373885D01*
X137651222Y-81664171D02*
X137999565Y-81664171D01*
X137825394Y-81664171D02*
X137825394Y-81054571D01*
X137825394Y-81054571D02*
X137883451Y-81141657D01*
X137883451Y-81141657D02*
X137941508Y-81199714D01*
X137941508Y-81199714D02*
X137999565Y-81228743D01*
X145808444Y-85117061D02*
X146011644Y-84826775D01*
X146156787Y-85117061D02*
X146156787Y-84507461D01*
X146156787Y-84507461D02*
X145924558Y-84507461D01*
X145924558Y-84507461D02*
X145866501Y-84536490D01*
X145866501Y-84536490D02*
X145837472Y-84565518D01*
X145837472Y-84565518D02*
X145808444Y-84623575D01*
X145808444Y-84623575D02*
X145808444Y-84710661D01*
X145808444Y-84710661D02*
X145837472Y-84768718D01*
X145837472Y-84768718D02*
X145866501Y-84797747D01*
X145866501Y-84797747D02*
X145924558Y-84826775D01*
X145924558Y-84826775D02*
X146156787Y-84826775D01*
X145605244Y-84507461D02*
X145227872Y-84507461D01*
X145227872Y-84507461D02*
X145431072Y-84739690D01*
X145431072Y-84739690D02*
X145343987Y-84739690D01*
X145343987Y-84739690D02*
X145285930Y-84768718D01*
X145285930Y-84768718D02*
X145256901Y-84797747D01*
X145256901Y-84797747D02*
X145227872Y-84855804D01*
X145227872Y-84855804D02*
X145227872Y-85000947D01*
X145227872Y-85000947D02*
X145256901Y-85059004D01*
X145256901Y-85059004D02*
X145285930Y-85088033D01*
X145285930Y-85088033D02*
X145343987Y-85117061D01*
X145343987Y-85117061D02*
X145518158Y-85117061D01*
X145518158Y-85117061D02*
X145576215Y-85088033D01*
X145576215Y-85088033D02*
X145605244Y-85059004D01*
X144647301Y-85117061D02*
X144995644Y-85117061D01*
X144821473Y-85117061D02*
X144821473Y-84507461D01*
X144821473Y-84507461D02*
X144879530Y-84594547D01*
X144879530Y-84594547D02*
X144937587Y-84652604D01*
X144937587Y-84652604D02*
X144995644Y-84681633D01*
X145801885Y-83627396D02*
X146005085Y-83337110D01*
X146150228Y-83627396D02*
X146150228Y-83017796D01*
X146150228Y-83017796D02*
X145917999Y-83017796D01*
X145917999Y-83017796D02*
X145859942Y-83046825D01*
X145859942Y-83046825D02*
X145830913Y-83075853D01*
X145830913Y-83075853D02*
X145801885Y-83133910D01*
X145801885Y-83133910D02*
X145801885Y-83220996D01*
X145801885Y-83220996D02*
X145830913Y-83279053D01*
X145830913Y-83279053D02*
X145859942Y-83308082D01*
X145859942Y-83308082D02*
X145917999Y-83337110D01*
X145917999Y-83337110D02*
X146150228Y-83337110D01*
X145598685Y-83017796D02*
X145221313Y-83017796D01*
X145221313Y-83017796D02*
X145424513Y-83250025D01*
X145424513Y-83250025D02*
X145337428Y-83250025D01*
X145337428Y-83250025D02*
X145279371Y-83279053D01*
X145279371Y-83279053D02*
X145250342Y-83308082D01*
X145250342Y-83308082D02*
X145221313Y-83366139D01*
X145221313Y-83366139D02*
X145221313Y-83511282D01*
X145221313Y-83511282D02*
X145250342Y-83569339D01*
X145250342Y-83569339D02*
X145279371Y-83598368D01*
X145279371Y-83598368D02*
X145337428Y-83627396D01*
X145337428Y-83627396D02*
X145511599Y-83627396D01*
X145511599Y-83627396D02*
X145569656Y-83598368D01*
X145569656Y-83598368D02*
X145598685Y-83569339D01*
X144843942Y-83017796D02*
X144785885Y-83017796D01*
X144785885Y-83017796D02*
X144727828Y-83046825D01*
X144727828Y-83046825D02*
X144698800Y-83075853D01*
X144698800Y-83075853D02*
X144669771Y-83133910D01*
X144669771Y-83133910D02*
X144640742Y-83250025D01*
X144640742Y-83250025D02*
X144640742Y-83395168D01*
X144640742Y-83395168D02*
X144669771Y-83511282D01*
X144669771Y-83511282D02*
X144698800Y-83569339D01*
X144698800Y-83569339D02*
X144727828Y-83598368D01*
X144727828Y-83598368D02*
X144785885Y-83627396D01*
X144785885Y-83627396D02*
X144843942Y-83627396D01*
X144843942Y-83627396D02*
X144902000Y-83598368D01*
X144902000Y-83598368D02*
X144931028Y-83569339D01*
X144931028Y-83569339D02*
X144960057Y-83511282D01*
X144960057Y-83511282D02*
X144989085Y-83395168D01*
X144989085Y-83395168D02*
X144989085Y-83250025D01*
X144989085Y-83250025D02*
X144960057Y-83133910D01*
X144960057Y-83133910D02*
X144931028Y-83075853D01*
X144931028Y-83075853D02*
X144902000Y-83046825D01*
X144902000Y-83046825D02*
X144843942Y-83017796D01*
X138882474Y-79877412D02*
X138882474Y-80312841D01*
X138882474Y-80312841D02*
X138911503Y-80399926D01*
X138911503Y-80399926D02*
X138969560Y-80457984D01*
X138969560Y-80457984D02*
X139056646Y-80487012D01*
X139056646Y-80487012D02*
X139114703Y-80487012D01*
X138592189Y-80487012D02*
X138592189Y-79877412D01*
X138592189Y-79877412D02*
X138359960Y-79877412D01*
X138359960Y-79877412D02*
X138301903Y-79906441D01*
X138301903Y-79906441D02*
X138272874Y-79935469D01*
X138272874Y-79935469D02*
X138243846Y-79993526D01*
X138243846Y-79993526D02*
X138243846Y-80080612D01*
X138243846Y-80080612D02*
X138272874Y-80138669D01*
X138272874Y-80138669D02*
X138301903Y-80167698D01*
X138301903Y-80167698D02*
X138359960Y-80196726D01*
X138359960Y-80196726D02*
X138592189Y-80196726D01*
X138040646Y-79877412D02*
X137663274Y-79877412D01*
X137663274Y-79877412D02*
X137866474Y-80109641D01*
X137866474Y-80109641D02*
X137779389Y-80109641D01*
X137779389Y-80109641D02*
X137721332Y-80138669D01*
X137721332Y-80138669D02*
X137692303Y-80167698D01*
X137692303Y-80167698D02*
X137663274Y-80225755D01*
X137663274Y-80225755D02*
X137663274Y-80370898D01*
X137663274Y-80370898D02*
X137692303Y-80428955D01*
X137692303Y-80428955D02*
X137721332Y-80457984D01*
X137721332Y-80457984D02*
X137779389Y-80487012D01*
X137779389Y-80487012D02*
X137953560Y-80487012D01*
X137953560Y-80487012D02*
X138011617Y-80457984D01*
X138011617Y-80457984D02*
X138040646Y-80428955D01*
X137955576Y-84551103D02*
X137955576Y-84986532D01*
X137955576Y-84986532D02*
X137984605Y-85073617D01*
X137984605Y-85073617D02*
X138042662Y-85131675D01*
X138042662Y-85131675D02*
X138129748Y-85160703D01*
X138129748Y-85160703D02*
X138187805Y-85160703D01*
X137665291Y-85160703D02*
X137665291Y-84551103D01*
X137665291Y-84551103D02*
X137433062Y-84551103D01*
X137433062Y-84551103D02*
X137375005Y-84580132D01*
X137375005Y-84580132D02*
X137345976Y-84609160D01*
X137345976Y-84609160D02*
X137316948Y-84667217D01*
X137316948Y-84667217D02*
X137316948Y-84754303D01*
X137316948Y-84754303D02*
X137345976Y-84812360D01*
X137345976Y-84812360D02*
X137375005Y-84841389D01*
X137375005Y-84841389D02*
X137433062Y-84870417D01*
X137433062Y-84870417D02*
X137665291Y-84870417D01*
X136794434Y-84754303D02*
X136794434Y-85160703D01*
X136939576Y-84522075D02*
X137084719Y-84957503D01*
X137084719Y-84957503D02*
X136707348Y-84957503D01*
X137935576Y-83104412D02*
X137935576Y-83539841D01*
X137935576Y-83539841D02*
X137964605Y-83626926D01*
X137964605Y-83626926D02*
X138022662Y-83684984D01*
X138022662Y-83684984D02*
X138109748Y-83714012D01*
X138109748Y-83714012D02*
X138167805Y-83714012D01*
X137645291Y-83714012D02*
X137645291Y-83104412D01*
X137645291Y-83104412D02*
X137413062Y-83104412D01*
X137413062Y-83104412D02*
X137355005Y-83133441D01*
X137355005Y-83133441D02*
X137325976Y-83162469D01*
X137325976Y-83162469D02*
X137296948Y-83220526D01*
X137296948Y-83220526D02*
X137296948Y-83307612D01*
X137296948Y-83307612D02*
X137325976Y-83365669D01*
X137325976Y-83365669D02*
X137355005Y-83394698D01*
X137355005Y-83394698D02*
X137413062Y-83423726D01*
X137413062Y-83423726D02*
X137645291Y-83423726D01*
X137064719Y-83162469D02*
X137035691Y-83133441D01*
X137035691Y-83133441D02*
X136977634Y-83104412D01*
X136977634Y-83104412D02*
X136832491Y-83104412D01*
X136832491Y-83104412D02*
X136774434Y-83133441D01*
X136774434Y-83133441D02*
X136745405Y-83162469D01*
X136745405Y-83162469D02*
X136716376Y-83220526D01*
X136716376Y-83220526D02*
X136716376Y-83278584D01*
X136716376Y-83278584D02*
X136745405Y-83365669D01*
X136745405Y-83365669D02*
X137093748Y-83714012D01*
X137093748Y-83714012D02*
X136716376Y-83714012D01*
X137860422Y-78197871D02*
X137860422Y-78633300D01*
X137860422Y-78633300D02*
X137889451Y-78720385D01*
X137889451Y-78720385D02*
X137947508Y-78778443D01*
X137947508Y-78778443D02*
X138034594Y-78807471D01*
X138034594Y-78807471D02*
X138092651Y-78807471D01*
X137570137Y-78807471D02*
X137570137Y-78197871D01*
X137570137Y-78197871D02*
X137337908Y-78197871D01*
X137337908Y-78197871D02*
X137279851Y-78226900D01*
X137279851Y-78226900D02*
X137250822Y-78255928D01*
X137250822Y-78255928D02*
X137221794Y-78313985D01*
X137221794Y-78313985D02*
X137221794Y-78401071D01*
X137221794Y-78401071D02*
X137250822Y-78459128D01*
X137250822Y-78459128D02*
X137279851Y-78488157D01*
X137279851Y-78488157D02*
X137337908Y-78517185D01*
X137337908Y-78517185D02*
X137570137Y-78517185D01*
X136699280Y-78197871D02*
X136815394Y-78197871D01*
X136815394Y-78197871D02*
X136873451Y-78226900D01*
X136873451Y-78226900D02*
X136902480Y-78255928D01*
X136902480Y-78255928D02*
X136960537Y-78343014D01*
X136960537Y-78343014D02*
X136989565Y-78459128D01*
X136989565Y-78459128D02*
X136989565Y-78691357D01*
X136989565Y-78691357D02*
X136960537Y-78749414D01*
X136960537Y-78749414D02*
X136931508Y-78778443D01*
X136931508Y-78778443D02*
X136873451Y-78807471D01*
X136873451Y-78807471D02*
X136757337Y-78807471D01*
X136757337Y-78807471D02*
X136699280Y-78778443D01*
X136699280Y-78778443D02*
X136670251Y-78749414D01*
X136670251Y-78749414D02*
X136641222Y-78691357D01*
X136641222Y-78691357D02*
X136641222Y-78546214D01*
X136641222Y-78546214D02*
X136670251Y-78488157D01*
X136670251Y-78488157D02*
X136699280Y-78459128D01*
X136699280Y-78459128D02*
X136757337Y-78430100D01*
X136757337Y-78430100D02*
X136873451Y-78430100D01*
X136873451Y-78430100D02*
X136931508Y-78459128D01*
X136931508Y-78459128D02*
X136960537Y-78488157D01*
X136960537Y-78488157D02*
X136989565Y-78546214D01*
X103287047Y-109681044D02*
X103287047Y-110068091D01*
X103557980Y-109255291D02*
X103287047Y-109681044D01*
X103287047Y-109681044D02*
X103016113Y-109255291D01*
X102783884Y-109332701D02*
X102745180Y-109293996D01*
X102745180Y-109293996D02*
X102667770Y-109255291D01*
X102667770Y-109255291D02*
X102474246Y-109255291D01*
X102474246Y-109255291D02*
X102396837Y-109293996D01*
X102396837Y-109293996D02*
X102358132Y-109332701D01*
X102358132Y-109332701D02*
X102319427Y-109410110D01*
X102319427Y-109410110D02*
X102319427Y-109487520D01*
X102319427Y-109487520D02*
X102358132Y-109603634D01*
X102358132Y-109603634D02*
X102822589Y-110068091D01*
X102822589Y-110068091D02*
X102319427Y-110068091D01*
X100586030Y-82428114D02*
X100615059Y-82399086D01*
X100615059Y-82399086D02*
X100644087Y-82312000D01*
X100644087Y-82312000D02*
X100644087Y-82253943D01*
X100644087Y-82253943D02*
X100615059Y-82166857D01*
X100615059Y-82166857D02*
X100557001Y-82108800D01*
X100557001Y-82108800D02*
X100498944Y-82079771D01*
X100498944Y-82079771D02*
X100382830Y-82050743D01*
X100382830Y-82050743D02*
X100295744Y-82050743D01*
X100295744Y-82050743D02*
X100179630Y-82079771D01*
X100179630Y-82079771D02*
X100121573Y-82108800D01*
X100121573Y-82108800D02*
X100063516Y-82166857D01*
X100063516Y-82166857D02*
X100034487Y-82253943D01*
X100034487Y-82253943D02*
X100034487Y-82312000D01*
X100034487Y-82312000D02*
X100063516Y-82399086D01*
X100063516Y-82399086D02*
X100092544Y-82428114D01*
X100034487Y-82950629D02*
X100034487Y-82834514D01*
X100034487Y-82834514D02*
X100063516Y-82776457D01*
X100063516Y-82776457D02*
X100092544Y-82747429D01*
X100092544Y-82747429D02*
X100179630Y-82689371D01*
X100179630Y-82689371D02*
X100295744Y-82660343D01*
X100295744Y-82660343D02*
X100527973Y-82660343D01*
X100527973Y-82660343D02*
X100586030Y-82689371D01*
X100586030Y-82689371D02*
X100615059Y-82718400D01*
X100615059Y-82718400D02*
X100644087Y-82776457D01*
X100644087Y-82776457D02*
X100644087Y-82892571D01*
X100644087Y-82892571D02*
X100615059Y-82950629D01*
X100615059Y-82950629D02*
X100586030Y-82979657D01*
X100586030Y-82979657D02*
X100527973Y-83008686D01*
X100527973Y-83008686D02*
X100382830Y-83008686D01*
X100382830Y-83008686D02*
X100324773Y-82979657D01*
X100324773Y-82979657D02*
X100295744Y-82950629D01*
X100295744Y-82950629D02*
X100266716Y-82892571D01*
X100266716Y-82892571D02*
X100266716Y-82776457D01*
X100266716Y-82776457D02*
X100295744Y-82718400D01*
X100295744Y-82718400D02*
X100324773Y-82689371D01*
X100324773Y-82689371D02*
X100382830Y-82660343D01*
X100092544Y-83240914D02*
X100063516Y-83269942D01*
X100063516Y-83269942D02*
X100034487Y-83328000D01*
X100034487Y-83328000D02*
X100034487Y-83473142D01*
X100034487Y-83473142D02*
X100063516Y-83531200D01*
X100063516Y-83531200D02*
X100092544Y-83560228D01*
X100092544Y-83560228D02*
X100150601Y-83589257D01*
X100150601Y-83589257D02*
X100208659Y-83589257D01*
X100208659Y-83589257D02*
X100295744Y-83560228D01*
X100295744Y-83560228D02*
X100644087Y-83211885D01*
X100644087Y-83211885D02*
X100644087Y-83589257D01*
X96915211Y-84943681D02*
X96944240Y-84914653D01*
X96944240Y-84914653D02*
X96973268Y-84827567D01*
X96973268Y-84827567D02*
X96973268Y-84769510D01*
X96973268Y-84769510D02*
X96944240Y-84682424D01*
X96944240Y-84682424D02*
X96886182Y-84624367D01*
X96886182Y-84624367D02*
X96828125Y-84595338D01*
X96828125Y-84595338D02*
X96712011Y-84566310D01*
X96712011Y-84566310D02*
X96624925Y-84566310D01*
X96624925Y-84566310D02*
X96508811Y-84595338D01*
X96508811Y-84595338D02*
X96450754Y-84624367D01*
X96450754Y-84624367D02*
X96392697Y-84682424D01*
X96392697Y-84682424D02*
X96363668Y-84769510D01*
X96363668Y-84769510D02*
X96363668Y-84827567D01*
X96363668Y-84827567D02*
X96392697Y-84914653D01*
X96392697Y-84914653D02*
X96421725Y-84943681D01*
X96363668Y-85495224D02*
X96363668Y-85204938D01*
X96363668Y-85204938D02*
X96653954Y-85175910D01*
X96653954Y-85175910D02*
X96624925Y-85204938D01*
X96624925Y-85204938D02*
X96595897Y-85262996D01*
X96595897Y-85262996D02*
X96595897Y-85408138D01*
X96595897Y-85408138D02*
X96624925Y-85466196D01*
X96624925Y-85466196D02*
X96653954Y-85495224D01*
X96653954Y-85495224D02*
X96712011Y-85524253D01*
X96712011Y-85524253D02*
X96857154Y-85524253D01*
X96857154Y-85524253D02*
X96915211Y-85495224D01*
X96915211Y-85495224D02*
X96944240Y-85466196D01*
X96944240Y-85466196D02*
X96973268Y-85408138D01*
X96973268Y-85408138D02*
X96973268Y-85262996D01*
X96973268Y-85262996D02*
X96944240Y-85204938D01*
X96944240Y-85204938D02*
X96915211Y-85175910D01*
X96363668Y-85727452D02*
X96363668Y-86104824D01*
X96363668Y-86104824D02*
X96595897Y-85901624D01*
X96595897Y-85901624D02*
X96595897Y-85988709D01*
X96595897Y-85988709D02*
X96624925Y-86046767D01*
X96624925Y-86046767D02*
X96653954Y-86075795D01*
X96653954Y-86075795D02*
X96712011Y-86104824D01*
X96712011Y-86104824D02*
X96857154Y-86104824D01*
X96857154Y-86104824D02*
X96915211Y-86075795D01*
X96915211Y-86075795D02*
X96944240Y-86046767D01*
X96944240Y-86046767D02*
X96973268Y-85988709D01*
X96973268Y-85988709D02*
X96973268Y-85814538D01*
X96973268Y-85814538D02*
X96944240Y-85756481D01*
X96944240Y-85756481D02*
X96915211Y-85727452D01*
X116581885Y-100739042D02*
X116610913Y-100768071D01*
X116610913Y-100768071D02*
X116697999Y-100797099D01*
X116697999Y-100797099D02*
X116756056Y-100797099D01*
X116756056Y-100797099D02*
X116843142Y-100768071D01*
X116843142Y-100768071D02*
X116901199Y-100710013D01*
X116901199Y-100710013D02*
X116930228Y-100651956D01*
X116930228Y-100651956D02*
X116959256Y-100535842D01*
X116959256Y-100535842D02*
X116959256Y-100448756D01*
X116959256Y-100448756D02*
X116930228Y-100332642D01*
X116930228Y-100332642D02*
X116901199Y-100274585D01*
X116901199Y-100274585D02*
X116843142Y-100216528D01*
X116843142Y-100216528D02*
X116756056Y-100187499D01*
X116756056Y-100187499D02*
X116697999Y-100187499D01*
X116697999Y-100187499D02*
X116610913Y-100216528D01*
X116610913Y-100216528D02*
X116581885Y-100245556D01*
X116001313Y-100797099D02*
X116349656Y-100797099D01*
X116175485Y-100797099D02*
X116175485Y-100187499D01*
X116175485Y-100187499D02*
X116233542Y-100274585D01*
X116233542Y-100274585D02*
X116291599Y-100332642D01*
X116291599Y-100332642D02*
X116349656Y-100361671D01*
X115478800Y-100187499D02*
X115594914Y-100187499D01*
X115594914Y-100187499D02*
X115652971Y-100216528D01*
X115652971Y-100216528D02*
X115682000Y-100245556D01*
X115682000Y-100245556D02*
X115740057Y-100332642D01*
X115740057Y-100332642D02*
X115769085Y-100448756D01*
X115769085Y-100448756D02*
X115769085Y-100680985D01*
X115769085Y-100680985D02*
X115740057Y-100739042D01*
X115740057Y-100739042D02*
X115711028Y-100768071D01*
X115711028Y-100768071D02*
X115652971Y-100797099D01*
X115652971Y-100797099D02*
X115536857Y-100797099D01*
X115536857Y-100797099D02*
X115478800Y-100768071D01*
X115478800Y-100768071D02*
X115449771Y-100739042D01*
X115449771Y-100739042D02*
X115420742Y-100680985D01*
X115420742Y-100680985D02*
X115420742Y-100535842D01*
X115420742Y-100535842D02*
X115449771Y-100477785D01*
X115449771Y-100477785D02*
X115478800Y-100448756D01*
X115478800Y-100448756D02*
X115536857Y-100419728D01*
X115536857Y-100419728D02*
X115652971Y-100419728D01*
X115652971Y-100419728D02*
X115711028Y-100448756D01*
X115711028Y-100448756D02*
X115740057Y-100477785D01*
X115740057Y-100477785D02*
X115769085Y-100535842D01*
X135741885Y-90386030D02*
X135770913Y-90415059D01*
X135770913Y-90415059D02*
X135857999Y-90444087D01*
X135857999Y-90444087D02*
X135916056Y-90444087D01*
X135916056Y-90444087D02*
X136003142Y-90415059D01*
X136003142Y-90415059D02*
X136061199Y-90357001D01*
X136061199Y-90357001D02*
X136090228Y-90298944D01*
X136090228Y-90298944D02*
X136119256Y-90182830D01*
X136119256Y-90182830D02*
X136119256Y-90095744D01*
X136119256Y-90095744D02*
X136090228Y-89979630D01*
X136090228Y-89979630D02*
X136061199Y-89921573D01*
X136061199Y-89921573D02*
X136003142Y-89863516D01*
X136003142Y-89863516D02*
X135916056Y-89834487D01*
X135916056Y-89834487D02*
X135857999Y-89834487D01*
X135857999Y-89834487D02*
X135770913Y-89863516D01*
X135770913Y-89863516D02*
X135741885Y-89892544D01*
X135538685Y-89834487D02*
X135132285Y-89834487D01*
X135132285Y-89834487D02*
X135393542Y-90444087D01*
X134871028Y-90444087D02*
X134754914Y-90444087D01*
X134754914Y-90444087D02*
X134696857Y-90415059D01*
X134696857Y-90415059D02*
X134667828Y-90386030D01*
X134667828Y-90386030D02*
X134609771Y-90298944D01*
X134609771Y-90298944D02*
X134580742Y-90182830D01*
X134580742Y-90182830D02*
X134580742Y-89950601D01*
X134580742Y-89950601D02*
X134609771Y-89892544D01*
X134609771Y-89892544D02*
X134638800Y-89863516D01*
X134638800Y-89863516D02*
X134696857Y-89834487D01*
X134696857Y-89834487D02*
X134812971Y-89834487D01*
X134812971Y-89834487D02*
X134871028Y-89863516D01*
X134871028Y-89863516D02*
X134900057Y-89892544D01*
X134900057Y-89892544D02*
X134929085Y-89950601D01*
X134929085Y-89950601D02*
X134929085Y-90095744D01*
X134929085Y-90095744D02*
X134900057Y-90153801D01*
X134900057Y-90153801D02*
X134871028Y-90182830D01*
X134871028Y-90182830D02*
X134812971Y-90211859D01*
X134812971Y-90211859D02*
X134696857Y-90211859D01*
X134696857Y-90211859D02*
X134638800Y-90182830D01*
X134638800Y-90182830D02*
X134609771Y-90153801D01*
X134609771Y-90153801D02*
X134580742Y-90095744D01*
X120697112Y-80246030D02*
X120726140Y-80275059D01*
X120726140Y-80275059D02*
X120813226Y-80304087D01*
X120813226Y-80304087D02*
X120871283Y-80304087D01*
X120871283Y-80304087D02*
X120958369Y-80275059D01*
X120958369Y-80275059D02*
X121016426Y-80217001D01*
X121016426Y-80217001D02*
X121045455Y-80158944D01*
X121045455Y-80158944D02*
X121074483Y-80042830D01*
X121074483Y-80042830D02*
X121074483Y-79955744D01*
X121074483Y-79955744D02*
X121045455Y-79839630D01*
X121045455Y-79839630D02*
X121016426Y-79781573D01*
X121016426Y-79781573D02*
X120958369Y-79723516D01*
X120958369Y-79723516D02*
X120871283Y-79694487D01*
X120871283Y-79694487D02*
X120813226Y-79694487D01*
X120813226Y-79694487D02*
X120726140Y-79723516D01*
X120726140Y-79723516D02*
X120697112Y-79752544D01*
X120174598Y-79694487D02*
X120290712Y-79694487D01*
X120290712Y-79694487D02*
X120348769Y-79723516D01*
X120348769Y-79723516D02*
X120377798Y-79752544D01*
X120377798Y-79752544D02*
X120435855Y-79839630D01*
X120435855Y-79839630D02*
X120464883Y-79955744D01*
X120464883Y-79955744D02*
X120464883Y-80187973D01*
X120464883Y-80187973D02*
X120435855Y-80246030D01*
X120435855Y-80246030D02*
X120406826Y-80275059D01*
X120406826Y-80275059D02*
X120348769Y-80304087D01*
X120348769Y-80304087D02*
X120232655Y-80304087D01*
X120232655Y-80304087D02*
X120174598Y-80275059D01*
X120174598Y-80275059D02*
X120145569Y-80246030D01*
X120145569Y-80246030D02*
X120116540Y-80187973D01*
X120116540Y-80187973D02*
X120116540Y-80042830D01*
X120116540Y-80042830D02*
X120145569Y-79984773D01*
X120145569Y-79984773D02*
X120174598Y-79955744D01*
X120174598Y-79955744D02*
X120232655Y-79926716D01*
X120232655Y-79926716D02*
X120348769Y-79926716D01*
X120348769Y-79926716D02*
X120406826Y-79955744D01*
X120406826Y-79955744D02*
X120435855Y-79984773D01*
X120435855Y-79984773D02*
X120464883Y-80042830D01*
X119564998Y-79694487D02*
X119855284Y-79694487D01*
X119855284Y-79694487D02*
X119884312Y-79984773D01*
X119884312Y-79984773D02*
X119855284Y-79955744D01*
X119855284Y-79955744D02*
X119797227Y-79926716D01*
X119797227Y-79926716D02*
X119652084Y-79926716D01*
X119652084Y-79926716D02*
X119594027Y-79955744D01*
X119594027Y-79955744D02*
X119564998Y-79984773D01*
X119564998Y-79984773D02*
X119535969Y-80042830D01*
X119535969Y-80042830D02*
X119535969Y-80187973D01*
X119535969Y-80187973D02*
X119564998Y-80246030D01*
X119564998Y-80246030D02*
X119594027Y-80275059D01*
X119594027Y-80275059D02*
X119652084Y-80304087D01*
X119652084Y-80304087D02*
X119797227Y-80304087D01*
X119797227Y-80304087D02*
X119855284Y-80275059D01*
X119855284Y-80275059D02*
X119884312Y-80246030D01*
X97845211Y-85013681D02*
X97874240Y-84984653D01*
X97874240Y-84984653D02*
X97903268Y-84897567D01*
X97903268Y-84897567D02*
X97903268Y-84839510D01*
X97903268Y-84839510D02*
X97874240Y-84752424D01*
X97874240Y-84752424D02*
X97816182Y-84694367D01*
X97816182Y-84694367D02*
X97758125Y-84665338D01*
X97758125Y-84665338D02*
X97642011Y-84636310D01*
X97642011Y-84636310D02*
X97554925Y-84636310D01*
X97554925Y-84636310D02*
X97438811Y-84665338D01*
X97438811Y-84665338D02*
X97380754Y-84694367D01*
X97380754Y-84694367D02*
X97322697Y-84752424D01*
X97322697Y-84752424D02*
X97293668Y-84839510D01*
X97293668Y-84839510D02*
X97293668Y-84897567D01*
X97293668Y-84897567D02*
X97322697Y-84984653D01*
X97322697Y-84984653D02*
X97351725Y-85013681D01*
X97293668Y-85565224D02*
X97293668Y-85274938D01*
X97293668Y-85274938D02*
X97583954Y-85245910D01*
X97583954Y-85245910D02*
X97554925Y-85274938D01*
X97554925Y-85274938D02*
X97525897Y-85332996D01*
X97525897Y-85332996D02*
X97525897Y-85478138D01*
X97525897Y-85478138D02*
X97554925Y-85536196D01*
X97554925Y-85536196D02*
X97583954Y-85565224D01*
X97583954Y-85565224D02*
X97642011Y-85594253D01*
X97642011Y-85594253D02*
X97787154Y-85594253D01*
X97787154Y-85594253D02*
X97845211Y-85565224D01*
X97845211Y-85565224D02*
X97874240Y-85536196D01*
X97874240Y-85536196D02*
X97903268Y-85478138D01*
X97903268Y-85478138D02*
X97903268Y-85332996D01*
X97903268Y-85332996D02*
X97874240Y-85274938D01*
X97874240Y-85274938D02*
X97845211Y-85245910D01*
X97496868Y-86116767D02*
X97903268Y-86116767D01*
X97264640Y-85971624D02*
X97700068Y-85826481D01*
X97700068Y-85826481D02*
X97700068Y-86203852D01*
X107657585Y-106696030D02*
X107686613Y-106725059D01*
X107686613Y-106725059D02*
X107773699Y-106754087D01*
X107773699Y-106754087D02*
X107831756Y-106754087D01*
X107831756Y-106754087D02*
X107918842Y-106725059D01*
X107918842Y-106725059D02*
X107976899Y-106667001D01*
X107976899Y-106667001D02*
X108005928Y-106608944D01*
X108005928Y-106608944D02*
X108034956Y-106492830D01*
X108034956Y-106492830D02*
X108034956Y-106405744D01*
X108034956Y-106405744D02*
X108005928Y-106289630D01*
X108005928Y-106289630D02*
X107976899Y-106231573D01*
X107976899Y-106231573D02*
X107918842Y-106173516D01*
X107918842Y-106173516D02*
X107831756Y-106144487D01*
X107831756Y-106144487D02*
X107773699Y-106144487D01*
X107773699Y-106144487D02*
X107686613Y-106173516D01*
X107686613Y-106173516D02*
X107657585Y-106202544D01*
X107106042Y-106144487D02*
X107396328Y-106144487D01*
X107396328Y-106144487D02*
X107425356Y-106434773D01*
X107425356Y-106434773D02*
X107396328Y-106405744D01*
X107396328Y-106405744D02*
X107338271Y-106376716D01*
X107338271Y-106376716D02*
X107193128Y-106376716D01*
X107193128Y-106376716D02*
X107135071Y-106405744D01*
X107135071Y-106405744D02*
X107106042Y-106434773D01*
X107106042Y-106434773D02*
X107077013Y-106492830D01*
X107077013Y-106492830D02*
X107077013Y-106637973D01*
X107077013Y-106637973D02*
X107106042Y-106696030D01*
X107106042Y-106696030D02*
X107135071Y-106725059D01*
X107135071Y-106725059D02*
X107193128Y-106754087D01*
X107193128Y-106754087D02*
X107338271Y-106754087D01*
X107338271Y-106754087D02*
X107396328Y-106725059D01*
X107396328Y-106725059D02*
X107425356Y-106696030D01*
X106844785Y-106202544D02*
X106815757Y-106173516D01*
X106815757Y-106173516D02*
X106757700Y-106144487D01*
X106757700Y-106144487D02*
X106612557Y-106144487D01*
X106612557Y-106144487D02*
X106554500Y-106173516D01*
X106554500Y-106173516D02*
X106525471Y-106202544D01*
X106525471Y-106202544D02*
X106496442Y-106260601D01*
X106496442Y-106260601D02*
X106496442Y-106318659D01*
X106496442Y-106318659D02*
X106525471Y-106405744D01*
X106525471Y-106405744D02*
X106873814Y-106754087D01*
X106873814Y-106754087D02*
X106496442Y-106754087D01*
X120063356Y-103912800D02*
X120097223Y-103878933D01*
X120097223Y-103878933D02*
X120131089Y-103777333D01*
X120131089Y-103777333D02*
X120131089Y-103709600D01*
X120131089Y-103709600D02*
X120097223Y-103608000D01*
X120097223Y-103608000D02*
X120029489Y-103540267D01*
X120029489Y-103540267D02*
X119961756Y-103506400D01*
X119961756Y-103506400D02*
X119826289Y-103472533D01*
X119826289Y-103472533D02*
X119724689Y-103472533D01*
X119724689Y-103472533D02*
X119589223Y-103506400D01*
X119589223Y-103506400D02*
X119521489Y-103540267D01*
X119521489Y-103540267D02*
X119453756Y-103608000D01*
X119453756Y-103608000D02*
X119419889Y-103709600D01*
X119419889Y-103709600D02*
X119419889Y-103777333D01*
X119419889Y-103777333D02*
X119453756Y-103878933D01*
X119453756Y-103878933D02*
X119487623Y-103912800D01*
X120131089Y-104590133D02*
X120131089Y-104183733D01*
X120131089Y-104386933D02*
X119419889Y-104386933D01*
X119419889Y-104386933D02*
X119521489Y-104319200D01*
X119521489Y-104319200D02*
X119589223Y-104251467D01*
X119589223Y-104251467D02*
X119623089Y-104183733D01*
X119419889Y-105233600D02*
X119419889Y-104894933D01*
X119419889Y-104894933D02*
X119758556Y-104861066D01*
X119758556Y-104861066D02*
X119724689Y-104894933D01*
X119724689Y-104894933D02*
X119690823Y-104962666D01*
X119690823Y-104962666D02*
X119690823Y-105132000D01*
X119690823Y-105132000D02*
X119724689Y-105199733D01*
X119724689Y-105199733D02*
X119758556Y-105233600D01*
X119758556Y-105233600D02*
X119826289Y-105267466D01*
X119826289Y-105267466D02*
X119995623Y-105267466D01*
X119995623Y-105267466D02*
X120063356Y-105233600D01*
X120063356Y-105233600D02*
X120097223Y-105199733D01*
X120097223Y-105199733D02*
X120131089Y-105132000D01*
X120131089Y-105132000D02*
X120131089Y-104962666D01*
X120131089Y-104962666D02*
X120097223Y-104894933D01*
X120097223Y-104894933D02*
X120063356Y-104861066D01*
X117272199Y-99503356D02*
X117306066Y-99537223D01*
X117306066Y-99537223D02*
X117407666Y-99571089D01*
X117407666Y-99571089D02*
X117475399Y-99571089D01*
X117475399Y-99571089D02*
X117576999Y-99537223D01*
X117576999Y-99537223D02*
X117644733Y-99469489D01*
X117644733Y-99469489D02*
X117678599Y-99401756D01*
X117678599Y-99401756D02*
X117712466Y-99266289D01*
X117712466Y-99266289D02*
X117712466Y-99164689D01*
X117712466Y-99164689D02*
X117678599Y-99029223D01*
X117678599Y-99029223D02*
X117644733Y-98961489D01*
X117644733Y-98961489D02*
X117576999Y-98893756D01*
X117576999Y-98893756D02*
X117475399Y-98859889D01*
X117475399Y-98859889D02*
X117407666Y-98859889D01*
X117407666Y-98859889D02*
X117306066Y-98893756D01*
X117306066Y-98893756D02*
X117272199Y-98927623D01*
X116594866Y-99571089D02*
X117001266Y-99571089D01*
X116798066Y-99571089D02*
X116798066Y-98859889D01*
X116798066Y-98859889D02*
X116865799Y-98961489D01*
X116865799Y-98961489D02*
X116933533Y-99029223D01*
X116933533Y-99029223D02*
X117001266Y-99063089D01*
X116357800Y-98859889D02*
X115883666Y-98859889D01*
X115883666Y-98859889D02*
X116188466Y-99571089D01*
X126181885Y-94486030D02*
X126210913Y-94515059D01*
X126210913Y-94515059D02*
X126297999Y-94544087D01*
X126297999Y-94544087D02*
X126356056Y-94544087D01*
X126356056Y-94544087D02*
X126443142Y-94515059D01*
X126443142Y-94515059D02*
X126501199Y-94457001D01*
X126501199Y-94457001D02*
X126530228Y-94398944D01*
X126530228Y-94398944D02*
X126559256Y-94282830D01*
X126559256Y-94282830D02*
X126559256Y-94195744D01*
X126559256Y-94195744D02*
X126530228Y-94079630D01*
X126530228Y-94079630D02*
X126501199Y-94021573D01*
X126501199Y-94021573D02*
X126443142Y-93963516D01*
X126443142Y-93963516D02*
X126356056Y-93934487D01*
X126356056Y-93934487D02*
X126297999Y-93934487D01*
X126297999Y-93934487D02*
X126210913Y-93963516D01*
X126210913Y-93963516D02*
X126181885Y-93992544D01*
X125978685Y-93934487D02*
X125601313Y-93934487D01*
X125601313Y-93934487D02*
X125804513Y-94166716D01*
X125804513Y-94166716D02*
X125717428Y-94166716D01*
X125717428Y-94166716D02*
X125659371Y-94195744D01*
X125659371Y-94195744D02*
X125630342Y-94224773D01*
X125630342Y-94224773D02*
X125601313Y-94282830D01*
X125601313Y-94282830D02*
X125601313Y-94427973D01*
X125601313Y-94427973D02*
X125630342Y-94486030D01*
X125630342Y-94486030D02*
X125659371Y-94515059D01*
X125659371Y-94515059D02*
X125717428Y-94544087D01*
X125717428Y-94544087D02*
X125891599Y-94544087D01*
X125891599Y-94544087D02*
X125949656Y-94515059D01*
X125949656Y-94515059D02*
X125978685Y-94486030D01*
X125020742Y-94544087D02*
X125369085Y-94544087D01*
X125194914Y-94544087D02*
X125194914Y-93934487D01*
X125194914Y-93934487D02*
X125252971Y-94021573D01*
X125252971Y-94021573D02*
X125311028Y-94079630D01*
X125311028Y-94079630D02*
X125369085Y-94108659D01*
X130213356Y-98382800D02*
X130247223Y-98348933D01*
X130247223Y-98348933D02*
X130281089Y-98247333D01*
X130281089Y-98247333D02*
X130281089Y-98179600D01*
X130281089Y-98179600D02*
X130247223Y-98078000D01*
X130247223Y-98078000D02*
X130179489Y-98010267D01*
X130179489Y-98010267D02*
X130111756Y-97976400D01*
X130111756Y-97976400D02*
X129976289Y-97942533D01*
X129976289Y-97942533D02*
X129874689Y-97942533D01*
X129874689Y-97942533D02*
X129739223Y-97976400D01*
X129739223Y-97976400D02*
X129671489Y-98010267D01*
X129671489Y-98010267D02*
X129603756Y-98078000D01*
X129603756Y-98078000D02*
X129569889Y-98179600D01*
X129569889Y-98179600D02*
X129569889Y-98247333D01*
X129569889Y-98247333D02*
X129603756Y-98348933D01*
X129603756Y-98348933D02*
X129637623Y-98382800D01*
X129569889Y-98992400D02*
X129569889Y-98856933D01*
X129569889Y-98856933D02*
X129603756Y-98789200D01*
X129603756Y-98789200D02*
X129637623Y-98755333D01*
X129637623Y-98755333D02*
X129739223Y-98687600D01*
X129739223Y-98687600D02*
X129874689Y-98653733D01*
X129874689Y-98653733D02*
X130145623Y-98653733D01*
X130145623Y-98653733D02*
X130213356Y-98687600D01*
X130213356Y-98687600D02*
X130247223Y-98721467D01*
X130247223Y-98721467D02*
X130281089Y-98789200D01*
X130281089Y-98789200D02*
X130281089Y-98924667D01*
X130281089Y-98924667D02*
X130247223Y-98992400D01*
X130247223Y-98992400D02*
X130213356Y-99026267D01*
X130213356Y-99026267D02*
X130145623Y-99060133D01*
X130145623Y-99060133D02*
X129976289Y-99060133D01*
X129976289Y-99060133D02*
X129908556Y-99026267D01*
X129908556Y-99026267D02*
X129874689Y-98992400D01*
X129874689Y-98992400D02*
X129840823Y-98924667D01*
X129840823Y-98924667D02*
X129840823Y-98789200D01*
X129840823Y-98789200D02*
X129874689Y-98721467D01*
X129874689Y-98721467D02*
X129908556Y-98687600D01*
X129908556Y-98687600D02*
X129976289Y-98653733D01*
X129569889Y-99500400D02*
X129569889Y-99568133D01*
X129569889Y-99568133D02*
X129603756Y-99635866D01*
X129603756Y-99635866D02*
X129637623Y-99669733D01*
X129637623Y-99669733D02*
X129705356Y-99703600D01*
X129705356Y-99703600D02*
X129840823Y-99737466D01*
X129840823Y-99737466D02*
X130010156Y-99737466D01*
X130010156Y-99737466D02*
X130145623Y-99703600D01*
X130145623Y-99703600D02*
X130213356Y-99669733D01*
X130213356Y-99669733D02*
X130247223Y-99635866D01*
X130247223Y-99635866D02*
X130281089Y-99568133D01*
X130281089Y-99568133D02*
X130281089Y-99500400D01*
X130281089Y-99500400D02*
X130247223Y-99432666D01*
X130247223Y-99432666D02*
X130213356Y-99398800D01*
X130213356Y-99398800D02*
X130145623Y-99364933D01*
X130145623Y-99364933D02*
X130010156Y-99331066D01*
X130010156Y-99331066D02*
X129840823Y-99331066D01*
X129840823Y-99331066D02*
X129705356Y-99364933D01*
X129705356Y-99364933D02*
X129637623Y-99398800D01*
X129637623Y-99398800D02*
X129603756Y-99432666D01*
X129603756Y-99432666D02*
X129569889Y-99500400D01*
X137111885Y-99304087D02*
X137315085Y-99013801D01*
X137460228Y-99304087D02*
X137460228Y-98694487D01*
X137460228Y-98694487D02*
X137227999Y-98694487D01*
X137227999Y-98694487D02*
X137169942Y-98723516D01*
X137169942Y-98723516D02*
X137140913Y-98752544D01*
X137140913Y-98752544D02*
X137111885Y-98810601D01*
X137111885Y-98810601D02*
X137111885Y-98897687D01*
X137111885Y-98897687D02*
X137140913Y-98955744D01*
X137140913Y-98955744D02*
X137169942Y-98984773D01*
X137169942Y-98984773D02*
X137227999Y-99013801D01*
X137227999Y-99013801D02*
X137460228Y-99013801D01*
X136531313Y-99304087D02*
X136879656Y-99304087D01*
X136705485Y-99304087D02*
X136705485Y-98694487D01*
X136705485Y-98694487D02*
X136763542Y-98781573D01*
X136763542Y-98781573D02*
X136821599Y-98839630D01*
X136821599Y-98839630D02*
X136879656Y-98868659D01*
X136241028Y-99304087D02*
X136124914Y-99304087D01*
X136124914Y-99304087D02*
X136066857Y-99275059D01*
X136066857Y-99275059D02*
X136037828Y-99246030D01*
X136037828Y-99246030D02*
X135979771Y-99158944D01*
X135979771Y-99158944D02*
X135950742Y-99042830D01*
X135950742Y-99042830D02*
X135950742Y-98810601D01*
X135950742Y-98810601D02*
X135979771Y-98752544D01*
X135979771Y-98752544D02*
X136008800Y-98723516D01*
X136008800Y-98723516D02*
X136066857Y-98694487D01*
X136066857Y-98694487D02*
X136182971Y-98694487D01*
X136182971Y-98694487D02*
X136241028Y-98723516D01*
X136241028Y-98723516D02*
X136270057Y-98752544D01*
X136270057Y-98752544D02*
X136299085Y-98810601D01*
X136299085Y-98810601D02*
X136299085Y-98955744D01*
X136299085Y-98955744D02*
X136270057Y-99013801D01*
X136270057Y-99013801D02*
X136241028Y-99042830D01*
X136241028Y-99042830D02*
X136182971Y-99071859D01*
X136182971Y-99071859D02*
X136066857Y-99071859D01*
X136066857Y-99071859D02*
X136008800Y-99042830D01*
X136008800Y-99042830D02*
X135979771Y-99013801D01*
X135979771Y-99013801D02*
X135950742Y-98955744D01*
X131387430Y-98488114D02*
X131416459Y-98459086D01*
X131416459Y-98459086D02*
X131445487Y-98372000D01*
X131445487Y-98372000D02*
X131445487Y-98313943D01*
X131445487Y-98313943D02*
X131416459Y-98226857D01*
X131416459Y-98226857D02*
X131358401Y-98168800D01*
X131358401Y-98168800D02*
X131300344Y-98139771D01*
X131300344Y-98139771D02*
X131184230Y-98110743D01*
X131184230Y-98110743D02*
X131097144Y-98110743D01*
X131097144Y-98110743D02*
X130981030Y-98139771D01*
X130981030Y-98139771D02*
X130922973Y-98168800D01*
X130922973Y-98168800D02*
X130864916Y-98226857D01*
X130864916Y-98226857D02*
X130835887Y-98313943D01*
X130835887Y-98313943D02*
X130835887Y-98372000D01*
X130835887Y-98372000D02*
X130864916Y-98459086D01*
X130864916Y-98459086D02*
X130893944Y-98488114D01*
X130835887Y-99039657D02*
X130835887Y-98749371D01*
X130835887Y-98749371D02*
X131126173Y-98720343D01*
X131126173Y-98720343D02*
X131097144Y-98749371D01*
X131097144Y-98749371D02*
X131068116Y-98807429D01*
X131068116Y-98807429D02*
X131068116Y-98952571D01*
X131068116Y-98952571D02*
X131097144Y-99010629D01*
X131097144Y-99010629D02*
X131126173Y-99039657D01*
X131126173Y-99039657D02*
X131184230Y-99068686D01*
X131184230Y-99068686D02*
X131329373Y-99068686D01*
X131329373Y-99068686D02*
X131387430Y-99039657D01*
X131387430Y-99039657D02*
X131416459Y-99010629D01*
X131416459Y-99010629D02*
X131445487Y-98952571D01*
X131445487Y-98952571D02*
X131445487Y-98807429D01*
X131445487Y-98807429D02*
X131416459Y-98749371D01*
X131416459Y-98749371D02*
X131387430Y-98720343D01*
X131445487Y-99358971D02*
X131445487Y-99475085D01*
X131445487Y-99475085D02*
X131416459Y-99533142D01*
X131416459Y-99533142D02*
X131387430Y-99562171D01*
X131387430Y-99562171D02*
X131300344Y-99620228D01*
X131300344Y-99620228D02*
X131184230Y-99649257D01*
X131184230Y-99649257D02*
X130952001Y-99649257D01*
X130952001Y-99649257D02*
X130893944Y-99620228D01*
X130893944Y-99620228D02*
X130864916Y-99591200D01*
X130864916Y-99591200D02*
X130835887Y-99533142D01*
X130835887Y-99533142D02*
X130835887Y-99417028D01*
X130835887Y-99417028D02*
X130864916Y-99358971D01*
X130864916Y-99358971D02*
X130893944Y-99329942D01*
X130893944Y-99329942D02*
X130952001Y-99300914D01*
X130952001Y-99300914D02*
X131097144Y-99300914D01*
X131097144Y-99300914D02*
X131155201Y-99329942D01*
X131155201Y-99329942D02*
X131184230Y-99358971D01*
X131184230Y-99358971D02*
X131213259Y-99417028D01*
X131213259Y-99417028D02*
X131213259Y-99533142D01*
X131213259Y-99533142D02*
X131184230Y-99591200D01*
X131184230Y-99591200D02*
X131155201Y-99620228D01*
X131155201Y-99620228D02*
X131097144Y-99649257D01*
X111265852Y-111334087D02*
X111469052Y-111043801D01*
X111614195Y-111334087D02*
X111614195Y-110724487D01*
X111614195Y-110724487D02*
X111381966Y-110724487D01*
X111381966Y-110724487D02*
X111323909Y-110753516D01*
X111323909Y-110753516D02*
X111294880Y-110782544D01*
X111294880Y-110782544D02*
X111265852Y-110840601D01*
X111265852Y-110840601D02*
X111265852Y-110927687D01*
X111265852Y-110927687D02*
X111294880Y-110985744D01*
X111294880Y-110985744D02*
X111323909Y-111014773D01*
X111323909Y-111014773D02*
X111381966Y-111043801D01*
X111381966Y-111043801D02*
X111614195Y-111043801D01*
X110685280Y-111334087D02*
X111033623Y-111334087D01*
X110859452Y-111334087D02*
X110859452Y-110724487D01*
X110859452Y-110724487D02*
X110917509Y-110811573D01*
X110917509Y-110811573D02*
X110975566Y-110869630D01*
X110975566Y-110869630D02*
X111033623Y-110898659D01*
X110482081Y-110724487D02*
X110075681Y-110724487D01*
X110075681Y-110724487D02*
X110336938Y-111334087D01*
X104681885Y-106716030D02*
X104710913Y-106745059D01*
X104710913Y-106745059D02*
X104797999Y-106774087D01*
X104797999Y-106774087D02*
X104856056Y-106774087D01*
X104856056Y-106774087D02*
X104943142Y-106745059D01*
X104943142Y-106745059D02*
X105001199Y-106687001D01*
X105001199Y-106687001D02*
X105030228Y-106628944D01*
X105030228Y-106628944D02*
X105059256Y-106512830D01*
X105059256Y-106512830D02*
X105059256Y-106425744D01*
X105059256Y-106425744D02*
X105030228Y-106309630D01*
X105030228Y-106309630D02*
X105001199Y-106251573D01*
X105001199Y-106251573D02*
X104943142Y-106193516D01*
X104943142Y-106193516D02*
X104856056Y-106164487D01*
X104856056Y-106164487D02*
X104797999Y-106164487D01*
X104797999Y-106164487D02*
X104710913Y-106193516D01*
X104710913Y-106193516D02*
X104681885Y-106222544D01*
X104159371Y-106367687D02*
X104159371Y-106774087D01*
X104304513Y-106135459D02*
X104449656Y-106570887D01*
X104449656Y-106570887D02*
X104072285Y-106570887D01*
X103549771Y-106164487D02*
X103840057Y-106164487D01*
X103840057Y-106164487D02*
X103869085Y-106454773D01*
X103869085Y-106454773D02*
X103840057Y-106425744D01*
X103840057Y-106425744D02*
X103782000Y-106396716D01*
X103782000Y-106396716D02*
X103636857Y-106396716D01*
X103636857Y-106396716D02*
X103578800Y-106425744D01*
X103578800Y-106425744D02*
X103549771Y-106454773D01*
X103549771Y-106454773D02*
X103520742Y-106512830D01*
X103520742Y-106512830D02*
X103520742Y-106657973D01*
X103520742Y-106657973D02*
X103549771Y-106716030D01*
X103549771Y-106716030D02*
X103578800Y-106745059D01*
X103578800Y-106745059D02*
X103636857Y-106774087D01*
X103636857Y-106774087D02*
X103782000Y-106774087D01*
X103782000Y-106774087D02*
X103840057Y-106745059D01*
X103840057Y-106745059D02*
X103869085Y-106716030D01*
X112051599Y-91266030D02*
X112080627Y-91295059D01*
X112080627Y-91295059D02*
X112167713Y-91324087D01*
X112167713Y-91324087D02*
X112225770Y-91324087D01*
X112225770Y-91324087D02*
X112312856Y-91295059D01*
X112312856Y-91295059D02*
X112370913Y-91237001D01*
X112370913Y-91237001D02*
X112399942Y-91178944D01*
X112399942Y-91178944D02*
X112428970Y-91062830D01*
X112428970Y-91062830D02*
X112428970Y-90975744D01*
X112428970Y-90975744D02*
X112399942Y-90859630D01*
X112399942Y-90859630D02*
X112370913Y-90801573D01*
X112370913Y-90801573D02*
X112312856Y-90743516D01*
X112312856Y-90743516D02*
X112225770Y-90714487D01*
X112225770Y-90714487D02*
X112167713Y-90714487D01*
X112167713Y-90714487D02*
X112080627Y-90743516D01*
X112080627Y-90743516D02*
X112051599Y-90772544D01*
X111529085Y-90917687D02*
X111529085Y-91324087D01*
X111674227Y-90685459D02*
X111819370Y-91120887D01*
X111819370Y-91120887D02*
X111441999Y-91120887D01*
X121746030Y-89898114D02*
X121775059Y-89869086D01*
X121775059Y-89869086D02*
X121804087Y-89782000D01*
X121804087Y-89782000D02*
X121804087Y-89723943D01*
X121804087Y-89723943D02*
X121775059Y-89636857D01*
X121775059Y-89636857D02*
X121717001Y-89578800D01*
X121717001Y-89578800D02*
X121658944Y-89549771D01*
X121658944Y-89549771D02*
X121542830Y-89520743D01*
X121542830Y-89520743D02*
X121455744Y-89520743D01*
X121455744Y-89520743D02*
X121339630Y-89549771D01*
X121339630Y-89549771D02*
X121281573Y-89578800D01*
X121281573Y-89578800D02*
X121223516Y-89636857D01*
X121223516Y-89636857D02*
X121194487Y-89723943D01*
X121194487Y-89723943D02*
X121194487Y-89782000D01*
X121194487Y-89782000D02*
X121223516Y-89869086D01*
X121223516Y-89869086D02*
X121252544Y-89898114D01*
X121252544Y-90130343D02*
X121223516Y-90159371D01*
X121223516Y-90159371D02*
X121194487Y-90217429D01*
X121194487Y-90217429D02*
X121194487Y-90362571D01*
X121194487Y-90362571D02*
X121223516Y-90420629D01*
X121223516Y-90420629D02*
X121252544Y-90449657D01*
X121252544Y-90449657D02*
X121310601Y-90478686D01*
X121310601Y-90478686D02*
X121368659Y-90478686D01*
X121368659Y-90478686D02*
X121455744Y-90449657D01*
X121455744Y-90449657D02*
X121804087Y-90101314D01*
X121804087Y-90101314D02*
X121804087Y-90478686D01*
X121194487Y-91030228D02*
X121194487Y-90739942D01*
X121194487Y-90739942D02*
X121484773Y-90710914D01*
X121484773Y-90710914D02*
X121455744Y-90739942D01*
X121455744Y-90739942D02*
X121426716Y-90798000D01*
X121426716Y-90798000D02*
X121426716Y-90943142D01*
X121426716Y-90943142D02*
X121455744Y-91001200D01*
X121455744Y-91001200D02*
X121484773Y-91030228D01*
X121484773Y-91030228D02*
X121542830Y-91059257D01*
X121542830Y-91059257D02*
X121687973Y-91059257D01*
X121687973Y-91059257D02*
X121746030Y-91030228D01*
X121746030Y-91030228D02*
X121775059Y-91001200D01*
X121775059Y-91001200D02*
X121804087Y-90943142D01*
X121804087Y-90943142D02*
X121804087Y-90798000D01*
X121804087Y-90798000D02*
X121775059Y-90739942D01*
X121775059Y-90739942D02*
X121746030Y-90710914D01*
X111271885Y-110084087D02*
X111475085Y-109793801D01*
X111620228Y-110084087D02*
X111620228Y-109474487D01*
X111620228Y-109474487D02*
X111387999Y-109474487D01*
X111387999Y-109474487D02*
X111329942Y-109503516D01*
X111329942Y-109503516D02*
X111300913Y-109532544D01*
X111300913Y-109532544D02*
X111271885Y-109590601D01*
X111271885Y-109590601D02*
X111271885Y-109677687D01*
X111271885Y-109677687D02*
X111300913Y-109735744D01*
X111300913Y-109735744D02*
X111329942Y-109764773D01*
X111329942Y-109764773D02*
X111387999Y-109793801D01*
X111387999Y-109793801D02*
X111620228Y-109793801D01*
X110691313Y-110084087D02*
X111039656Y-110084087D01*
X110865485Y-110084087D02*
X110865485Y-109474487D01*
X110865485Y-109474487D02*
X110923542Y-109561573D01*
X110923542Y-109561573D02*
X110981599Y-109619630D01*
X110981599Y-109619630D02*
X111039656Y-109648659D01*
X110168800Y-109474487D02*
X110284914Y-109474487D01*
X110284914Y-109474487D02*
X110342971Y-109503516D01*
X110342971Y-109503516D02*
X110372000Y-109532544D01*
X110372000Y-109532544D02*
X110430057Y-109619630D01*
X110430057Y-109619630D02*
X110459085Y-109735744D01*
X110459085Y-109735744D02*
X110459085Y-109967973D01*
X110459085Y-109967973D02*
X110430057Y-110026030D01*
X110430057Y-110026030D02*
X110401028Y-110055059D01*
X110401028Y-110055059D02*
X110342971Y-110084087D01*
X110342971Y-110084087D02*
X110226857Y-110084087D01*
X110226857Y-110084087D02*
X110168800Y-110055059D01*
X110168800Y-110055059D02*
X110139771Y-110026030D01*
X110139771Y-110026030D02*
X110110742Y-109967973D01*
X110110742Y-109967973D02*
X110110742Y-109822830D01*
X110110742Y-109822830D02*
X110139771Y-109764773D01*
X110139771Y-109764773D02*
X110168800Y-109735744D01*
X110168800Y-109735744D02*
X110226857Y-109706716D01*
X110226857Y-109706716D02*
X110342971Y-109706716D01*
X110342971Y-109706716D02*
X110401028Y-109735744D01*
X110401028Y-109735744D02*
X110430057Y-109764773D01*
X110430057Y-109764773D02*
X110459085Y-109822830D01*
X122736030Y-95418114D02*
X122765059Y-95389086D01*
X122765059Y-95389086D02*
X122794087Y-95302000D01*
X122794087Y-95302000D02*
X122794087Y-95243943D01*
X122794087Y-95243943D02*
X122765059Y-95156857D01*
X122765059Y-95156857D02*
X122707001Y-95098800D01*
X122707001Y-95098800D02*
X122648944Y-95069771D01*
X122648944Y-95069771D02*
X122532830Y-95040743D01*
X122532830Y-95040743D02*
X122445744Y-95040743D01*
X122445744Y-95040743D02*
X122329630Y-95069771D01*
X122329630Y-95069771D02*
X122271573Y-95098800D01*
X122271573Y-95098800D02*
X122213516Y-95156857D01*
X122213516Y-95156857D02*
X122184487Y-95243943D01*
X122184487Y-95243943D02*
X122184487Y-95302000D01*
X122184487Y-95302000D02*
X122213516Y-95389086D01*
X122213516Y-95389086D02*
X122242544Y-95418114D01*
X122794087Y-95998686D02*
X122794087Y-95650343D01*
X122794087Y-95824514D02*
X122184487Y-95824514D01*
X122184487Y-95824514D02*
X122271573Y-95766457D01*
X122271573Y-95766457D02*
X122329630Y-95708400D01*
X122329630Y-95708400D02*
X122358659Y-95650343D01*
X122794087Y-96288971D02*
X122794087Y-96405085D01*
X122794087Y-96405085D02*
X122765059Y-96463142D01*
X122765059Y-96463142D02*
X122736030Y-96492171D01*
X122736030Y-96492171D02*
X122648944Y-96550228D01*
X122648944Y-96550228D02*
X122532830Y-96579257D01*
X122532830Y-96579257D02*
X122300601Y-96579257D01*
X122300601Y-96579257D02*
X122242544Y-96550228D01*
X122242544Y-96550228D02*
X122213516Y-96521200D01*
X122213516Y-96521200D02*
X122184487Y-96463142D01*
X122184487Y-96463142D02*
X122184487Y-96347028D01*
X122184487Y-96347028D02*
X122213516Y-96288971D01*
X122213516Y-96288971D02*
X122242544Y-96259942D01*
X122242544Y-96259942D02*
X122300601Y-96230914D01*
X122300601Y-96230914D02*
X122445744Y-96230914D01*
X122445744Y-96230914D02*
X122503801Y-96259942D01*
X122503801Y-96259942D02*
X122532830Y-96288971D01*
X122532830Y-96288971D02*
X122561859Y-96347028D01*
X122561859Y-96347028D02*
X122561859Y-96463142D01*
X122561859Y-96463142D02*
X122532830Y-96521200D01*
X122532830Y-96521200D02*
X122503801Y-96550228D01*
X122503801Y-96550228D02*
X122445744Y-96579257D01*
X121386030Y-98968114D02*
X121415059Y-98939086D01*
X121415059Y-98939086D02*
X121444087Y-98852000D01*
X121444087Y-98852000D02*
X121444087Y-98793943D01*
X121444087Y-98793943D02*
X121415059Y-98706857D01*
X121415059Y-98706857D02*
X121357001Y-98648800D01*
X121357001Y-98648800D02*
X121298944Y-98619771D01*
X121298944Y-98619771D02*
X121182830Y-98590743D01*
X121182830Y-98590743D02*
X121095744Y-98590743D01*
X121095744Y-98590743D02*
X120979630Y-98619771D01*
X120979630Y-98619771D02*
X120921573Y-98648800D01*
X120921573Y-98648800D02*
X120863516Y-98706857D01*
X120863516Y-98706857D02*
X120834487Y-98793943D01*
X120834487Y-98793943D02*
X120834487Y-98852000D01*
X120834487Y-98852000D02*
X120863516Y-98939086D01*
X120863516Y-98939086D02*
X120892544Y-98968114D01*
X120834487Y-99171314D02*
X120834487Y-99548686D01*
X120834487Y-99548686D02*
X121066716Y-99345486D01*
X121066716Y-99345486D02*
X121066716Y-99432571D01*
X121066716Y-99432571D02*
X121095744Y-99490629D01*
X121095744Y-99490629D02*
X121124773Y-99519657D01*
X121124773Y-99519657D02*
X121182830Y-99548686D01*
X121182830Y-99548686D02*
X121327973Y-99548686D01*
X121327973Y-99548686D02*
X121386030Y-99519657D01*
X121386030Y-99519657D02*
X121415059Y-99490629D01*
X121415059Y-99490629D02*
X121444087Y-99432571D01*
X121444087Y-99432571D02*
X121444087Y-99258400D01*
X121444087Y-99258400D02*
X121415059Y-99200343D01*
X121415059Y-99200343D02*
X121386030Y-99171314D01*
X120892544Y-99780914D02*
X120863516Y-99809942D01*
X120863516Y-99809942D02*
X120834487Y-99868000D01*
X120834487Y-99868000D02*
X120834487Y-100013142D01*
X120834487Y-100013142D02*
X120863516Y-100071200D01*
X120863516Y-100071200D02*
X120892544Y-100100228D01*
X120892544Y-100100228D02*
X120950601Y-100129257D01*
X120950601Y-100129257D02*
X121008659Y-100129257D01*
X121008659Y-100129257D02*
X121095744Y-100100228D01*
X121095744Y-100100228D02*
X121444087Y-99751885D01*
X121444087Y-99751885D02*
X121444087Y-100129257D01*
X101506030Y-82428114D02*
X101535059Y-82399086D01*
X101535059Y-82399086D02*
X101564087Y-82312000D01*
X101564087Y-82312000D02*
X101564087Y-82253943D01*
X101564087Y-82253943D02*
X101535059Y-82166857D01*
X101535059Y-82166857D02*
X101477001Y-82108800D01*
X101477001Y-82108800D02*
X101418944Y-82079771D01*
X101418944Y-82079771D02*
X101302830Y-82050743D01*
X101302830Y-82050743D02*
X101215744Y-82050743D01*
X101215744Y-82050743D02*
X101099630Y-82079771D01*
X101099630Y-82079771D02*
X101041573Y-82108800D01*
X101041573Y-82108800D02*
X100983516Y-82166857D01*
X100983516Y-82166857D02*
X100954487Y-82253943D01*
X100954487Y-82253943D02*
X100954487Y-82312000D01*
X100954487Y-82312000D02*
X100983516Y-82399086D01*
X100983516Y-82399086D02*
X101012544Y-82428114D01*
X100954487Y-82950629D02*
X100954487Y-82834514D01*
X100954487Y-82834514D02*
X100983516Y-82776457D01*
X100983516Y-82776457D02*
X101012544Y-82747429D01*
X101012544Y-82747429D02*
X101099630Y-82689371D01*
X101099630Y-82689371D02*
X101215744Y-82660343D01*
X101215744Y-82660343D02*
X101447973Y-82660343D01*
X101447973Y-82660343D02*
X101506030Y-82689371D01*
X101506030Y-82689371D02*
X101535059Y-82718400D01*
X101535059Y-82718400D02*
X101564087Y-82776457D01*
X101564087Y-82776457D02*
X101564087Y-82892571D01*
X101564087Y-82892571D02*
X101535059Y-82950629D01*
X101535059Y-82950629D02*
X101506030Y-82979657D01*
X101506030Y-82979657D02*
X101447973Y-83008686D01*
X101447973Y-83008686D02*
X101302830Y-83008686D01*
X101302830Y-83008686D02*
X101244773Y-82979657D01*
X101244773Y-82979657D02*
X101215744Y-82950629D01*
X101215744Y-82950629D02*
X101186716Y-82892571D01*
X101186716Y-82892571D02*
X101186716Y-82776457D01*
X101186716Y-82776457D02*
X101215744Y-82718400D01*
X101215744Y-82718400D02*
X101244773Y-82689371D01*
X101244773Y-82689371D02*
X101302830Y-82660343D01*
X101564087Y-83589257D02*
X101564087Y-83240914D01*
X101564087Y-83415085D02*
X100954487Y-83415085D01*
X100954487Y-83415085D02*
X101041573Y-83357028D01*
X101041573Y-83357028D02*
X101099630Y-83298971D01*
X101099630Y-83298971D02*
X101128659Y-83240914D01*
X133065108Y-93713114D02*
X133094137Y-93684086D01*
X133094137Y-93684086D02*
X133123165Y-93597000D01*
X133123165Y-93597000D02*
X133123165Y-93538943D01*
X133123165Y-93538943D02*
X133094137Y-93451857D01*
X133094137Y-93451857D02*
X133036079Y-93393800D01*
X133036079Y-93393800D02*
X132978022Y-93364771D01*
X132978022Y-93364771D02*
X132861908Y-93335743D01*
X132861908Y-93335743D02*
X132774822Y-93335743D01*
X132774822Y-93335743D02*
X132658708Y-93364771D01*
X132658708Y-93364771D02*
X132600651Y-93393800D01*
X132600651Y-93393800D02*
X132542594Y-93451857D01*
X132542594Y-93451857D02*
X132513565Y-93538943D01*
X132513565Y-93538943D02*
X132513565Y-93597000D01*
X132513565Y-93597000D02*
X132542594Y-93684086D01*
X132542594Y-93684086D02*
X132571622Y-93713114D01*
X132513565Y-94264657D02*
X132513565Y-93974371D01*
X132513565Y-93974371D02*
X132803851Y-93945343D01*
X132803851Y-93945343D02*
X132774822Y-93974371D01*
X132774822Y-93974371D02*
X132745794Y-94032429D01*
X132745794Y-94032429D02*
X132745794Y-94177571D01*
X132745794Y-94177571D02*
X132774822Y-94235629D01*
X132774822Y-94235629D02*
X132803851Y-94264657D01*
X132803851Y-94264657D02*
X132861908Y-94293686D01*
X132861908Y-94293686D02*
X133007051Y-94293686D01*
X133007051Y-94293686D02*
X133065108Y-94264657D01*
X133065108Y-94264657D02*
X133094137Y-94235629D01*
X133094137Y-94235629D02*
X133123165Y-94177571D01*
X133123165Y-94177571D02*
X133123165Y-94032429D01*
X133123165Y-94032429D02*
X133094137Y-93974371D01*
X133094137Y-93974371D02*
X133065108Y-93945343D01*
X132513565Y-94496885D02*
X132513565Y-94903285D01*
X132513565Y-94903285D02*
X133123165Y-94642028D01*
X130803356Y-94812800D02*
X130837223Y-94778933D01*
X130837223Y-94778933D02*
X130871089Y-94677333D01*
X130871089Y-94677333D02*
X130871089Y-94609600D01*
X130871089Y-94609600D02*
X130837223Y-94508000D01*
X130837223Y-94508000D02*
X130769489Y-94440267D01*
X130769489Y-94440267D02*
X130701756Y-94406400D01*
X130701756Y-94406400D02*
X130566289Y-94372533D01*
X130566289Y-94372533D02*
X130464689Y-94372533D01*
X130464689Y-94372533D02*
X130329223Y-94406400D01*
X130329223Y-94406400D02*
X130261489Y-94440267D01*
X130261489Y-94440267D02*
X130193756Y-94508000D01*
X130193756Y-94508000D02*
X130159889Y-94609600D01*
X130159889Y-94609600D02*
X130159889Y-94677333D01*
X130159889Y-94677333D02*
X130193756Y-94778933D01*
X130193756Y-94778933D02*
X130227623Y-94812800D01*
X130159889Y-95456267D02*
X130159889Y-95117600D01*
X130159889Y-95117600D02*
X130498556Y-95083733D01*
X130498556Y-95083733D02*
X130464689Y-95117600D01*
X130464689Y-95117600D02*
X130430823Y-95185333D01*
X130430823Y-95185333D02*
X130430823Y-95354667D01*
X130430823Y-95354667D02*
X130464689Y-95422400D01*
X130464689Y-95422400D02*
X130498556Y-95456267D01*
X130498556Y-95456267D02*
X130566289Y-95490133D01*
X130566289Y-95490133D02*
X130735623Y-95490133D01*
X130735623Y-95490133D02*
X130803356Y-95456267D01*
X130803356Y-95456267D02*
X130837223Y-95422400D01*
X130837223Y-95422400D02*
X130871089Y-95354667D01*
X130871089Y-95354667D02*
X130871089Y-95185333D01*
X130871089Y-95185333D02*
X130837223Y-95117600D01*
X130837223Y-95117600D02*
X130803356Y-95083733D01*
X130464689Y-95896533D02*
X130430823Y-95828800D01*
X130430823Y-95828800D02*
X130396956Y-95794933D01*
X130396956Y-95794933D02*
X130329223Y-95761066D01*
X130329223Y-95761066D02*
X130295356Y-95761066D01*
X130295356Y-95761066D02*
X130227623Y-95794933D01*
X130227623Y-95794933D02*
X130193756Y-95828800D01*
X130193756Y-95828800D02*
X130159889Y-95896533D01*
X130159889Y-95896533D02*
X130159889Y-96032000D01*
X130159889Y-96032000D02*
X130193756Y-96099733D01*
X130193756Y-96099733D02*
X130227623Y-96133600D01*
X130227623Y-96133600D02*
X130295356Y-96167466D01*
X130295356Y-96167466D02*
X130329223Y-96167466D01*
X130329223Y-96167466D02*
X130396956Y-96133600D01*
X130396956Y-96133600D02*
X130430823Y-96099733D01*
X130430823Y-96099733D02*
X130464689Y-96032000D01*
X130464689Y-96032000D02*
X130464689Y-95896533D01*
X130464689Y-95896533D02*
X130498556Y-95828800D01*
X130498556Y-95828800D02*
X130532423Y-95794933D01*
X130532423Y-95794933D02*
X130600156Y-95761066D01*
X130600156Y-95761066D02*
X130735623Y-95761066D01*
X130735623Y-95761066D02*
X130803356Y-95794933D01*
X130803356Y-95794933D02*
X130837223Y-95828800D01*
X130837223Y-95828800D02*
X130871089Y-95896533D01*
X130871089Y-95896533D02*
X130871089Y-96032000D01*
X130871089Y-96032000D02*
X130837223Y-96099733D01*
X130837223Y-96099733D02*
X130803356Y-96133600D01*
X130803356Y-96133600D02*
X130735623Y-96167466D01*
X130735623Y-96167466D02*
X130600156Y-96167466D01*
X130600156Y-96167466D02*
X130532423Y-96133600D01*
X130532423Y-96133600D02*
X130498556Y-96099733D01*
X130498556Y-96099733D02*
X130464689Y-96032000D01*
X117361599Y-96686030D02*
X117390627Y-96715059D01*
X117390627Y-96715059D02*
X117477713Y-96744087D01*
X117477713Y-96744087D02*
X117535770Y-96744087D01*
X117535770Y-96744087D02*
X117622856Y-96715059D01*
X117622856Y-96715059D02*
X117680913Y-96657001D01*
X117680913Y-96657001D02*
X117709942Y-96598944D01*
X117709942Y-96598944D02*
X117738970Y-96482830D01*
X117738970Y-96482830D02*
X117738970Y-96395744D01*
X117738970Y-96395744D02*
X117709942Y-96279630D01*
X117709942Y-96279630D02*
X117680913Y-96221573D01*
X117680913Y-96221573D02*
X117622856Y-96163516D01*
X117622856Y-96163516D02*
X117535770Y-96134487D01*
X117535770Y-96134487D02*
X117477713Y-96134487D01*
X117477713Y-96134487D02*
X117390627Y-96163516D01*
X117390627Y-96163516D02*
X117361599Y-96192544D01*
X116810056Y-96134487D02*
X117100342Y-96134487D01*
X117100342Y-96134487D02*
X117129370Y-96424773D01*
X117129370Y-96424773D02*
X117100342Y-96395744D01*
X117100342Y-96395744D02*
X117042285Y-96366716D01*
X117042285Y-96366716D02*
X116897142Y-96366716D01*
X116897142Y-96366716D02*
X116839085Y-96395744D01*
X116839085Y-96395744D02*
X116810056Y-96424773D01*
X116810056Y-96424773D02*
X116781027Y-96482830D01*
X116781027Y-96482830D02*
X116781027Y-96627973D01*
X116781027Y-96627973D02*
X116810056Y-96686030D01*
X116810056Y-96686030D02*
X116839085Y-96715059D01*
X116839085Y-96715059D02*
X116897142Y-96744087D01*
X116897142Y-96744087D02*
X117042285Y-96744087D01*
X117042285Y-96744087D02*
X117100342Y-96715059D01*
X117100342Y-96715059D02*
X117129370Y-96686030D01*
X121922426Y-81483356D02*
X121956293Y-81517223D01*
X121956293Y-81517223D02*
X122057893Y-81551089D01*
X122057893Y-81551089D02*
X122125626Y-81551089D01*
X122125626Y-81551089D02*
X122227226Y-81517223D01*
X122227226Y-81517223D02*
X122294960Y-81449489D01*
X122294960Y-81449489D02*
X122328826Y-81381756D01*
X122328826Y-81381756D02*
X122362693Y-81246289D01*
X122362693Y-81246289D02*
X122362693Y-81144689D01*
X122362693Y-81144689D02*
X122328826Y-81009223D01*
X122328826Y-81009223D02*
X122294960Y-80941489D01*
X122294960Y-80941489D02*
X122227226Y-80873756D01*
X122227226Y-80873756D02*
X122125626Y-80839889D01*
X122125626Y-80839889D02*
X122057893Y-80839889D01*
X122057893Y-80839889D02*
X121956293Y-80873756D01*
X121956293Y-80873756D02*
X121922426Y-80907623D01*
X121312826Y-80839889D02*
X121448293Y-80839889D01*
X121448293Y-80839889D02*
X121516026Y-80873756D01*
X121516026Y-80873756D02*
X121549893Y-80907623D01*
X121549893Y-80907623D02*
X121617626Y-81009223D01*
X121617626Y-81009223D02*
X121651493Y-81144689D01*
X121651493Y-81144689D02*
X121651493Y-81415623D01*
X121651493Y-81415623D02*
X121617626Y-81483356D01*
X121617626Y-81483356D02*
X121583760Y-81517223D01*
X121583760Y-81517223D02*
X121516026Y-81551089D01*
X121516026Y-81551089D02*
X121380560Y-81551089D01*
X121380560Y-81551089D02*
X121312826Y-81517223D01*
X121312826Y-81517223D02*
X121278960Y-81483356D01*
X121278960Y-81483356D02*
X121245093Y-81415623D01*
X121245093Y-81415623D02*
X121245093Y-81246289D01*
X121245093Y-81246289D02*
X121278960Y-81178556D01*
X121278960Y-81178556D02*
X121312826Y-81144689D01*
X121312826Y-81144689D02*
X121380560Y-81110823D01*
X121380560Y-81110823D02*
X121516026Y-81110823D01*
X121516026Y-81110823D02*
X121583760Y-81144689D01*
X121583760Y-81144689D02*
X121617626Y-81178556D01*
X121617626Y-81178556D02*
X121651493Y-81246289D01*
X120635493Y-80839889D02*
X120770960Y-80839889D01*
X120770960Y-80839889D02*
X120838693Y-80873756D01*
X120838693Y-80873756D02*
X120872560Y-80907623D01*
X120872560Y-80907623D02*
X120940293Y-81009223D01*
X120940293Y-81009223D02*
X120974160Y-81144689D01*
X120974160Y-81144689D02*
X120974160Y-81415623D01*
X120974160Y-81415623D02*
X120940293Y-81483356D01*
X120940293Y-81483356D02*
X120906427Y-81517223D01*
X120906427Y-81517223D02*
X120838693Y-81551089D01*
X120838693Y-81551089D02*
X120703227Y-81551089D01*
X120703227Y-81551089D02*
X120635493Y-81517223D01*
X120635493Y-81517223D02*
X120601627Y-81483356D01*
X120601627Y-81483356D02*
X120567760Y-81415623D01*
X120567760Y-81415623D02*
X120567760Y-81246289D01*
X120567760Y-81246289D02*
X120601627Y-81178556D01*
X120601627Y-81178556D02*
X120635493Y-81144689D01*
X120635493Y-81144689D02*
X120703227Y-81110823D01*
X120703227Y-81110823D02*
X120838693Y-81110823D01*
X120838693Y-81110823D02*
X120906427Y-81144689D01*
X120906427Y-81144689D02*
X120940293Y-81178556D01*
X120940293Y-81178556D02*
X120974160Y-81246289D01*
X119866030Y-97251126D02*
X119895059Y-97222098D01*
X119895059Y-97222098D02*
X119924087Y-97135012D01*
X119924087Y-97135012D02*
X119924087Y-97076955D01*
X119924087Y-97076955D02*
X119895059Y-96989869D01*
X119895059Y-96989869D02*
X119837001Y-96931812D01*
X119837001Y-96931812D02*
X119778944Y-96902783D01*
X119778944Y-96902783D02*
X119662830Y-96873755D01*
X119662830Y-96873755D02*
X119575744Y-96873755D01*
X119575744Y-96873755D02*
X119459630Y-96902783D01*
X119459630Y-96902783D02*
X119401573Y-96931812D01*
X119401573Y-96931812D02*
X119343516Y-96989869D01*
X119343516Y-96989869D02*
X119314487Y-97076955D01*
X119314487Y-97076955D02*
X119314487Y-97135012D01*
X119314487Y-97135012D02*
X119343516Y-97222098D01*
X119343516Y-97222098D02*
X119372544Y-97251126D01*
X119372544Y-97483355D02*
X119343516Y-97512383D01*
X119343516Y-97512383D02*
X119314487Y-97570441D01*
X119314487Y-97570441D02*
X119314487Y-97715583D01*
X119314487Y-97715583D02*
X119343516Y-97773641D01*
X119343516Y-97773641D02*
X119372544Y-97802669D01*
X119372544Y-97802669D02*
X119430601Y-97831698D01*
X119430601Y-97831698D02*
X119488659Y-97831698D01*
X119488659Y-97831698D02*
X119575744Y-97802669D01*
X119575744Y-97802669D02*
X119924087Y-97454326D01*
X119924087Y-97454326D02*
X119924087Y-97831698D01*
X119575744Y-98180040D02*
X119546716Y-98121983D01*
X119546716Y-98121983D02*
X119517687Y-98092954D01*
X119517687Y-98092954D02*
X119459630Y-98063926D01*
X119459630Y-98063926D02*
X119430601Y-98063926D01*
X119430601Y-98063926D02*
X119372544Y-98092954D01*
X119372544Y-98092954D02*
X119343516Y-98121983D01*
X119343516Y-98121983D02*
X119314487Y-98180040D01*
X119314487Y-98180040D02*
X119314487Y-98296154D01*
X119314487Y-98296154D02*
X119343516Y-98354212D01*
X119343516Y-98354212D02*
X119372544Y-98383240D01*
X119372544Y-98383240D02*
X119430601Y-98412269D01*
X119430601Y-98412269D02*
X119459630Y-98412269D01*
X119459630Y-98412269D02*
X119517687Y-98383240D01*
X119517687Y-98383240D02*
X119546716Y-98354212D01*
X119546716Y-98354212D02*
X119575744Y-98296154D01*
X119575744Y-98296154D02*
X119575744Y-98180040D01*
X119575744Y-98180040D02*
X119604773Y-98121983D01*
X119604773Y-98121983D02*
X119633801Y-98092954D01*
X119633801Y-98092954D02*
X119691859Y-98063926D01*
X119691859Y-98063926D02*
X119807973Y-98063926D01*
X119807973Y-98063926D02*
X119866030Y-98092954D01*
X119866030Y-98092954D02*
X119895059Y-98121983D01*
X119895059Y-98121983D02*
X119924087Y-98180040D01*
X119924087Y-98180040D02*
X119924087Y-98296154D01*
X119924087Y-98296154D02*
X119895059Y-98354212D01*
X119895059Y-98354212D02*
X119866030Y-98383240D01*
X119866030Y-98383240D02*
X119807973Y-98412269D01*
X119807973Y-98412269D02*
X119691859Y-98412269D01*
X119691859Y-98412269D02*
X119633801Y-98383240D01*
X119633801Y-98383240D02*
X119604773Y-98354212D01*
X119604773Y-98354212D02*
X119575744Y-98296154D01*
X116933356Y-79712800D02*
X116967223Y-79678933D01*
X116967223Y-79678933D02*
X117001089Y-79577333D01*
X117001089Y-79577333D02*
X117001089Y-79509600D01*
X117001089Y-79509600D02*
X116967223Y-79408000D01*
X116967223Y-79408000D02*
X116899489Y-79340267D01*
X116899489Y-79340267D02*
X116831756Y-79306400D01*
X116831756Y-79306400D02*
X116696289Y-79272533D01*
X116696289Y-79272533D02*
X116594689Y-79272533D01*
X116594689Y-79272533D02*
X116459223Y-79306400D01*
X116459223Y-79306400D02*
X116391489Y-79340267D01*
X116391489Y-79340267D02*
X116323756Y-79408000D01*
X116323756Y-79408000D02*
X116289889Y-79509600D01*
X116289889Y-79509600D02*
X116289889Y-79577333D01*
X116289889Y-79577333D02*
X116323756Y-79678933D01*
X116323756Y-79678933D02*
X116357623Y-79712800D01*
X116289889Y-80322400D02*
X116289889Y-80186933D01*
X116289889Y-80186933D02*
X116323756Y-80119200D01*
X116323756Y-80119200D02*
X116357623Y-80085333D01*
X116357623Y-80085333D02*
X116459223Y-80017600D01*
X116459223Y-80017600D02*
X116594689Y-79983733D01*
X116594689Y-79983733D02*
X116865623Y-79983733D01*
X116865623Y-79983733D02*
X116933356Y-80017600D01*
X116933356Y-80017600D02*
X116967223Y-80051467D01*
X116967223Y-80051467D02*
X117001089Y-80119200D01*
X117001089Y-80119200D02*
X117001089Y-80254667D01*
X117001089Y-80254667D02*
X116967223Y-80322400D01*
X116967223Y-80322400D02*
X116933356Y-80356267D01*
X116933356Y-80356267D02*
X116865623Y-80390133D01*
X116865623Y-80390133D02*
X116696289Y-80390133D01*
X116696289Y-80390133D02*
X116628556Y-80356267D01*
X116628556Y-80356267D02*
X116594689Y-80322400D01*
X116594689Y-80322400D02*
X116560823Y-80254667D01*
X116560823Y-80254667D02*
X116560823Y-80119200D01*
X116560823Y-80119200D02*
X116594689Y-80051467D01*
X116594689Y-80051467D02*
X116628556Y-80017600D01*
X116628556Y-80017600D02*
X116696289Y-79983733D01*
X116526956Y-80999733D02*
X117001089Y-80999733D01*
X116256023Y-80830400D02*
X116764023Y-80661066D01*
X116764023Y-80661066D02*
X116764023Y-81101333D01*
X136231996Y-91754608D02*
X136469062Y-91754608D01*
X136469062Y-92127141D02*
X136469062Y-91415941D01*
X136469062Y-91415941D02*
X136130396Y-91415941D01*
X135622396Y-91754608D02*
X135520796Y-91788475D01*
X135520796Y-91788475D02*
X135486929Y-91822341D01*
X135486929Y-91822341D02*
X135453062Y-91890075D01*
X135453062Y-91890075D02*
X135453062Y-91991675D01*
X135453062Y-91991675D02*
X135486929Y-92059408D01*
X135486929Y-92059408D02*
X135520796Y-92093275D01*
X135520796Y-92093275D02*
X135588529Y-92127141D01*
X135588529Y-92127141D02*
X135859462Y-92127141D01*
X135859462Y-92127141D02*
X135859462Y-91415941D01*
X135859462Y-91415941D02*
X135622396Y-91415941D01*
X135622396Y-91415941D02*
X135554662Y-91449808D01*
X135554662Y-91449808D02*
X135520796Y-91483675D01*
X135520796Y-91483675D02*
X135486929Y-91551408D01*
X135486929Y-91551408D02*
X135486929Y-91619141D01*
X135486929Y-91619141D02*
X135520796Y-91686875D01*
X135520796Y-91686875D02*
X135554662Y-91720741D01*
X135554662Y-91720741D02*
X135622396Y-91754608D01*
X135622396Y-91754608D02*
X135859462Y-91754608D01*
X134809596Y-91415941D02*
X135148262Y-91415941D01*
X135148262Y-91415941D02*
X135182129Y-91754608D01*
X135182129Y-91754608D02*
X135148262Y-91720741D01*
X135148262Y-91720741D02*
X135080529Y-91686875D01*
X135080529Y-91686875D02*
X134911196Y-91686875D01*
X134911196Y-91686875D02*
X134843462Y-91720741D01*
X134843462Y-91720741D02*
X134809596Y-91754608D01*
X134809596Y-91754608D02*
X134775729Y-91822341D01*
X134775729Y-91822341D02*
X134775729Y-91991675D01*
X134775729Y-91991675D02*
X134809596Y-92059408D01*
X134809596Y-92059408D02*
X134843462Y-92093275D01*
X134843462Y-92093275D02*
X134911196Y-92127141D01*
X134911196Y-92127141D02*
X135080529Y-92127141D01*
X135080529Y-92127141D02*
X135148262Y-92093275D01*
X135148262Y-92093275D02*
X135182129Y-92059408D01*
X115289165Y-102352603D02*
X115676213Y-102352603D01*
X115676213Y-102352603D02*
X115676213Y-101539803D01*
X114592479Y-102352603D02*
X115056936Y-102352603D01*
X114824708Y-102352603D02*
X114824708Y-101539803D01*
X114824708Y-101539803D02*
X114902117Y-101655918D01*
X114902117Y-101655918D02*
X114979527Y-101733327D01*
X114979527Y-101733327D02*
X115056936Y-101772032D01*
X118891885Y-92106030D02*
X118920913Y-92135059D01*
X118920913Y-92135059D02*
X119007999Y-92164087D01*
X119007999Y-92164087D02*
X119066056Y-92164087D01*
X119066056Y-92164087D02*
X119153142Y-92135059D01*
X119153142Y-92135059D02*
X119211199Y-92077001D01*
X119211199Y-92077001D02*
X119240228Y-92018944D01*
X119240228Y-92018944D02*
X119269256Y-91902830D01*
X119269256Y-91902830D02*
X119269256Y-91815744D01*
X119269256Y-91815744D02*
X119240228Y-91699630D01*
X119240228Y-91699630D02*
X119211199Y-91641573D01*
X119211199Y-91641573D02*
X119153142Y-91583516D01*
X119153142Y-91583516D02*
X119066056Y-91554487D01*
X119066056Y-91554487D02*
X119007999Y-91554487D01*
X119007999Y-91554487D02*
X118920913Y-91583516D01*
X118920913Y-91583516D02*
X118891885Y-91612544D01*
X118659656Y-91612544D02*
X118630628Y-91583516D01*
X118630628Y-91583516D02*
X118572571Y-91554487D01*
X118572571Y-91554487D02*
X118427428Y-91554487D01*
X118427428Y-91554487D02*
X118369371Y-91583516D01*
X118369371Y-91583516D02*
X118340342Y-91612544D01*
X118340342Y-91612544D02*
X118311313Y-91670601D01*
X118311313Y-91670601D02*
X118311313Y-91728659D01*
X118311313Y-91728659D02*
X118340342Y-91815744D01*
X118340342Y-91815744D02*
X118688685Y-92164087D01*
X118688685Y-92164087D02*
X118311313Y-92164087D01*
X117933942Y-91554487D02*
X117875885Y-91554487D01*
X117875885Y-91554487D02*
X117817828Y-91583516D01*
X117817828Y-91583516D02*
X117788800Y-91612544D01*
X117788800Y-91612544D02*
X117759771Y-91670601D01*
X117759771Y-91670601D02*
X117730742Y-91786716D01*
X117730742Y-91786716D02*
X117730742Y-91931859D01*
X117730742Y-91931859D02*
X117759771Y-92047973D01*
X117759771Y-92047973D02*
X117788800Y-92106030D01*
X117788800Y-92106030D02*
X117817828Y-92135059D01*
X117817828Y-92135059D02*
X117875885Y-92164087D01*
X117875885Y-92164087D02*
X117933942Y-92164087D01*
X117933942Y-92164087D02*
X117992000Y-92135059D01*
X117992000Y-92135059D02*
X118021028Y-92106030D01*
X118021028Y-92106030D02*
X118050057Y-92047973D01*
X118050057Y-92047973D02*
X118079085Y-91931859D01*
X118079085Y-91931859D02*
X118079085Y-91786716D01*
X118079085Y-91786716D02*
X118050057Y-91670601D01*
X118050057Y-91670601D02*
X118021028Y-91612544D01*
X118021028Y-91612544D02*
X117992000Y-91583516D01*
X117992000Y-91583516D02*
X117933942Y-91554487D01*
X115716030Y-91138114D02*
X115745059Y-91109086D01*
X115745059Y-91109086D02*
X115774087Y-91022000D01*
X115774087Y-91022000D02*
X115774087Y-90963943D01*
X115774087Y-90963943D02*
X115745059Y-90876857D01*
X115745059Y-90876857D02*
X115687001Y-90818800D01*
X115687001Y-90818800D02*
X115628944Y-90789771D01*
X115628944Y-90789771D02*
X115512830Y-90760743D01*
X115512830Y-90760743D02*
X115425744Y-90760743D01*
X115425744Y-90760743D02*
X115309630Y-90789771D01*
X115309630Y-90789771D02*
X115251573Y-90818800D01*
X115251573Y-90818800D02*
X115193516Y-90876857D01*
X115193516Y-90876857D02*
X115164487Y-90963943D01*
X115164487Y-90963943D02*
X115164487Y-91022000D01*
X115164487Y-91022000D02*
X115193516Y-91109086D01*
X115193516Y-91109086D02*
X115222544Y-91138114D01*
X115222544Y-91370343D02*
X115193516Y-91399371D01*
X115193516Y-91399371D02*
X115164487Y-91457429D01*
X115164487Y-91457429D02*
X115164487Y-91602571D01*
X115164487Y-91602571D02*
X115193516Y-91660629D01*
X115193516Y-91660629D02*
X115222544Y-91689657D01*
X115222544Y-91689657D02*
X115280601Y-91718686D01*
X115280601Y-91718686D02*
X115338659Y-91718686D01*
X115338659Y-91718686D02*
X115425744Y-91689657D01*
X115425744Y-91689657D02*
X115774087Y-91341314D01*
X115774087Y-91341314D02*
X115774087Y-91718686D01*
X115367687Y-92241200D02*
X115774087Y-92241200D01*
X115135459Y-92096057D02*
X115570887Y-91950914D01*
X115570887Y-91950914D02*
X115570887Y-92328285D01*
X115076030Y-95538114D02*
X115105059Y-95509086D01*
X115105059Y-95509086D02*
X115134087Y-95422000D01*
X115134087Y-95422000D02*
X115134087Y-95363943D01*
X115134087Y-95363943D02*
X115105059Y-95276857D01*
X115105059Y-95276857D02*
X115047001Y-95218800D01*
X115047001Y-95218800D02*
X114988944Y-95189771D01*
X114988944Y-95189771D02*
X114872830Y-95160743D01*
X114872830Y-95160743D02*
X114785744Y-95160743D01*
X114785744Y-95160743D02*
X114669630Y-95189771D01*
X114669630Y-95189771D02*
X114611573Y-95218800D01*
X114611573Y-95218800D02*
X114553516Y-95276857D01*
X114553516Y-95276857D02*
X114524487Y-95363943D01*
X114524487Y-95363943D02*
X114524487Y-95422000D01*
X114524487Y-95422000D02*
X114553516Y-95509086D01*
X114553516Y-95509086D02*
X114582544Y-95538114D01*
X114582544Y-95770343D02*
X114553516Y-95799371D01*
X114553516Y-95799371D02*
X114524487Y-95857429D01*
X114524487Y-95857429D02*
X114524487Y-96002571D01*
X114524487Y-96002571D02*
X114553516Y-96060629D01*
X114553516Y-96060629D02*
X114582544Y-96089657D01*
X114582544Y-96089657D02*
X114640601Y-96118686D01*
X114640601Y-96118686D02*
X114698659Y-96118686D01*
X114698659Y-96118686D02*
X114785744Y-96089657D01*
X114785744Y-96089657D02*
X115134087Y-95741314D01*
X115134087Y-95741314D02*
X115134087Y-96118686D01*
X114524487Y-96321885D02*
X114524487Y-96699257D01*
X114524487Y-96699257D02*
X114756716Y-96496057D01*
X114756716Y-96496057D02*
X114756716Y-96583142D01*
X114756716Y-96583142D02*
X114785744Y-96641200D01*
X114785744Y-96641200D02*
X114814773Y-96670228D01*
X114814773Y-96670228D02*
X114872830Y-96699257D01*
X114872830Y-96699257D02*
X115017973Y-96699257D01*
X115017973Y-96699257D02*
X115076030Y-96670228D01*
X115076030Y-96670228D02*
X115105059Y-96641200D01*
X115105059Y-96641200D02*
X115134087Y-96583142D01*
X115134087Y-96583142D02*
X115134087Y-96408971D01*
X115134087Y-96408971D02*
X115105059Y-96350914D01*
X115105059Y-96350914D02*
X115076030Y-96321885D01*
X126637047Y-102881544D02*
X126637047Y-103268591D01*
X126907980Y-102455791D02*
X126637047Y-102881544D01*
X126637047Y-102881544D02*
X126366113Y-102455791D01*
X125669427Y-103268591D02*
X126133884Y-103268591D01*
X125901656Y-103268591D02*
X125901656Y-102455791D01*
X125901656Y-102455791D02*
X125979065Y-102571906D01*
X125979065Y-102571906D02*
X126056475Y-102649315D01*
X126056475Y-102649315D02*
X126133884Y-102688020D01*
X123876030Y-103018114D02*
X123905059Y-102989086D01*
X123905059Y-102989086D02*
X123934087Y-102902000D01*
X123934087Y-102902000D02*
X123934087Y-102843943D01*
X123934087Y-102843943D02*
X123905059Y-102756857D01*
X123905059Y-102756857D02*
X123847001Y-102698800D01*
X123847001Y-102698800D02*
X123788944Y-102669771D01*
X123788944Y-102669771D02*
X123672830Y-102640743D01*
X123672830Y-102640743D02*
X123585744Y-102640743D01*
X123585744Y-102640743D02*
X123469630Y-102669771D01*
X123469630Y-102669771D02*
X123411573Y-102698800D01*
X123411573Y-102698800D02*
X123353516Y-102756857D01*
X123353516Y-102756857D02*
X123324487Y-102843943D01*
X123324487Y-102843943D02*
X123324487Y-102902000D01*
X123324487Y-102902000D02*
X123353516Y-102989086D01*
X123353516Y-102989086D02*
X123382544Y-103018114D01*
X123324487Y-103221314D02*
X123324487Y-103598686D01*
X123324487Y-103598686D02*
X123556716Y-103395486D01*
X123556716Y-103395486D02*
X123556716Y-103482571D01*
X123556716Y-103482571D02*
X123585744Y-103540629D01*
X123585744Y-103540629D02*
X123614773Y-103569657D01*
X123614773Y-103569657D02*
X123672830Y-103598686D01*
X123672830Y-103598686D02*
X123817973Y-103598686D01*
X123817973Y-103598686D02*
X123876030Y-103569657D01*
X123876030Y-103569657D02*
X123905059Y-103540629D01*
X123905059Y-103540629D02*
X123934087Y-103482571D01*
X123934087Y-103482571D02*
X123934087Y-103308400D01*
X123934087Y-103308400D02*
X123905059Y-103250343D01*
X123905059Y-103250343D02*
X123876030Y-103221314D01*
X123527687Y-104121200D02*
X123934087Y-104121200D01*
X123295459Y-103976057D02*
X123730887Y-103830914D01*
X123730887Y-103830914D02*
X123730887Y-104208285D01*
X113736030Y-80348114D02*
X113765059Y-80319086D01*
X113765059Y-80319086D02*
X113794087Y-80232000D01*
X113794087Y-80232000D02*
X113794087Y-80173943D01*
X113794087Y-80173943D02*
X113765059Y-80086857D01*
X113765059Y-80086857D02*
X113707001Y-80028800D01*
X113707001Y-80028800D02*
X113648944Y-79999771D01*
X113648944Y-79999771D02*
X113532830Y-79970743D01*
X113532830Y-79970743D02*
X113445744Y-79970743D01*
X113445744Y-79970743D02*
X113329630Y-79999771D01*
X113329630Y-79999771D02*
X113271573Y-80028800D01*
X113271573Y-80028800D02*
X113213516Y-80086857D01*
X113213516Y-80086857D02*
X113184487Y-80173943D01*
X113184487Y-80173943D02*
X113184487Y-80232000D01*
X113184487Y-80232000D02*
X113213516Y-80319086D01*
X113213516Y-80319086D02*
X113242544Y-80348114D01*
X113184487Y-80870629D02*
X113184487Y-80754514D01*
X113184487Y-80754514D02*
X113213516Y-80696457D01*
X113213516Y-80696457D02*
X113242544Y-80667429D01*
X113242544Y-80667429D02*
X113329630Y-80609371D01*
X113329630Y-80609371D02*
X113445744Y-80580343D01*
X113445744Y-80580343D02*
X113677973Y-80580343D01*
X113677973Y-80580343D02*
X113736030Y-80609371D01*
X113736030Y-80609371D02*
X113765059Y-80638400D01*
X113765059Y-80638400D02*
X113794087Y-80696457D01*
X113794087Y-80696457D02*
X113794087Y-80812571D01*
X113794087Y-80812571D02*
X113765059Y-80870629D01*
X113765059Y-80870629D02*
X113736030Y-80899657D01*
X113736030Y-80899657D02*
X113677973Y-80928686D01*
X113677973Y-80928686D02*
X113532830Y-80928686D01*
X113532830Y-80928686D02*
X113474773Y-80899657D01*
X113474773Y-80899657D02*
X113445744Y-80870629D01*
X113445744Y-80870629D02*
X113416716Y-80812571D01*
X113416716Y-80812571D02*
X113416716Y-80696457D01*
X113416716Y-80696457D02*
X113445744Y-80638400D01*
X113445744Y-80638400D02*
X113474773Y-80609371D01*
X113474773Y-80609371D02*
X113532830Y-80580343D01*
X113184487Y-81131885D02*
X113184487Y-81509257D01*
X113184487Y-81509257D02*
X113416716Y-81306057D01*
X113416716Y-81306057D02*
X113416716Y-81393142D01*
X113416716Y-81393142D02*
X113445744Y-81451200D01*
X113445744Y-81451200D02*
X113474773Y-81480228D01*
X113474773Y-81480228D02*
X113532830Y-81509257D01*
X113532830Y-81509257D02*
X113677973Y-81509257D01*
X113677973Y-81509257D02*
X113736030Y-81480228D01*
X113736030Y-81480228D02*
X113765059Y-81451200D01*
X113765059Y-81451200D02*
X113794087Y-81393142D01*
X113794087Y-81393142D02*
X113794087Y-81218971D01*
X113794087Y-81218971D02*
X113765059Y-81160914D01*
X113765059Y-81160914D02*
X113736030Y-81131885D01*
X126121885Y-95476030D02*
X126150913Y-95505059D01*
X126150913Y-95505059D02*
X126237999Y-95534087D01*
X126237999Y-95534087D02*
X126296056Y-95534087D01*
X126296056Y-95534087D02*
X126383142Y-95505059D01*
X126383142Y-95505059D02*
X126441199Y-95447001D01*
X126441199Y-95447001D02*
X126470228Y-95388944D01*
X126470228Y-95388944D02*
X126499256Y-95272830D01*
X126499256Y-95272830D02*
X126499256Y-95185744D01*
X126499256Y-95185744D02*
X126470228Y-95069630D01*
X126470228Y-95069630D02*
X126441199Y-95011573D01*
X126441199Y-95011573D02*
X126383142Y-94953516D01*
X126383142Y-94953516D02*
X126296056Y-94924487D01*
X126296056Y-94924487D02*
X126237999Y-94924487D01*
X126237999Y-94924487D02*
X126150913Y-94953516D01*
X126150913Y-94953516D02*
X126121885Y-94982544D01*
X125918685Y-94924487D02*
X125541313Y-94924487D01*
X125541313Y-94924487D02*
X125744513Y-95156716D01*
X125744513Y-95156716D02*
X125657428Y-95156716D01*
X125657428Y-95156716D02*
X125599371Y-95185744D01*
X125599371Y-95185744D02*
X125570342Y-95214773D01*
X125570342Y-95214773D02*
X125541313Y-95272830D01*
X125541313Y-95272830D02*
X125541313Y-95417973D01*
X125541313Y-95417973D02*
X125570342Y-95476030D01*
X125570342Y-95476030D02*
X125599371Y-95505059D01*
X125599371Y-95505059D02*
X125657428Y-95534087D01*
X125657428Y-95534087D02*
X125831599Y-95534087D01*
X125831599Y-95534087D02*
X125889656Y-95505059D01*
X125889656Y-95505059D02*
X125918685Y-95476030D01*
X125163942Y-94924487D02*
X125105885Y-94924487D01*
X125105885Y-94924487D02*
X125047828Y-94953516D01*
X125047828Y-94953516D02*
X125018800Y-94982544D01*
X125018800Y-94982544D02*
X124989771Y-95040601D01*
X124989771Y-95040601D02*
X124960742Y-95156716D01*
X124960742Y-95156716D02*
X124960742Y-95301859D01*
X124960742Y-95301859D02*
X124989771Y-95417973D01*
X124989771Y-95417973D02*
X125018800Y-95476030D01*
X125018800Y-95476030D02*
X125047828Y-95505059D01*
X125047828Y-95505059D02*
X125105885Y-95534087D01*
X125105885Y-95534087D02*
X125163942Y-95534087D01*
X125163942Y-95534087D02*
X125222000Y-95505059D01*
X125222000Y-95505059D02*
X125251028Y-95476030D01*
X125251028Y-95476030D02*
X125280057Y-95417973D01*
X125280057Y-95417973D02*
X125309085Y-95301859D01*
X125309085Y-95301859D02*
X125309085Y-95156716D01*
X125309085Y-95156716D02*
X125280057Y-95040601D01*
X125280057Y-95040601D02*
X125251028Y-94982544D01*
X125251028Y-94982544D02*
X125222000Y-94953516D01*
X125222000Y-94953516D02*
X125163942Y-94924487D01*
X117496030Y-91078114D02*
X117525059Y-91049086D01*
X117525059Y-91049086D02*
X117554087Y-90962000D01*
X117554087Y-90962000D02*
X117554087Y-90903943D01*
X117554087Y-90903943D02*
X117525059Y-90816857D01*
X117525059Y-90816857D02*
X117467001Y-90758800D01*
X117467001Y-90758800D02*
X117408944Y-90729771D01*
X117408944Y-90729771D02*
X117292830Y-90700743D01*
X117292830Y-90700743D02*
X117205744Y-90700743D01*
X117205744Y-90700743D02*
X117089630Y-90729771D01*
X117089630Y-90729771D02*
X117031573Y-90758800D01*
X117031573Y-90758800D02*
X116973516Y-90816857D01*
X116973516Y-90816857D02*
X116944487Y-90903943D01*
X116944487Y-90903943D02*
X116944487Y-90962000D01*
X116944487Y-90962000D02*
X116973516Y-91049086D01*
X116973516Y-91049086D02*
X117002544Y-91078114D01*
X117002544Y-91310343D02*
X116973516Y-91339371D01*
X116973516Y-91339371D02*
X116944487Y-91397429D01*
X116944487Y-91397429D02*
X116944487Y-91542571D01*
X116944487Y-91542571D02*
X116973516Y-91600629D01*
X116973516Y-91600629D02*
X117002544Y-91629657D01*
X117002544Y-91629657D02*
X117060601Y-91658686D01*
X117060601Y-91658686D02*
X117118659Y-91658686D01*
X117118659Y-91658686D02*
X117205744Y-91629657D01*
X117205744Y-91629657D02*
X117554087Y-91281314D01*
X117554087Y-91281314D02*
X117554087Y-91658686D01*
X117554087Y-92239257D02*
X117554087Y-91890914D01*
X117554087Y-92065085D02*
X116944487Y-92065085D01*
X116944487Y-92065085D02*
X117031573Y-92007028D01*
X117031573Y-92007028D02*
X117089630Y-91948971D01*
X117089630Y-91948971D02*
X117118659Y-91890914D01*
X104216849Y-89769983D02*
X104245878Y-89740955D01*
X104245878Y-89740955D02*
X104274906Y-89653869D01*
X104274906Y-89653869D02*
X104274906Y-89595812D01*
X104274906Y-89595812D02*
X104245878Y-89508726D01*
X104245878Y-89508726D02*
X104187820Y-89450669D01*
X104187820Y-89450669D02*
X104129763Y-89421640D01*
X104129763Y-89421640D02*
X104013649Y-89392612D01*
X104013649Y-89392612D02*
X103926563Y-89392612D01*
X103926563Y-89392612D02*
X103810449Y-89421640D01*
X103810449Y-89421640D02*
X103752392Y-89450669D01*
X103752392Y-89450669D02*
X103694335Y-89508726D01*
X103694335Y-89508726D02*
X103665306Y-89595812D01*
X103665306Y-89595812D02*
X103665306Y-89653869D01*
X103665306Y-89653869D02*
X103694335Y-89740955D01*
X103694335Y-89740955D02*
X103723363Y-89769983D01*
X103665306Y-90321526D02*
X103665306Y-90031240D01*
X103665306Y-90031240D02*
X103955592Y-90002212D01*
X103955592Y-90002212D02*
X103926563Y-90031240D01*
X103926563Y-90031240D02*
X103897535Y-90089298D01*
X103897535Y-90089298D02*
X103897535Y-90234440D01*
X103897535Y-90234440D02*
X103926563Y-90292498D01*
X103926563Y-90292498D02*
X103955592Y-90321526D01*
X103955592Y-90321526D02*
X104013649Y-90350555D01*
X104013649Y-90350555D02*
X104158792Y-90350555D01*
X104158792Y-90350555D02*
X104216849Y-90321526D01*
X104216849Y-90321526D02*
X104245878Y-90292498D01*
X104245878Y-90292498D02*
X104274906Y-90234440D01*
X104274906Y-90234440D02*
X104274906Y-90089298D01*
X104274906Y-90089298D02*
X104245878Y-90031240D01*
X104245878Y-90031240D02*
X104216849Y-90002212D01*
X103665306Y-90902097D02*
X103665306Y-90611811D01*
X103665306Y-90611811D02*
X103955592Y-90582783D01*
X103955592Y-90582783D02*
X103926563Y-90611811D01*
X103926563Y-90611811D02*
X103897535Y-90669869D01*
X103897535Y-90669869D02*
X103897535Y-90815011D01*
X103897535Y-90815011D02*
X103926563Y-90873069D01*
X103926563Y-90873069D02*
X103955592Y-90902097D01*
X103955592Y-90902097D02*
X104013649Y-90931126D01*
X104013649Y-90931126D02*
X104158792Y-90931126D01*
X104158792Y-90931126D02*
X104216849Y-90902097D01*
X104216849Y-90902097D02*
X104245878Y-90873069D01*
X104245878Y-90873069D02*
X104274906Y-90815011D01*
X104274906Y-90815011D02*
X104274906Y-90669869D01*
X104274906Y-90669869D02*
X104245878Y-90611811D01*
X104245878Y-90611811D02*
X104216849Y-90582783D01*
X115781257Y-85428114D02*
X115810286Y-85399086D01*
X115810286Y-85399086D02*
X115839314Y-85312000D01*
X115839314Y-85312000D02*
X115839314Y-85253943D01*
X115839314Y-85253943D02*
X115810286Y-85166857D01*
X115810286Y-85166857D02*
X115752228Y-85108800D01*
X115752228Y-85108800D02*
X115694171Y-85079771D01*
X115694171Y-85079771D02*
X115578057Y-85050743D01*
X115578057Y-85050743D02*
X115490971Y-85050743D01*
X115490971Y-85050743D02*
X115374857Y-85079771D01*
X115374857Y-85079771D02*
X115316800Y-85108800D01*
X115316800Y-85108800D02*
X115258743Y-85166857D01*
X115258743Y-85166857D02*
X115229714Y-85253943D01*
X115229714Y-85253943D02*
X115229714Y-85312000D01*
X115229714Y-85312000D02*
X115258743Y-85399086D01*
X115258743Y-85399086D02*
X115287771Y-85428114D01*
X115229714Y-85950629D02*
X115229714Y-85834514D01*
X115229714Y-85834514D02*
X115258743Y-85776457D01*
X115258743Y-85776457D02*
X115287771Y-85747429D01*
X115287771Y-85747429D02*
X115374857Y-85689371D01*
X115374857Y-85689371D02*
X115490971Y-85660343D01*
X115490971Y-85660343D02*
X115723200Y-85660343D01*
X115723200Y-85660343D02*
X115781257Y-85689371D01*
X115781257Y-85689371D02*
X115810286Y-85718400D01*
X115810286Y-85718400D02*
X115839314Y-85776457D01*
X115839314Y-85776457D02*
X115839314Y-85892571D01*
X115839314Y-85892571D02*
X115810286Y-85950629D01*
X115810286Y-85950629D02*
X115781257Y-85979657D01*
X115781257Y-85979657D02*
X115723200Y-86008686D01*
X115723200Y-86008686D02*
X115578057Y-86008686D01*
X115578057Y-86008686D02*
X115520000Y-85979657D01*
X115520000Y-85979657D02*
X115490971Y-85950629D01*
X115490971Y-85950629D02*
X115461943Y-85892571D01*
X115461943Y-85892571D02*
X115461943Y-85776457D01*
X115461943Y-85776457D02*
X115490971Y-85718400D01*
X115490971Y-85718400D02*
X115520000Y-85689371D01*
X115520000Y-85689371D02*
X115578057Y-85660343D01*
X115229714Y-86211885D02*
X115229714Y-86618285D01*
X115229714Y-86618285D02*
X115839314Y-86357028D01*
X116156030Y-97228114D02*
X116185059Y-97199086D01*
X116185059Y-97199086D02*
X116214087Y-97112000D01*
X116214087Y-97112000D02*
X116214087Y-97053943D01*
X116214087Y-97053943D02*
X116185059Y-96966857D01*
X116185059Y-96966857D02*
X116127001Y-96908800D01*
X116127001Y-96908800D02*
X116068944Y-96879771D01*
X116068944Y-96879771D02*
X115952830Y-96850743D01*
X115952830Y-96850743D02*
X115865744Y-96850743D01*
X115865744Y-96850743D02*
X115749630Y-96879771D01*
X115749630Y-96879771D02*
X115691573Y-96908800D01*
X115691573Y-96908800D02*
X115633516Y-96966857D01*
X115633516Y-96966857D02*
X115604487Y-97053943D01*
X115604487Y-97053943D02*
X115604487Y-97112000D01*
X115604487Y-97112000D02*
X115633516Y-97199086D01*
X115633516Y-97199086D02*
X115662544Y-97228114D01*
X115662544Y-97460343D02*
X115633516Y-97489371D01*
X115633516Y-97489371D02*
X115604487Y-97547429D01*
X115604487Y-97547429D02*
X115604487Y-97692571D01*
X115604487Y-97692571D02*
X115633516Y-97750629D01*
X115633516Y-97750629D02*
X115662544Y-97779657D01*
X115662544Y-97779657D02*
X115720601Y-97808686D01*
X115720601Y-97808686D02*
X115778659Y-97808686D01*
X115778659Y-97808686D02*
X115865744Y-97779657D01*
X115865744Y-97779657D02*
X116214087Y-97431314D01*
X116214087Y-97431314D02*
X116214087Y-97808686D01*
X115662544Y-98040914D02*
X115633516Y-98069942D01*
X115633516Y-98069942D02*
X115604487Y-98128000D01*
X115604487Y-98128000D02*
X115604487Y-98273142D01*
X115604487Y-98273142D02*
X115633516Y-98331200D01*
X115633516Y-98331200D02*
X115662544Y-98360228D01*
X115662544Y-98360228D02*
X115720601Y-98389257D01*
X115720601Y-98389257D02*
X115778659Y-98389257D01*
X115778659Y-98389257D02*
X115865744Y-98360228D01*
X115865744Y-98360228D02*
X116214087Y-98011885D01*
X116214087Y-98011885D02*
X116214087Y-98389257D01*
X121692504Y-103896663D02*
X121692504Y-103659596D01*
X122065037Y-103659596D02*
X121353837Y-103659596D01*
X121353837Y-103659596D02*
X121353837Y-103998263D01*
X121692504Y-104506263D02*
X121726371Y-104607863D01*
X121726371Y-104607863D02*
X121760237Y-104641729D01*
X121760237Y-104641729D02*
X121827971Y-104675596D01*
X121827971Y-104675596D02*
X121929571Y-104675596D01*
X121929571Y-104675596D02*
X121997304Y-104641729D01*
X121997304Y-104641729D02*
X122031171Y-104607863D01*
X122031171Y-104607863D02*
X122065037Y-104540129D01*
X122065037Y-104540129D02*
X122065037Y-104269196D01*
X122065037Y-104269196D02*
X121353837Y-104269196D01*
X121353837Y-104269196D02*
X121353837Y-104506263D01*
X121353837Y-104506263D02*
X121387704Y-104573996D01*
X121387704Y-104573996D02*
X121421571Y-104607863D01*
X121421571Y-104607863D02*
X121489304Y-104641729D01*
X121489304Y-104641729D02*
X121557037Y-104641729D01*
X121557037Y-104641729D02*
X121624771Y-104607863D01*
X121624771Y-104607863D02*
X121658637Y-104573996D01*
X121658637Y-104573996D02*
X121692504Y-104506263D01*
X121692504Y-104506263D02*
X121692504Y-104269196D01*
X122065037Y-105352929D02*
X122065037Y-104946529D01*
X122065037Y-105149729D02*
X121353837Y-105149729D01*
X121353837Y-105149729D02*
X121455437Y-105081996D01*
X121455437Y-105081996D02*
X121523171Y-105014263D01*
X121523171Y-105014263D02*
X121557037Y-104946529D01*
X115651599Y-94906030D02*
X115680627Y-94935059D01*
X115680627Y-94935059D02*
X115767713Y-94964087D01*
X115767713Y-94964087D02*
X115825770Y-94964087D01*
X115825770Y-94964087D02*
X115912856Y-94935059D01*
X115912856Y-94935059D02*
X115970913Y-94877001D01*
X115970913Y-94877001D02*
X115999942Y-94818944D01*
X115999942Y-94818944D02*
X116028970Y-94702830D01*
X116028970Y-94702830D02*
X116028970Y-94615744D01*
X116028970Y-94615744D02*
X115999942Y-94499630D01*
X115999942Y-94499630D02*
X115970913Y-94441573D01*
X115970913Y-94441573D02*
X115912856Y-94383516D01*
X115912856Y-94383516D02*
X115825770Y-94354487D01*
X115825770Y-94354487D02*
X115767713Y-94354487D01*
X115767713Y-94354487D02*
X115680627Y-94383516D01*
X115680627Y-94383516D02*
X115651599Y-94412544D01*
X115129085Y-94354487D02*
X115245199Y-94354487D01*
X115245199Y-94354487D02*
X115303256Y-94383516D01*
X115303256Y-94383516D02*
X115332285Y-94412544D01*
X115332285Y-94412544D02*
X115390342Y-94499630D01*
X115390342Y-94499630D02*
X115419370Y-94615744D01*
X115419370Y-94615744D02*
X115419370Y-94847973D01*
X115419370Y-94847973D02*
X115390342Y-94906030D01*
X115390342Y-94906030D02*
X115361313Y-94935059D01*
X115361313Y-94935059D02*
X115303256Y-94964087D01*
X115303256Y-94964087D02*
X115187142Y-94964087D01*
X115187142Y-94964087D02*
X115129085Y-94935059D01*
X115129085Y-94935059D02*
X115100056Y-94906030D01*
X115100056Y-94906030D02*
X115071027Y-94847973D01*
X115071027Y-94847973D02*
X115071027Y-94702830D01*
X115071027Y-94702830D02*
X115100056Y-94644773D01*
X115100056Y-94644773D02*
X115129085Y-94615744D01*
X115129085Y-94615744D02*
X115187142Y-94586716D01*
X115187142Y-94586716D02*
X115303256Y-94586716D01*
X115303256Y-94586716D02*
X115361313Y-94615744D01*
X115361313Y-94615744D02*
X115390342Y-94644773D01*
X115390342Y-94644773D02*
X115419370Y-94702830D01*
X121017876Y-84695524D02*
X121046905Y-84666496D01*
X121046905Y-84666496D02*
X121075933Y-84579410D01*
X121075933Y-84579410D02*
X121075933Y-84521353D01*
X121075933Y-84521353D02*
X121046905Y-84434267D01*
X121046905Y-84434267D02*
X120988847Y-84376210D01*
X120988847Y-84376210D02*
X120930790Y-84347181D01*
X120930790Y-84347181D02*
X120814676Y-84318153D01*
X120814676Y-84318153D02*
X120727590Y-84318153D01*
X120727590Y-84318153D02*
X120611476Y-84347181D01*
X120611476Y-84347181D02*
X120553419Y-84376210D01*
X120553419Y-84376210D02*
X120495362Y-84434267D01*
X120495362Y-84434267D02*
X120466333Y-84521353D01*
X120466333Y-84521353D02*
X120466333Y-84579410D01*
X120466333Y-84579410D02*
X120495362Y-84666496D01*
X120495362Y-84666496D02*
X120524390Y-84695524D01*
X120466333Y-84898724D02*
X120466333Y-85276096D01*
X120466333Y-85276096D02*
X120698562Y-85072896D01*
X120698562Y-85072896D02*
X120698562Y-85159981D01*
X120698562Y-85159981D02*
X120727590Y-85218039D01*
X120727590Y-85218039D02*
X120756619Y-85247067D01*
X120756619Y-85247067D02*
X120814676Y-85276096D01*
X120814676Y-85276096D02*
X120959819Y-85276096D01*
X120959819Y-85276096D02*
X121017876Y-85247067D01*
X121017876Y-85247067D02*
X121046905Y-85218039D01*
X121046905Y-85218039D02*
X121075933Y-85159981D01*
X121075933Y-85159981D02*
X121075933Y-84985810D01*
X121075933Y-84985810D02*
X121046905Y-84927753D01*
X121046905Y-84927753D02*
X121017876Y-84898724D01*
X120727590Y-85624438D02*
X120698562Y-85566381D01*
X120698562Y-85566381D02*
X120669533Y-85537352D01*
X120669533Y-85537352D02*
X120611476Y-85508324D01*
X120611476Y-85508324D02*
X120582447Y-85508324D01*
X120582447Y-85508324D02*
X120524390Y-85537352D01*
X120524390Y-85537352D02*
X120495362Y-85566381D01*
X120495362Y-85566381D02*
X120466333Y-85624438D01*
X120466333Y-85624438D02*
X120466333Y-85740552D01*
X120466333Y-85740552D02*
X120495362Y-85798610D01*
X120495362Y-85798610D02*
X120524390Y-85827638D01*
X120524390Y-85827638D02*
X120582447Y-85856667D01*
X120582447Y-85856667D02*
X120611476Y-85856667D01*
X120611476Y-85856667D02*
X120669533Y-85827638D01*
X120669533Y-85827638D02*
X120698562Y-85798610D01*
X120698562Y-85798610D02*
X120727590Y-85740552D01*
X120727590Y-85740552D02*
X120727590Y-85624438D01*
X120727590Y-85624438D02*
X120756619Y-85566381D01*
X120756619Y-85566381D02*
X120785647Y-85537352D01*
X120785647Y-85537352D02*
X120843705Y-85508324D01*
X120843705Y-85508324D02*
X120959819Y-85508324D01*
X120959819Y-85508324D02*
X121017876Y-85537352D01*
X121017876Y-85537352D02*
X121046905Y-85566381D01*
X121046905Y-85566381D02*
X121075933Y-85624438D01*
X121075933Y-85624438D02*
X121075933Y-85740552D01*
X121075933Y-85740552D02*
X121046905Y-85798610D01*
X121046905Y-85798610D02*
X121017876Y-85827638D01*
X121017876Y-85827638D02*
X120959819Y-85856667D01*
X120959819Y-85856667D02*
X120843705Y-85856667D01*
X120843705Y-85856667D02*
X120785647Y-85827638D01*
X120785647Y-85827638D02*
X120756619Y-85798610D01*
X120756619Y-85798610D02*
X120727590Y-85740552D01*
X122916030Y-84668114D02*
X122945059Y-84639086D01*
X122945059Y-84639086D02*
X122974087Y-84552000D01*
X122974087Y-84552000D02*
X122974087Y-84493943D01*
X122974087Y-84493943D02*
X122945059Y-84406857D01*
X122945059Y-84406857D02*
X122887001Y-84348800D01*
X122887001Y-84348800D02*
X122828944Y-84319771D01*
X122828944Y-84319771D02*
X122712830Y-84290743D01*
X122712830Y-84290743D02*
X122625744Y-84290743D01*
X122625744Y-84290743D02*
X122509630Y-84319771D01*
X122509630Y-84319771D02*
X122451573Y-84348800D01*
X122451573Y-84348800D02*
X122393516Y-84406857D01*
X122393516Y-84406857D02*
X122364487Y-84493943D01*
X122364487Y-84493943D02*
X122364487Y-84552000D01*
X122364487Y-84552000D02*
X122393516Y-84639086D01*
X122393516Y-84639086D02*
X122422544Y-84668114D01*
X122422544Y-84900343D02*
X122393516Y-84929371D01*
X122393516Y-84929371D02*
X122364487Y-84987429D01*
X122364487Y-84987429D02*
X122364487Y-85132571D01*
X122364487Y-85132571D02*
X122393516Y-85190629D01*
X122393516Y-85190629D02*
X122422544Y-85219657D01*
X122422544Y-85219657D02*
X122480601Y-85248686D01*
X122480601Y-85248686D02*
X122538659Y-85248686D01*
X122538659Y-85248686D02*
X122625744Y-85219657D01*
X122625744Y-85219657D02*
X122974087Y-84871314D01*
X122974087Y-84871314D02*
X122974087Y-85248686D01*
X122364487Y-85451885D02*
X122364487Y-85858285D01*
X122364487Y-85858285D02*
X122974087Y-85597028D01*
X138201885Y-94076030D02*
X138230913Y-94105059D01*
X138230913Y-94105059D02*
X138317999Y-94134087D01*
X138317999Y-94134087D02*
X138376056Y-94134087D01*
X138376056Y-94134087D02*
X138463142Y-94105059D01*
X138463142Y-94105059D02*
X138521199Y-94047001D01*
X138521199Y-94047001D02*
X138550228Y-93988944D01*
X138550228Y-93988944D02*
X138579256Y-93872830D01*
X138579256Y-93872830D02*
X138579256Y-93785744D01*
X138579256Y-93785744D02*
X138550228Y-93669630D01*
X138550228Y-93669630D02*
X138521199Y-93611573D01*
X138521199Y-93611573D02*
X138463142Y-93553516D01*
X138463142Y-93553516D02*
X138376056Y-93524487D01*
X138376056Y-93524487D02*
X138317999Y-93524487D01*
X138317999Y-93524487D02*
X138230913Y-93553516D01*
X138230913Y-93553516D02*
X138201885Y-93582544D01*
X137998685Y-93524487D02*
X137592285Y-93524487D01*
X137592285Y-93524487D02*
X137853542Y-94134087D01*
X137040742Y-94134087D02*
X137389085Y-94134087D01*
X137214914Y-94134087D02*
X137214914Y-93524487D01*
X137214914Y-93524487D02*
X137272971Y-93611573D01*
X137272971Y-93611573D02*
X137331028Y-93669630D01*
X137331028Y-93669630D02*
X137389085Y-93698659D01*
X101751885Y-102056030D02*
X101780913Y-102085059D01*
X101780913Y-102085059D02*
X101867999Y-102114087D01*
X101867999Y-102114087D02*
X101926056Y-102114087D01*
X101926056Y-102114087D02*
X102013142Y-102085059D01*
X102013142Y-102085059D02*
X102071199Y-102027001D01*
X102071199Y-102027001D02*
X102100228Y-101968944D01*
X102100228Y-101968944D02*
X102129256Y-101852830D01*
X102129256Y-101852830D02*
X102129256Y-101765744D01*
X102129256Y-101765744D02*
X102100228Y-101649630D01*
X102100228Y-101649630D02*
X102071199Y-101591573D01*
X102071199Y-101591573D02*
X102013142Y-101533516D01*
X102013142Y-101533516D02*
X101926056Y-101504487D01*
X101926056Y-101504487D02*
X101867999Y-101504487D01*
X101867999Y-101504487D02*
X101780913Y-101533516D01*
X101780913Y-101533516D02*
X101751885Y-101562544D01*
X101229371Y-101707687D02*
X101229371Y-102114087D01*
X101374513Y-101475459D02*
X101519656Y-101910887D01*
X101519656Y-101910887D02*
X101142285Y-101910887D01*
X100968114Y-101504487D02*
X100590742Y-101504487D01*
X100590742Y-101504487D02*
X100793942Y-101736716D01*
X100793942Y-101736716D02*
X100706857Y-101736716D01*
X100706857Y-101736716D02*
X100648800Y-101765744D01*
X100648800Y-101765744D02*
X100619771Y-101794773D01*
X100619771Y-101794773D02*
X100590742Y-101852830D01*
X100590742Y-101852830D02*
X100590742Y-101997973D01*
X100590742Y-101997973D02*
X100619771Y-102056030D01*
X100619771Y-102056030D02*
X100648800Y-102085059D01*
X100648800Y-102085059D02*
X100706857Y-102114087D01*
X100706857Y-102114087D02*
X100881028Y-102114087D01*
X100881028Y-102114087D02*
X100939085Y-102085059D01*
X100939085Y-102085059D02*
X100968114Y-102056030D01*
X123956030Y-96628114D02*
X123985059Y-96599086D01*
X123985059Y-96599086D02*
X124014087Y-96512000D01*
X124014087Y-96512000D02*
X124014087Y-96453943D01*
X124014087Y-96453943D02*
X123985059Y-96366857D01*
X123985059Y-96366857D02*
X123927001Y-96308800D01*
X123927001Y-96308800D02*
X123868944Y-96279771D01*
X123868944Y-96279771D02*
X123752830Y-96250743D01*
X123752830Y-96250743D02*
X123665744Y-96250743D01*
X123665744Y-96250743D02*
X123549630Y-96279771D01*
X123549630Y-96279771D02*
X123491573Y-96308800D01*
X123491573Y-96308800D02*
X123433516Y-96366857D01*
X123433516Y-96366857D02*
X123404487Y-96453943D01*
X123404487Y-96453943D02*
X123404487Y-96512000D01*
X123404487Y-96512000D02*
X123433516Y-96599086D01*
X123433516Y-96599086D02*
X123462544Y-96628114D01*
X123404487Y-96831314D02*
X123404487Y-97208686D01*
X123404487Y-97208686D02*
X123636716Y-97005486D01*
X123636716Y-97005486D02*
X123636716Y-97092571D01*
X123636716Y-97092571D02*
X123665744Y-97150629D01*
X123665744Y-97150629D02*
X123694773Y-97179657D01*
X123694773Y-97179657D02*
X123752830Y-97208686D01*
X123752830Y-97208686D02*
X123897973Y-97208686D01*
X123897973Y-97208686D02*
X123956030Y-97179657D01*
X123956030Y-97179657D02*
X123985059Y-97150629D01*
X123985059Y-97150629D02*
X124014087Y-97092571D01*
X124014087Y-97092571D02*
X124014087Y-96918400D01*
X124014087Y-96918400D02*
X123985059Y-96860343D01*
X123985059Y-96860343D02*
X123956030Y-96831314D01*
X124014087Y-97498971D02*
X124014087Y-97615085D01*
X124014087Y-97615085D02*
X123985059Y-97673142D01*
X123985059Y-97673142D02*
X123956030Y-97702171D01*
X123956030Y-97702171D02*
X123868944Y-97760228D01*
X123868944Y-97760228D02*
X123752830Y-97789257D01*
X123752830Y-97789257D02*
X123520601Y-97789257D01*
X123520601Y-97789257D02*
X123462544Y-97760228D01*
X123462544Y-97760228D02*
X123433516Y-97731200D01*
X123433516Y-97731200D02*
X123404487Y-97673142D01*
X123404487Y-97673142D02*
X123404487Y-97557028D01*
X123404487Y-97557028D02*
X123433516Y-97498971D01*
X123433516Y-97498971D02*
X123462544Y-97469942D01*
X123462544Y-97469942D02*
X123520601Y-97440914D01*
X123520601Y-97440914D02*
X123665744Y-97440914D01*
X123665744Y-97440914D02*
X123723801Y-97469942D01*
X123723801Y-97469942D02*
X123752830Y-97498971D01*
X123752830Y-97498971D02*
X123781859Y-97557028D01*
X123781859Y-97557028D02*
X123781859Y-97673142D01*
X123781859Y-97673142D02*
X123752830Y-97731200D01*
X123752830Y-97731200D02*
X123723801Y-97760228D01*
X123723801Y-97760228D02*
X123665744Y-97789257D01*
X114266030Y-103538114D02*
X114295059Y-103509086D01*
X114295059Y-103509086D02*
X114324087Y-103422000D01*
X114324087Y-103422000D02*
X114324087Y-103363943D01*
X114324087Y-103363943D02*
X114295059Y-103276857D01*
X114295059Y-103276857D02*
X114237001Y-103218800D01*
X114237001Y-103218800D02*
X114178944Y-103189771D01*
X114178944Y-103189771D02*
X114062830Y-103160743D01*
X114062830Y-103160743D02*
X113975744Y-103160743D01*
X113975744Y-103160743D02*
X113859630Y-103189771D01*
X113859630Y-103189771D02*
X113801573Y-103218800D01*
X113801573Y-103218800D02*
X113743516Y-103276857D01*
X113743516Y-103276857D02*
X113714487Y-103363943D01*
X113714487Y-103363943D02*
X113714487Y-103422000D01*
X113714487Y-103422000D02*
X113743516Y-103509086D01*
X113743516Y-103509086D02*
X113772544Y-103538114D01*
X113917687Y-104060629D02*
X114324087Y-104060629D01*
X113685459Y-103915486D02*
X114120887Y-103770343D01*
X114120887Y-103770343D02*
X114120887Y-104147714D01*
X113714487Y-104496057D02*
X113714487Y-104554114D01*
X113714487Y-104554114D02*
X113743516Y-104612171D01*
X113743516Y-104612171D02*
X113772544Y-104641200D01*
X113772544Y-104641200D02*
X113830601Y-104670228D01*
X113830601Y-104670228D02*
X113946716Y-104699257D01*
X113946716Y-104699257D02*
X114091859Y-104699257D01*
X114091859Y-104699257D02*
X114207973Y-104670228D01*
X114207973Y-104670228D02*
X114266030Y-104641200D01*
X114266030Y-104641200D02*
X114295059Y-104612171D01*
X114295059Y-104612171D02*
X114324087Y-104554114D01*
X114324087Y-104554114D02*
X114324087Y-104496057D01*
X114324087Y-104496057D02*
X114295059Y-104438000D01*
X114295059Y-104438000D02*
X114266030Y-104408971D01*
X114266030Y-104408971D02*
X114207973Y-104379942D01*
X114207973Y-104379942D02*
X114091859Y-104350914D01*
X114091859Y-104350914D02*
X113946716Y-104350914D01*
X113946716Y-104350914D02*
X113830601Y-104379942D01*
X113830601Y-104379942D02*
X113772544Y-104408971D01*
X113772544Y-104408971D02*
X113743516Y-104438000D01*
X113743516Y-104438000D02*
X113714487Y-104496057D01*
X105191885Y-102224087D02*
X105395085Y-101933801D01*
X105540228Y-102224087D02*
X105540228Y-101614487D01*
X105540228Y-101614487D02*
X105307999Y-101614487D01*
X105307999Y-101614487D02*
X105249942Y-101643516D01*
X105249942Y-101643516D02*
X105220913Y-101672544D01*
X105220913Y-101672544D02*
X105191885Y-101730601D01*
X105191885Y-101730601D02*
X105191885Y-101817687D01*
X105191885Y-101817687D02*
X105220913Y-101875744D01*
X105220913Y-101875744D02*
X105249942Y-101904773D01*
X105249942Y-101904773D02*
X105307999Y-101933801D01*
X105307999Y-101933801D02*
X105540228Y-101933801D01*
X104611313Y-102224087D02*
X104959656Y-102224087D01*
X104785485Y-102224087D02*
X104785485Y-101614487D01*
X104785485Y-101614487D02*
X104843542Y-101701573D01*
X104843542Y-101701573D02*
X104901599Y-101759630D01*
X104901599Y-101759630D02*
X104959656Y-101788659D01*
X104408114Y-101614487D02*
X104030742Y-101614487D01*
X104030742Y-101614487D02*
X104233942Y-101846716D01*
X104233942Y-101846716D02*
X104146857Y-101846716D01*
X104146857Y-101846716D02*
X104088800Y-101875744D01*
X104088800Y-101875744D02*
X104059771Y-101904773D01*
X104059771Y-101904773D02*
X104030742Y-101962830D01*
X104030742Y-101962830D02*
X104030742Y-102107973D01*
X104030742Y-102107973D02*
X104059771Y-102166030D01*
X104059771Y-102166030D02*
X104088800Y-102195059D01*
X104088800Y-102195059D02*
X104146857Y-102224087D01*
X104146857Y-102224087D02*
X104321028Y-102224087D01*
X104321028Y-102224087D02*
X104379085Y-102195059D01*
X104379085Y-102195059D02*
X104408114Y-102166030D01*
X125904897Y-93366028D02*
X125933925Y-93395057D01*
X125933925Y-93395057D02*
X126021011Y-93424085D01*
X126021011Y-93424085D02*
X126079068Y-93424085D01*
X126079068Y-93424085D02*
X126166154Y-93395057D01*
X126166154Y-93395057D02*
X126224211Y-93336999D01*
X126224211Y-93336999D02*
X126253240Y-93278942D01*
X126253240Y-93278942D02*
X126282268Y-93162828D01*
X126282268Y-93162828D02*
X126282268Y-93075742D01*
X126282268Y-93075742D02*
X126253240Y-92959628D01*
X126253240Y-92959628D02*
X126224211Y-92901571D01*
X126224211Y-92901571D02*
X126166154Y-92843514D01*
X126166154Y-92843514D02*
X126079068Y-92814485D01*
X126079068Y-92814485D02*
X126021011Y-92814485D01*
X126021011Y-92814485D02*
X125933925Y-92843514D01*
X125933925Y-92843514D02*
X125904897Y-92872542D01*
X125672668Y-92872542D02*
X125643640Y-92843514D01*
X125643640Y-92843514D02*
X125585583Y-92814485D01*
X125585583Y-92814485D02*
X125440440Y-92814485D01*
X125440440Y-92814485D02*
X125382383Y-92843514D01*
X125382383Y-92843514D02*
X125353354Y-92872542D01*
X125353354Y-92872542D02*
X125324325Y-92930599D01*
X125324325Y-92930599D02*
X125324325Y-92988657D01*
X125324325Y-92988657D02*
X125353354Y-93075742D01*
X125353354Y-93075742D02*
X125701697Y-93424085D01*
X125701697Y-93424085D02*
X125324325Y-93424085D01*
X124801812Y-92814485D02*
X124917926Y-92814485D01*
X124917926Y-92814485D02*
X124975983Y-92843514D01*
X124975983Y-92843514D02*
X125005012Y-92872542D01*
X125005012Y-92872542D02*
X125063069Y-92959628D01*
X125063069Y-92959628D02*
X125092097Y-93075742D01*
X125092097Y-93075742D02*
X125092097Y-93307971D01*
X125092097Y-93307971D02*
X125063069Y-93366028D01*
X125063069Y-93366028D02*
X125034040Y-93395057D01*
X125034040Y-93395057D02*
X124975983Y-93424085D01*
X124975983Y-93424085D02*
X124859869Y-93424085D01*
X124859869Y-93424085D02*
X124801812Y-93395057D01*
X124801812Y-93395057D02*
X124772783Y-93366028D01*
X124772783Y-93366028D02*
X124743754Y-93307971D01*
X124743754Y-93307971D02*
X124743754Y-93162828D01*
X124743754Y-93162828D02*
X124772783Y-93104771D01*
X124772783Y-93104771D02*
X124801812Y-93075742D01*
X124801812Y-93075742D02*
X124859869Y-93046714D01*
X124859869Y-93046714D02*
X124975983Y-93046714D01*
X124975983Y-93046714D02*
X125034040Y-93075742D01*
X125034040Y-93075742D02*
X125063069Y-93104771D01*
X125063069Y-93104771D02*
X125092097Y-93162828D01*
X117008583Y-86532800D02*
X117042450Y-86498933D01*
X117042450Y-86498933D02*
X117076316Y-86397333D01*
X117076316Y-86397333D02*
X117076316Y-86329600D01*
X117076316Y-86329600D02*
X117042450Y-86228000D01*
X117042450Y-86228000D02*
X116974716Y-86160267D01*
X116974716Y-86160267D02*
X116906983Y-86126400D01*
X116906983Y-86126400D02*
X116771516Y-86092533D01*
X116771516Y-86092533D02*
X116669916Y-86092533D01*
X116669916Y-86092533D02*
X116534450Y-86126400D01*
X116534450Y-86126400D02*
X116466716Y-86160267D01*
X116466716Y-86160267D02*
X116398983Y-86228000D01*
X116398983Y-86228000D02*
X116365116Y-86329600D01*
X116365116Y-86329600D02*
X116365116Y-86397333D01*
X116365116Y-86397333D02*
X116398983Y-86498933D01*
X116398983Y-86498933D02*
X116432850Y-86532800D01*
X116365116Y-87142400D02*
X116365116Y-87006933D01*
X116365116Y-87006933D02*
X116398983Y-86939200D01*
X116398983Y-86939200D02*
X116432850Y-86905333D01*
X116432850Y-86905333D02*
X116534450Y-86837600D01*
X116534450Y-86837600D02*
X116669916Y-86803733D01*
X116669916Y-86803733D02*
X116940850Y-86803733D01*
X116940850Y-86803733D02*
X117008583Y-86837600D01*
X117008583Y-86837600D02*
X117042450Y-86871467D01*
X117042450Y-86871467D02*
X117076316Y-86939200D01*
X117076316Y-86939200D02*
X117076316Y-87074667D01*
X117076316Y-87074667D02*
X117042450Y-87142400D01*
X117042450Y-87142400D02*
X117008583Y-87176267D01*
X117008583Y-87176267D02*
X116940850Y-87210133D01*
X116940850Y-87210133D02*
X116771516Y-87210133D01*
X116771516Y-87210133D02*
X116703783Y-87176267D01*
X116703783Y-87176267D02*
X116669916Y-87142400D01*
X116669916Y-87142400D02*
X116636050Y-87074667D01*
X116636050Y-87074667D02*
X116636050Y-86939200D01*
X116636050Y-86939200D02*
X116669916Y-86871467D01*
X116669916Y-86871467D02*
X116703783Y-86837600D01*
X116703783Y-86837600D02*
X116771516Y-86803733D01*
X116669916Y-87616533D02*
X116636050Y-87548800D01*
X116636050Y-87548800D02*
X116602183Y-87514933D01*
X116602183Y-87514933D02*
X116534450Y-87481066D01*
X116534450Y-87481066D02*
X116500583Y-87481066D01*
X116500583Y-87481066D02*
X116432850Y-87514933D01*
X116432850Y-87514933D02*
X116398983Y-87548800D01*
X116398983Y-87548800D02*
X116365116Y-87616533D01*
X116365116Y-87616533D02*
X116365116Y-87752000D01*
X116365116Y-87752000D02*
X116398983Y-87819733D01*
X116398983Y-87819733D02*
X116432850Y-87853600D01*
X116432850Y-87853600D02*
X116500583Y-87887466D01*
X116500583Y-87887466D02*
X116534450Y-87887466D01*
X116534450Y-87887466D02*
X116602183Y-87853600D01*
X116602183Y-87853600D02*
X116636050Y-87819733D01*
X116636050Y-87819733D02*
X116669916Y-87752000D01*
X116669916Y-87752000D02*
X116669916Y-87616533D01*
X116669916Y-87616533D02*
X116703783Y-87548800D01*
X116703783Y-87548800D02*
X116737650Y-87514933D01*
X116737650Y-87514933D02*
X116805383Y-87481066D01*
X116805383Y-87481066D02*
X116940850Y-87481066D01*
X116940850Y-87481066D02*
X117008583Y-87514933D01*
X117008583Y-87514933D02*
X117042450Y-87548800D01*
X117042450Y-87548800D02*
X117076316Y-87616533D01*
X117076316Y-87616533D02*
X117076316Y-87752000D01*
X117076316Y-87752000D02*
X117042450Y-87819733D01*
X117042450Y-87819733D02*
X117008583Y-87853600D01*
X117008583Y-87853600D02*
X116940850Y-87887466D01*
X116940850Y-87887466D02*
X116805383Y-87887466D01*
X116805383Y-87887466D02*
X116737650Y-87853600D01*
X116737650Y-87853600D02*
X116703783Y-87819733D01*
X116703783Y-87819733D02*
X116669916Y-87752000D01*
%TO.C,JP5*%
D12*
X142609000Y-90855000D02*
X138291000Y-90855000D01*
X138291000Y-92125000D01*
X142609000Y-92125000D01*
X142609000Y-90855000D01*
D13*
%TO.C,R25*%
X132113641Y-81100000D02*
X131806359Y-81100000D01*
X132113641Y-81860000D02*
X131806359Y-81860000D01*
%TO.C,JP1*%
D12*
X133151000Y-82115000D02*
X137469000Y-82115000D01*
X137469000Y-80845000D01*
X133151000Y-80845000D01*
X133151000Y-82115000D01*
D13*
%TO.C,R31*%
X143529285Y-85230000D02*
X143836567Y-85230000D01*
X143529285Y-84470000D02*
X143836567Y-84470000D01*
%TO.C,R30*%
X143529285Y-83735567D02*
X143836567Y-83735567D01*
X143529285Y-82975567D02*
X143836567Y-82975567D01*
%TO.C,JP3*%
D12*
X133151000Y-80845000D02*
X137469000Y-80845000D01*
X137469000Y-79575000D01*
X133151000Y-79575000D01*
X133151000Y-80845000D01*
%TO.C,JP4*%
X142651683Y-84211654D02*
X138333683Y-84211654D01*
X138333683Y-85481654D01*
X142651683Y-85481654D01*
X142651683Y-84211654D01*
%TO.C,JP2*%
X142648214Y-82725000D02*
X138330214Y-82725000D01*
X138330214Y-83995000D01*
X142648214Y-83995000D01*
X142648214Y-82725000D01*
%TO.C,JP6*%
X138321000Y-79199800D02*
X142639000Y-79199800D01*
X142639000Y-77929800D01*
X138321000Y-77929800D01*
X138321000Y-79199800D01*
D14*
%TO.C,SoM1*%
X134625000Y-74280000D02*
X135015000Y-74280000D01*
X135015000Y-76200000D01*
X134625000Y-76200000D01*
X134625000Y-77000000D01*
X113575000Y-77000000D01*
X113575000Y-76200000D01*
X113185000Y-76200000D01*
X113185000Y-74280000D01*
X113575000Y-74280000D01*
X113575000Y-73480000D01*
X134625000Y-73480000D01*
X134625000Y-74280000D01*
X134630000Y-108200000D02*
X135020000Y-108200000D01*
X135020000Y-110120000D01*
X134630000Y-110120000D01*
X134630000Y-110920000D01*
X113580000Y-110920000D01*
X113580000Y-110120000D01*
X113190000Y-110120000D01*
X113190000Y-108200000D01*
X113580000Y-108200000D01*
X113580000Y-107400000D01*
X134630000Y-107400000D01*
X134630000Y-108200000D01*
D13*
%TO.C,C14*%
X120260002Y-93155176D02*
X120260002Y-93370848D01*
X120980002Y-93155176D02*
X120980002Y-93370848D01*
D12*
%TO.C,Y2*%
X103743700Y-108049000D02*
X105521700Y-108049000D01*
X103743700Y-109700000D02*
X103743700Y-108049000D01*
D14*
X105695700Y-108450000D02*
X105855700Y-108450000D01*
X105695700Y-110950000D02*
X105855700Y-110950000D01*
D13*
%TO.C,C62*%
X99998614Y-84647836D02*
X99998614Y-84432164D01*
X100718614Y-84647836D02*
X100718614Y-84432164D01*
%TO.C,C53*%
X96340000Y-86972164D02*
X96340000Y-87187836D01*
X97060000Y-86972164D02*
X97060000Y-87187836D01*
%TO.C,C16*%
X117927836Y-100153012D02*
X117712164Y-100153012D01*
X117927836Y-100873012D02*
X117712164Y-100873012D01*
%TO.C,C79*%
X132949420Y-89650000D02*
X133230580Y-89650000D01*
X132949420Y-90670000D02*
X133230580Y-90670000D01*
%TO.C,C65*%
X118457391Y-79670000D02*
X118673063Y-79670000D01*
X118457391Y-80390000D02*
X118673063Y-80390000D01*
%TO.C,C54*%
X97260000Y-86972164D02*
X97260000Y-87187836D01*
X97980000Y-86972164D02*
X97980000Y-87187836D01*
%TO.C,C11*%
X121882166Y-92983012D02*
X122097838Y-92983012D01*
X121882166Y-93703012D02*
X122097838Y-93703012D01*
%TO.C,C52*%
X107363536Y-106950000D02*
X107147864Y-106950000D01*
X107363536Y-107670000D02*
X107147864Y-107670000D01*
%TO.C,C15*%
X119300000Y-102225580D02*
X119300000Y-101944420D01*
X120320000Y-102225580D02*
X120320000Y-101944420D01*
D15*
%TO.C,LOGO4*%
G36*
X148285382Y-94934871D02*
G01*
X148285382Y-96678797D01*
X147858195Y-96678797D01*
X147431009Y-96678797D01*
X147431009Y-94934871D01*
X147431009Y-93190946D01*
X147858195Y-93190946D01*
X148285382Y-93190946D01*
X148285382Y-94934871D01*
G37*
G36*
X145867929Y-95548509D02*
G01*
X145903631Y-95571068D01*
X145929657Y-95607840D01*
X145937802Y-95634335D01*
X145936811Y-95677313D01*
X145920537Y-95716322D01*
X145891887Y-95747443D01*
X145853769Y-95766755D01*
X145809092Y-95770341D01*
X145767110Y-95757136D01*
X145733230Y-95729816D01*
X145711674Y-95692911D01*
X145704936Y-95650757D01*
X145715512Y-95607692D01*
X145719258Y-95600452D01*
X145748215Y-95566133D01*
X145785676Y-95546038D01*
X145827096Y-95540164D01*
X145867929Y-95548509D01*
G37*
G36*
X142489904Y-92897357D02*
G01*
X142491667Y-92899049D01*
X142509584Y-92916132D01*
X142540639Y-92945638D01*
X142583594Y-92986392D01*
X142637207Y-93037222D01*
X142700239Y-93096951D01*
X142771451Y-93164405D01*
X142849603Y-93238411D01*
X142933455Y-93317793D01*
X143021769Y-93401377D01*
X143113303Y-93487989D01*
X143685625Y-94029465D01*
X143836805Y-94042451D01*
X144465222Y-94096432D01*
X145244820Y-94163399D01*
X145264923Y-94143656D01*
X145660603Y-93755071D01*
X145686963Y-93729186D01*
X145772599Y-93645132D01*
X145860103Y-93559294D01*
X145947160Y-93473941D01*
X146031455Y-93391342D01*
X146110673Y-93313763D01*
X146182499Y-93243472D01*
X146244619Y-93182739D01*
X146294717Y-93133829D01*
X146513048Y-92920916D01*
X146544842Y-92952710D01*
X146553725Y-92961873D01*
X146570131Y-92980769D01*
X146576636Y-92991505D01*
X146574096Y-92994641D01*
X146558979Y-93010497D01*
X146531172Y-93038733D01*
X146491732Y-93078301D01*
X146441712Y-93128156D01*
X146382167Y-93187251D01*
X146314153Y-93254540D01*
X146238725Y-93328976D01*
X146156937Y-93409514D01*
X146069845Y-93495108D01*
X145978503Y-93584710D01*
X145922337Y-93639799D01*
X145833757Y-93726865D01*
X145750218Y-93809199D01*
X145672760Y-93885766D01*
X145602419Y-93955531D01*
X145540235Y-94017461D01*
X145487244Y-94070519D01*
X145444486Y-94113672D01*
X145412997Y-94145885D01*
X145393816Y-94166124D01*
X145387980Y-94173353D01*
X145388219Y-94173413D01*
X145401391Y-94175032D01*
X145431725Y-94178114D01*
X145476573Y-94182410D01*
X145533287Y-94187670D01*
X145599220Y-94193645D01*
X145671722Y-94200085D01*
X145747562Y-94206796D01*
X145812762Y-94212781D01*
X145862516Y-94217811D01*
X145899211Y-94222286D01*
X145925232Y-94226611D01*
X145942963Y-94231186D01*
X145954790Y-94236414D01*
X145963097Y-94242698D01*
X145970271Y-94250440D01*
X145978513Y-94259394D01*
X145991300Y-94268725D01*
X146008834Y-94273866D01*
X146036231Y-94276048D01*
X146078608Y-94276502D01*
X146164527Y-94276502D01*
X146164527Y-94387067D01*
X146164527Y-94497633D01*
X146074064Y-94497633D01*
X145983601Y-94497633D01*
X145983601Y-94924820D01*
X145983635Y-94964072D01*
X145983999Y-95056017D01*
X145984730Y-95138836D01*
X145985792Y-95210699D01*
X145987144Y-95269777D01*
X145988750Y-95314240D01*
X145990570Y-95342260D01*
X145992565Y-95352006D01*
X146003236Y-95357668D01*
X146024297Y-95373618D01*
X146050739Y-95396249D01*
X146093268Y-95441167D01*
X146134943Y-95506997D01*
X146159744Y-95577040D01*
X146168471Y-95648911D01*
X146161928Y-95720224D01*
X146140916Y-95788595D01*
X146106235Y-95851636D01*
X146058689Y-95906964D01*
X145999079Y-95952192D01*
X145928207Y-95984935D01*
X145846874Y-96002807D01*
X145779136Y-96010376D01*
X146155271Y-96366307D01*
X146176939Y-96386811D01*
X146249297Y-96455275D01*
X146317270Y-96519580D01*
X146379398Y-96578344D01*
X146434221Y-96630189D01*
X146480280Y-96673735D01*
X146516116Y-96707602D01*
X146540271Y-96730410D01*
X146551284Y-96740779D01*
X146561531Y-96751277D01*
X146564060Y-96761095D01*
X146555610Y-96774173D01*
X146534529Y-96795955D01*
X146497895Y-96832589D01*
X146117917Y-96471740D01*
X146043864Y-96401411D01*
X145960864Y-96322580D01*
X145878019Y-96243890D01*
X145797732Y-96167625D01*
X145722406Y-96096067D01*
X145654447Y-96031500D01*
X145596258Y-95976209D01*
X145550243Y-95932477D01*
X145520802Y-95904546D01*
X145468470Y-95855363D01*
X145427686Y-95817981D01*
X145396550Y-95790855D01*
X145373159Y-95772444D01*
X145355612Y-95761204D01*
X145342009Y-95755592D01*
X145330449Y-95754064D01*
X145330254Y-95754065D01*
X145314578Y-95755047D01*
X145280578Y-95757764D01*
X145229885Y-95762070D01*
X145164134Y-95767819D01*
X145084956Y-95774864D01*
X144993984Y-95783060D01*
X144892851Y-95792261D01*
X144783191Y-95802319D01*
X144666636Y-95813089D01*
X144544818Y-95824424D01*
X144535525Y-95825292D01*
X144414939Y-95836545D01*
X144300362Y-95847227D01*
X144193349Y-95857193D01*
X144095458Y-95866300D01*
X144008244Y-95874401D01*
X143933264Y-95881354D01*
X143872074Y-95887013D01*
X143826231Y-95891234D01*
X143797290Y-95893873D01*
X143786809Y-95894784D01*
X143786341Y-95895530D01*
X143784769Y-95909852D01*
X143783497Y-95939615D01*
X143782645Y-95981160D01*
X143782335Y-96030830D01*
X143782335Y-96166876D01*
X143565391Y-96165778D01*
X143348447Y-96164680D01*
X142886298Y-96617742D01*
X142424150Y-97070803D01*
X142354549Y-97070803D01*
X142284948Y-97070803D01*
X142598916Y-96762017D01*
X142680155Y-96682124D01*
X142792116Y-96572018D01*
X142891087Y-96474648D01*
X142977866Y-96389186D01*
X143053254Y-96314801D01*
X143118049Y-96250666D01*
X143173051Y-96195950D01*
X143219059Y-96149824D01*
X143256872Y-96111458D01*
X143287291Y-96080024D01*
X143311114Y-96054692D01*
X143313877Y-96051617D01*
X143470740Y-96051617D01*
X143470848Y-96052933D01*
X143476557Y-96059143D01*
X143493151Y-96063048D01*
X143523696Y-96065077D01*
X143571254Y-96065659D01*
X143671769Y-96065659D01*
X143671769Y-95983991D01*
X143671769Y-95902323D01*
X143640473Y-95908582D01*
X143620717Y-95917168D01*
X143592222Y-95935604D01*
X143559580Y-95960303D01*
X143526952Y-95987758D01*
X143498496Y-96014466D01*
X143478372Y-96036921D01*
X143470740Y-96051617D01*
X143313877Y-96051617D01*
X143329140Y-96034632D01*
X143342170Y-96019016D01*
X143351002Y-96007013D01*
X143356435Y-95997795D01*
X143359270Y-95990532D01*
X143360305Y-95984394D01*
X143360340Y-95978553D01*
X143360174Y-95972178D01*
X143360174Y-95933390D01*
X143292327Y-95939730D01*
X143292086Y-95939752D01*
X143244613Y-95944242D01*
X143213591Y-95948673D01*
X143195534Y-95955418D01*
X143186953Y-95966851D01*
X143184362Y-95985346D01*
X143184274Y-96013276D01*
X143182100Y-96044744D01*
X143165826Y-96095303D01*
X143133358Y-96134041D01*
X143084366Y-96161450D01*
X143035876Y-96172426D01*
X142986118Y-96167882D01*
X142942371Y-96148599D01*
X142906907Y-96117349D01*
X142881998Y-96076906D01*
X142869914Y-96030044D01*
X142872927Y-95979536D01*
X142893310Y-95928157D01*
X142918966Y-95884378D01*
X142884446Y-95841837D01*
X142838047Y-95773311D01*
X142794847Y-95683505D01*
X142759296Y-95579047D01*
X142732347Y-95462313D01*
X142729094Y-95444490D01*
X142720729Y-95399603D01*
X142714233Y-95370173D01*
X142708107Y-95352947D01*
X142700856Y-95344671D01*
X142690983Y-95342092D01*
X142676991Y-95341955D01*
X142646521Y-95341955D01*
X142646521Y-95045437D01*
X142777190Y-95045437D01*
X142777190Y-95221337D01*
X142802319Y-95221337D01*
X142827447Y-95221337D01*
X142827447Y-95045437D01*
X142827447Y-94869537D01*
X142802319Y-94869537D01*
X142777190Y-94869537D01*
X142777190Y-95045437D01*
X142646521Y-95045437D01*
X142646521Y-94748919D01*
X142671034Y-94748919D01*
X142676800Y-94748741D01*
X142689530Y-94744371D01*
X142696644Y-94730235D01*
X142697623Y-94724285D01*
X142827633Y-94724285D01*
X142829028Y-94738317D01*
X142836367Y-94745654D01*
X142854370Y-94748465D01*
X142887756Y-94748919D01*
X142948065Y-94748919D01*
X142948065Y-95045437D01*
X142948065Y-95341955D01*
X142892974Y-95341955D01*
X142837884Y-95341955D01*
X142844063Y-95389699D01*
X142852790Y-95441780D01*
X142867867Y-95507866D01*
X142886532Y-95574403D01*
X142906852Y-95634582D01*
X142926895Y-95681590D01*
X142927255Y-95682301D01*
X142948506Y-95718799D01*
X142973786Y-95754398D01*
X142999601Y-95784955D01*
X143022458Y-95806328D01*
X143038863Y-95814373D01*
X143040306Y-95809425D01*
X143042175Y-95785693D01*
X143043822Y-95742912D01*
X143045239Y-95681701D01*
X143046419Y-95602677D01*
X143047351Y-95506460D01*
X143048028Y-95393666D01*
X143048440Y-95264915D01*
X143048579Y-95120823D01*
X143048579Y-94971505D01*
X143179248Y-94971505D01*
X143179248Y-95827331D01*
X143247095Y-95820923D01*
X143282187Y-95817860D01*
X143316027Y-95815410D01*
X143337558Y-95814444D01*
X143345710Y-95813876D01*
X143357276Y-95805979D01*
X143360174Y-95784218D01*
X143360174Y-95760092D01*
X143779917Y-95760092D01*
X143782648Y-95761174D01*
X143798428Y-95762008D01*
X143828660Y-95761179D01*
X143874036Y-95758636D01*
X143935250Y-95754324D01*
X144012994Y-95748190D01*
X144107961Y-95740182D01*
X144220843Y-95730244D01*
X144352334Y-95718325D01*
X144503127Y-95704371D01*
X144599928Y-95695299D01*
X144713073Y-95684589D01*
X144818993Y-95674445D01*
X144916089Y-95665028D01*
X145002761Y-95656497D01*
X145063243Y-95650431D01*
X145644164Y-95650431D01*
X145648559Y-95698915D01*
X145666605Y-95744723D01*
X145699040Y-95784630D01*
X145746602Y-95815415D01*
X145770647Y-95824438D01*
X145827029Y-95832281D01*
X145881416Y-95822980D01*
X145929613Y-95797641D01*
X145967419Y-95757366D01*
X145968470Y-95755754D01*
X145992324Y-95702709D01*
X145998513Y-95648779D01*
X145988722Y-95597217D01*
X145964639Y-95551275D01*
X145927948Y-95514207D01*
X145880337Y-95489265D01*
X145823491Y-95479702D01*
X145801111Y-95480651D01*
X145748325Y-95494178D01*
X145705500Y-95521142D01*
X145673372Y-95558321D01*
X145652681Y-95602492D01*
X145644164Y-95650431D01*
X145063243Y-95650431D01*
X145077411Y-95649010D01*
X145138438Y-95642727D01*
X145184245Y-95637806D01*
X145213232Y-95634407D01*
X145223799Y-95632690D01*
X145221653Y-95629160D01*
X145207303Y-95613471D01*
X145181082Y-95586832D01*
X145144740Y-95550898D01*
X145100026Y-95507327D01*
X145048690Y-95457777D01*
X144992480Y-95403903D01*
X144933148Y-95347364D01*
X144872441Y-95289816D01*
X144812111Y-95232916D01*
X144753906Y-95178321D01*
X144699575Y-95127688D01*
X144650869Y-95082675D01*
X144609537Y-95044937D01*
X144577328Y-95016133D01*
X144555993Y-94997918D01*
X144547279Y-94991951D01*
X144544860Y-94993874D01*
X144529892Y-95007687D01*
X144502609Y-95033678D01*
X144464357Y-95070539D01*
X144416486Y-95116961D01*
X144360340Y-95171637D01*
X144297268Y-95233259D01*
X144228617Y-95300519D01*
X144155734Y-95372109D01*
X144077139Y-95449702D01*
X144001704Y-95524837D01*
X143935905Y-95591108D01*
X143880554Y-95647674D01*
X143836466Y-95693696D01*
X143804455Y-95728333D01*
X143785334Y-95750745D01*
X143779917Y-95760092D01*
X143360174Y-95760092D01*
X143360174Y-95754064D01*
X143493490Y-95754064D01*
X143626807Y-95754064D01*
X143671769Y-95709016D01*
X143766731Y-95613871D01*
X143906655Y-95473679D01*
X143841982Y-95470638D01*
X143777309Y-95467598D01*
X143774672Y-95098207D01*
X143772036Y-94728817D01*
X143897661Y-94728817D01*
X144023287Y-94728817D01*
X144025941Y-95045527D01*
X144028595Y-95362237D01*
X144252446Y-95138214D01*
X144473838Y-94916653D01*
X144625026Y-94916653D01*
X144914820Y-95191342D01*
X144920708Y-95196924D01*
X144988248Y-95261013D01*
X145054326Y-95323826D01*
X145116753Y-95383274D01*
X145173339Y-95437266D01*
X145221892Y-95483713D01*
X145260222Y-95520525D01*
X145286138Y-95545611D01*
X145367663Y-95625192D01*
X145424346Y-95618109D01*
X145443198Y-95615529D01*
X145467314Y-95610106D01*
X145478378Y-95602233D01*
X145481037Y-95589570D01*
X145487147Y-95559522D01*
X145503749Y-95520047D01*
X145527598Y-95477351D01*
X145555448Y-95437232D01*
X145584055Y-95405490D01*
X145612962Y-95380625D01*
X145667318Y-95344825D01*
X145724236Y-95323536D01*
X145790111Y-95313915D01*
X145823491Y-95311736D01*
X145862984Y-95309157D01*
X145862984Y-94822983D01*
X145862984Y-94336810D01*
X145830317Y-94336366D01*
X145814082Y-94335536D01*
X145779865Y-94333120D01*
X145731436Y-94329364D01*
X145671837Y-94324513D01*
X145604106Y-94318808D01*
X145531286Y-94312493D01*
X145264923Y-94289063D01*
X145089022Y-94457990D01*
X145079705Y-94466947D01*
X145017720Y-94526887D01*
X144950783Y-94592128D01*
X144883776Y-94657883D01*
X144821579Y-94719364D01*
X144769074Y-94771785D01*
X144625026Y-94916653D01*
X144473838Y-94916653D01*
X144476298Y-94914191D01*
X144135429Y-94590797D01*
X144079159Y-94537430D01*
X144009227Y-94471159D01*
X143943101Y-94408551D01*
X143882578Y-94351304D01*
X143829450Y-94301114D01*
X143785515Y-94259677D01*
X143752566Y-94228691D01*
X143732399Y-94209852D01*
X143687876Y-94168631D01*
X143836805Y-94168631D01*
X143842827Y-94176126D01*
X143861956Y-94195616D01*
X143892477Y-94225486D01*
X143932668Y-94264131D01*
X143980806Y-94309945D01*
X144035167Y-94361321D01*
X144094029Y-94416655D01*
X144155669Y-94474340D01*
X144218363Y-94532771D01*
X144280389Y-94590341D01*
X144340024Y-94645445D01*
X144395544Y-94696477D01*
X144445226Y-94741832D01*
X144487348Y-94779903D01*
X144520187Y-94809084D01*
X144542019Y-94827771D01*
X144547279Y-94831577D01*
X144551122Y-94834357D01*
X144552491Y-94833846D01*
X144566052Y-94823400D01*
X144591746Y-94800637D01*
X144627960Y-94767080D01*
X144673083Y-94724256D01*
X144725505Y-94673690D01*
X144783615Y-94616906D01*
X144845800Y-94555429D01*
X144864594Y-94536731D01*
X144924698Y-94476729D01*
X144979392Y-94421825D01*
X145027193Y-94373526D01*
X145066623Y-94333337D01*
X145096201Y-94302766D01*
X145114447Y-94283319D01*
X145119880Y-94276502D01*
X145118920Y-94276444D01*
X145103141Y-94275176D01*
X145069477Y-94272356D01*
X145019633Y-94268130D01*
X144955311Y-94262642D01*
X144878214Y-94256040D01*
X144790048Y-94248469D01*
X144692514Y-94240075D01*
X144587317Y-94231004D01*
X144476161Y-94221401D01*
X144446199Y-94218813D01*
X144336643Y-94209398D01*
X144233609Y-94200618D01*
X144138787Y-94192612D01*
X144053863Y-94185519D01*
X143980526Y-94179478D01*
X143920463Y-94174630D01*
X143875364Y-94171113D01*
X143846915Y-94169067D01*
X143836805Y-94168631D01*
X143687876Y-94168631D01*
X143670237Y-94152300D01*
X143467461Y-94134378D01*
X143460526Y-94133767D01*
X143396016Y-94128266D01*
X143336033Y-94123457D01*
X143284448Y-94119628D01*
X143245135Y-94117068D01*
X143221967Y-94116067D01*
X143179248Y-94115678D01*
X143179248Y-94971505D01*
X143048579Y-94971505D01*
X143048579Y-94427273D01*
X142959254Y-94427273D01*
X142869930Y-94427273D01*
X142858569Y-94490095D01*
X142850325Y-94538226D01*
X142841564Y-94595280D01*
X142834397Y-94648302D01*
X142829524Y-94692049D01*
X142827647Y-94721278D01*
X142827633Y-94724285D01*
X142697623Y-94724285D01*
X142701424Y-94701175D01*
X142703090Y-94687854D01*
X142708009Y-94649447D01*
X142714184Y-94602027D01*
X142720664Y-94552916D01*
X142721096Y-94549605D01*
X142727199Y-94482659D01*
X142730110Y-94407270D01*
X142729395Y-94334297D01*
X142724763Y-94216193D01*
X142769553Y-94216193D01*
X142777190Y-94216078D01*
X142786620Y-94215937D01*
X142807334Y-94212127D01*
X142809139Y-94210417D01*
X142954016Y-94210417D01*
X142967240Y-94214879D01*
X142997729Y-94216193D01*
X143048579Y-94216193D01*
X143048579Y-94160556D01*
X143048280Y-94135335D01*
X143046150Y-94116514D01*
X143040594Y-94110979D01*
X143030036Y-94114844D01*
X143020252Y-94121976D01*
X142998437Y-94144091D01*
X142974669Y-94173399D01*
X142954298Y-94203629D01*
X142954016Y-94210417D01*
X142809139Y-94210417D01*
X142820426Y-94199725D01*
X142833460Y-94173704D01*
X142838592Y-94163411D01*
X142863857Y-94124960D01*
X142898287Y-94083301D01*
X142937014Y-94043551D01*
X142975173Y-94010828D01*
X143007897Y-93990250D01*
X143040594Y-93975506D01*
X143048579Y-93971905D01*
X143048579Y-93908097D01*
X143048579Y-93844289D01*
X143113914Y-93844289D01*
X143179248Y-93844289D01*
X143179248Y-93913706D01*
X143179248Y-93983123D01*
X143226992Y-93988989D01*
X143249757Y-93991640D01*
X143295117Y-93996360D01*
X143344886Y-94001011D01*
X143394998Y-94005273D01*
X143441381Y-94008823D01*
X143479969Y-94011339D01*
X143506691Y-94012499D01*
X143517479Y-94011981D01*
X143515128Y-94009067D01*
X143500147Y-93993786D01*
X143472272Y-93966340D01*
X143432566Y-93927749D01*
X143382092Y-93879033D01*
X143321912Y-93821212D01*
X143253088Y-93755306D01*
X143176683Y-93682336D01*
X143093760Y-93603321D01*
X143005381Y-93519282D01*
X142912608Y-93431238D01*
X142304009Y-92854222D01*
X142371418Y-92851212D01*
X142438827Y-92848202D01*
X142489904Y-92897357D01*
G37*
D13*
%TO.C,C17*%
X119285580Y-98740000D02*
X119004420Y-98740000D01*
X119285580Y-99760000D02*
X119004420Y-99760000D01*
%TO.C,C31*%
X123972164Y-93900000D02*
X124187836Y-93900000D01*
X123972164Y-94620000D02*
X124187836Y-94620000D01*
%TO.C,C60*%
X129470000Y-100999420D02*
X129470000Y-101280580D01*
X130490000Y-100999420D02*
X130490000Y-101280580D01*
%TO.C,R19*%
X135103641Y-98640000D02*
X134796359Y-98640000D01*
X135103641Y-99400000D02*
X134796359Y-99400000D01*
%TO.C,C59*%
X130810000Y-100462164D02*
X130810000Y-100677836D01*
X131530000Y-100462164D02*
X131530000Y-100677836D01*
%TO.C,R17*%
X108986359Y-110680000D02*
X109293641Y-110680000D01*
X108986359Y-111440000D02*
X109293641Y-111440000D01*
%TO.C,C45*%
X104187864Y-106950000D02*
X104403536Y-106950000D01*
X104187864Y-107670000D02*
X104403536Y-107670000D01*
%TO.C,C4*%
X111440000Y-92940580D02*
X111440000Y-92659420D01*
X112460000Y-92940580D02*
X112460000Y-92659420D01*
%TO.C,C25*%
X121180002Y-92080848D02*
X121180002Y-91865176D01*
X121900002Y-92080848D02*
X121900002Y-91865176D01*
%TO.C,R16*%
X108986359Y-109430000D02*
X109293641Y-109430000D01*
X108986359Y-110190000D02*
X109293641Y-110190000D01*
%TO.C,C35*%
X118760002Y-90460848D02*
X118760002Y-90245176D01*
X119480002Y-90460848D02*
X119480002Y-90245176D01*
%TO.C,C19*%
X121270000Y-95702164D02*
X121270000Y-95917836D01*
X121990000Y-95702164D02*
X121990000Y-95917836D01*
D15*
%TO.C,LOGO5*%
G36*
X146453817Y-90570257D02*
G01*
X146463207Y-90585500D01*
X146481763Y-90616392D01*
X146508780Y-90661736D01*
X146543549Y-90720336D01*
X146585365Y-90790996D01*
X146633520Y-90872518D01*
X146687307Y-90963707D01*
X146746019Y-91063367D01*
X146808950Y-91170300D01*
X146875392Y-91283311D01*
X146944639Y-91401203D01*
X146969181Y-91443013D01*
X147037389Y-91559306D01*
X147102420Y-91670317D01*
X147163578Y-91774849D01*
X147220165Y-91871706D01*
X147271486Y-91959691D01*
X147316842Y-92037609D01*
X147355539Y-92104262D01*
X147386879Y-92158455D01*
X147410165Y-92198990D01*
X147424701Y-92224673D01*
X147429790Y-92234306D01*
X147429260Y-92235609D01*
X147418530Y-92233471D01*
X147398193Y-92222874D01*
X147387246Y-92216489D01*
X147359586Y-92200601D01*
X147316987Y-92176241D01*
X147260755Y-92144154D01*
X147192201Y-92105085D01*
X147112632Y-92059780D01*
X147023358Y-92008983D01*
X146925686Y-91953439D01*
X146820926Y-91893895D01*
X146710387Y-91831094D01*
X146595376Y-91765782D01*
X146493099Y-91707702D01*
X146382213Y-91644707D01*
X146277046Y-91584933D01*
X146178897Y-91529119D01*
X146089063Y-91478005D01*
X146008842Y-91432329D01*
X145939532Y-91392830D01*
X145882432Y-91360249D01*
X145838840Y-91335323D01*
X145810054Y-91318793D01*
X145797371Y-91311396D01*
X145769669Y-91294353D01*
X145842389Y-91247903D01*
X145906014Y-91203789D01*
X146007582Y-91119848D01*
X146108940Y-91020323D01*
X146207783Y-90907723D01*
X146301806Y-90784558D01*
X146388702Y-90653336D01*
X146408355Y-90622529D01*
X146429287Y-90592635D01*
X146444912Y-90573686D01*
X146452830Y-90568844D01*
X146453817Y-90570257D01*
G37*
G36*
X145220388Y-88479958D02*
G01*
X145234614Y-88496065D01*
X145255246Y-88525200D01*
X145283048Y-88568513D01*
X145318787Y-88627153D01*
X145363227Y-88702270D01*
X145496629Y-88930030D01*
X145420650Y-89007390D01*
X145419842Y-89008214D01*
X145351209Y-89090812D01*
X145292090Y-89188811D01*
X145242351Y-89302647D01*
X145201855Y-89432755D01*
X145170466Y-89579573D01*
X145148048Y-89743536D01*
X145134466Y-89925081D01*
X145125023Y-90039819D01*
X145103193Y-90180934D01*
X145071181Y-90317376D01*
X145030129Y-90444424D01*
X144981183Y-90557359D01*
X144976007Y-90567452D01*
X144950943Y-90612419D01*
X144923445Y-90656749D01*
X144895917Y-90697059D01*
X144870765Y-90729963D01*
X144850393Y-90752076D01*
X144837205Y-90760014D01*
X144828841Y-90756333D01*
X144804299Y-90743487D01*
X144765143Y-90722189D01*
X144712766Y-90693235D01*
X144648561Y-90657419D01*
X144573920Y-90615537D01*
X144490237Y-90568385D01*
X144398904Y-90516759D01*
X144301313Y-90461452D01*
X144198858Y-90403262D01*
X144092932Y-90342983D01*
X143984926Y-90281411D01*
X143876234Y-90219341D01*
X143768248Y-90157569D01*
X143662362Y-90096889D01*
X143559967Y-90038099D01*
X143462457Y-89981992D01*
X143371225Y-89929365D01*
X143287662Y-89881012D01*
X143213163Y-89837730D01*
X143149119Y-89800314D01*
X143096924Y-89769559D01*
X143057969Y-89746260D01*
X143033649Y-89731213D01*
X143025355Y-89725214D01*
X143026138Y-89724413D01*
X143039639Y-89715536D01*
X143068913Y-89697737D01*
X143112690Y-89671741D01*
X143169701Y-89638275D01*
X143238675Y-89598064D01*
X143318343Y-89551834D01*
X143407434Y-89500310D01*
X143504678Y-89444218D01*
X143608806Y-89384284D01*
X143718547Y-89321233D01*
X143832631Y-89255791D01*
X143949789Y-89188683D01*
X144068749Y-89120636D01*
X144188243Y-89052374D01*
X144307000Y-88984624D01*
X144423751Y-88918111D01*
X144537224Y-88853561D01*
X144646151Y-88791700D01*
X144749260Y-88733252D01*
X144845283Y-88678944D01*
X144932949Y-88629502D01*
X145010987Y-88585650D01*
X145078129Y-88548116D01*
X145133104Y-88517623D01*
X145174641Y-88494899D01*
X145201472Y-88480668D01*
X145212325Y-88475657D01*
X145220388Y-88479958D01*
G37*
G36*
X148281040Y-89721744D02*
G01*
X148281033Y-89851535D01*
X148280976Y-90111353D01*
X148280863Y-90362676D01*
X148280696Y-90604865D01*
X148280476Y-90837280D01*
X148280207Y-91059281D01*
X148279888Y-91270229D01*
X148279524Y-91469484D01*
X148279114Y-91656406D01*
X148278662Y-91830357D01*
X148278169Y-91990695D01*
X148277637Y-92136783D01*
X148277068Y-92267979D01*
X148276463Y-92383645D01*
X148275826Y-92483140D01*
X148275156Y-92565826D01*
X148274458Y-92631063D01*
X148273731Y-92678210D01*
X148272979Y-92706629D01*
X148272203Y-92715679D01*
X148272034Y-92715476D01*
X148264737Y-92703989D01*
X148248325Y-92676859D01*
X148223693Y-92635597D01*
X148191733Y-92581717D01*
X148153340Y-92516731D01*
X148109406Y-92442150D01*
X148060826Y-92359488D01*
X148008494Y-92270256D01*
X147953302Y-92175967D01*
X147899373Y-92083757D01*
X147835005Y-91973712D01*
X147763658Y-91851749D01*
X147686926Y-91720591D01*
X147606402Y-91582962D01*
X147523681Y-91441585D01*
X147440355Y-91299185D01*
X147358019Y-91158485D01*
X147278266Y-91022209D01*
X147202689Y-90893081D01*
X146762140Y-90140404D01*
X146828817Y-90076344D01*
X146858772Y-90048020D01*
X146890265Y-90019667D01*
X146980528Y-90019667D01*
X146981048Y-90028245D01*
X146994611Y-90063920D01*
X147024171Y-90095393D01*
X147066527Y-90120633D01*
X147118478Y-90137607D01*
X147176820Y-90144281D01*
X147201639Y-90144256D01*
X147229285Y-90141636D01*
X147247893Y-90134220D01*
X147264167Y-90120158D01*
X147278937Y-90101735D01*
X147293976Y-90061366D01*
X147290863Y-90013698D01*
X147289910Y-90009842D01*
X147272255Y-89966126D01*
X147244796Y-89923048D01*
X147213557Y-89890231D01*
X147190901Y-89875966D01*
X147165612Y-89870643D01*
X147137122Y-89877444D01*
X147102008Y-89897260D01*
X147056848Y-89930980D01*
X147049114Y-89937183D01*
X147014948Y-89965935D01*
X146993978Y-89987118D01*
X146983428Y-90003955D01*
X146980528Y-90019667D01*
X146890265Y-90019667D01*
X146946747Y-89968817D01*
X147043560Y-89886605D01*
X147143144Y-89806588D01*
X147146076Y-89804245D01*
X147240631Y-89804245D01*
X147246398Y-89822849D01*
X147261603Y-89851820D01*
X147282864Y-89885971D01*
X147306797Y-89920185D01*
X147330020Y-89949349D01*
X147349151Y-89968347D01*
X147362459Y-89977452D01*
X147396415Y-89991544D01*
X147441664Y-89998242D01*
X147445481Y-89998517D01*
X147477780Y-89999894D01*
X147499010Y-89996299D01*
X147517288Y-89984802D01*
X147540725Y-89962472D01*
X147561131Y-89941010D01*
X147574289Y-89921051D01*
X147579562Y-89898128D01*
X147580366Y-89863733D01*
X147576910Y-89823694D01*
X147559597Y-89763739D01*
X147529885Y-89713962D01*
X147517013Y-89704608D01*
X147487616Y-89700637D01*
X147450924Y-89709096D01*
X147411539Y-89729385D01*
X147388036Y-89742810D01*
X147346149Y-89761559D01*
X147303997Y-89775845D01*
X147272794Y-89785759D01*
X147249524Y-89796109D01*
X147240631Y-89804245D01*
X147146076Y-89804245D01*
X147165612Y-89788636D01*
X147166196Y-89788169D01*
X147199641Y-89759036D01*
X147219258Y-89738046D01*
X147223607Y-89726632D01*
X147222078Y-89724185D01*
X147210273Y-89706080D01*
X147194062Y-89681853D01*
X147190662Y-89676455D01*
X147174908Y-89641915D01*
X147165152Y-89605450D01*
X147164841Y-89601962D01*
X147210619Y-89601962D01*
X147210648Y-89607730D01*
X147213369Y-89638985D01*
X147223357Y-89661762D01*
X147244632Y-89685987D01*
X147261290Y-89700954D01*
X147285386Y-89714773D01*
X147312440Y-89718926D01*
X147345935Y-89713150D01*
X147389355Y-89697182D01*
X147446186Y-89670758D01*
X147461704Y-89663027D01*
X147487616Y-89648732D01*
X147517093Y-89632471D01*
X147559404Y-89602978D01*
X147593674Y-89571148D01*
X147614612Y-89547854D01*
X147631313Y-89524535D01*
X147638945Y-89503337D01*
X147640751Y-89477833D01*
X147638058Y-89450240D01*
X147618589Y-89399697D01*
X147581784Y-89355433D01*
X147555037Y-89341037D01*
X147512793Y-89335954D01*
X147462267Y-89343264D01*
X147407321Y-89362804D01*
X147384253Y-89373902D01*
X147331337Y-89405931D01*
X147288403Y-89444891D01*
X147248133Y-89496950D01*
X147239922Y-89509246D01*
X147221667Y-89541350D01*
X147212887Y-89569490D01*
X147210619Y-89601962D01*
X147164841Y-89601962D01*
X147163458Y-89586459D01*
X147169661Y-89540342D01*
X147191419Y-89494339D01*
X147229687Y-89447169D01*
X147285418Y-89397551D01*
X147359565Y-89344204D01*
X147372552Y-89335484D01*
X147402288Y-89314785D01*
X147422958Y-89299309D01*
X147430705Y-89291892D01*
X147426388Y-89290579D01*
X147405892Y-89290123D01*
X147372067Y-89291220D01*
X147328844Y-89293611D01*
X147280153Y-89297038D01*
X147229927Y-89301242D01*
X147182096Y-89305966D01*
X147140591Y-89310952D01*
X147136431Y-89311541D01*
X147053392Y-89332621D01*
X146965247Y-89371621D01*
X146873367Y-89427603D01*
X146779123Y-89499632D01*
X146683886Y-89586768D01*
X146589026Y-89688076D01*
X146534010Y-89751189D01*
X146467155Y-89636993D01*
X146461802Y-89627830D01*
X146437725Y-89586063D01*
X146418191Y-89551292D01*
X146405087Y-89526922D01*
X146400300Y-89516357D01*
X146406732Y-89512013D01*
X146427908Y-89510023D01*
X146458521Y-89511224D01*
X146493020Y-89515358D01*
X146525852Y-89522169D01*
X146543382Y-89526537D01*
X146567137Y-89529156D01*
X146589009Y-89523959D01*
X146618493Y-89509664D01*
X146629262Y-89503759D01*
X146657702Y-89483518D01*
X146666991Y-89464824D01*
X146657411Y-89445392D01*
X146629246Y-89422939D01*
X146593207Y-89404178D01*
X146537566Y-89392995D01*
X146479882Y-89401363D01*
X146421305Y-89429246D01*
X146414762Y-89433436D01*
X146388011Y-89449790D01*
X146372191Y-89456395D01*
X146362468Y-89454372D01*
X146354007Y-89444840D01*
X146345556Y-89431893D01*
X146340276Y-89419545D01*
X146341034Y-89417277D01*
X146355298Y-89406415D01*
X146385685Y-89392018D01*
X146429650Y-89375190D01*
X146484646Y-89357033D01*
X146563991Y-89332491D01*
X146634705Y-89371044D01*
X146667284Y-89387423D01*
X146709279Y-89403793D01*
X146740434Y-89409700D01*
X146751967Y-89408811D01*
X146781145Y-89401274D01*
X146809864Y-89388621D01*
X146831760Y-89373982D01*
X146840473Y-89360486D01*
X146836957Y-89353129D01*
X146818838Y-89336434D01*
X146788812Y-89315481D01*
X146750845Y-89292497D01*
X146708903Y-89269710D01*
X146666952Y-89249347D01*
X146628958Y-89233636D01*
X146598887Y-89224804D01*
X146568134Y-89222066D01*
X146507947Y-89229060D01*
X146440827Y-89249860D01*
X146370502Y-89283506D01*
X146351237Y-89294124D01*
X146315430Y-89311833D01*
X146292800Y-89319097D01*
X146281145Y-89316733D01*
X146278534Y-89313966D01*
X146271578Y-89300355D01*
X146276081Y-89284890D01*
X146293772Y-89264489D01*
X146326379Y-89236068D01*
X146382510Y-89189858D01*
X146448927Y-89195845D01*
X146478433Y-89197697D01*
X146521784Y-89195406D01*
X146560363Y-89185145D01*
X146573796Y-89180207D01*
X146603273Y-89169642D01*
X146623181Y-89162875D01*
X146635697Y-89163621D01*
X146663668Y-89175811D01*
X146701714Y-89199894D01*
X146709266Y-89205120D01*
X146784144Y-89248445D01*
X146855434Y-89273154D01*
X146925178Y-89279726D01*
X146995417Y-89268639D01*
X147008837Y-89264006D01*
X147043438Y-89244290D01*
X147072965Y-89217526D01*
X147092873Y-89188423D01*
X147098615Y-89161693D01*
X147097572Y-89155268D01*
X147090780Y-89141867D01*
X147074310Y-89132715D01*
X147043080Y-89124401D01*
X147012285Y-89114833D01*
X146969666Y-89096614D01*
X146929724Y-89075071D01*
X146868861Y-89037504D01*
X146813083Y-89055048D01*
X146782915Y-89063101D01*
X146749727Y-89067773D01*
X146709693Y-89068685D01*
X146656333Y-89066304D01*
X146630378Y-89064426D01*
X146584369Y-89059888D01*
X146545560Y-89054595D01*
X146520347Y-89049345D01*
X146519545Y-89049101D01*
X146485794Y-89040264D01*
X146457655Y-89037732D01*
X146431034Y-89042924D01*
X146401838Y-89057261D01*
X146365972Y-89082161D01*
X146319345Y-89119044D01*
X146318152Y-89120012D01*
X146271711Y-89156551D01*
X146238192Y-89180028D01*
X146216100Y-89191207D01*
X146203942Y-89190848D01*
X146200221Y-89179711D01*
X146203142Y-89174848D01*
X146218544Y-89158498D01*
X146244410Y-89133959D01*
X146277609Y-89103930D01*
X146315009Y-89071112D01*
X146353476Y-89038205D01*
X146389881Y-89007910D01*
X146421089Y-88982927D01*
X146443970Y-88965957D01*
X146455391Y-88959701D01*
X146468152Y-88962854D01*
X146494125Y-88972546D01*
X146526443Y-88986498D01*
X146556239Y-88998307D01*
X146634785Y-89015535D01*
X146719962Y-89016938D01*
X146807511Y-89002279D01*
X146879590Y-88983482D01*
X146966694Y-89026128D01*
X146996084Y-89039765D01*
X147076394Y-89070627D01*
X147160507Y-89094956D01*
X147244853Y-89112260D01*
X147325863Y-89122049D01*
X147399965Y-89123829D01*
X147463590Y-89117109D01*
X147512793Y-89101517D01*
X147513168Y-89101398D01*
X147538372Y-89087009D01*
X147580216Y-89049364D01*
X147604710Y-89003558D01*
X147606586Y-88994520D01*
X147603206Y-88987095D01*
X147590493Y-88981644D01*
X147564932Y-88976769D01*
X147523005Y-88971070D01*
X147455450Y-88960092D01*
X147366821Y-88936155D01*
X147295627Y-88903395D01*
X147241451Y-88861603D01*
X147203878Y-88810569D01*
X147197745Y-88797604D01*
X147185483Y-88760951D01*
X147182347Y-88740111D01*
X147210619Y-88740111D01*
X147213690Y-88766299D01*
X147233710Y-88811993D01*
X147270741Y-88853207D01*
X147295011Y-88869374D01*
X147340163Y-88889579D01*
X147394336Y-88906649D01*
X147452130Y-88919452D01*
X147508149Y-88926854D01*
X147556995Y-88927722D01*
X147593269Y-88920922D01*
X147612492Y-88910722D01*
X147620780Y-88900775D01*
X147616403Y-88891220D01*
X147598423Y-88871698D01*
X147570325Y-88847599D01*
X147536219Y-88822138D01*
X147500212Y-88798528D01*
X147466412Y-88779985D01*
X147446848Y-88771221D01*
X147401553Y-88753636D01*
X147351844Y-88736957D01*
X147303431Y-88722909D01*
X147262022Y-88713216D01*
X147233329Y-88709602D01*
X147224473Y-88710241D01*
X147213366Y-88718265D01*
X147210619Y-88740111D01*
X147182347Y-88740111D01*
X147180607Y-88728551D01*
X147180607Y-88690623D01*
X146933009Y-88609129D01*
X146930450Y-88608287D01*
X146835386Y-88577436D01*
X146756144Y-88552827D01*
X146689841Y-88533805D01*
X146633596Y-88519712D01*
X146584525Y-88509894D01*
X146539748Y-88503693D01*
X146496380Y-88500454D01*
X146451541Y-88499520D01*
X146423776Y-88499897D01*
X146373285Y-88503366D01*
X146325767Y-88511498D01*
X146277277Y-88525550D01*
X146223872Y-88546780D01*
X146161608Y-88576443D01*
X146086540Y-88615796D01*
X146056459Y-88631866D01*
X145998318Y-88661755D01*
X145956209Y-88681393D01*
X145929500Y-88691062D01*
X145917558Y-88691044D01*
X145910709Y-88681163D01*
X145894992Y-88656063D01*
X145872018Y-88618289D01*
X145843232Y-88570237D01*
X145810075Y-88514300D01*
X145773993Y-88452874D01*
X145640710Y-88224987D01*
X145667866Y-88208140D01*
X145669477Y-88207171D01*
X145686157Y-88197473D01*
X145718688Y-88178741D01*
X145765886Y-88151653D01*
X145826562Y-88116884D01*
X145899532Y-88075114D01*
X145983607Y-88027019D01*
X146077602Y-87973275D01*
X146180329Y-87914561D01*
X146290603Y-87851552D01*
X146407237Y-87784928D01*
X146529044Y-87715364D01*
X146654837Y-87643538D01*
X146783431Y-87570127D01*
X146913638Y-87495808D01*
X147044272Y-87421258D01*
X147174146Y-87347155D01*
X147233329Y-87313392D01*
X147302074Y-87274175D01*
X147426869Y-87202996D01*
X147547345Y-87134295D01*
X147662315Y-87068750D01*
X147770592Y-87007036D01*
X147870991Y-86949832D01*
X147962323Y-86897815D01*
X148043404Y-86851661D01*
X148113045Y-86812048D01*
X148170061Y-86779654D01*
X148213266Y-86755155D01*
X148241471Y-86739228D01*
X148253492Y-86732550D01*
X148281040Y-86718306D01*
X148281040Y-89721744D01*
G37*
D13*
%TO.C,C12*%
X120350000Y-95917836D02*
X120350000Y-95702164D01*
X121070000Y-95917836D02*
X121070000Y-95702164D01*
%TO.C,C32*%
X120420000Y-97532164D02*
X120420000Y-97747836D01*
X121140000Y-97532164D02*
X121140000Y-97747836D01*
%TO.C,C9*%
X119190000Y-95927836D02*
X119190000Y-95712164D01*
X119910000Y-95927836D02*
X119910000Y-95712164D01*
%TO.C,C61*%
X100920000Y-84647836D02*
X100920000Y-84432164D01*
X101640000Y-84647836D02*
X101640000Y-84432164D01*
%TO.C,C57*%
X132490000Y-95942836D02*
X132490000Y-95727164D01*
X133210000Y-95942836D02*
X133210000Y-95727164D01*
%TO.C,C58*%
X131150000Y-95415580D02*
X131150000Y-95134420D01*
X132170000Y-95415580D02*
X132170000Y-95134420D01*
%TO.C,C36*%
X120260002Y-90470848D02*
X120260002Y-90255176D01*
X120980002Y-90470848D02*
X120980002Y-90255176D01*
%TO.C,C5*%
X117367836Y-95270000D02*
X117152164Y-95270000D01*
X117367836Y-95990000D02*
X117152164Y-95990000D01*
%TO.C,C66*%
X118989647Y-80720000D02*
X119270807Y-80720000D01*
X118989647Y-81740000D02*
X119270807Y-81740000D01*
%TO.C,C28*%
X118400002Y-97535176D02*
X118400002Y-97750848D01*
X119120002Y-97535176D02*
X119120002Y-97750848D01*
%TO.C,C64*%
X115015227Y-80029420D02*
X115015227Y-80310580D01*
X116035227Y-80029420D02*
X116035227Y-80310580D01*
D14*
%TO.C,FB5*%
X131851000Y-90963500D02*
X134489000Y-90963500D01*
X134489000Y-92636500D02*
X131851000Y-92636500D01*
D13*
%TO.C,C37*%
X119340002Y-93155176D02*
X119340002Y-93370848D01*
X120060002Y-93155176D02*
X120060002Y-93370848D01*
%TO.C,C20*%
X120277838Y-91533012D02*
X120062166Y-91533012D01*
X120277838Y-92253012D02*
X120062166Y-92253012D01*
%TO.C,C24*%
X115140000Y-93377836D02*
X115140000Y-93162164D01*
X115860000Y-93377836D02*
X115860000Y-93162164D01*
%TO.C,C7*%
X116510000Y-93367836D02*
X116510000Y-93152164D01*
X117230000Y-93367836D02*
X117230000Y-93152164D01*
%TO.C,C23*%
X115370000Y-95930848D02*
X115370000Y-95715176D01*
X116090000Y-95930848D02*
X116090000Y-95715176D01*
D12*
%TO.C,Y1*%
X124599000Y-102202000D02*
X124599000Y-100424000D01*
D14*
X125000000Y-100250000D02*
X125000000Y-100090000D01*
D12*
X126250000Y-102202000D02*
X124599000Y-102202000D01*
D14*
X127500000Y-100250000D02*
X127500000Y-100090000D01*
D13*
%TO.C,C34*%
X123300000Y-101807836D02*
X123300000Y-101592164D01*
X124020000Y-101807836D02*
X124020000Y-101592164D01*
%TO.C,C63*%
X113971660Y-80632164D02*
X113971660Y-80847836D01*
X114691660Y-80632164D02*
X114691660Y-80847836D01*
%TO.C,C13*%
X121882166Y-93903012D02*
X122097838Y-93903012D01*
X121882166Y-94623012D02*
X122097838Y-94623012D01*
%TO.C,C30*%
X123972164Y-94930000D02*
X124187836Y-94930000D01*
X123972164Y-95650000D02*
X124187836Y-95650000D01*
%TO.C,C21*%
X117430000Y-93152164D02*
X117430000Y-93367836D01*
X118150000Y-93152164D02*
X118150000Y-93367836D01*
%TO.C,C55*%
X103650000Y-88579138D02*
X103650000Y-88363466D01*
X104370000Y-88579138D02*
X104370000Y-88363466D01*
%TO.C,C67*%
X115205227Y-83982164D02*
X115205227Y-84197836D01*
X115925227Y-83982164D02*
X115925227Y-84197836D01*
%TO.C,C56*%
X102730000Y-88579138D02*
X102730000Y-88363466D01*
X103450000Y-88579138D02*
X103450000Y-88363466D01*
%TO.C,C22*%
X116440000Y-97522164D02*
X116440000Y-97737836D01*
X117160000Y-97522164D02*
X117160000Y-97737836D01*
D14*
%TO.C,FB1*%
X120863500Y-103329000D02*
X120863500Y-100691000D01*
X122536500Y-100691000D02*
X122536500Y-103329000D01*
D13*
%TO.C,C6*%
X117357836Y-94350000D02*
X117142164Y-94350000D01*
X117357836Y-95070000D02*
X117142164Y-95070000D01*
%TO.C,C38*%
X120290000Y-87540580D02*
X120290000Y-87259420D01*
X121310000Y-87540580D02*
X121310000Y-87259420D01*
%TO.C,C27*%
X122190000Y-87540580D02*
X122190000Y-87259420D01*
X123210000Y-87540580D02*
X123210000Y-87259420D01*
%TO.C,C33*%
X121290000Y-97532164D02*
X121290000Y-97747836D01*
X122010000Y-97532164D02*
X122010000Y-97747836D01*
%TO.C,C71*%
X136227836Y-93470000D02*
X136012164Y-93470000D01*
X136227836Y-94190000D02*
X136012164Y-94190000D01*
%TO.C,C43*%
X101252164Y-102310000D02*
X101467836Y-102310000D01*
X101252164Y-103030000D02*
X101467836Y-103030000D01*
%TO.C,C39*%
X123380000Y-98642164D02*
X123380000Y-98857836D01*
X124100000Y-98642164D02*
X124100000Y-98857836D01*
%TO.C,C8*%
X118270000Y-95927836D02*
X118270000Y-95712164D01*
X118990000Y-95927836D02*
X118990000Y-95712164D01*
%TO.C,C40*%
X113690000Y-102102164D02*
X113690000Y-102317836D01*
X114410000Y-102102164D02*
X114410000Y-102317836D01*
%TO.C,R13*%
X104963641Y-102490000D02*
X104656359Y-102490000D01*
X104963641Y-103250000D02*
X104656359Y-103250000D01*
%TO.C,C26*%
X123702164Y-92790000D02*
X123917836Y-92790000D01*
X123702164Y-93510000D02*
X123917836Y-93510000D01*
%TO.C,C10*%
X118420002Y-93155176D02*
X118420002Y-93370848D01*
X119140002Y-93155176D02*
X119140002Y-93370848D01*
%TO.C,C29*%
X117470000Y-97542164D02*
X117470000Y-97757836D01*
X118190000Y-97542164D02*
X118190000Y-97757836D01*
%TO.C,C68*%
X116245227Y-84519420D02*
X116245227Y-84800580D01*
X117265227Y-84519420D02*
X117265227Y-84800580D01*
%TD*%
%LPC*%
D15*
%TO.C,JP5*%
G36*
X140005200Y-91756700D02*
G01*
X139344800Y-91756700D01*
X139344800Y-91223300D01*
X140005200Y-91223300D01*
X140005200Y-91756700D01*
G37*
%TO.C,JP1*%
G36*
X136415200Y-81746700D02*
G01*
X135754800Y-81746700D01*
X135754800Y-81213300D01*
X136415200Y-81213300D01*
X136415200Y-81746700D01*
G37*
%TO.C,JP3*%
G36*
X136415200Y-80476700D02*
G01*
X135754800Y-80476700D01*
X135754800Y-79943300D01*
X136415200Y-79943300D01*
X136415200Y-80476700D01*
G37*
%TO.C,JP4*%
G36*
X140047883Y-85113354D02*
G01*
X139387483Y-85113354D01*
X139387483Y-84579954D01*
X140047883Y-84579954D01*
X140047883Y-85113354D01*
G37*
%TO.C,JP2*%
G36*
X140044414Y-83626700D02*
G01*
X139384014Y-83626700D01*
X139384014Y-83093300D01*
X140044414Y-83093300D01*
X140044414Y-83626700D01*
G37*
%TO.C,JP6*%
G36*
X141585200Y-78831500D02*
G01*
X140924800Y-78831500D01*
X140924800Y-78298100D01*
X141585200Y-78298100D01*
X141585200Y-78831500D01*
G37*
%TD*%
D16*
%TO.C,JP5*%
X140450000Y-91490000D03*
X138900000Y-91490000D03*
X142000000Y-91490000D03*
%TD*%
D17*
%TO.C,R25*%
X132470000Y-81480000D03*
X131450000Y-81480000D03*
%TD*%
D18*
%TO.C,JP1*%
X135310000Y-81480000D03*
X136860000Y-81480000D03*
X133760000Y-81480000D03*
%TD*%
D19*
%TO.C,R31*%
X143172926Y-84850000D03*
X144192926Y-84850000D03*
%TD*%
%TO.C,R30*%
X143172926Y-83355567D03*
X144192926Y-83355567D03*
%TD*%
D18*
%TO.C,JP3*%
X135310000Y-80210000D03*
X136860000Y-80210000D03*
X133760000Y-80210000D03*
%TD*%
D16*
%TO.C,JP4*%
X140492683Y-84846654D03*
X138942683Y-84846654D03*
X142042683Y-84846654D03*
%TD*%
%TO.C,JP2*%
X140489214Y-83360000D03*
X138939214Y-83360000D03*
X142039214Y-83360000D03*
%TD*%
D20*
%TO.C,X1*%
X108370000Y-78876000D03*
D21*
X108370000Y-76336000D03*
D20*
X108370000Y-73796000D03*
X105195000Y-78876000D03*
X105195000Y-73796000D03*
D21*
X103290000Y-77352000D03*
X103290000Y-75320000D03*
%TD*%
D18*
%TO.C,JP6*%
X140480000Y-78564800D03*
X142030000Y-78564800D03*
X138930000Y-78564800D03*
%TD*%
D22*
%TO.C,SoM1*%
X97600000Y-108700000D03*
X145600000Y-108700000D03*
X97600000Y-75700000D03*
X145600000Y-75700000D03*
D23*
X114300000Y-110515000D03*
X114300000Y-107805000D03*
X114700000Y-110515000D03*
X114700000Y-107805000D03*
X115100000Y-110515000D03*
X115100000Y-107805000D03*
X115500000Y-110515000D03*
X115500000Y-107805000D03*
X115900000Y-110515000D03*
X115900000Y-107805000D03*
X116300000Y-110515000D03*
X116300000Y-107805000D03*
X116700000Y-110515000D03*
X116700000Y-107805000D03*
X117100000Y-110515000D03*
X117100000Y-107805000D03*
X117500000Y-110515000D03*
X117500000Y-107805000D03*
X117900000Y-110515000D03*
X117900000Y-107805000D03*
X118300000Y-110515000D03*
X118300000Y-107805000D03*
X118700000Y-110515000D03*
X118700000Y-107805000D03*
X119100000Y-110515000D03*
X119100000Y-107805000D03*
X119500000Y-110515000D03*
X119500000Y-107805000D03*
X119900000Y-110515000D03*
X119900000Y-107805000D03*
X120300000Y-110515000D03*
X120300000Y-107805000D03*
X120700000Y-110515000D03*
X120700000Y-107805000D03*
X121100000Y-110515000D03*
X121100000Y-107805000D03*
X121500000Y-110515000D03*
X121500000Y-107805000D03*
X121900000Y-110515000D03*
X121900000Y-107805000D03*
X122300000Y-110515000D03*
X122300000Y-107805000D03*
X122700000Y-110515000D03*
X122700000Y-107805000D03*
X123100000Y-110515000D03*
X123100000Y-107805000D03*
X123500000Y-110515000D03*
X123500000Y-107805000D03*
X123900000Y-110515000D03*
X123900000Y-107805000D03*
X124300000Y-110515000D03*
X124300000Y-107805000D03*
X124700000Y-110515000D03*
X124700000Y-107805000D03*
X125100000Y-110515000D03*
X125100000Y-107805000D03*
X125500000Y-110515000D03*
X125500000Y-107805000D03*
X125900000Y-110515000D03*
X125900000Y-107805000D03*
X126300000Y-110515000D03*
X126300000Y-107805000D03*
X126700000Y-110515000D03*
X126700000Y-107805000D03*
X127100000Y-110515000D03*
X127100000Y-107805000D03*
X127500000Y-110515000D03*
X127500000Y-107805000D03*
X127900000Y-110515000D03*
X127900000Y-107805000D03*
X128300000Y-110515000D03*
X128300000Y-107805000D03*
X128700000Y-110515000D03*
X128700000Y-107805000D03*
X129100000Y-110515000D03*
X129100000Y-107805000D03*
X129500000Y-110515000D03*
X129500000Y-107805000D03*
X129900000Y-110515000D03*
X129900000Y-107805000D03*
X130300000Y-110515000D03*
X130300000Y-107805000D03*
X130700000Y-110515000D03*
X130700000Y-107805000D03*
X131100000Y-110515000D03*
X131100000Y-107805000D03*
X131500000Y-110515000D03*
X131500000Y-107805000D03*
X131900000Y-110515000D03*
X131900000Y-107805000D03*
X132300000Y-110515000D03*
X132300000Y-107805000D03*
X132700000Y-110515000D03*
X132700000Y-107805000D03*
X133100000Y-110515000D03*
X133100000Y-107805000D03*
X133500000Y-110515000D03*
X133500000Y-107805000D03*
X133900000Y-110515000D03*
X133900000Y-107805000D03*
X114300000Y-76595000D03*
X114300000Y-73885000D03*
X114700000Y-76595000D03*
X114700000Y-73885000D03*
X115100000Y-76595000D03*
X115100000Y-73885000D03*
X115500000Y-76595000D03*
X115500000Y-73885000D03*
X115900000Y-76595000D03*
X115900000Y-73885000D03*
X116300000Y-76595000D03*
X116300000Y-73885000D03*
X116700000Y-76595000D03*
X116700000Y-73885000D03*
X117100000Y-76595000D03*
X117100000Y-73885000D03*
X117500000Y-76595000D03*
X117500000Y-73885000D03*
X117900000Y-76595000D03*
X117900000Y-73885000D03*
X118300000Y-76595000D03*
X118300000Y-73885000D03*
X118700000Y-76595000D03*
X118700000Y-73885000D03*
X119100000Y-76595000D03*
X119100000Y-73885000D03*
X119500000Y-76595000D03*
X119500000Y-73885000D03*
X119900000Y-76595000D03*
X119900000Y-73885000D03*
X120300000Y-76595000D03*
X120300000Y-73885000D03*
X120700000Y-76595000D03*
X120700000Y-73885000D03*
X121100000Y-76595000D03*
X121100000Y-73885000D03*
X121500000Y-76595000D03*
X121500000Y-73885000D03*
X121900000Y-76595000D03*
X121900000Y-73885000D03*
X122300000Y-76595000D03*
X122300000Y-73885000D03*
X122700000Y-76595000D03*
X122700000Y-73885000D03*
X123100000Y-76595000D03*
X123100000Y-73885000D03*
X123500000Y-76595000D03*
X123500000Y-73885000D03*
X123900000Y-76595000D03*
X123900000Y-73885000D03*
X124300000Y-76595000D03*
X124300000Y-73885000D03*
X124700000Y-76595000D03*
X124700000Y-73885000D03*
X125100000Y-76595000D03*
X125100000Y-73885000D03*
X125500000Y-76595000D03*
X125500000Y-73885000D03*
X125900000Y-76595000D03*
X125900000Y-73885000D03*
X126300000Y-76595000D03*
X126300000Y-73885000D03*
X126700000Y-76595000D03*
X126700000Y-73885000D03*
X127100000Y-76595000D03*
X127100000Y-73885000D03*
X127500000Y-76595000D03*
X127500000Y-73885000D03*
X127900000Y-76595000D03*
X127900000Y-73885000D03*
X128300000Y-76595000D03*
X128300000Y-73885000D03*
X128700000Y-76595000D03*
X128700000Y-73885000D03*
X129100000Y-76595000D03*
X129100000Y-73885000D03*
X129500000Y-76595000D03*
X129500000Y-73885000D03*
X129900000Y-76595000D03*
X129900000Y-73885000D03*
X130300000Y-76595000D03*
X130300000Y-73885000D03*
X130700000Y-76595000D03*
X130700000Y-73885000D03*
X131100000Y-76595000D03*
X131100000Y-73885000D03*
X131500000Y-76595000D03*
X131500000Y-73885000D03*
X131900000Y-76595000D03*
X131900000Y-73885000D03*
X132300000Y-76595000D03*
X132300000Y-73885000D03*
X132700000Y-76595000D03*
X132700000Y-73885000D03*
X133100000Y-76595000D03*
X133100000Y-73885000D03*
X133500000Y-76595000D03*
X133500000Y-73885000D03*
X133900000Y-76595000D03*
X133900000Y-73885000D03*
D24*
X113825000Y-110515000D03*
X134375000Y-110515000D03*
X113825000Y-107805000D03*
X134375000Y-107805000D03*
X113825000Y-76595000D03*
X134375000Y-76595000D03*
X113825000Y-73885000D03*
X134375000Y-73885000D03*
%TD*%
D25*
%TO.C,C14*%
X120620002Y-92783012D03*
X120620002Y-93743012D03*
%TD*%
D26*
%TO.C,Y2*%
X104675700Y-108900000D03*
X106875700Y-108900000D03*
X106875700Y-110500000D03*
X104675700Y-110500000D03*
%TD*%
D27*
%TO.C,C62*%
X100358614Y-85020000D03*
X100358614Y-84060000D03*
%TD*%
D25*
%TO.C,C53*%
X96700000Y-86600000D03*
X96700000Y-87560000D03*
%TD*%
D28*
%TO.C,C16*%
X118300000Y-100513012D03*
X117340000Y-100513012D03*
%TD*%
D18*
%TO.C,C79*%
X132315000Y-90160000D03*
X133865000Y-90160000D03*
%TD*%
D29*
%TO.C,C65*%
X118085227Y-80030000D03*
X119045227Y-80030000D03*
%TD*%
D25*
%TO.C,C54*%
X97620000Y-86600000D03*
X97620000Y-87560000D03*
%TD*%
D29*
%TO.C,C11*%
X121510002Y-93343012D03*
X122470002Y-93343012D03*
%TD*%
D28*
%TO.C,C52*%
X107735700Y-107310000D03*
X106775700Y-107310000D03*
%TD*%
D30*
%TO.C,C15*%
X119810000Y-102860000D03*
X119810000Y-101310000D03*
%TD*%
D16*
%TO.C,C17*%
X119920000Y-99250000D03*
X118370000Y-99250000D03*
%TD*%
D29*
%TO.C,C31*%
X123600000Y-94260000D03*
X124560000Y-94260000D03*
%TD*%
D31*
%TO.C,C60*%
X129980000Y-100365000D03*
X129980000Y-101915000D03*
%TD*%
D17*
%TO.C,R19*%
X135460000Y-99020000D03*
X134440000Y-99020000D03*
%TD*%
D25*
%TO.C,C59*%
X131170000Y-100090000D03*
X131170000Y-101050000D03*
%TD*%
D19*
%TO.C,R17*%
X108630000Y-111060000D03*
X109650000Y-111060000D03*
%TD*%
D29*
%TO.C,C45*%
X103815700Y-107310000D03*
X104775700Y-107310000D03*
%TD*%
D30*
%TO.C,C4*%
X111950000Y-93575000D03*
X111950000Y-92025000D03*
%TD*%
D27*
%TO.C,C25*%
X121540002Y-92453012D03*
X121540002Y-91493012D03*
%TD*%
D19*
%TO.C,R16*%
X108630000Y-109810000D03*
X109650000Y-109810000D03*
%TD*%
D27*
%TO.C,C35*%
X119120002Y-90833012D03*
X119120002Y-89873012D03*
%TD*%
D25*
%TO.C,C19*%
X121630000Y-95330000D03*
X121630000Y-96290000D03*
%TD*%
D27*
%TO.C,C12*%
X120710000Y-96290000D03*
X120710000Y-95330000D03*
%TD*%
D25*
%TO.C,C32*%
X120780000Y-97160000D03*
X120780000Y-98120000D03*
%TD*%
D27*
%TO.C,C9*%
X119550000Y-96300000D03*
X119550000Y-95340000D03*
%TD*%
%TO.C,C61*%
X101280000Y-85020000D03*
X101280000Y-84060000D03*
%TD*%
%TO.C,C57*%
X132850000Y-96315000D03*
X132850000Y-95355000D03*
%TD*%
D30*
%TO.C,C58*%
X131660000Y-96050000D03*
X131660000Y-94500000D03*
%TD*%
D27*
%TO.C,C36*%
X120620002Y-90843012D03*
X120620002Y-89883012D03*
%TD*%
D28*
%TO.C,C5*%
X117740000Y-95630000D03*
X116780000Y-95630000D03*
%TD*%
D18*
%TO.C,C66*%
X118355227Y-81230000D03*
X119905227Y-81230000D03*
%TD*%
D25*
%TO.C,C28*%
X118760002Y-97163012D03*
X118760002Y-98123012D03*
%TD*%
D31*
%TO.C,C64*%
X115525227Y-79395000D03*
X115525227Y-80945000D03*
%TD*%
D32*
%TO.C,FB5*%
X134020000Y-91800000D03*
X132320000Y-91800000D03*
%TD*%
D25*
%TO.C,C37*%
X119700002Y-92783012D03*
X119700002Y-93743012D03*
%TD*%
D33*
%TO.C,L1*%
X116347202Y-101983012D03*
X118430002Y-101983012D03*
%TD*%
D28*
%TO.C,C20*%
X120650002Y-91893012D03*
X119690002Y-91893012D03*
%TD*%
D27*
%TO.C,C24*%
X115500000Y-93750000D03*
X115500000Y-92790000D03*
%TD*%
%TO.C,C7*%
X116870000Y-93740000D03*
X116870000Y-92780000D03*
%TD*%
%TO.C,C23*%
X115730000Y-96303012D03*
X115730000Y-95343012D03*
%TD*%
D34*
%TO.C,Y1*%
X125450000Y-101270000D03*
X125450000Y-99070000D03*
X127050000Y-99070000D03*
X127050000Y-101270000D03*
%TD*%
D27*
%TO.C,C34*%
X123660000Y-102180000D03*
X123660000Y-101220000D03*
%TD*%
D25*
%TO.C,C63*%
X114331660Y-80260000D03*
X114331660Y-81220000D03*
%TD*%
D29*
%TO.C,C13*%
X121510002Y-94263012D03*
X122470002Y-94263012D03*
%TD*%
%TO.C,C30*%
X123600000Y-95290000D03*
X124560000Y-95290000D03*
%TD*%
D25*
%TO.C,C21*%
X117790000Y-92780000D03*
X117790000Y-93740000D03*
%TD*%
D27*
%TO.C,C55*%
X104010000Y-88951302D03*
X104010000Y-87991302D03*
%TD*%
D25*
%TO.C,C67*%
X115565227Y-83610000D03*
X115565227Y-84570000D03*
%TD*%
D27*
%TO.C,C56*%
X103090000Y-88951302D03*
X103090000Y-87991302D03*
%TD*%
D25*
%TO.C,C22*%
X116800000Y-97150000D03*
X116800000Y-98110000D03*
%TD*%
D35*
%TO.C,FB1*%
X121700000Y-101160000D03*
X121700000Y-102860000D03*
%TD*%
D28*
%TO.C,C6*%
X117730000Y-94710000D03*
X116770000Y-94710000D03*
%TD*%
D30*
%TO.C,C38*%
X120800000Y-88175000D03*
X120800000Y-86625000D03*
%TD*%
%TO.C,C27*%
X122700000Y-88175000D03*
X122700000Y-86625000D03*
%TD*%
D25*
%TO.C,C33*%
X121650000Y-97160000D03*
X121650000Y-98120000D03*
%TD*%
D28*
%TO.C,C71*%
X136600000Y-93830000D03*
X135640000Y-93830000D03*
%TD*%
D29*
%TO.C,C43*%
X100880000Y-102670000D03*
X101840000Y-102670000D03*
%TD*%
D25*
%TO.C,C39*%
X123740000Y-98270000D03*
X123740000Y-99230000D03*
%TD*%
D27*
%TO.C,C8*%
X118630000Y-96300000D03*
X118630000Y-95340000D03*
%TD*%
D25*
%TO.C,C40*%
X114050000Y-101730000D03*
X114050000Y-102690000D03*
%TD*%
D17*
%TO.C,R13*%
X105320000Y-102870000D03*
X104300000Y-102870000D03*
%TD*%
D29*
%TO.C,C26*%
X123330000Y-93150000D03*
X124290000Y-93150000D03*
%TD*%
D25*
%TO.C,C10*%
X118780002Y-92783012D03*
X118780002Y-93743012D03*
%TD*%
%TO.C,C29*%
X117830000Y-97170000D03*
X117830000Y-98130000D03*
%TD*%
D31*
%TO.C,C68*%
X116755227Y-83885000D03*
X116755227Y-85435000D03*
%TD*%
%LPD*%
M02*
