M48
; DRILL file {KiCad 9.0.6-9.0.6~ubuntu24.04.1} date 2025-11-04T08:15:42+0100
; FORMAT={-:-/ absolute / inch / decimal}
; #@! TF.CreationDate,2025-11-04T08:15:42+01:00
; #@! TF.GenerationSoftware,Kicad,Pcbnew,9.0.6-9.0.6~ubuntu24.04.1
; #@! TF.FileFunction,Plated,1,5,Blind
FMAT,2
INCH
; #@! TA.AperFunction,Plated,Buried,ViaDrill
T1C0.0118
%
G90
G05
T1
X3.9291Y-3.3
X3.9291Y-3.3305
X3.9291Y-3.361
X3.9307Y-4.0004
X3.9834Y-4.2185
X4.0443Y-3.6351
X5.5136Y-3.9919
X5.5593Y-3.9472
X5.5593Y-4.0079
X5.6877Y-3.8984
X5.6877Y-3.9248
X5.6877Y-3.9512
X5.6877Y-3.9776
X5.6877Y-4.0039
X5.6877Y-4.0303
X5.6877Y-4.0567
X5.7169Y-3.8984
X5.7169Y-3.9248
X5.7169Y-3.9512
X5.7169Y-3.9776
X5.7169Y-4.0039
X5.7169Y-4.0303
X5.7169Y-4.0567
M30
