M48
; DRILL file {KiCad 9.0.6-9.0.6~ubuntu24.04.1} date 2025-11-04T08:15:42+0100
; FORMAT={-:-/ absolute / inch / decimal}
; #@! TF.CreationDate,2025-11-04T08:15:42+01:00
; #@! TF.GenerationSoftware,Kicad,Pcbnew,9.0.6-9.0.6~ubuntu24.04.1
; #@! TF.FileFunction,Plated,2,6,Blind
FMAT,2
INCH
; #@! TA.AperFunction,Plated,Buried,ViaDrill
T1C0.0079
; #@! TA.AperFunction,Plated,Buried,ViaDrill
T2C0.0118
%
G90
G05
T1
X4.5869Y-4.3316
X4.8307Y-2.9224
X4.8317Y-4.3224
X4.878Y-2.9232
X4.9252Y-2.9232
X4.9724Y-2.9232
X5.0197Y-2.9232
X5.0669Y-2.9232
X5.1142Y-2.9232
X5.161Y-2.9232
X5.2083Y-2.9232
T2
X4.5004Y-4.3295
X4.5472Y-2.9252
X4.5945Y-2.9252
X4.6417Y-2.9252
X4.6608Y-4.3295
X4.689Y-2.9252
X4.7362Y-2.9252
X4.7603Y-4.3287
X4.7835Y-2.8783
X4.9093Y-4.3853
X4.9571Y-4.3295
X5.0039Y-4.3295
X5.0512Y-4.3295
X5.2005Y-4.3304
X5.2559Y-2.8783
M30
